<svg width="20" height="20" viewBox="0 0 20 20" fill="none" xmlns="http://www.w3.org/2000/svg">
<circle cx="9.74116" cy="9.74116" r="9.74116" fill="#A5DAE5"/>
<path fill-rule="evenodd" clip-rule="evenodd" d="M13.4468 5.89824V7.62359C13.6554 7.62359 13.8619 7.66467 14.0546 7.74449C14.2473 7.82431 14.4224 7.9413 14.5699 8.08878C14.7174 8.23626 14.8343 8.41134 14.9142 8.60404C14.994 8.79673 15.0351 9.00326 15.0351 9.21183C15.0351 9.4204 14.994 9.62692 14.9142 9.81962C14.8343 10.0123 14.7174 10.1874 14.5699 10.3349C14.4224 10.4824 14.2473 10.5993 14.0546 10.6792C13.8619 10.759 13.6554 10.8001 13.4468 10.8001V12.3883C13.4468 13.2608 12.451 13.7589 11.7527 13.2353L10.6621 12.4169C10.0792 11.9798 9.40041 11.6879 8.68213 11.5656V13.0712C8.68219 13.4173 8.55713 13.7518 8.33002 14.0129C8.1029 14.2741 7.78904 14.4444 7.44628 14.4923C7.10352 14.5403 6.75498 14.4627 6.46489 14.274C6.17481 14.0852 5.96274 13.7979 5.86778 13.4651L5.0366 10.5555C4.7375 10.2022 4.54284 9.77259 4.47452 9.3148C4.4062 8.85702 4.46692 8.38925 4.64986 7.96408C4.8328 7.53891 5.1307 7.17319 5.51008 6.90804C5.88946 6.64289 6.33528 6.48881 6.79743 6.46313L8.39519 6.37418C9.17693 6.33068 9.93717 6.10225 10.6134 5.70766L11.8544 4.98342C12.5606 4.57207 13.4468 5.08083 13.4468 5.89824ZM6.37072 11.3708L6.88584 13.1745C6.91063 13.2618 6.96617 13.3372 7.04221 13.3867C7.11825 13.4363 7.20965 13.4566 7.29954 13.444C7.38942 13.4315 7.47171 13.3868 7.53122 13.3183C7.59074 13.2497 7.62344 13.162 7.62331 13.0712V11.4777L6.79743 11.4316C6.6537 11.4237 6.51094 11.4033 6.37072 11.3708ZM12.388 5.89824L11.1465 6.62301C10.3923 7.06265 9.55132 7.33257 8.68213 7.41395V10.4946C9.62819 10.6248 10.5287 10.9938 11.2974 11.5698L12.388 12.3883V5.89824ZM7.62331 7.47748L6.85566 7.51983C6.49854 7.53955 6.1618 7.69243 5.91189 7.94829C5.66198 8.20416 5.51707 8.54441 5.50577 8.9019C5.49447 9.25938 5.61759 9.60811 5.85084 9.87925C6.08408 10.1504 6.4105 10.3242 6.76566 10.3665L6.85566 10.3744L7.62331 10.4168V7.47748ZM13.4468 8.68242V9.74124C13.5818 9.74109 13.7115 9.68942 13.8097 9.59679C13.9078 9.50416 13.9668 9.37756 13.9747 9.24285C13.9826 9.10815 13.9388 8.97551 13.8522 8.87203C13.7656 8.76856 13.6428 8.70206 13.5088 8.68612L13.4468 8.68242Z" fill="#53BCD2"/>
</svg>
