<svg width="28" height="28" viewBox="0 0 28 28" fill="none" xmlns="http://www.w3.org/2000/svg">
<path d="M25.5729 7.72333C25.4545 7.43826 25.228 7.21172 24.9429 7.09333C24.8027 7.03355 24.6521 7.00184 24.4996 7H18.6663C18.3568 7 18.0601 7.12292 17.8413 7.34171C17.6225 7.5605 17.4996 7.85725 17.4996 8.16667C17.4996 8.47609 17.6225 8.77283 17.8413 8.99162C18.0601 9.21042 18.3568 9.33333 18.6663 9.33333H21.6879L15.1663 15.855L11.3279 12.005C11.2195 11.8956 11.0904 11.8089 10.9483 11.7496C10.8061 11.6904 10.6536 11.6599 10.4996 11.6599C10.3456 11.6599 10.1931 11.6904 10.0509 11.7496C9.90876 11.8089 9.77973 11.8956 9.67127 12.005L2.67127 19.005C2.56192 19.1135 2.47513 19.2425 2.4159 19.3847C2.35667 19.5268 2.32617 19.6793 2.32617 19.8333C2.32617 19.9873 2.35667 20.1398 2.4159 20.282C2.47513 20.4242 2.56192 20.5532 2.67127 20.6617C2.77973 20.771 2.90876 20.8578 3.05093 20.917C3.1931 20.9763 3.34559 21.0068 3.4996 21.0068C3.65362 21.0068 3.80611 20.9763 3.94828 20.917C4.09045 20.8578 4.21948 20.771 4.32794 20.6617L10.4996 14.4783L14.3379 18.3283C14.4464 18.4377 14.5754 18.5245 14.7176 18.5837C14.8598 18.6429 15.0123 18.6734 15.1663 18.6734C15.3203 18.6734 15.4728 18.6429 15.6149 18.5837C15.7571 18.5245 15.8861 18.4377 15.9946 18.3283L23.3329 10.9783V14C23.3329 14.3094 23.4559 14.6062 23.6746 14.825C23.8934 15.0437 24.1902 15.1667 24.4996 15.1667C24.809 15.1667 25.1058 15.0437 25.3246 14.825C25.5434 14.6062 25.6663 14.3094 25.6663 14V8.16667C25.6644 8.01421 25.6327 7.86359 25.5729 7.72333Z" fill="#7367F0"/>
</svg>
