<svg width="19" height="21" viewBox="0 0 19 21" fill="none" xmlns="http://www.w3.org/2000/svg">
<path d="M16.6053 10.4781C16.6053 10.6472 16.5428 10.8094 16.4316 10.929C16.3204 11.0486 16.1695 11.1158 16.0122 11.1158H4.39668L8.72221 15.7665C8.77731 15.8257 8.82102 15.8961 8.85084 15.9735C8.88066 16.0509 8.89601 16.1339 8.89601 16.2177C8.89601 16.3015 8.88066 16.3844 8.85084 16.4619C8.82102 16.5393 8.77731 16.6096 8.72221 16.6689C8.66711 16.7281 8.6017 16.7751 8.52971 16.8072C8.45772 16.8393 8.38056 16.8558 8.30263 16.8558C8.22471 16.8558 8.14755 16.8393 8.07556 16.8072C8.00357 16.7751 7.93815 16.7281 7.88305 16.6689L2.54564 10.9293C2.4905 10.87 2.44675 10.7997 2.41691 10.7223C2.38707 10.6448 2.3717 10.5619 2.3717 10.4781C2.3717 10.3942 2.38707 10.3113 2.41691 10.2338C2.44675 10.1564 2.4905 10.0861 2.54564 10.0269L7.88305 4.28723C7.99433 4.16757 8.14526 4.10034 8.30263 4.10034C8.46001 4.10034 8.61093 4.16757 8.72221 4.28723C8.83349 4.4069 8.89601 4.5692 8.89601 4.73843C8.89601 4.90766 8.83349 5.06996 8.72221 5.18963L4.39668 9.84032H16.0122C16.1695 9.84032 16.3204 9.90751 16.4316 10.0271C16.5428 10.1467 16.6053 10.3089 16.6053 10.4781Z" fill="#7367F0"/>
</svg>
