<svg width="16" height="16" viewBox="0 0 16 16" fill="none" xmlns="http://www.w3.org/2000/svg">
<path fill-rule="evenodd" clip-rule="evenodd" d="M7.54089 2.3658C9.86336 2.37695 11.7371 4.26872 11.7259 6.59119L11.702 11.5751C11.6941 13.2095 10.3629 14.528 8.72855 14.5202C7.09422 14.5123 5.77569 13.1811 5.78354 11.5467L5.80789 6.47378C5.81243 5.52759 6.58316 4.76423 7.52935 4.76877C8.47554 4.77332 9.2389 5.54404 9.23436 6.49023L9.21086 11.3852C9.20962 11.6432 8.99942 11.8514 8.74137 11.8502C8.48331 11.8489 8.27513 11.6387 8.27637 11.3807L8.29987 6.48574C8.30193 6.05566 7.95495 5.70533 7.52486 5.70326C7.09478 5.7012 6.74445 6.04818 6.74238 6.47827L6.71803 11.5512C6.71266 12.6694 7.61481 13.5803 8.73304 13.5857C9.85126 13.591 10.7621 12.6889 10.7675 11.5707L10.7914 6.58671C10.8001 4.78034 9.34277 3.30896 7.5364 3.30029C5.73003 3.29161 4.25865 4.74893 4.24998 6.5553L4.22691 11.3613C4.22567 11.6193 4.01547 11.8275 3.75742 11.8263C3.49937 11.825 3.29118 11.6148 3.29242 11.3568L3.31549 6.55082C3.32664 4.22834 5.21841 2.35465 7.54089 2.3658Z" fill="#C9C9C9"/>
</svg>
