<svg width="83" height="28" viewBox="0 0 83 28" fill="none" xmlns="http://www.w3.org/2000/svg">
<rect opacity="0.5" x="1" width="20.234" height="16.9966" rx="6.47489" fill="#0FF4A1" fill-opacity="0.3"/>
<g filter="url(#filter0_d_278_3146)">
<path d="M11.1678 3.85041C10.594 3.84229 10.0242 3.94831 9.49164 4.16231C8.9591 4.37631 8.47439 4.69401 8.0657 5.09696C7.65701 5.49992 7.33248 5.98008 7.11097 6.50954C6.88946 7.03901 6.77539 7.60722 6.77539 8.18115C6.77539 8.75509 6.88946 9.3233 7.11097 9.85276C7.33248 10.3822 7.65701 10.8624 8.0657 11.2653C8.47439 11.6683 8.9591 11.986 9.49164 12.2C10.0242 12.414 10.594 12.52 11.1678 12.5119C12.3058 12.4958 13.3917 12.0324 14.1908 11.222C14.9898 10.4116 15.4377 9.31924 15.4377 8.18115C15.4377 7.04307 14.9898 5.95071 14.1908 5.14029C13.3917 4.32986 12.3058 3.86651 11.1678 3.85041ZM7.70324 8.18159C7.69597 7.72206 7.7802 7.26567 7.95103 6.83901C8.12186 6.41235 8.37586 6.02394 8.69826 5.6964C9.02066 5.36887 9.405 5.10875 9.82891 4.93119C10.2528 4.75364 10.7078 4.6622 11.1674 4.6622C11.627 4.6622 12.082 4.75364 12.5059 4.93119C12.9298 5.10875 13.3141 5.36887 13.6365 5.6964C13.9589 6.02394 14.2129 6.41235 14.3838 6.83901C14.5546 7.26567 14.6388 7.72206 14.6316 8.18159C14.6172 9.09085 14.2459 9.95801 13.5978 10.5959C12.9497 11.2339 12.0768 11.5914 11.1674 11.5914C10.258 11.5914 9.3851 11.2339 8.73701 10.5959C8.08892 9.95801 7.71762 9.09085 7.70324 8.18159ZM12.9929 6.79332C13.0332 6.83357 13.0652 6.88139 13.0871 6.93403C13.1089 6.98667 13.1201 7.0431 13.1201 7.10009C13.1201 7.15708 13.1089 7.21352 13.0871 7.26616C13.0652 7.3188 13.0332 7.36661 12.9929 7.40686L11.043 9.35667C11.0028 9.39702 10.955 9.42904 10.9023 9.45088C10.8497 9.47272 10.7933 9.48397 10.7363 9.48397C10.6793 9.48397 10.6228 9.47272 10.5702 9.45088C10.5176 9.42904 10.4698 9.39702 10.4295 9.35667L9.56292 8.49009C9.48156 8.40873 9.43585 8.29838 9.43585 8.18332C9.43585 8.06826 9.48156 7.95791 9.56292 7.87655C9.64428 7.79519 9.75463 7.74948 9.86969 7.74948C9.98475 7.74948 10.0951 7.79519 10.1765 7.87655L10.7363 8.43723L12.3793 6.79332C12.4196 6.75297 12.4674 6.72096 12.52 6.69911C12.5727 6.67727 12.6291 6.66603 12.6861 6.66603C12.7431 6.66603 12.7995 6.67727 12.8521 6.69911C12.9048 6.72096 12.9526 6.75297 12.9929 6.79332Z" fill="#4FF600"/>
</g>
<path d="M28.7403 12L31.9935 2.95361H33.6389L36.8858 12H35.3593L34.5523 9.72902H31.0989L30.2731 12H28.7403ZM31.4492 8.37769H34.1769L32.8193 4.43632L31.4492 8.37769ZM42.7197 5.53115L40.3361 12H39.1349L36.745 5.53115H38.1402L39.6917 10.0606H39.773L41.3183 5.53115H42.7197ZM45.3931 12.1251C44.9802 12.1251 44.609 12.05 44.2795 11.8999C43.9542 11.7456 43.6977 11.5266 43.51 11.243C43.3265 10.9552 43.2347 10.607 43.2347 10.1982C43.2347 9.48503 43.4912 8.947 44.0042 8.58414C44.5214 8.22129 45.3451 8.03152 46.4754 8.01484L47.4388 7.98981V7.55188C47.4388 7.20988 47.3367 6.94295 47.1323 6.75109C46.9321 6.55507 46.6193 6.45914 46.1939 6.46331C45.8811 6.46748 45.5933 6.54256 45.3305 6.68853C45.0719 6.83034 44.9009 7.07016 44.8175 7.40799H43.5225C43.5475 6.96589 43.6747 6.59678 43.9041 6.30065C44.1377 6.00036 44.4567 5.77722 44.8613 5.63124C45.2659 5.4811 45.733 5.40602 46.2627 5.40602C46.88 5.40602 47.3825 5.48735 47.7704 5.65001C48.1583 5.81267 48.444 6.04832 48.6275 6.35696C48.811 6.66142 48.9028 7.03053 48.9028 7.46429V12H47.6203L47.5014 10.8364C47.2678 11.3243 46.9717 11.6622 46.613 11.8499C46.2585 12.0334 45.8519 12.1251 45.3931 12.1251ZM45.8873 11.0929C46.075 11.0929 46.2606 11.0595 46.4441 10.9928C46.6276 10.9219 46.7945 10.828 46.9446 10.7112C47.0948 10.5903 47.2136 10.4568 47.3012 10.3108C47.393 10.1649 47.4388 10.0126 47.4388 9.85414V8.83439L46.6443 8.8469C46.2523 8.85107 45.9103 8.89278 45.6183 8.97203C45.3263 9.05127 45.097 9.17848 44.9301 9.35365C44.7675 9.52465 44.6861 9.75404 44.6861 10.0418C44.6861 10.3713 44.8008 10.6299 45.0302 10.8176C45.2596 11.0011 45.5453 11.0929 45.8873 11.0929ZM52.254 5.53115V12H50.7901V5.53115H52.254ZM52.2728 2.95987V4.39878H50.7651V2.95987H52.2728ZM56.0183 12.0938C55.6012 12.0938 55.2675 12.0417 55.0173 11.9374C54.767 11.8332 54.5793 11.6934 54.4542 11.5183C54.3291 11.3431 54.2478 11.1471 54.2102 10.9302C54.1727 10.7091 54.1539 10.4839 54.1539 10.2545V2.70337H55.6429V10.0794C55.6429 10.3588 55.6992 10.5757 55.8118 10.73C55.9286 10.8843 56.1163 10.974 56.3749 10.999L56.7002 11.0115V11.9687C56.5876 12.0021 56.4729 12.0313 56.3561 12.0563C56.2393 12.0813 56.1267 12.0938 56.0183 12.0938ZM59.836 12.1251C59.4231 12.1251 59.0519 12.05 58.7224 11.8999C58.3971 11.7456 58.1406 11.5266 57.9529 11.243C57.7694 10.9552 57.6776 10.607 57.6776 10.1982C57.6776 9.48503 57.9341 8.947 58.4471 8.58414C58.9643 8.22129 59.788 8.03152 60.9183 8.01484L61.8817 7.98981V7.55188C61.8817 7.20988 61.7796 6.94295 61.5752 6.75109C61.375 6.55507 61.0622 6.45914 60.6368 6.46331C60.324 6.46748 60.0362 6.54256 59.7734 6.68853C59.5148 6.83034 59.3438 7.07016 59.2604 7.40799H57.9654C57.9904 6.96589 58.1176 6.59678 58.347 6.30065C58.5806 6.00036 58.8996 5.77722 59.3042 5.63124C59.7088 5.4811 60.1759 5.40602 60.7056 5.40602C61.3229 5.40602 61.8254 5.48735 62.2133 5.65001C62.6012 5.81267 62.8869 6.04832 63.0704 6.35696C63.2539 6.66142 63.3457 7.03053 63.3457 7.46429V12H62.0632L61.9443 10.8364C61.7107 11.3243 61.4146 11.6622 61.0559 11.8499C60.7014 12.0334 60.2948 12.1251 59.836 12.1251ZM60.3302 11.0929C60.5179 11.0929 60.7035 11.0595 60.887 10.9928C61.0705 10.9219 61.2374 10.828 61.3875 10.7112C61.5376 10.5903 61.6565 10.4568 61.7441 10.3108C61.8359 10.1649 61.8817 10.0126 61.8817 9.85414V8.83439L61.0872 8.8469C60.6952 8.85107 60.3532 8.89278 60.0612 8.97203C59.7692 9.05127 59.5399 9.17848 59.373 9.35365C59.2104 9.52465 59.129 9.75404 59.129 10.0418C59.129 10.3713 59.2437 10.6299 59.4731 10.8176C59.7025 11.0011 59.9882 11.0929 60.3302 11.0929ZM68.5425 12.1251C68.1963 12.1251 67.9002 12.0792 67.6541 11.9875C67.408 11.8957 67.2016 11.7769 67.0347 11.6309C66.8721 11.4849 66.7407 11.3285 66.6406 11.1617C66.5447 10.9907 66.4717 10.828 66.4216 10.6737L66.2465 12H65.1266V2.70337H66.6531V6.47582C66.7199 6.3507 66.8116 6.22558 66.9284 6.10045C67.0493 5.97533 67.1953 5.86064 67.3663 5.75637C67.5373 5.6521 67.7313 5.56868 67.9481 5.50612C68.1692 5.43939 68.4132 5.40602 68.6801 5.40602C69.4851 5.40602 70.1211 5.69172 70.5882 6.26311C71.0554 6.83451 71.2889 7.65823 71.2889 8.73429C71.2889 9.41413 71.1847 10.0085 70.9761 10.5173C70.7718 11.0261 70.4652 11.4223 70.0565 11.706C69.6519 11.9854 69.1472 12.1251 68.5425 12.1251ZM68.2297 11.0053C68.6843 11.0053 69.0576 10.8238 69.3495 10.461C69.6415 10.0981 69.7875 9.51005 69.7875 8.69676C69.7875 7.98773 69.6498 7.45178 69.3745 7.08893C69.0993 6.7219 68.7114 6.53838 68.2109 6.53838C67.8522 6.53838 67.5582 6.61971 67.3288 6.78237C67.1036 6.94503 66.9346 7.18694 66.822 7.50809C66.7136 7.82924 66.6573 8.22546 66.6531 8.69676C66.6531 9.52257 66.7782 10.1148 67.0285 10.4735C67.2829 10.828 67.6833 11.0053 68.2297 11.0053ZM74.5057 12.0938C74.0886 12.0938 73.7549 12.0417 73.5047 11.9374C73.2544 11.8332 73.0667 11.6934 72.9416 11.5183C72.8165 11.3431 72.7352 11.1471 72.6976 10.9302C72.6601 10.7091 72.6413 10.4839 72.6413 10.2545V2.70337H74.1303V10.0794C74.1303 10.3588 74.1866 10.5757 74.2992 10.73C74.416 10.8843 74.6037 10.974 74.8623 10.999L75.1876 11.0115V11.9687C75.075 12.0021 74.9603 12.0313 74.8435 12.0563C74.7267 12.0813 74.6141 12.0938 74.5057 12.0938ZM77.6608 9.11592C77.6566 9.48294 77.715 9.80826 77.836 10.0919C77.9569 10.3755 78.1363 10.5986 78.374 10.7613C78.6117 10.9198 78.9058 10.999 79.2561 10.999C79.6148 10.999 79.9255 10.9198 80.1883 10.7613C80.4552 10.5986 80.6325 10.3525 80.7201 10.0231H82.1152C82.0401 10.4735 81.8608 10.8551 81.5772 11.1679C81.2935 11.4807 80.9495 11.7185 80.5449 11.8811C80.1445 12.0438 79.7274 12.1251 79.2937 12.1251C78.6681 12.1251 78.1175 11.9937 77.642 11.731C77.1707 11.4641 76.8016 11.0845 76.5347 10.5924C76.2719 10.1002 76.1406 9.51422 76.1406 8.83439C76.1406 8.17124 76.2615 7.58316 76.5034 7.07016C76.7453 6.55298 77.0936 6.14633 77.5482 5.85021C78.007 5.55408 78.5575 5.40602 79.1998 5.40602C79.8379 5.40602 80.3739 5.54157 80.8077 5.81267C81.2456 6.08377 81.5751 6.46331 81.7961 6.95129C82.0213 7.4351 82.134 8.00232 82.134 8.65296V9.11592H77.6608ZM77.6608 8.17124H80.695C80.695 7.85843 80.6408 7.5769 80.5324 7.32666C80.4239 7.07224 80.2571 6.87205 80.0319 6.72607C79.8108 6.57592 79.5314 6.50085 79.1936 6.50085C78.8599 6.50085 78.5784 6.58218 78.349 6.74484C78.1196 6.9075 77.9465 7.11812 77.8297 7.37671C77.7129 7.63112 77.6566 7.89597 77.6608 8.17124Z" fill="#86848C"/>
<path d="M29.745 25.3622V19.9145H28.4264V19.2745C28.837 19.2745 29.1595 19.2424 29.3937 19.1782C29.6311 19.1108 29.8011 19.013 29.9038 18.8847C30.0097 18.7531 30.069 18.5927 30.0818 18.4034H30.7989V25.3622H29.745Z" fill="#B8B7BD"/>
<defs>
<filter id="filter0_d_278_3146" x="0.475496" y="1.48752" width="21.2619" height="21.2621" filterUnits="userSpaceOnUse" color-interpolation-filters="sRGB">
<feFlood flood-opacity="0" result="BackgroundImageFix"/>
<feColorMatrix in="SourceAlpha" type="matrix" values="0 0 0 0 0 0 0 0 0 0 0 0 0 0 0 0 0 0 127 0" result="hardAlpha"/>
<feOffset dy="3.93743"/>
<feGaussianBlur stdDeviation="3.14995"/>
<feComposite in2="hardAlpha" operator="out"/>
<feColorMatrix type="matrix" values="0 0 0 0 0 0 0 0 0 0 0 0 0 0 0 0 0 0 0.1 0"/>
<feBlend mode="normal" in2="BackgroundImageFix" result="effect1_dropShadow_278_3146"/>
<feBlend mode="normal" in="SourceGraphic" in2="effect1_dropShadow_278_3146" result="shape"/>
</filter>
</defs>
</svg>
