<svg width="13" height="13" viewBox="0 0 13 13" fill="none" xmlns="http://www.w3.org/2000/svg">
<path fill-rule="evenodd" clip-rule="evenodd" d="M6.46663 0.677002H6.52296C7.00992 0.677002 7.41563 0.677002 7.73738 0.720335C8.07754 0.765835 8.38467 0.866585 8.63113 1.11304C8.87813 1.36004 8.97888 1.66717 9.02437 2.00679C9.05688 2.24513 9.065 2.52896 9.06717 2.85721C9.41817 2.86859 9.73125 2.88971 10.0097 2.92654C10.6445 3.01213 11.1585 3.19196 11.5642 3.59713C11.9694 4.00284 12.1493 4.51688 12.2348 5.15171C12.3177 5.76921 12.3177 6.55734 12.3177 7.55292V7.61359C12.3177 8.60917 12.3177 9.39784 12.2348 10.0148C12.1493 10.6496 11.9694 11.1637 11.5642 11.5694C11.1585 11.9745 10.6445 12.1544 10.0097 12.24C9.39217 12.3228 8.60404 12.3228 7.60846 12.3228H5.38113C4.38554 12.3228 3.59688 12.3228 2.97992 12.24C2.34508 12.1544 1.83104 11.9745 1.42533 11.5694C1.02017 11.1637 0.840333 10.6496 0.75475 10.0148C0.671875 9.39729 0.671875 8.60917 0.671875 7.61359V7.55292C0.671875 6.55734 0.671875 5.76867 0.75475 5.15171C0.840333 4.51688 1.02017 4.00284 1.42533 3.59713C1.83104 3.19196 2.34508 3.01213 2.97992 2.92654C3.29274 2.88781 3.60729 2.86467 3.92242 2.85721C3.92458 2.52896 3.93325 2.24513 3.96521 2.00679C4.01071 1.66717 4.11146 1.36004 4.35792 1.11304C4.60492 0.866585 4.91204 0.766377 5.25167 0.720335C5.57396 0.677002 5.98021 0.677002 6.46663 0.677002ZM4.73546 2.84475C4.94021 2.84367 5.15525 2.84367 5.38113 2.84367H7.60846C7.83433 2.84367 8.04938 2.84367 8.25413 2.84475C8.25196 2.536 8.24438 2.30309 8.21946 2.11513C8.18533 1.86542 8.12738 1.75817 8.05696 1.68775C7.98654 1.61734 7.87929 1.55938 7.62904 1.52525C7.36796 1.49059 7.01696 1.4895 6.49479 1.4895C5.97263 1.4895 5.62162 1.49059 5.36 1.52579C5.11029 1.55938 5.00304 1.61734 4.93263 1.68829C4.86221 1.75871 4.80425 1.86542 4.77012 2.11513C4.74521 2.30254 4.73763 2.53546 4.73546 2.84475ZM3.08771 3.732C2.54279 3.80513 2.22863 3.94271 1.99896 4.17184C1.77038 4.40096 1.63279 4.71513 1.55967 5.26004C1.48492 5.81634 1.48383 6.55029 1.48383 7.58325C1.48383 8.61621 1.48492 9.35017 1.55967 9.907C1.63279 10.4514 1.77038 10.7655 1.9995 10.9947C2.22863 11.2238 2.54279 11.3614 3.08771 11.4345C3.64454 11.5093 4.37796 11.5103 5.41092 11.5103H7.57758C8.61054 11.5103 9.3445 11.5093 9.90133 11.4345C10.4457 11.3614 10.7599 11.2238 10.989 10.9947C11.2181 10.7655 11.3557 10.4514 11.4288 9.90646C11.5036 9.35017 11.5047 8.61621 11.5047 7.58325C11.5047 6.55029 11.5036 5.81688 11.4288 5.2595C11.3557 4.71513 11.2181 4.40096 10.989 4.17184C10.7599 3.94271 10.4457 3.80513 9.90079 3.732C9.3445 3.65725 8.61054 3.65617 7.57758 3.65617H5.41092C4.37796 3.65617 3.64508 3.65725 3.08771 3.732Z" fill="#7367F0"/>
<path d="M9.20573 4.87492C9.20573 5.01858 9.14866 5.15635 9.04708 5.25793C8.9455 5.35952 8.80772 5.41659 8.66406 5.41659C8.5204 5.41659 8.38263 5.35952 8.28105 5.25793C8.17946 5.15635 8.1224 5.01858 8.1224 4.87492C8.1224 4.73126 8.17946 4.59348 8.28105 4.4919C8.38263 4.39032 8.5204 4.33325 8.66406 4.33325C8.80772 4.33325 8.9455 4.39032 9.04708 4.4919C9.14866 4.59348 9.20573 4.73126 9.20573 4.87492ZM4.8724 4.87492C4.8724 5.01858 4.81533 5.15635 4.71375 5.25793C4.61216 5.35952 4.47439 5.41659 4.33073 5.41659C4.18707 5.41659 4.0493 5.35952 3.94771 5.25793C3.84613 5.15635 3.78906 5.01858 3.78906 4.87492C3.78906 4.73126 3.84613 4.59348 3.94771 4.4919C4.0493 4.39032 4.18707 4.33325 4.33073 4.33325C4.47439 4.33325 4.61216 4.39032 4.71375 4.4919C4.81533 4.59348 4.8724 4.73126 4.8724 4.87492Z" fill="#7367F0"/>
</svg>
