<svg width="73" height="74" viewBox="0 0 73 74" fill="none" xmlns="http://www.w3.org/2000/svg">
<rect opacity="0.1" x="0.757324" width="71.379" height="73.869" rx="2.48997" fill="#08F8F8"/>
<g clip-path="url(#clip0_979_4080)">
<path d="M67.3523 56.3688L55.9833 35.3441C57.1431 32.7116 57.792 29.8023 57.792 26.7414C57.792 14.9449 48.2287 5.38257 36.4331 5.38257C24.6346 5.38257 15.0723 14.9459 15.0723 26.7414C15.0723 29.8761 15.7532 32.8505 16.9655 35.5315L5.54588 56.3591C5.17766 57.0283 5.23886 57.854 5.6993 58.465C6.16071 59.0742 6.93976 59.3607 7.68378 59.1859L17.4355 56.9488L20.7732 66.2449C21.0336 66.9676 21.6931 67.4689 22.4576 67.5252C22.5072 67.5291 22.5548 67.5311 22.6014 67.5311C22.9527 67.5309 23.2974 67.4356 23.5988 67.2551C23.9002 67.0746 24.147 66.8158 24.313 66.5062L34.2512 47.9907C34.9758 48.0641 35.7037 48.1007 36.432 48.1004C37.1071 48.1004 37.7734 48.0655 38.432 48.0033L48.586 66.5209C48.7656 66.8491 49.0364 67.1184 49.3655 67.2964C49.6947 67.4745 50.0682 67.5536 50.4413 67.5243C51.2038 67.4631 51.8605 66.9628 52.1188 66.244L55.4565 56.9478L65.2083 59.1849C65.9562 59.3655 66.7275 59.0751 67.1889 58.4679C67.6523 57.8618 67.7145 57.04 67.3521 56.3688H67.3523ZM22.9549 60.8236L20.5107 54.0141C20.1766 53.0883 19.2072 52.5492 18.2474 52.7775L11.0348 54.4318L19.2558 39.4374C21.9631 43.0947 25.8098 45.8534 30.2713 47.196L22.9549 60.8236ZM18.975 26.7414C18.975 17.1159 26.8074 9.28457 36.4338 9.28457C46.0592 9.28457 53.8906 17.1159 53.8906 26.7414C53.8906 36.3669 46.0592 44.2001 36.4338 44.2001C26.8063 44.2001 18.975 36.3669 18.975 26.7414ZM54.6444 52.7774C53.6808 52.5501 52.7152 53.0883 52.381 54.014L49.9205 60.8729L42.4437 47.2395C47.0238 45.898 50.9638 43.0665 53.706 39.3023L61.8929 54.4395L54.6444 52.7774Z" fill="#4BE2F7"/>
<circle cx="36.4467" cy="26.6408" r="19.6323" fill="#4BE2F7"/>
<path d="M43.2895 18.8602C43.2836 18.8315 43.2696 18.805 43.2491 18.784C43.2286 18.763 43.2026 18.7483 43.174 18.7415C41.2707 18.276 36.874 19.9347 34.4895 22.3175C34.0645 22.739 33.677 23.1966 33.3313 23.6853C32.5963 23.6188 31.8613 23.6748 31.2355 23.9478C29.4684 24.7248 28.9542 26.7541 28.8107 27.6252C28.803 27.673 28.8063 27.7219 28.8204 27.7681C28.8346 27.8144 28.8592 27.8567 28.8924 27.8919C28.9256 27.9271 28.9664 27.9542 29.0117 27.9711C29.057 27.988 29.1056 27.9942 29.1537 27.9892L31.9912 27.6777C31.9932 27.8918 32.006 28.1055 32.0297 28.3182C32.0445 28.4653 32.1101 28.6025 32.2152 28.7064L33.3138 29.805C33.4178 29.9102 33.5552 29.9758 33.7023 29.9905C33.9138 30.0141 34.1263 30.027 34.339 30.029L34.0278 32.864C34.023 32.9121 34.0292 32.9606 34.0461 33.0059C34.063 33.0511 34.0901 33.0919 34.1252 33.125C34.1604 33.1581 34.2027 33.1827 34.2488 33.1969C34.295 33.211 34.3438 33.2144 34.3915 33.2067C35.263 33.0667 37.2965 32.5525 38.0689 30.7857C38.3419 30.1592 38.3979 29.4281 38.3349 28.6966C38.825 28.3513 39.284 27.9637 39.7066 27.5384C42.0999 25.1584 43.748 20.8583 43.2895 18.8602ZM37.5793 24.4553C37.3702 24.2463 37.2279 23.98 37.1702 23.6901C37.1125 23.4002 37.1421 23.0997 37.2552 22.8266C37.3683 22.5535 37.5598 22.32 37.8056 22.1558C38.0514 21.9916 38.3403 21.9039 38.6359 21.9039C38.9315 21.9039 39.2205 21.9916 39.4663 22.1558C39.712 22.32 39.9036 22.5535 40.0167 22.8266C40.1298 23.0997 40.1594 23.4002 40.1017 23.6901C40.044 23.98 39.9016 24.2463 39.6926 24.4553C39.5539 24.5942 39.3892 24.7045 39.2079 24.7797C39.0266 24.8549 38.8322 24.8936 38.6359 24.8936C38.4396 24.8936 38.2453 24.8549 38.064 24.7797C37.8826 24.7045 37.7179 24.5942 37.5793 24.4553Z" stroke="white" stroke-width="1.12" stroke-linecap="round" stroke-linejoin="round"/>
<path d="M30.9636 29.2969C30.6147 29.3397 30.2901 29.4979 30.0414 29.7463C29.4247 30.3651 29.3662 32.6569 29.3662 32.6569C29.3662 32.6569 31.6594 32.5984 32.2765 31.981C32.5259 31.7327 32.6843 31.4075 32.7262 31.0581" stroke="white" stroke-width="1.12" stroke-linecap="round" stroke-linejoin="round"/>
</g>
<defs>
<clipPath id="clip0_979_4080">
<rect width="62.1688" height="62.1688" fill="white" transform="translate(5.3623 5.37256)"/>
</clipPath>
</defs>
</svg>
