<svg width="20" height="20" viewBox="0 0 20 20" fill="none" xmlns="http://www.w3.org/2000/svg">
<circle cx="9.99995" cy="9.74116" r="9.74116" fill="#AEA8EE"/>
<path d="M10 2.5412L9.65569 3.04435C9.65569 3.04435 9.42741 3.36327 9.2059 3.74571C9.09494 3.93757 8.99075 4.1379 8.90139 4.3412C8.81245 4.54449 8.72943 4.73169 8.72943 4.97649C8.72943 5.67319 9.30331 6.24707 10 6.24707C10.6967 6.24707 11.2706 5.67319 11.2706 4.97649C11.2706 4.73169 11.188 4.54449 11.0987 4.3412C11.0093 4.1379 10.9051 3.93757 10.7941 3.74571C10.5726 3.36327 10.3439 3.04393 10.3439 3.04393L10 2.5412ZM10 6.24707H8.72943V7.94119H6.18826C5.25226 7.94119 4.49415 8.69931 4.49415 9.6353C4.49309 10.0494 4.64375 10.4496 4.91767 10.7602V13.8706H15.0824V10.7602C15.3563 10.4496 15.507 10.0494 15.5059 9.6353C15.5059 8.69931 14.7478 7.94119 13.8118 7.94119H11.2706V6.24707H10ZM10 4.07649C10.028 4.12308 10.025 4.11969 10.053 4.16924C10.1538 4.34289 10.2613 4.52797 10.3308 4.6851C10.4003 4.84265 10.4235 4.98792 10.4235 4.97649C10.4235 5.21155 10.2351 5.40002 10 5.40002C9.76496 5.40002 9.57649 5.21155 9.57649 4.97649C9.57649 4.98792 9.59978 4.84265 9.66924 4.6851C9.7387 4.5284 9.84628 4.34289 9.94708 4.16924C9.97503 4.11969 9.97207 4.12265 10 4.07649ZM9.57649 7.09413H10.4235V7.94119H9.57649V7.09413ZM6.18826 8.78825H13.8118C14.3162 8.78825 14.6588 9.13088 14.6588 9.6353C14.6588 10.1397 14.3162 10.4824 13.8118 10.4824C13.3074 10.4824 12.9647 10.1397 12.9647 9.6353H12.1177C12.1177 10.1397 11.775 10.4824 11.2706 10.4824C10.7662 10.4824 10.4235 10.1397 10.4235 9.6353H9.57649C9.57649 10.1397 9.23386 10.4824 8.72943 10.4824C8.22501 10.4824 7.88238 10.1397 7.88238 9.6353H7.03532C7.03532 10.1397 6.69268 10.4824 6.18826 10.4824C5.68384 10.4824 5.3412 10.1397 5.3412 9.6353C5.3412 9.13088 5.68384 8.78825 6.18826 8.78825ZM7.45885 10.7602C7.61805 10.9399 7.81371 11.0836 8.03279 11.1817C8.25188 11.2799 8.48937 11.3302 8.72943 11.3294C8.9695 11.3302 9.20698 11.2799 9.42607 11.1817C9.64516 11.0836 9.84082 10.9399 10 10.7602C10.1592 10.9399 10.3549 11.0836 10.574 11.1817C10.7931 11.2799 11.0305 11.3302 11.2706 11.3294C11.5107 11.3302 11.7482 11.2799 11.9672 11.1817C12.1863 11.0836 12.382 10.9399 12.5412 10.7602C12.7004 10.9399 12.8961 11.0836 13.1151 11.1817C13.3342 11.2799 13.5717 11.3302 13.8118 11.3294C13.9592 11.3294 14.0998 11.2981 14.2353 11.2633V13.0235H5.76473V11.2633C5.90026 11.2981 6.04087 11.3294 6.18826 11.3294C6.42833 11.3302 6.66581 11.2799 6.8849 11.1817C7.10399 11.0836 7.29965 10.9399 7.45885 10.7602Z" fill="#7367F0"/>
</svg>
