<svg width="27" height="27" viewBox="0 0 27 27" fill="none" xmlns="http://www.w3.org/2000/svg">
<path d="M3.375 13.5H4.5M13.5 3.375V4.5M22.5 13.5H23.625M6.3 6.3L7.0875 7.0875M20.7 6.3L19.9125 7.0875M10.9125 19.125H16.0875M10.125 18C9.18053 17.2916 8.48287 16.3041 8.13086 15.1772C7.77885 14.0503 7.79032 12.8412 8.16366 11.7212C8.53699 10.6012 9.25326 9.62707 10.211 8.93676C11.1687 8.24646 12.3194 7.875 13.5 7.875C14.6806 7.875 15.8313 8.24646 16.789 8.93676C17.7467 9.62707 18.463 10.6012 18.8363 11.7212C19.2097 12.8412 19.2212 14.0503 18.8691 15.1772C18.5171 16.3041 17.8195 17.2916 16.875 18C16.4358 18.4348 16.105 18.9669 15.9096 19.5532C15.7142 20.1395 15.6595 20.7636 15.75 21.375C15.75 21.9717 15.5129 22.544 15.091 22.966C14.669 23.3879 14.0967 23.625 13.5 23.625C12.9033 23.625 12.331 23.3879 11.909 22.966C11.4871 22.544 11.25 21.9717 11.25 21.375C11.3405 20.7636 11.2858 20.1395 11.0904 19.5532C10.895 18.9669 10.5642 18.4348 10.125 18Z" stroke="#FBC02D" stroke-width="2.25" stroke-linecap="round" stroke-linejoin="round"/>
</svg>
