<svg width="21" height="21" viewBox="0 0 21 21" fill="none" xmlns="http://www.w3.org/2000/svg">
<path d="M3.49981 18.3748C3.56956 18.3833 3.64007 18.3833 3.70981 18.3748L7.20981 17.4998C7.36508 17.4629 7.50729 17.3842 7.62106 17.2723L18.3748 6.48357C18.7008 6.15569 18.8837 5.71215 18.8837 5.24982C18.8837 4.7875 18.7008 4.34396 18.3748 4.01607L16.9923 2.62482C16.8298 2.46212 16.6368 2.33304 16.4243 2.24497C16.2119 2.1569 15.9842 2.11157 15.7542 2.11157C15.5242 2.11157 15.2965 2.1569 15.084 2.24497C14.8716 2.33304 14.6786 2.46212 14.5161 2.62482L3.76231 13.3786C3.64925 13.4929 3.56784 13.6346 3.52606 13.7898L2.65106 17.2898C2.61961 17.403 2.61129 17.5214 2.62659 17.6379C2.64189 17.7544 2.68049 17.8667 2.7401 17.9679C2.79972 18.0692 2.87911 18.1574 2.97356 18.2273C3.068 18.2972 3.17556 18.3474 3.28981 18.3748C3.35956 18.3833 3.43007 18.3833 3.49981 18.3748ZM15.7498 3.85857L17.1411 5.24982L15.7498 6.64107L14.3673 5.24982L15.7498 3.85857ZM5.17106 14.4461L13.1248 6.48357L14.5161 7.87482L6.55356 15.8373L4.70731 16.2923L5.17106 14.4461Z" fill="#7367F0"/>
</svg>
