<svg width="14" height="14" viewBox="0 0 14 14" fill="none" xmlns="http://www.w3.org/2000/svg">
<path d="M7.0026 0.333374C3.33594 0.333374 0.335938 3.33337 0.335938 7.00004C0.335938 10.6667 3.33594 13.6667 7.0026 13.6667C10.6693 13.6667 13.6693 10.6667 13.6693 7.00004C13.6693 3.33337 10.6693 0.333374 7.0026 0.333374ZM7.0026 12.3334C4.0626 12.3334 1.66927 9.94004 1.66927 7.00004C1.66927 4.06004 4.0626 1.66671 7.0026 1.66671C9.9426 1.66671 12.3359 4.06004 12.3359 7.00004C12.3359 9.94004 9.9426 12.3334 7.0026 12.3334ZM10.0626 4.05337L5.66927 8.44671L3.9426 6.72671L3.0026 7.66671L5.66927 10.3334L11.0026 5.00004L10.0626 4.05337Z" fill="#7367F0"/>
</svg>
