<svg width="17" height="15" viewBox="0 0 17 15" fill="none" xmlns="http://www.w3.org/2000/svg">
<path d="M8.50168 6.54619C9.7431 6.54619 10.7495 5.55251 10.7495 4.32674C10.7495 3.10098 9.7431 2.1073 8.50168 2.1073C7.26027 2.1073 6.25391 3.10098 6.25391 4.32674C6.25391 5.55251 7.26027 6.54619 8.50168 6.54619Z" fill="#FBC02D"/>
<path d="M5.09143 4.54859H5.3181V4.34554C5.31948 3.75507 5.48606 3.17677 5.79901 2.67605C6.11196 2.17533 6.55878 1.77218 7.08893 1.5122C6.93198 1.15075 6.68006 0.838546 6.35993 0.608763C6.0398 0.378981 5.66341 0.240196 5.27074 0.207149C4.87806 0.174102 4.48377 0.248026 4.12974 0.421071C3.7757 0.594116 3.47515 0.859819 3.25999 1.18996C3.04484 1.5201 2.92312 1.90235 2.90777 2.29611C2.89241 2.68988 2.98399 3.08045 3.17278 3.42634C3.36157 3.77223 3.64052 4.06054 3.98 4.26063C4.31948 4.46072 4.70682 4.56512 5.10088 4.56276L5.09143 4.54859ZM11.6931 4.32665V4.5297H11.9198C12.3086 4.5258 12.6891 4.41715 13.0214 4.2152C13.3537 4.01324 13.6253 3.72545 13.8078 3.38211C13.9903 3.03877 14.0769 2.65258 14.0584 2.26419C14.0399 1.87581 13.9171 1.49959 13.7028 1.17514C13.4885 0.850683 13.1907 0.589997 12.8408 0.420518C12.4908 0.251038 12.1017 0.179033 11.7142 0.212082C11.3268 0.245131 10.9555 0.382011 10.6393 0.608315C10.3231 0.834619 10.0738 1.14198 9.91754 1.49804C10.4479 1.757 10.8952 2.15913 11.2089 2.65898C11.5227 3.15884 11.6904 3.73648 11.6931 4.32665ZM10.5267 6.76804C11.4656 6.95388 12.3734 7.27185 13.2231 7.71248C13.3428 7.77824 13.4512 7.86273 13.5442 7.96276H16.0564V6.34776C16.0569 6.28582 16.0404 6.22492 16.0088 6.17166C15.9772 6.1184 15.9316 6.07479 15.877 6.04554C14.6531 5.40535 13.2916 5.07308 11.9103 5.07748H11.5987C11.435 5.74271 11.0586 6.33631 10.5267 6.76804ZM3.08449 8.87887C3.08363 8.64104 3.14785 8.40752 3.27021 8.20358C3.39257 7.99965 3.5684 7.83308 3.77866 7.72192C4.62832 7.2813 5.53614 6.96332 6.47504 6.77748C5.94571 6.34942 5.56957 5.76117 5.4031 5.10109H5.09143C3.7102 5.09669 2.34869 5.42896 1.12477 6.06915C1.07016 6.0984 1.02459 6.14201 0.992962 6.19527C0.961337 6.24854 0.944864 6.30943 0.945322 6.37137V9.38887H3.08449V8.87887ZM10.1348 11.6036H12.9492V12.2647H10.1348V11.6036Z" fill="#FBC02D"/>
<path d="M15.4929 9.0394H12.2487V8.56718C12.2487 8.44194 12.199 8.32183 12.1104 8.23327C12.0219 8.14471 11.9018 8.09496 11.7765 8.09496C11.6513 8.09496 11.5312 8.14471 11.4426 8.23327C11.354 8.32183 11.3043 8.44194 11.3043 8.56718V9.0394H10.3882V7.70301C9.7669 7.57255 9.13412 7.50452 8.4993 7.49996C7.00885 7.49375 5.5397 7.85374 4.22096 8.54829C4.16223 8.57876 4.11306 8.62488 4.07889 8.68155C4.04472 8.73822 4.02688 8.80323 4.02735 8.8694V11.5186H7.38485V14.3944C7.38485 14.5196 7.4346 14.6398 7.52316 14.7283C7.61172 14.8169 7.73183 14.8666 7.85707 14.8666H15.4929C15.6181 14.8666 15.7383 14.8169 15.8268 14.7283C15.9154 14.6398 15.9651 14.5196 15.9651 14.3944V9.51162C15.9651 9.38638 15.9154 9.26627 15.8268 9.17771C15.7383 9.08915 15.6181 9.0394 15.4929 9.0394ZM15.0207 13.9316H8.3293V9.98385H11.3043V10.4136C11.3043 10.5388 11.354 10.6589 11.4426 10.7475C11.5312 10.836 11.6513 10.8858 11.7765 10.8858C11.9018 10.8858 12.0219 10.836 12.1104 10.7475C12.199 10.6589 12.2487 10.5388 12.2487 10.4136V9.98385H15.0207V13.9316Z" fill="#FBC02D"/>
</svg>
