<svg width="18" height="18" viewBox="0 0 18 18" fill="none" xmlns="http://www.w3.org/2000/svg">
<path d="M9.5625 5.25024C9.5625 4.93958 9.31066 4.68774 9 4.68774C8.68934 4.68774 8.4375 4.93958 8.4375 5.25024V9.00024C8.4375 9.19419 8.53741 9.37445 8.70188 9.47724L10.9519 10.8835C11.2153 11.0481 11.5624 10.9681 11.727 10.7046C11.8916 10.4412 11.8116 10.0941 11.5481 9.9295L9.5625 8.68848V5.25024Z" fill="#E3BD38"/>
<path fill-rule="evenodd" clip-rule="evenodd" d="M9 2.43774C5.37563 2.43774 2.4375 5.37588 2.4375 9.00024C2.4375 12.6246 5.37563 15.5627 9 15.5627C12.6244 15.5627 15.5625 12.6246 15.5625 9.00024C15.5625 5.37588 12.6244 2.43774 9 2.43774ZM3.5625 9.00024C3.5625 5.9972 5.99695 3.56274 9 3.56274C12.003 3.56274 14.4375 5.9972 14.4375 9.00024C14.4375 12.0033 12.003 14.4377 9 14.4377C5.99695 14.4377 3.5625 12.0033 3.5625 9.00024Z" fill="#E3BD38"/>
</svg>
