<svg width="14" height="14" viewBox="0 0 14 14" fill="none" xmlns="http://www.w3.org/2000/svg">
<path fill-rule="evenodd" clip-rule="evenodd" d="M2.67872 8.92747C1.36747 5.70894 3.73528 2.1875 7.21067 2.1875H7.39817C9.99729 2.1875 12.1043 4.29451 12.1043 6.89363C12.1043 9.78744 9.7584 12.1333 6.86459 12.1333H2.30276C2.11711 12.1333 1.95167 12.0162 1.89006 11.841C1.82844 11.6659 1.88406 11.471 2.02881 11.3547L3.17885 10.4311C3.22913 10.3908 3.24692 10.3221 3.22259 10.2624L2.67872 8.92747ZM7.21067 3.0625C4.3567 3.0625 2.41226 5.95429 3.48906 8.59734L4.03292 9.93227C4.20325 10.3504 4.07874 10.8307 3.72674 11.1134L3.54623 11.2583H6.86459C9.27515 11.2583 11.2293 9.30419 11.2293 6.89363C11.2293 4.77775 9.51404 3.0625 7.39817 3.0625H7.21067Z" fill="#7367F0"/>
</svg>
