<svg width="172" height="172" viewBox="0 0 172 172" fill="none" xmlns="http://www.w3.org/2000/svg">
<g clip-path="url(#clip0_138_442)">
<path d="M70.3253 26.6913C82.2445 26.6435 94.0799 24.4106 105.062 19.7855C111.61 17.0284 127.107 15.4153 137.098 17.3813C145.771 19.0879 166.408 26.7233 157.509 51.9784C148.609 77.2335 137.444 79.7802 145.541 96.372C151.487 108.557 161.76 120.688 152.615 130.325C138.391 145.312 80.2263 167.24 50.2199 148.782C20.2131 130.324 13.8701 123.717 23.1168 95.2319C32.3635 66.7474 8.92404 63.1058 21.3263 42.0258C28.7649 29.3828 52.5099 26.7629 70.3253 26.6913Z" fill="#BBD2FF"/>
<path d="M120.96 119.002H48.3062V40.5311C48.3062 39.0481 49.5084 37.8462 50.9911 37.8462H118.275C119.758 37.8462 120.96 39.0485 120.96 40.5311V119.002H120.96Z" fill="#FAFCFF"/>
<path d="M120.96 44.1861H48.3062V40.5311C48.3062 39.0481 49.5084 37.8462 50.9911 37.8462H118.275C119.758 37.8462 120.96 39.0485 120.96 40.5311V44.1861H120.96Z" fill="#7794F2"/>
<path d="M58.7917 41.0158C58.7917 40.4627 58.3555 40.0141 57.8175 40.0141C57.6342 40.0141 57.4646 40.0691 57.3184 40.16C57.4147 40.7183 57.672 41.4826 58.3528 41.8524C58.617 41.6732 58.7917 41.366 58.7917 41.0158Z" fill="#FD3359"/>
<path d="M57.3183 40.1599C57.0349 40.335 56.8433 40.6511 56.8433 41.0161C56.8433 41.5696 57.2795 42.0179 57.8175 42.0179C58.0153 42.0179 58.1986 41.9563 58.3524 41.8524C57.672 41.4822 57.4146 40.7179 57.3183 40.1599Z" fill="#FF486F"/>
<path d="M56.0051 41.0158C56.0051 40.4627 55.5689 40.0141 55.0309 40.0141C54.8475 40.0141 54.6779 40.0691 54.5317 40.16C54.6281 40.7183 54.8854 41.4826 55.5661 41.8524C55.83 41.6732 56.0051 41.366 56.0051 41.0158Z" fill="#FF9A32"/>
<path d="M54.5312 40.1599C54.2478 40.335 54.0562 40.6511 54.0562 41.0161C54.0562 41.5696 54.4923 42.0179 55.0304 42.0179C55.2282 42.0179 55.4115 41.9563 55.5653 41.8524C54.8848 41.4822 54.6275 40.7179 54.5312 40.1599Z" fill="#FFA452"/>
<path d="M53.217 41.0158C53.217 40.4627 52.7808 40.0141 52.2428 40.0141C52.0594 40.0141 51.8899 40.0691 51.7437 40.16C51.84 40.7183 52.0973 41.4826 52.7781 41.8524C53.0419 41.6732 53.217 41.366 53.217 41.0158Z" fill="#99B999"/>
<path d="M51.7441 40.1599C51.4607 40.335 51.269 40.6511 51.269 41.0161C51.269 41.5696 51.7052 42.0179 52.2433 42.0179C52.4411 42.0179 52.6244 41.9563 52.7782 41.8524C52.0974 41.4822 51.8404 40.7179 51.7441 40.1599Z" fill="#B7D7B7"/>
<path d="M142.059 108.772L141.109 108.376C140.796 108.246 140.602 107.929 140.63 107.591L140.696 106.754L138.702 106.077L138.576 106.644C138.428 107.071 138.533 107.644 138.228 107.978L137.9 108.337L142.059 108.772Z" fill="#FFCDC5"/>
<path d="M133.143 148.876L133.106 151.727L131.272 152.054L129.809 148.349L133.143 148.876Z" fill="#FCD9D2"/>
<path d="M152.314 146.147L150.979 147.886L147.816 146.733L149.222 143.759L152.314 146.147Z" fill="#FCD9D2"/>
<path d="M150.333 150.367C150.037 150.192 151.012 148.08 151.141 147.854L151.908 146.014C152.037 145.787 152.438 145.947 152.735 146.121L153.538 146.642L151.166 150.837L150.333 150.367Z" fill="#FF9A32"/>
<path d="M151.639 150.672L153.689 147.141C153.788 146.971 153.73 146.753 153.56 146.654L153.291 146.498L150.883 150.646L151.151 150.802C151.322 150.9 151.54 150.842 151.639 150.672Z" fill="#001C44"/>
<path d="M151.182 147.989C151.602 148.096 152.079 147.584 152.216 147.043C152.354 146.501 152.125 145.975 151.705 145.868C151.284 145.761 150.261 146.122 150.123 146.664C149.985 147.205 150.761 147.882 151.182 147.989Z" fill="#FCD9D2"/>
<path d="M128.733 152.921C128.696 152.573 131.009 152.086 131.272 152.054L133.106 151.727C133.369 151.695 133.615 151.954 133.653 152.301L133.716 153.272L128.733 153.885V152.921Z" fill="#FF9A32"/>
<path d="M129.104 154.171L133.427 153.695C133.611 153.674 133.744 153.508 133.722 153.324L133.683 152.984L128.733 153.539V153.839C128.733 154.038 128.906 154.193 129.104 154.171Z" fill="#001C44"/>
<path d="M131.331 152.092C131.499 152.5 132.061 152.655 132.587 152.438C133.112 152.221 133.233 151.307 133.065 150.9C132.897 150.492 132.15 150.285 131.624 150.501C131.099 150.718 131.163 151.684 131.331 152.092Z" fill="#FCD9D2"/>
<path d="M140.622 141.489C139.004 140.918 138.776 140.739 138.385 138.396C137.994 136.053 139.86 134.446 139.458 132.59C139.054 130.734 140.907 129.687 141.84 128.664C142.073 128.409 142.303 128.221 142.518 128.083L140.687 138.526C140.623 138.893 140.802 139.259 141.13 139.435L149.222 143.76C149.944 144.146 148.236 144.358 147.44 144.551C147.437 144.552 147.434 144.553 147.432 144.554C146.603 144.835 142.24 142.06 140.622 141.489Z" fill="#7794F2"/>
<path d="M130.956 143.12C130.747 140.926 130.405 141.95 129.326 140.332C128.247 138.715 130.552 135.881 132.086 133.639C135.407 128.785 138.148 129.504 137.786 130.83L134.217 135.845C132.387 138.415 131.699 141.627 132.316 144.722L132.872 147.516C132.6 147.352 132.348 147.17 132.136 146.966C130.694 145.573 131.166 145.313 130.956 143.12Z" fill="#7794F2"/>
<path d="M130.907 126.952L132.313 122.684L138.702 125.917L138.426 129.93L137.82 130.505C136.95 129.958 134.044 130.781 132.499 133.607C131.195 135.99 128.248 138.714 129.326 140.332C130.405 141.95 130.747 140.926 130.956 143.12C131.166 145.313 130.694 145.573 132.136 146.966C132.347 147.17 132.6 147.351 132.872 147.516L133.497 150.653C133.536 150.853 133.368 151.033 133.165 151.006L130.593 150.663L128.097 143.305C127.36 141.133 127.32 138.786 127.981 136.59C129.078 132.951 130.696 127.589 130.907 126.952Z" fill="#7794F2"/>
<path d="M135.888 129.846L135.887 125.524L142.752 127.687C141.755 129.867 139.085 130.496 139.587 132.807C140.032 134.86 136.119 139.641 141.208 141.437C142.826 142.008 146.941 144.064 147.817 144.064C148.749 144.064 149.335 143.67 149.222 143.759L151.377 145.383L149.702 147.439C135.085 142.26 135.383 144.245 135.888 129.846Z" fill="#A8BEF4"/>
<path d="M119.607 108.542L120.219 108.764L119.963 108.447C119.87 108.333 121.187 109.114 121.187 109.114L128.12 111.619L134.683 109.054L135.819 112.334L128.831 114.519L128.114 114.744L127.678 114.522L118.945 110.068C118.945 110.068 118.445 109.661 118.691 108.947C118.841 108.515 119.607 108.542 119.607 108.542Z" fill="#FCD9D2"/>
<path d="M142.059 108.772L137.561 108.157L136.351 111.324L143.595 110.587L142.059 108.772Z" fill="#FFCDC5"/>
<path d="M136.733 108.334L132.439 109.374C131.902 109.504 131.641 110.114 131.917 110.593L133.539 113.412L136.733 108.334Z" fill="#002664"/>
<path d="M137.862 99.0046C137.88 98.7391 137.956 98.4893 138.067 98.2575C139.609 97.9441 141.549 97.9517 141.242 100.101C140.893 102.557 140.639 105.367 140.75 106.781L139.628 106.745C138.373 106.704 136.735 105.345 136.814 104.172L137.862 99.0046Z" fill="#FCD9D2"/>
<path d="M148.221 127.404L148.67 126.183L148.476 118.439L144.044 113.324L146.662 110.922L150.99 116.827L151.145 117.039C151.331 117.292 151.41 117.607 151.365 117.918L149.528 126.343C149.528 126.343 149.632 126.692 149.548 127.281C149.503 127.595 149.323 128.016 148.929 128.159C148.654 128.259 148.028 128.077 148.221 127.404Z" fill="#FCD9D2"/>
<path d="M145.365 109.668L148.531 112.018C148.984 112.354 149.063 113.001 148.704 113.437L146.657 115.922C146.221 116.45 145.391 116.38 145.051 115.785L143.901 113.772L145.365 109.668Z" fill="#002664"/>
<g opacity="0.44">
<path d="M142.374 128.856L142.408 128.704C141.27 128.547 141.058 127.191 141.054 127.135L140.826 127.061C140.826 127.076 140.93 128.664 142.374 128.856Z" fill="#5170F2"/>
</g>
<path opacity="0.44" d="M133.753 124.794C133.753 124.794 133.278 126.899 131.244 125.927" stroke="#5170F2" stroke-width="0.172" stroke-miterlimit="10"/>
<path d="M142.059 108.772C142.072 108.846 142.141 108.931 142.098 108.995C141.357 110.089 140.689 111.354 138.682 110.873C136.779 110.418 137.043 109.101 137.561 108.157L136.733 108.334L132.915 109.26L131.178 122.986C131.053 123.492 131.341 124.01 131.837 124.171L143.408 127.932C144.152 128.174 144.39 127.73 144.409 126.948L144.45 125.333L145.371 109.669L142.059 108.772Z" fill="#002664"/>
<path d="M143.287 105.024C142.122 105.944 141.048 108.514 140.115 105.843C139.578 104.306 141.19 101.239 140.557 100.07C139.924 98.9021 137.277 99.7267 136.814 99.1082C136.57 98.7828 136.567 98.2097 136.619 97.7398C136.659 97.381 137.106 97.5791 137.368 97.3304C141.274 93.6128 145.261 99.1567 144.805 101.73C144.291 104.63 143.287 105.024 143.287 105.024Z" fill="#002664"/>
<path d="M121.539 112.089L121.811 112.658C122.099 113.258 121.843 113.984 121.243 114.272L120.97 114.403C120.371 114.69 119.644 114.435 119.357 113.835L119.084 113.266L121.539 112.089Z" fill="#002664"/>
<path d="M119.121 106.885L119.185 106.916L121.605 111.925L118.939 113.213L116.519 108.204L116.534 108.135L119.121 106.885Z" fill="#001C44"/>
<path d="M117.033 105.864L117.439 106.063L116.939 106.29L117.033 105.864Z" fill="#001C44"/>
<path d="M119.006 113.495L121.816 112.239C121.949 112.179 122.01 112.022 121.95 111.888L121.939 111.865C121.88 111.731 121.722 111.671 121.589 111.731L118.778 112.987C118.645 113.047 118.585 113.205 118.645 113.338L118.655 113.362C118.715 113.495 118.873 113.555 119.006 113.495Z" fill="#5170F2"/>
<path opacity="0.44" d="M118.975 107.519L120.954 111.656" stroke="#5170F2" stroke-width="0.344" stroke-miterlimit="10" stroke-linecap="round"/>
<path opacity="0.44" d="M118.355 107.796L120.334 111.933" stroke="#5170F2" stroke-width="0.344" stroke-miterlimit="10" stroke-linecap="round"/>
<path opacity="0.44" d="M117.736 108.072L119.715 112.21" stroke="#5170F2" stroke-width="0.344" stroke-miterlimit="10" stroke-linecap="round"/>
<path opacity="0.44" d="M117.116 108.349L119.095 112.487" stroke="#5170F2" stroke-width="0.344" stroke-miterlimit="10" stroke-linecap="round"/>
<path d="M120.805 109.133L119.331 108.953" stroke="#FCD9D2" stroke-width="0.344" stroke-miterlimit="10" stroke-linecap="round"/>
<path d="M90.2774 27.9865C92.7974 26.9531 94.0024 24.0726 92.9691 21.5527C91.9358 19.0328 89.0553 17.8277 86.5354 18.8611C84.0154 19.8944 82.8104 22.7749 83.8437 25.2948C84.877 27.8147 87.7575 29.0198 90.2774 27.9865Z" stroke="#7794F2" stroke-width="0.487551" stroke-miterlimit="10"/>
<path d="M88.4095 29.542C91.7859 29.542 94.523 26.8049 94.523 23.4284C94.523 20.052 91.7859 17.3149 88.4095 17.3149C85.033 17.3149 82.2959 20.052 82.2959 23.4284C82.2959 26.8049 85.033 29.542 88.4095 29.542Z" stroke="#7794F2" stroke-width="0.487551" stroke-miterlimit="10"/>
<path d="M87.5786 23.6851C87.5786 23.2258 87.9508 22.8536 88.4101 22.8536C88.8693 22.8536 89.2415 23.2258 89.2415 23.6851C89.2415 24.1443 88.8693 24.5165 88.4101 24.5165C87.9508 24.5169 87.5786 24.1443 87.5786 23.6851Z" fill="#7794F2"/>
<path d="M88.3447 21.1498V23.3049" stroke="#7794F2" stroke-width="0.487551" stroke-miterlimit="10" stroke-linecap="round"/>
<path d="M88.6445 23.7625L89.7078 24.7113" stroke="#7794F2" stroke-width="0.487551" stroke-miterlimit="10" stroke-linecap="round"/>
<path d="M91.1792 25.9538L91.9604 26.734" stroke="#7794F2" stroke-width="0.487551" stroke-miterlimit="10" stroke-linecap="round"/>
<path d="M88.312 18.5062L88.3306 19.3421" stroke="#7794F2" stroke-width="0.487551" stroke-miterlimit="10" stroke-linecap="round"/>
<path d="M137.882 44.6295H135.977C134.614 44.6295 133.508 43.5242 133.508 42.1606V37.0374C133.508 35.6738 134.614 34.5685 135.977 34.5685H137.882C139.246 34.5685 140.351 35.6738 140.351 37.0374V42.1606C140.35 43.5242 139.245 44.6295 137.882 44.6295Z" stroke="#7794F2" stroke-width="0.487551" stroke-miterlimit="10"/>
<path d="M134.507 37.3708H139.144" stroke="#7794F2" stroke-width="0.487551" stroke-miterlimit="10"/>
<path d="M134.507 39.5992H139.144" stroke="#7794F2" stroke-width="0.487551" stroke-miterlimit="10"/>
<path d="M134.507 41.8276H139.144" stroke="#7794F2" stroke-width="0.487551" stroke-miterlimit="10"/>
<path d="M147.216 67.2544H139.754C139.094 67.2544 138.554 66.714 138.554 66.0538V65.6675C138.554 65.007 139.094 64.4666 139.754 64.4666H147.216C147.877 64.4666 148.417 65.007 148.417 65.6675V66.0538C148.417 66.7143 147.876 67.2544 147.216 67.2544Z" stroke="#7794F2" stroke-width="0.487551" stroke-miterlimit="10"/>
<path d="M139.753 67.1237C139.753 70.8007 141.412 73.7814 143.458 73.7814C145.504 73.7814 147.163 70.8007 147.163 67.1237" stroke="#7794F2" stroke-width="0.487551" stroke-miterlimit="10"/>
<path d="M145.687 77.6394H141.23C140.968 77.6394 140.753 77.4248 140.753 77.1623V77.0089C140.753 76.7464 140.968 76.5317 141.23 76.5317H145.687C145.949 76.5317 146.164 76.7464 146.164 77.0089V77.1623C146.164 77.4248 145.949 77.6394 145.687 77.6394Z" stroke="#7794F2" stroke-width="0.487551" stroke-miterlimit="10"/>
<path d="M147.103 67.8867C148.489 68.0013 149.634 67.8317 149.52 69.218C149.405 70.604 146.688 72.9064 145.302 72.7918" stroke="#7794F2" stroke-width="0.487551" stroke-miterlimit="10"/>
<path d="M139.816 67.8867C138.43 68.0013 137.285 67.8317 137.4 69.218C137.514 70.604 140.231 72.9064 141.617 72.7918" stroke="#7794F2" stroke-width="0.487551" stroke-miterlimit="10"/>
<path d="M143.011 76.5324V73.7305" stroke="#7794F2" stroke-width="0.487551" stroke-miterlimit="10"/>
<path d="M143.906 76.5324V73.7305" stroke="#7794F2" stroke-width="0.487551" stroke-miterlimit="10"/>
<path d="M140.753 68.3015C140.753 68.3015 141.482 71.0253 141.618 71.1942" stroke="#7794F2" stroke-width="0.487551" stroke-miterlimit="10"/>
<path d="M21.2152 63.5687C21.4816 61.9222 20.3629 60.3715 18.7166 60.1052C17.0702 59.8388 15.5196 60.9577 15.2533 62.6043C14.9869 64.2508 16.1056 65.8015 17.752 66.0678C19.3983 66.3341 20.9489 65.2153 21.2152 63.5687Z" stroke="#7794F2" stroke-width="0.487551" stroke-miterlimit="10"/>
<path d="M19.8718 63.1512C19.8718 64.0566 19.1377 64.7907 18.2323 64.7907C17.3269 64.7907 16.5928 64.0566 16.5928 63.1512C16.5928 62.2458 17.3269 61.5117 18.2323 61.5117C19.1377 61.5117 19.8718 62.2458 19.8718 63.1512Z" stroke="#7794F2" stroke-width="0.487551" stroke-miterlimit="10"/>
<path d="M19.0537 57.9151C19.6743 57.1174 20.9529 57.5828 20.9154 58.5928C20.8903 59.2712 21.5105 59.7917 22.1741 59.6489C23.1621 59.4367 23.8425 60.6152 23.1648 61.3648C22.7097 61.8681 22.8501 62.6658 23.4504 62.983C24.3437 63.4556 24.1074 64.7958 23.1064 64.9341C22.4338 65.027 22.029 65.7284 22.2845 66.3573C22.665 67.2936 21.6227 68.1684 20.7668 67.6307C20.192 67.2699 19.4311 67.5468 19.2226 68.1928C18.9123 69.1547 17.5515 69.1547 17.2412 68.1928C17.0327 67.5468 16.2718 67.2699 15.6969 67.6307C14.8411 68.1681 13.7984 67.2933 14.1792 66.3573C14.4348 65.7284 14.0299 65.027 13.3574 64.9341C12.3564 64.7955 12.12 63.4556 13.0134 62.983C13.6133 62.6654 13.754 61.8681 13.2986 61.3648C12.6206 60.6152 13.3013 59.4367 14.2893 59.6489C14.9529 59.7913 15.5731 59.2709 15.548 58.5928C15.5105 57.5828 16.7895 57.1174 17.4097 57.9151C17.827 58.4508 18.6368 58.4508 19.0537 57.9151Z" stroke="#7794F2" stroke-width="0.487551" stroke-miterlimit="10"/>
<path d="M25.4176 57.4518C26.7728 57.4518 27.8714 56.3532 27.8714 54.998C27.8714 53.6428 26.7728 52.5443 25.4176 52.5443C24.0625 52.5443 22.9639 53.6428 22.9639 54.998C22.9639 56.3532 24.0625 57.4518 25.4176 57.4518Z" stroke="#7794F2" stroke-width="0.487551" stroke-miterlimit="10"/>
<path d="M26.7501 55.0479C26.7501 55.7837 26.1536 56.3799 25.4178 56.3799C24.6819 56.3799 24.0854 55.7834 24.0854 55.0479C24.0854 54.3121 24.6819 53.7156 25.4178 53.7156C26.1536 53.7156 26.7501 54.3121 26.7501 55.0479Z" stroke="#7794F2" stroke-width="0.487551" stroke-miterlimit="10"/>
<path d="M26.0853 50.7933C26.5896 50.1452 27.6284 50.5233 27.5982 51.3441C27.5779 51.8951 28.0818 52.3179 28.6209 52.2023C29.4238 52.03 29.9766 52.9873 29.4259 53.5966C29.0561 54.0056 29.1703 54.6537 29.6577 54.9113C30.3835 55.2952 30.1916 56.3843 29.378 56.4968C28.8318 56.5725 28.5029 57.1422 28.7103 57.653C29.0196 58.4136 28.1727 59.1243 27.4771 58.6878C27.0099 58.3943 26.3918 58.6197 26.2225 59.1443C25.9704 59.9258 24.8648 59.9258 24.6126 59.1443C24.4434 58.6193 23.8252 58.3943 23.358 58.6878C22.6625 59.1243 21.8155 58.4136 22.1248 57.653C22.3326 57.1422 22.0034 56.5722 21.4571 56.4968C20.6435 56.3843 20.4516 55.2956 21.1774 54.9113C21.6649 54.6533 21.7791 54.0056 21.4093 53.5966C20.8585 52.9877 21.4113 52.03 22.2142 52.2023C22.7536 52.3183 23.2576 51.8951 23.2369 51.3441C23.2063 50.5236 24.2456 50.1452 24.7499 50.7933C25.0887 51.2288 25.7464 51.2288 26.0853 50.7933Z" stroke="#7794F2" stroke-width="0.487551" stroke-miterlimit="10"/>
<path d="M41.9696 102.46C44.0071 101.863 46.9675 91.9698 43.0903 87.8424C41.0934 85.7193 42.0549 88.6519 42.0549 88.6519C42.9747 93.214 41.9531 97.8845 39.7941 101.921C38.8258 103.732 41.9696 102.46 41.9696 102.46Z" fill="#FCD9D2"/>
<path d="M44.4062 90.7411C44.4062 90.7411 43.4192 88.3079 43.2885 87.9533C42.5812 86.0379 41.0776 84.7534 40.7061 85.2033C39.7401 86.3726 42.0969 88.5343 42.0969 88.5343C43.0793 89.2787 43.552 89.7225 44.4062 90.7411Z" fill="#FCD9D2"/>
<path d="M39.1266 101.486C39.8411 100.706 40.2535 99.706 40.74 98.7672C40.9116 98.4363 41.1101 98.094 41.4355 97.9127C41.8617 97.6754 42.4125 97.7789 42.8219 98.0438C43.2316 98.3087 43.5301 98.7101 43.8198 99.1026C43.923 99.2423 44.1146 99.7576 44.1315 99.9303C44.1452 100.072 44.096 100.212 44.0451 100.346C42.9058 103.323 40.3523 105.396 37.3615 106.499C36.9769 106.641 36.5752 106.763 36.1655 106.752C35.4523 106.733 34.7692 106.274 34.4829 105.62C34.2731 105.142 34.2497 104.439 34.5445 103.982C34.8576 103.495 35.3223 103.485 35.8614 103.314C37.0574 102.934 38.2618 102.428 39.1266 101.486Z" fill="#7794F2"/>
<path d="M52.4435 97.6317C52.4197 98.0538 52.5075 99.2581 52.9516 100.039C53.1101 99.5977 53.2694 98.6912 53.2244 98.2946L52.4435 97.6317Z" fill="#FCD9D2"/>
<path d="M34.6324 94.999C34.7614 96.5443 38.0514 101.438 36.611 103.329C35.1198 105.287 34.3503 101.289 31.2883 101.837C27.5952 102.499 27.2312 91.6171 33.665 91.8586C33.9316 91.8686 34.1287 91.2549 34.2739 91.4706C36.0259 94.0737 34.4972 93.3798 34.6324 94.999Z" fill="#FF8B22"/>
<path d="M33.9038 121.556L38.2044 122.209C42.9561 125.608 36.7786 150.867 36.8869 153.124L36.2371 153.004C35.5216 149.925 36.3493 146.501 36.0465 143.956C34.3867 129.992 30.7448 126.782 33.9038 121.556Z" fill="#FFCDC5"/>
<path d="M31.2206 123.296L35.3452 124.248C39.7649 128.351 30.8161 151.622 30.8051 154.198L30.5361 154.316C30.0025 150.774 31.5825 143.558 31.3974 140.648C30.3593 124.332 27.8986 129.095 31.2206 123.296Z" fill="#FCD9D2"/>
<path d="M38.9289 119.085C38.9289 119.085 46.6654 132.981 40.2866 133.238C30.9467 133.613 25.9036 136.918 26.4915 130.937C27.3987 121.711 27.8861 122.7 28.8545 120.834C29.7124 119.181 31.4321 115.879 32.1844 117.712C33.376 120.615 38.9289 119.085 38.9289 119.085Z" fill="#7794F2"/>
<path d="M35.7822 103.396C35.7822 103.396 38.9305 104.242 39.129 107.683C39.3274 111.124 36.7874 111.276 38.5452 116.726C39.1396 118.569 39.8596 119.355 39.4781 120.496C38.8861 122.267 30.4299 124.412 28.9338 121.962C27.8433 120.176 29.8668 120.759 30.572 116.33C31.2768 111.901 25.9486 106.514 29.52 104.772C32.2651 103.433 35.0901 105.98 35.7822 103.396Z" fill="#002664"/>
<path d="M33.8777 100.144C33.8777 100.144 35.2881 103.43 35.9094 103.74C36.2369 103.903 39.381 106.884 36.3177 107.317C31.9382 107.937 31.9967 105.16 31.4879 104.8C30.4126 104.039 31.585 103.362 32.0009 100.557C32.1587 99.4927 33.8777 100.144 33.8777 100.144Z" fill="#FFCDC5"/>
<path d="M31.6213 100.637C32.3651 100.516 33.77 100.897 34.5233 100.927C34.7669 100.936 35.0324 100.956 35.2296 100.808C35.4944 100.609 35.5109 100.209 35.4962 99.8663C35.3981 97.6138 34.4972 93.2385 33.9777 93.6031C33.2323 93.5088 32.8921 93.5866 32.1721 93.7985C31.7844 93.9127 31.4046 94.0723 31.0785 94.3179C30.7273 94.5825 30.449 94.9378 30.1858 95.2976C29.5876 96.1153 29.02 97.0772 29.1377 98.1054C29.1807 98.4814 29.3141 98.8398 29.4521 99.191C29.6427 99.6771 29.8466 100.164 30.1511 100.583C30.4555 101.002 30.1992 100.414 30.6881 100.531C30.8611 100.573 31.04 100.585 31.2103 100.638C31.363 100.685 31.5071 100.752 31.6213 100.637Z" fill="#FCD9D2"/>
<path d="M31.8211 96.6003C31.6649 96.3079 31.5136 96.0228 31.5779 95.677C31.9043 93.9168 36.3131 94.548 34.8569 92.1321C32.926 88.9288 24.7051 91.5903 26.1888 98.7235C27.1981 103.575 27.8021 104.121 32.8359 105.293C33.1496 105.365 33.4984 105.239 33.7447 105.026C34.0179 104.791 34.1028 104.39 34.108 104.018C34.119 103.247 31.9346 96.8129 31.8211 96.6003Z" fill="#FF9A32"/>
<path d="M36.4831 152.946C36.5728 153.029 36.6733 153.099 36.7555 153.189C36.8539 153.297 36.9227 153.429 37.0149 153.542C37.351 153.952 37.9317 154.049 38.4604 154.091C38.63 154.105 38.8071 154.118 38.9523 154.207C39.0971 154.296 39.1948 154.488 39.1198 154.64C39.0565 154.769 38.9021 154.821 38.7617 154.852C38.4772 154.913 38.1848 154.938 37.8942 154.924C37.622 154.912 37.2299 154.901 37.0527 154.694C36.9265 154.547 36.7913 154.246 36.6437 154.121C36.4373 154.13 36.6348 154.493 36.6059 154.684C36.5749 154.888 36.6042 154.936 36.31 154.944C36.1033 154.95 36.0713 154.561 36.0383 154.357C35.8886 153.423 35.5986 153.207 35.848 152.801C36.0895 152.41 36.2791 152.759 36.4831 152.946Z" fill="#7794F2"/>
<path d="M37.3856 153.313C40.5848 154.996 36.6539 154.776 36.2373 153.004C36.0928 152.39 36.1355 152.197 36.4771 152.29C36.9628 152.422 36.5108 152.852 37.3856 153.313Z" fill="#FFCDC5"/>
<path d="M30.6124 152.507C30.5721 152.628 30.7111 152.744 30.7417 152.868C30.7785 153.017 30.7758 153.173 30.8043 153.323C30.9086 153.87 31.3953 154.251 31.8621 154.555C32.0118 154.653 32.1687 154.754 32.2577 154.909C32.3468 155.063 32.3406 155.289 32.1948 155.393C32.0716 155.48 31.9031 155.45 31.7583 155.408C31.4648 155.322 31.1827 155.198 30.9213 155.039C30.6764 154.891 30.3203 154.684 30.2605 154.405C30.2178 154.206 30.244 153.861 30.1707 153.671C29.9753 153.576 29.9031 154.013 29.7809 154.174C29.6499 154.347 29.7252 154.402 29.4497 154.262C29.256 154.164 29.4215 153.789 29.4937 153.584C29.8243 152.647 29.6967 153.083 29.8243 152.647C29.913 152.344 30.1907 152.191 30.3957 152.193C30.5632 152.195 30.6815 152.299 30.6124 152.507Z" fill="#7794F2"/>
<path d="M31.3322 153.323C32.3542 156.379 29.8409 153.117 30.3913 152.39C30.6452 152.055 30.7147 152.117 31.0301 152.065C31.552 151.977 31.0958 152.616 31.3322 153.323Z" fill="#FCD9D2"/>
<path d="M54.0879 97.5976L54.79 97.3678C54.9036 98.1732 55.3398 98.9296 56.0649 99.4236C57.4299 100.353 59.2899 99.9998 60.219 98.6348C60.7694 97.8267 60.8668 96.846 60.5741 95.9867C61.3821 96.3348 61.9291 97.2127 61.7237 98.1893L60.6167 103.451C60.3064 104.927 58.5159 105.512 57.3934 104.506L53.39 100.917C52.2678 99.91 52.6555 98.0665 54.0879 97.5976Z" fill="#FF9A32"/>
<path d="M59.1987 95.9251L54.79 97.3679C54.6899 96.6572 54.8402 95.909 55.2761 95.2691C56.2056 93.9041 58.0656 93.5512 59.4302 94.4803C59.9868 94.8594 60.3721 95.3943 60.5737 95.9864C60.1616 95.8089 59.6827 95.7669 59.1987 95.9251Z" fill="#7794F2"/>
<path d="M60.219 98.6349C59.2896 99.9998 57.4296 100.353 56.0649 99.4236C55.3398 98.93 54.9036 98.1732 54.79 97.3679L59.1987 95.9252C59.6828 95.7666 60.1616 95.8089 60.5741 95.9864C60.8668 96.8461 60.7694 97.8268 60.219 98.6349Z" fill="#FF9A32"/>
<path d="M44.9714 85.4974L53.667 93.2938C54.0465 93.634 54.6351 93.602 54.9753 93.2226L54.9804 93.2168C55.3206 92.8373 55.2883 92.2484 54.9092 91.9085L46.2136 84.1121C45.8342 83.7719 45.2456 83.8039 44.9054 84.1833L44.9002 84.1892C44.56 84.5686 44.592 85.1572 44.9714 85.4974Z" fill="#7794F2"/>
<path d="M42.9857 87.525L47.7263 91.7754C48.1075 92.117 48.6985 92.0847 49.0401 91.7039C49.3817 91.3227 49.3497 90.7314 48.9685 90.3898L44.2272 86.1386C43.846 85.7971 43.255 85.8294 42.9134 86.2105C42.5722 86.592 42.6045 87.1834 42.9857 87.525Z" fill="#7794F2"/>
<path d="M35.2687 109.75C36.9419 111.057 46.705 107.692 47.7962 102.135C48.3562 99.2749 46.5347 101.766 46.5347 101.766C43.3651 105.174 38.9757 107.068 34.4376 107.669C32.4022 107.938 35.2687 109.75 35.2687 109.75Z" fill="#FCD9D2"/>
<path d="M46.2095 104.895C46.2095 104.895 47.6102 102.674 47.8221 102.361C48.9656 100.67 49.1321 98.6987 48.5497 98.6592C47.0364 98.5563 46.6553 101.732 46.6553 101.732C46.6233 102.964 46.5383 103.607 46.2095 104.895Z" fill="#FCD9D2"/>
<path d="M34.402 106.873C35.4519 106.998 36.5049 106.75 37.551 106.598C37.9201 106.544 38.3136 106.506 38.6511 106.664C39.0925 106.872 39.3295 107.38 39.3532 107.867C39.3769 108.354 39.2252 108.831 39.0753 109.295C39.0219 109.46 38.7154 109.917 38.5847 110.031C38.4774 110.125 38.3346 110.167 38.1967 110.203C35.1141 111.014 31.9407 110.149 29.3005 108.363C28.9606 108.133 28.6273 107.878 28.3971 107.539C27.9967 106.949 27.9713 106.126 28.3352 105.512C28.6018 105.063 29.1588 104.634 29.7026 104.607C30.2802 104.577 30.5595 104.949 31.0129 105.287C32.0181 106.037 33.1316 106.72 34.402 106.873Z" fill="#7794F2"/>
<path d="M46.4962 99.1252C46.4725 99.5473 46.5602 100.752 47.0043 101.532C47.1629 101.091 47.3222 100.185 47.2771 99.7881L46.4962 99.1252Z" fill="#FCD9D2"/>
<path d="M97.8247 113.226C97.8247 113.226 98.146 113.841 98.5726 114.362C99.6462 115.672 99.6651 113.844 98.6386 112.572L97.8247 113.226Z" fill="#FCD9D2"/>
<path d="M75.9338 62.9255L45.7802 65.2024C44.3798 65.308 43.1479 64.2492 43.0419 62.8488L42.2783 52.7365C42.1727 51.3365 43.2315 50.1043 44.6319 49.9983L74.7856 47.7214C76.1856 47.6158 77.4179 48.6746 77.5238 50.075L78.2875 60.1872C78.3934 61.5877 77.3343 62.8195 75.9338 62.9255Z" fill="#7794F2"/>
<path d="M53.6424 59.758C55.0236 58.0901 54.7912 55.6182 53.1232 54.2369C51.4552 52.8557 48.9833 53.0881 47.6021 54.7561C46.2208 56.4241 46.4532 58.896 48.1212 60.2772C49.7892 61.6585 52.2611 61.426 53.6424 59.758Z" fill="#FF9A32"/>
<path d="M57.8789 56.092L74.922 55.0903" stroke="#002664" stroke-width="1.376" stroke-miterlimit="10" stroke-linecap="round"/>
<path d="M58.3545 59.749L75.3976 58.7473" stroke="#002664" stroke-width="1.376" stroke-miterlimit="10" stroke-linecap="round"/>
<path d="M98.3233 110.654L98.0234 109.621L97.7537 108.578L97.2232 106.494C96.914 105.091 96.5789 103.704 96.3209 102.294C95.7681 99.4879 95.3223 96.666 94.9962 93.8401C94.8328 92.4276 94.6945 91.0155 94.5848 89.6082C94.5366 88.9047 94.4829 88.2019 94.4506 87.505C94.43 87.1548 94.4162 86.8091 94.4042 86.4651L94.3883 85.9546C94.3849 85.7881 94.3794 85.6113 94.3825 85.4816L89.2338 86.0836L88.0288 86.2246C88.0701 86.4554 88.11 86.6384 88.1502 86.8318L88.2744 87.3994C88.3577 87.7736 88.4426 88.1462 88.5331 88.5119C88.7061 89.2497 88.8988 89.9746 89.0863 90.7004C89.4736 92.1469 89.8874 93.5773 90.3254 94.9952C90.7512 96.376 91.2053 97.7434 91.6835 99.0981C92.1874 100.526 92.7186 101.94 93.2769 103.339C93.8022 104.708 94.4031 106.045 94.9742 107.385L95.8961 109.367L96.3595 110.353L96.8521 111.324C97.1651 111.965 97.4905 112.599 97.8252 113.227L99.043 113.062C98.7888 112.264 98.5449 111.463 98.3233 110.654Z" fill="#002664"/>
<path d="M93.2085 110.401L93.0189 109.337L92.6484 107.214C92.4472 105.788 92.2184 104.376 92.0688 102.947C91.9167 101.665 91.7898 100.381 91.6825 99.0974C91.2043 97.7424 90.7502 96.375 90.3244 94.9946C89.8865 93.5766 89.4726 92.1462 89.0853 90.6997C88.8978 89.9739 88.7055 89.2491 88.5321 88.5112C88.4417 88.1455 88.3567 87.773 88.2734 87.3987L88.1493 86.8311C88.109 86.6378 88.0688 86.4548 88.0278 86.2239L89.2329 86.0829L85.0254 86.1971C85.0488 86.4307 85.0749 86.6164 85.1004 86.8129L85.1809 87.3894C85.2356 87.7699 85.2916 88.1483 85.3543 88.5208C85.4709 89.2714 85.6071 90.0107 85.7388 90.7506C86.0147 92.2264 86.3188 93.6884 86.6473 95.1404C87.3034 98.0438 88.0777 100.904 88.9546 103.717C89.3739 105.127 89.8713 106.514 90.3385 107.9L91.1066 109.956L91.4936 110.98L91.9106 111.991C92.1661 112.639 92.4352 113.281 92.7124 113.918L93.9219 113.754C93.7444 112.991 93.5772 112.226 93.4286 111.456L93.2085 110.401Z" fill="#001C44"/>
<path d="M92.9745 66.3634C92.9745 66.3634 92.1902 67.5241 91.851 69.5468C91.6711 70.619 94.6605 70.5368 94.6605 70.5368C94.6605 70.5368 89.8503 72.8712 88.0051 71.1041C86.1599 69.3369 87.7825 68.3101 87.7825 68.3101C87.7825 68.3101 88.2039 68.6744 89.486 68.2716C90.3495 68.0002 89.581 65.4332 89.581 65.4332L92.9745 66.3634Z" fill="#FFCDC5"/>
<path d="M91.851 69.4082C91.851 69.4082 94.6006 70.2101 94.8087 70.8712C95.0165 71.5324 91.3601 76.7247 95.0475 86.8015C95.0475 88.0496 85.2266 87.8535 84.7674 86.1342C83.164 80.1321 83.1839 68.306 86.3921 68.0346C87.251 67.962 88.1073 68.4151 88.1073 68.4151C88.1073 68.4151 87.7433 69.6903 88.9387 70.3514C90.1341 71.0123 91.851 69.4082 91.851 69.4082Z" fill="#FF9A32"/>
<path d="M91.2088 59.8048C91.2088 59.8048 90.5212 61.1839 89.7465 62.736C89.3609 63.382 88.4579 65.5513 88.5349 66.0766C88.6199 66.6541 91.6564 68.2001 93.6055 66.0766C95.1552 64.3879 95.9725 63.3672 95.3375 62.1839C94.7025 60.9998 92.3251 58.4384 91.2088 59.8048Z" fill="#FCD9D2"/>
<path d="M97.7766 60.2966C97.6397 59.8886 97.5575 59.47 97.3968 59.0672C96.9046 57.8322 96.1767 57.6151 95.6789 57.8026C96.5069 55.5267 88.3235 55.1239 90.4814 59.4745C90.8698 60.2574 91.3012 60.0768 92.5764 60.8302C94.425 61.6963 93.8289 61.3382 93.6593 62.2127C93.4777 63.1484 92.8987 62.9922 93.5626 63.3097C94.2265 63.6272 94.4845 61.6843 94.9627 63.0214C95.069 63.3186 94.4433 63.7965 94.0143 64.0823C93.7745 64.2419 93.5953 64.4759 93.5127 64.7518C93.3989 65.1332 93.1983 65.761 92.8839 66.61C92.3356 68.092 95.7721 66.1302 97.0119 65.5612C100.035 64.1735 97.9029 60.6733 97.7766 60.2966Z" fill="#54293A"/>
<path d="M92.6187 113.226C92.6187 113.226 92.7483 115.277 93.6641 115.244C94.5798 115.211 93.8691 113.494 93.8691 113.494L92.6187 113.226Z" fill="#FCD9D2"/>
<path d="M92.1191 113.523H94.1236" stroke="#002664" stroke-width="0.688" stroke-miterlimit="10" stroke-linecap="round"/>
<path d="M97.6318 113.432L99.303 113.082" stroke="#002664" stroke-width="0.688" stroke-miterlimit="10" stroke-linecap="round"/>
<path d="M92.7327 114.305L91.2036 114.789C91.1623 114.802 91.1255 114.829 91.098 114.864C90.9821 115.016 91.0822 115.245 91.2641 115.245H92.9704H94.3178C94.4368 115.245 94.5332 115.141 94.5332 115.012V114.528C94.5332 114.399 94.4368 114.295 94.3178 114.295H92.7932C92.7726 114.295 92.7523 114.298 92.7327 114.305Z" fill="#002664"/>
<path d="M98.2059 114.125L97.414 114.61C97.3728 114.623 97.3359 114.649 97.3084 114.685C97.1925 114.837 97.2926 115.065 97.4746 115.065H98.4436H99.7914C99.9105 115.065 100.007 114.961 100.007 114.833L99.8468 114.348C99.8468 114.22 99.7505 114.115 99.6315 114.115H98.2668C98.2462 114.116 98.2259 114.119 98.2059 114.125Z" fill="#002664"/>
<path d="M80.7122 59.8553C80.7122 59.8553 78.964 60.253 78.9355 60.9813C78.9176 61.4371 79.4742 63.9066 80.8581 65.8812C81.9534 67.444 85.0263 69.088 85.0263 69.088C85.0263 69.088 85.789 68.0229 82.2871 62.2382C80.844 59.8553 80.7122 59.8553 80.7122 59.8553Z" fill="#FCD9D2"/>
<path d="M79.2286 61.6341C79.2286 61.6341 77.3407 59.3998 77.6438 53.1992C78.0439 51.9715 78.1787 53.1992 78.1787 53.1992C78.1787 53.1992 81.1626 59.4359 81.0487 60.3699C80.9348 61.3035 79.2286 61.6341 79.2286 61.6341Z" fill="#FCD9D2"/>
<path d="M77.8342 53.978C77.8342 53.978 77.3987 53.1992 77.4266 52.7145C77.4806 51.7692 77.4486 50.6096 77.4486 50.6096C78.7296 50.3994 78.1755 52.9677 78.1755 52.9677L77.8342 53.978Z" fill="#FCD9D2"/>
<path d="M97.1142 82.161C97.1142 82.161 99.4314 81.9842 99.6625 81.2728C99.8074 80.8276 99.8235 78.3408 98.7334 76.2462C97.8706 74.5885 94.2961 71.9435 94.2961 71.9435C94.2961 71.9435 93.5211 73.5847 96.0657 79.6587C97.1142 82.161 97.1142 82.161 97.1142 82.161Z" fill="#FCD9D2"/>
<path d="M99.6916 81.2504C99.6916 81.2504 98.9964 85.1813 93.2736 88.5745C91.9279 88.9604 92.93 87.9621 92.93 87.9621C92.93 87.9621 96.4749 82.0694 97.3793 81.6157C98.2836 81.1616 99.6916 81.2504 99.6916 81.2504Z" fill="#FCD9D2"/>
<path d="M94.2595 70.5782C95.9568 70.5551 98.3569 73.1207 99.264 76.443C96.7903 77.2717 96.243 77.5153 95.5798 77.7595C95.007 77.9704 93.9764 76.2091 93.4938 74.689C92.9241 72.8943 92.9354 70.596 94.2595 70.5782Z" fill="#FFA350"/>
<path d="M86.5922 68.0263C86.5922 68.0263 86.1419 66.5458 83.8258 64.1405C83.3655 63.2069 79.2175 66.6221 80.0332 67.2001C80.8491 67.778 84.1392 71.7653 84.1392 71.7653L84.5523 70.962C84.9926 70.1058 85.5265 69.3012 86.144 68.5626L86.5922 68.0263Z" fill="#FFA350"/>
<path d="M82.1051 89.0114L79.8887 147.821" stroke="#5170F2" stroke-width="0.487551" stroke-miterlimit="10"/>
<path d="M100.437 89.0114L102.653 147.821" stroke="#5170F2" stroke-width="0.487551" stroke-miterlimit="10"/>
<g opacity="0.25">
<path d="M101.701 97.3311H83.3032V97.6582H101.701V97.3311Z" fill="#5170F2"/>
</g>
<g opacity="0.25">
<path d="M102.183 101.794H83.8325V102.121H102.183V101.794Z" fill="#5170F2"/>
</g>
<g opacity="0.25">
<path d="M102.982 106.257H84.459V106.584H102.982V106.257Z" fill="#5170F2"/>
</g>
<g opacity="0.25">
<path d="M103.525 110.721H85.1934V111.048H103.525V110.721Z" fill="#5170F2"/>
</g>
<g opacity="0.25">
<path d="M104.156 115.184H85.7061V115.511H104.156V115.184Z" fill="#5170F2"/>
</g>
<g opacity="0.25">
<path d="M104.786 119.648H86.4541V119.975H104.786V119.648Z" fill="#5170F2"/>
</g>
<g opacity="0.25">
<path d="M105.417 124.111H87.0845V124.438H105.417V124.111Z" fill="#5170F2"/>
</g>
<g opacity="0.25">
<path d="M106.047 128.574H87.7153V128.901H106.047V128.574Z" fill="#5170F2"/>
</g>
<g opacity="0.25">
<path d="M106.677 133.038H88.3452V133.365H106.677V133.038Z" fill="#5170F2"/>
</g>
<g opacity="0.25">
<path d="M107.308 137.501H88.9155V137.828H107.308V137.501Z" fill="#5170F2"/>
</g>
<g opacity="0.25">
<path d="M108.072 141.964H89.5693V142.291H108.072V141.964Z" fill="#5170F2"/>
</g>
<path opacity="0.25" d="M82.1045 89.0114L89.9615 144.646" stroke="#5170F2" stroke-width="0.487551" stroke-miterlimit="10"/>
<path opacity="0.25" d="M100.437 89.0114L108.294 144.646" stroke="#5170F2" stroke-width="0.487551" stroke-miterlimit="10"/>
<path d="M100.437 89.9921H82.1045V91.6268H100.437V89.9921Z" fill="#002664"/>
<path d="M100.437 89.0114H82.1045V89.9921H100.437V89.0114Z" fill="#7794F2"/>
<path d="M95.1044 86.2446C95.1044 86.2446 94.5498 87.1754 94.1463 87.9966C93.8997 88.4981 93.705 88.6381 93.0183 89.0939C92.2254 89.6202 91.8405 89.1975 91.738 89.0836C90.9402 88.193 93.6678 87.4472 93.6678 87.4472L95.1044 86.2446Z" fill="#FCD9D2"/>
</g>
<defs>
<clipPath id="clip0_138_442">
<rect width="172" height="172" fill="white"/>
</clipPath>
</defs>
</svg>
