<svg width="114" height="104" viewBox="0 0 114 104" fill="none" xmlns="http://www.w3.org/2000/svg">
<path d="M103.075 101.702C115.251 90.519 120.673 59.5084 100.904 44.302C87.8153 34.2366 79.6751 39.9785 64.9511 33.3199C46.9761 25.1933 44.2969 0.640047 22.4326 12.7216C10.8492 19.12 2.8193 37.154 1.40663 57.6502C0.0221666 77.7221 5.91128 91.4946 17.9459 100.919C46.2069 102.371 74.5244 102.108 103.075 101.702Z" fill="#DFF3FC"/>
<path d="M53.0553 13.4952C51.2163 22.4147 58.0456 31.2443 65.2402 34.905C72.435 38.5688 80.6854 38.1321 88.3933 36.3854C91.7191 35.6328 95.138 34.5736 97.7215 32.0124C100.305 29.4511 101.803 25.0038 100.387 21.4112C99.1375 18.243 96.0953 16.6201 93.1951 15.787C90.2949 14.9539 87.2145 14.6133 84.6306 12.8603C82.1806 11.1972 80.4426 8.44397 78.3118 6.26366C74.3748 2.24061 68.8444 0.246124 63.726 1.519C58.6047 2.79188 54.6185 5.91369 53.0553 13.4952Z" fill="#DFF3FC"/>
<path d="M108.562 54.5204V47.7725H106.444C106.189 46.5929 105.801 45.4804 105.305 44.4556L106.802 42.6436L102.852 37.8716L101.352 39.6809C100.504 39.0807 99.5829 38.6125 98.6061 38.3049V35.7465H93.02V38.3049C92.0435 38.6125 91.1226 39.0807 90.2742 39.6809L88.7741 37.8716L84.8238 42.6436L86.3215 44.4556C85.8247 45.4801 85.4393 46.5926 85.1824 47.7725H83.0645V54.5204H85.1824C85.4393 55.7 85.8247 56.8125 86.3215 57.8373L84.8238 59.6494L88.7741 64.4213L90.2742 62.612C91.1223 63.2122 92.0432 63.6777 93.02 63.988V66.5465H98.6061V63.988C99.5827 63.6777 100.504 63.2122 101.352 62.612L102.852 64.4213L106.802 59.6494L105.305 57.8373C105.801 56.8128 106.189 55.7003 106.444 54.5204H108.562ZM95.8149 56.9927C93.1413 56.9927 90.9736 54.3742 90.9736 51.1446C90.9736 47.9184 93.1413 45.3002 95.8149 45.3002C98.4856 45.3002 100.653 47.9184 100.653 51.1446C100.653 54.3745 98.4856 56.9927 95.8149 56.9927Z" fill="#A2C7EB"/>
<path d="M91.6818 71.4274L90.6191 68.081L89.5687 68.5679C89.2567 68.0414 88.8893 67.5787 88.4814 67.1847L88.9388 65.9419L86.2283 64.4832L85.7694 65.7251C85.2543 65.6223 84.7239 65.6019 84.1911 65.6737L83.7881 64.4048L81.0179 65.6886L81.4209 66.9574C80.9851 67.3343 80.602 67.7781 80.2759 68.2709L79.247 67.7184L78.0395 70.9925L79.0676 71.5469C78.9827 72.1691 78.9668 72.8096 79.025 73.4534L77.9746 73.9403L79.0373 77.2866L80.0877 76.7998C80.401 77.326 80.7671 77.789 81.175 78.1829L80.7176 79.4258L83.4281 80.8845L83.887 79.6425C84.4021 79.7454 84.9323 79.7643 85.4653 79.694L85.8684 80.9628L88.6386 79.6791L88.2356 78.4102C88.6711 78.0318 89.0544 77.5895 89.3806 77.0968L90.4094 77.6493L91.617 74.3751L90.5889 73.8208C90.674 73.1986 90.6909 72.5578 90.6314 71.9142L91.6818 71.4274ZM85.7497 75.5833C84.4239 76.1977 82.9364 75.3974 82.4277 73.7957C81.9196 72.1957 82.5821 70.3992 83.9081 69.7847C85.2325 69.1709 86.7198 69.9715 87.228 71.5711C87.7366 73.1725 87.0741 74.9694 85.7497 75.5833Z" stroke="#A2C7EB" stroke-width="0.242889" stroke-miterlimit="10"/>
<path d="M82.6051 59.6896L81.887 57.4285L81.1773 57.7574C80.9666 57.4015 80.7181 57.089 80.4425 56.8227L80.7515 55.9828L78.9199 54.9973L78.6096 55.8366C78.2615 55.7672 77.903 55.7533 77.5431 55.8019L77.2708 54.9446L75.399 55.8121L75.6712 56.6694C75.3767 56.924 75.118 57.2241 74.8975 57.5567L74.2022 57.1835L73.3864 59.396L74.0812 59.7707C74.0237 60.1913 74.013 60.624 74.0524 61.0591L73.3428 61.388L74.0609 63.6492L74.7706 63.3203C74.9823 63.6758 75.2297 63.9886 75.5054 64.2549L75.1964 65.0948L77.028 66.0803L77.3382 65.241C77.6864 65.3104 78.0446 65.3234 78.4048 65.2757L78.6771 66.133L80.5489 65.2655L80.2766 64.4082C80.571 64.1527 80.8299 63.8536 81.0501 63.5209L81.7455 63.8941L82.5613 61.6816L81.8665 61.3069C81.9239 60.8863 81.9354 60.4533 81.8952 60.0185L82.6051 59.6896ZM78.5968 62.4974C77.701 62.9124 76.696 62.3716 76.3522 61.2895C76.0089 60.2084 76.4565 58.9946 77.3523 58.5793C78.2471 58.1646 79.2521 58.7054 79.5954 59.7865C79.9395 60.8686 79.4916 62.0827 78.5968 62.4974Z" stroke="#A2C7EB" stroke-width="0.242889" stroke-miterlimit="10"/>
<path d="M81.9532 20.1006C81.9532 23.4912 80.6413 26.5136 78.6003 28.4666C77.0974 29.9073 75.197 30.7621 73.127 30.7621C71.0624 30.7621 69.1618 29.9073 67.6538 28.4666C65.6101 26.5136 64.3008 23.4912 64.3008 20.1006C64.3008 14.2125 68.2527 9.43872 73.127 9.43872C78.0014 9.43872 81.9532 14.2125 81.9532 20.1006Z" fill="#0097D8" stroke="#0097D8" stroke-width="0.242889" stroke-miterlimit="10"/>
<path d="M73.4835 20.0578C75.0672 19.8216 76.1926 18.0795 75.9971 16.1667C75.8017 14.2538 74.3594 12.8945 72.7757 13.1306C71.192 13.3668 70.0666 15.1089 70.2621 17.0217C70.4575 18.9346 71.8998 20.2939 73.4835 20.0578Z" fill="white"/>
<path d="M78.6008 27.1218C77.0979 28.5625 75.1976 29.4176 73.1276 29.4176C71.0629 29.4176 69.1623 28.5629 67.6543 27.1218C68.2189 24.1217 68.7383 21.5317 69.279 20.8754C70.0422 19.9534 72.07 19.4155 73.1247 19.4155C74.1795 19.4155 76.3026 20.0686 76.6949 20.5425C77.4955 21.506 78.1847 24.1666 78.6008 27.1218Z" fill="white"/>
<path d="M60.4414 46.3832V41.1183C60.4414 39.6813 61.4054 38.5168 62.595 38.5168H76.3269C77.5165 38.5168 78.4805 39.6813 78.4805 41.1183V46.3832C78.4805 47.8203 77.5165 48.9848 76.3269 48.9848H62.5976C61.408 48.9879 60.4414 47.8203 60.4414 46.3832Z" fill="#0097D8"/>
<path d="M66.2411 46.1076L59.5957 53.9276L70.3663 47.3526" fill="#0097D8"/>
<path d="M62.1084 40.9882V40.9603C62.1084 40.7466 62.252 40.5732 62.4289 40.5732H69.2179C69.3948 40.5732 69.5384 40.7466 69.5384 40.9603V40.9882C69.5384 41.2019 69.3948 41.3753 69.2179 41.3753H62.4289C62.252 41.3753 62.1084 41.2019 62.1084 40.9882Z" fill="white"/>
<path d="M69.8438 40.9882V40.9603C69.8438 40.7466 69.9873 40.5732 70.1642 40.5732H76.0892C76.2661 40.5732 76.4097 40.7466 76.4097 40.9603V40.9882C76.4097 41.2019 76.2661 41.3753 76.0892 41.3753H70.1642C69.9873 41.3753 69.8438 41.2019 69.8438 40.9882Z" fill="white"/>
<path d="M67.2568 42.7504V42.7225C67.2568 42.5088 67.4004 42.3354 67.5773 42.3354H76.0892C76.2661 42.3354 76.4097 42.5088 76.4097 42.7225V42.7504C76.4097 42.9641 76.2661 43.1375 76.0892 43.1375H67.5773C67.4004 43.1375 67.2568 42.9641 67.2568 42.7504Z" fill="white"/>
<path d="M62.1084 42.7503V42.7225C62.1084 42.5088 62.252 42.3354 62.4288 42.3354H66.2304C66.4073 42.3354 66.5509 42.5088 66.5509 42.7225V42.7503C66.5509 42.964 66.4073 43.1374 66.2304 43.1374H62.4288C62.252 43.1374 62.1084 42.964 62.1084 42.7503Z" fill="white"/>
<path d="M68.4385 44.5126V44.4847C68.4385 44.271 68.5821 44.0976 68.759 44.0976H76.0889C76.2658 44.0976 76.4094 44.271 76.4094 44.4847V44.5126C76.4094 44.7263 76.2658 44.8997 76.0889 44.8997H68.759C68.5821 44.8997 68.4385 44.7263 68.4385 44.5126Z" fill="white"/>
<path d="M62.1084 44.5126V44.4847C62.1084 44.271 62.252 44.0976 62.4289 44.0976H67.4924C67.6693 44.0976 67.8129 44.271 67.8129 44.4847V44.5126C67.8129 44.7263 67.6693 44.8997 67.4924 44.8997H62.4289C62.252 44.8997 62.1084 44.7263 62.1084 44.5126Z" fill="white"/>
<path d="M62.1084 46.2747V46.2469C62.1084 46.0332 62.252 45.8598 62.4288 45.8598H64.3078C64.4847 45.8598 64.6283 46.0332 64.6283 46.2469V46.2747C64.6283 46.4884 64.4847 46.6618 64.3078 46.6618H62.4288C62.252 46.6618 62.1084 46.4884 62.1084 46.2747Z" fill="white"/>
<path d="M65.293 46.2748V46.2469C65.293 46.0332 65.4365 45.8598 65.6134 45.8598H76.0892C76.2661 45.8598 76.4097 46.0332 76.4097 46.2469V46.2748C76.4097 46.4885 76.2661 46.6619 76.0892 46.6619H65.6134C65.4365 46.6619 65.293 46.4885 65.293 46.2748Z" fill="white"/>
<path d="M26.5482 38.9303C28.5268 33.7939 26.6837 27.6924 22.4316 25.3024C18.1794 22.9123 13.1285 25.1387 11.1499 30.2751C9.17133 35.4116 11.0144 41.513 15.2665 43.9031C19.5186 46.2931 24.5696 44.0668 26.5482 38.9303Z" fill="#0097D8"/>
<path d="M17.5275 41.9825C18.5996 41.5277 19.1634 40.1091 18.7868 38.814C18.4103 37.519 17.2359 36.8379 16.1638 37.2928C15.0918 37.7476 14.5279 39.1662 14.9045 40.4613C15.281 41.7563 16.4554 42.4374 17.5275 41.9825Z" fill="white"/>
<path d="M15.7655 40.5292L15.666 38.953L16.7465 38.0612L17.9262 38.7453L18.0254 40.3214L16.9452 41.2135L15.7655 40.5292Z" fill="#0097D8"/>
<path d="M21.5372 31.9071C22.6071 31.4451 23.1644 30.0228 22.7819 28.7304C22.3994 27.4379 21.222 26.7647 20.1521 27.2267C19.0822 27.6888 18.5249 29.111 18.9074 30.4035C19.2898 31.6959 20.4672 32.3691 21.5372 31.9071Z" fill="white"/>
<path d="M19.8271 30.3098L19.8979 28.3057L21.1481 26.9856L22.3278 27.6699L22.257 29.674L21.0066 30.9938L19.8271 30.3098Z" fill="#0097D8"/>
<path d="M18.2702 38.4886L16.6963 37.5756L17.8595 34.3339C17.9333 34.1283 18.0136 33.9261 18.1002 33.7279L19.467 30.6042L21.0409 31.5172L19.919 34.7096C19.8324 34.9564 19.736 35.1983 19.6308 35.4346L18.2702 38.4886Z" fill="white"/>
<path d="M24.7441 40.1211C25.0474 39.9511 29.9187 40.2196 29.9187 40.2196L26.4073 36.3253L24.7441 40.1211Z" fill="#0097D8"/>
<path d="M46.2447 17.258C48.0746 12.1477 46.1285 6.21297 41.898 4.00247C37.6676 1.79197 32.7546 4.14273 30.9247 9.25305C29.0948 14.3634 31.0408 20.2981 35.2713 22.5086C39.5018 24.7191 44.4147 22.3683 46.2447 17.258Z" fill="#0097D8"/>
<path d="M38.865 4.66467H38.3076V13.1313H38.865V4.66467Z" fill="white"/>
<path d="M32.4279 18.0193L32.7451 18.5729L38.5863 13.6889L38.2691 13.1353L32.4279 18.0193Z" fill="white"/>
<path d="M39.3544 13.256C39.3544 13.7685 39.0106 14.1838 38.5864 14.1838C38.1621 14.1838 37.8184 13.7685 37.8184 13.256C37.8184 12.7436 38.1621 12.3283 38.5864 12.3283C39.0106 12.3283 39.3544 12.7439 39.3544 13.256Z" fill="white"/>
<path d="M61.2446 81.5222C60.7498 72.3054 64.0879 62.7665 69.7104 57.3096C69.8847 66.5728 66.5799 75.9475 61.2446 81.5222Z" fill="#A2C7EB"/>
<path d="M68.7927 59.7903C66.4237 65.1234 64.3752 70.7042 62.6729 76.4616C60.6039 83.4516 58.9758 90.8783 55.4326 96.7379" stroke="#6F8BBF" stroke-width="0.242889" stroke-miterlimit="10" stroke-linecap="round"/>
<path d="M59.4707 87.3198C62.3166 79.6298 67.9647 73.8198 74.1922 72.1753C71.5412 80.4165 65.5777 86.7035 59.4707 87.3198Z" fill="#A2C7EB"/>
<path d="M72.664 73.8694C68.4106 78.3911 64.0854 82.7857 59.6885 87.0503" stroke="#6F8BBF" stroke-width="0.242889" stroke-miterlimit="10" stroke-linecap="round"/>
<path d="M57.791 94.0187C61.5932 87.1588 68.6078 83.5786 74.4123 85.5359C70.1435 92.3091 63.1135 95.8986 57.791 94.0187Z" fill="#A2C7EB"/>
<path d="M73.0206 86.0313C68.0365 89.7973 62.6602 92.5784 57.1172 94.2508" stroke="#6F8BBF" stroke-width="0.242889" stroke-miterlimit="10" stroke-linecap="round"/>
<path d="M59.8446 84.9877C61.0598 77.2637 59.237 68.654 55.1784 62.9586C53.5145 70.5494 55.1015 79.4441 59.8446 84.9877Z" fill="#A2C7EB"/>
<path d="M55.5967 64.9283C56.3966 72.1134 57.8195 78.8433 60.0244 85.4213" stroke="#6F8BBF" stroke-width="0.242889" stroke-miterlimit="10" stroke-linecap="round"/>
<path d="M57.7578 91.5659C57.2399 83.6251 53.871 76.1674 48.9434 72.0515C49.2279 76.2572 50.1535 80.3112 51.6226 83.9967C53.3121 88.2304 55.7939 90.9155 57.7578 91.5659Z" fill="#A2C7EB"/>
<path d="M49.6738 73.6586C51.6121 80.28 54.4015 86.4183 57.8806 91.7328" stroke="#6F8BBF" stroke-width="0.242889" stroke-miterlimit="10" stroke-linecap="round"/>
<path d="M95.8135 89.6612C98.5029 81.2094 104.689 74.3525 111.512 72.2651C108.522 80.6023 102.42 87.3229 95.8135 89.6612Z" fill="#A2C7EB"/>
<path d="M109.858 74.0211C105.956 77.6044 102.248 81.5655 98.7923 85.8549C94.5928 91.0641 90.6317 96.8741 85.5117 100.349" stroke="#6F8BBF" stroke-width="0.242889" stroke-miterlimit="10" stroke-linecap="round"/>
<path d="M92.2773 93.9506C97.4024 88.5029 104.366 86.112 110.427 87.7162C105.289 93.7524 97.8844 96.4127 92.2773 93.9506Z" fill="#A2C7EB"/>
<path d="M108.501 88.4748C103.207 90.4073 97.8923 92.1881 92.5596 93.8203" stroke="#6F8BBF" stroke-width="0.242889" stroke-miterlimit="10" stroke-linecap="round"/>
<path d="M88.5195 99.0917C94.2087 94.8549 101.623 95.1244 106.089 99.7297C100.018 103.657 92.5858 103.387 88.5195 99.0917Z" fill="#A2C7EB"/>
<path d="M104.692 99.4819C99.0106 100.38 93.3112 100.207 87.8477 98.9647" stroke="#6F8BBF" stroke-width="0.242889" stroke-miterlimit="10" stroke-linecap="round"/>
<path d="M93.4008 92.0583C97.0953 85.7775 98.4054 77.208 96.7517 70.1344C92.7035 76.0745 91.0883 84.7803 93.4008 92.0583Z" fill="#A2C7EB"/>
<path d="M96.4522 72.0917C94.7191 78.8866 93.6961 85.5824 93.4141 92.5321" stroke="#6F8BBF" stroke-width="0.242889" stroke-miterlimit="10" stroke-linecap="round"/>
<path d="M89.3242 96.8896C91.5599 89.562 91.1138 81.2558 88.1551 75.1608C86.9809 79.0476 86.422 83.114 86.4707 87.1216C86.5245 91.7238 87.8065 95.3411 89.3242 96.8896Z" fill="#A2C7EB"/>
<path d="M88.2522 76.9509C87.7189 83.8047 88.101 90.6491 89.3726 97.0971" stroke="#6F8BBF" stroke-width="0.242889" stroke-miterlimit="10" stroke-linecap="round"/>
<path d="M19.5897 74.884C16.848 64.7539 9.19673 56.5687 0.295898 54.246C4.03806 63.0096 10.8253 69.9845 19.5897 74.884Z" fill="#A2C7EB"/>
<path d="M20.0537 76.4554C14.048 72.3528 6.52314 71.4481 0 74.0416C6.05037 77.6924 13.2193 78.7094 20.0537 76.4554Z" fill="#A2C7EB"/>
<path d="M21.7148 78.6522C15.224 77.5654 8.42676 79.4983 3.15527 83.9286C9.13283 86.5533 16.3041 84.8512 21.7148 78.6522Z" fill="#A2C7EB"/>
<path d="M23.7385 83.451C17.3108 83.4188 10.9909 87.1089 7.21289 93.1007C10.0736 93.7932 13.1115 93.3792 15.7358 91.9437C18.3601 90.5076 20.5589 88.0575 23.7385 83.451Z" fill="#A2C7EB"/>
<path d="M28.2705 91.4801C21.9325 90.1676 15.1794 92.5399 10.6094 97.6856C13.3373 98.9371 16.3916 99.1372 19.1823 98.248C21.9733 97.3592 24.4861 95.3848 28.2705 91.4801Z" fill="#A2C7EB"/>
<path d="M21.4275 75.3637C17.2423 68.5493 16.1065 59.3666 18.4842 51.5547C20.2999 55.269 21.8667 59.196 22.5979 63.3702C23.3291 67.5447 23.187 71.9951 21.4275 75.3637Z" fill="#A2C7EB"/>
<path d="M23.985 81.9385C22.9938 74.6985 25.0431 67.0253 29.3716 61.782C29.8697 69.2722 27.9725 76.9027 23.985 81.9385Z" fill="#A2C7EB"/>
<path d="M2.24414 56.061C14.9823 65.9061 24.9443 80.5808 30.2029 97.2534" stroke="#6F8BBF" stroke-width="0.242889" stroke-miterlimit="10" stroke-linecap="round"/>
<path d="M18.8799 55.1472C20.4292 62.747 21.3719 70.506 21.6909 78.2879" stroke="#6F8BBF" stroke-width="0.242889" stroke-miterlimit="10" stroke-linecap="round"/>
<path d="M28.42 64.7214C27.9123 70.8529 26.3438 76.8456 23.8379 82.2434" stroke="#6F8BBF" stroke-width="0.242889" stroke-miterlimit="10" stroke-linecap="round"/>
<path d="M2.68164 74.2184C8.52152 75.5598 14.4573 76.2869 20.3941 76.3938" stroke="#6F8BBF" stroke-width="0.242889" stroke-miterlimit="10" stroke-linecap="round"/>
<path d="M6.2002 83.3262C11.585 82.8536 16.8826 81.2778 21.7795 78.6893" stroke="#6F8BBF" stroke-width="0.242889" stroke-miterlimit="10" stroke-linecap="round"/>
<path d="M9.42676 92.0068C14.3955 89.0129 19.3647 86.0153 24.3334 83.0214" stroke="#6F8BBF" stroke-width="0.242889" stroke-miterlimit="10" stroke-linecap="round"/>
<path d="M12.6582 97.2938C19.1455 95.7818 21.0729 93.9775 28.2729 91.4807" stroke="#6F8BBF" stroke-width="0.242889" stroke-miterlimit="10" stroke-linecap="round"/>
<path d="M53.7287 82.9406C53.7287 82.9406 54.2901 89.1564 54.9183 89.655C56.0412 90.55 69.0398 92.6188 69.0398 92.6188L68.6142 96.7038C68.6142 96.7038 50.811 98.6364 50.0547 97.5617C48.742 95.6973 46.4346 86.7035 46.4346 86.7035L53.7287 82.9406Z" fill="#E06A58"/>
<path d="M45.1445 66.9382L46.5828 62.7665C46.5828 62.7665 50.485 64.9809 51.772 67.7156C53.1488 70.6392 54.8332 86.1832 54.8332 86.1832C54.8332 86.1832 47.9442 88.1003 46.6777 87.2857C45.4112 86.4712 45.1445 66.9382 45.1445 66.9382Z" fill="#F2AE30"/>
<path d="M34.1889 47.5756C33.1813 47.1296 32.1147 46.7394 31.0354 46.8385C29.956 46.9376 28.8536 47.6282 28.4869 48.7741C28.2254 49.5855 28.3459 50.5425 27.9331 51.2734C27.5383 51.9734 26.7538 52.2645 26.0205 52.3233C25.2847 52.3853 24.5438 52.2676 23.8131 52.3822C21.5569 52.7445 19.9468 55.7053 20.6878 58.1303C20.9826 59.0965 21.5877 60.0194 21.4492 61.026C21.3031 62.1037 20.3673 62.813 19.9827 63.8133C19.4725 65.145 20.0827 66.7586 21.0903 67.666C22.0979 68.5704 23.408 68.9141 24.6796 69.1433C26.4307 69.4592 28.2382 69.6079 29.9688 69.1619C31.6994 68.7159 33.3531 67.6134 34.2478 65.8914C34.6452 65.1295 34.8862 64.2686 35.3477 63.5532C36.3015 62.0759 37.991 61.5029 39.3217 60.4561C40.7753 59.3071 41.8419 57.0711 40.9856 55.3213C40.16 53.6396 38.0115 53.2648 37.1501 51.6079C36.7937 50.9235 36.7091 50.1089 36.4784 49.3626C36.2425 48.6131 35.6785 48.2352 34.1889 47.5756Z" fill="#0A2240"/>
<path d="M40.0599 68.2049C40.3137 68.558 40.6137 68.9451 41.029 68.9792C41.4674 69.0163 41.8341 68.6416 42.1161 68.2793C43.5723 66.4179 44.5338 64.1323 44.9235 61.7755C44.562 61.5277 44.2133 61.2893 43.8979 61.0663C43.6057 60.8557 43.3852 60.5615 43.2596 60.2177C43.1724 59.9637 43.1416 59.6974 43.1647 59.4186C43.3698 57.0897 43.5518 55.792 44.2287 53.429C41.0136 52.5525 37.9806 51.5119 36.2372 49.7528C36.0244 50.8368 35.7732 52.9582 35.2373 55.0611C34.6656 57.2879 33.7734 59.4899 32.2607 60.4376C35.2297 62.5559 37.8781 65.1884 40.0599 68.2049Z" fill="#F9A07B"/>
<path d="M43.1647 59.4212C43.1416 59.6999 43.1723 59.9694 43.2595 60.2202C41.3572 63.0076 37.1038 59.3655 35.2373 55.0637C35.7731 52.9608 36.0244 50.8393 36.2372 49.7554C37.978 51.5145 41.0136 52.5582 44.2286 53.4316C43.5518 55.7946 43.3698 57.0891 43.1647 59.4212Z" fill="#E06A58"/>
<path d="M48.4616 93.1175C48.0411 96.4809 51.0459 100.101 51.1203 101.898C44.7389 101.898 31.3711 102.368 24.5642 101.25C24.2539 99.1753 27.6151 94.508 27.6151 89.8997C27.6151 89.2895 27.5946 88.6206 27.5536 87.9021C27.4459 85.8456 27.1947 83.399 26.9152 80.8904C26.1563 74.1605 25.1462 66.963 25.8922 65.4703C27.3536 62.5622 30.7712 60.5863 32.4659 59.7377C33.0479 59.4465 33.4273 59.2886 33.4555 59.27C35.5809 63.6492 39.9061 67.3842 41.5393 67.217C41.9931 67.1736 43.3391 66.6069 44.2287 61.1964C44.5748 61.4348 44.921 61.6547 45.2645 61.8684C46.9541 62.9307 48.5385 63.8072 48.9949 65.173C50.1999 68.7686 51.3818 77.8336 51.1203 81.0576C50.8562 84.3095 49.7743 86.7933 49.0154 90.0576C48.8385 90.8226 48.677 91.634 48.5462 92.5074C48.5129 92.7025 48.4872 92.9069 48.4616 93.1175Z" fill="#FFC73C"/>
<path d="M51.1203 101.898C44.7389 101.898 31.3711 102.368 24.5642 101.25C24.2539 99.1753 27.6151 94.5081 27.6151 89.8997C27.6151 89.2896 27.5946 88.6206 27.5536 87.9021C27.4459 85.8457 27.1947 83.399 26.9152 80.8904C28.1228 82.4297 29.8841 75.9259 30.6635 77.8306C34.881 88.1127 38.2063 90.8164 43.9852 90.8164C45.708 90.8164 47.2976 90.5284 49.0154 90.0576C48.8385 90.8226 48.677 91.634 48.5462 92.5074C48.5154 92.7056 48.4872 92.91 48.4616 93.1206C48.0411 96.4778 51.0459 100.098 51.1203 101.898Z" fill="#FFBB33"/>
<path d="M45.2644 61.8684C44.9901 64.2748 44.1774 67.5174 41.8135 68.3722C38.619 69.5274 33.9964 62.3175 32.4658 59.7377C33.0478 59.4465 33.4273 59.2886 33.4555 59.27C35.5809 63.6492 39.906 67.3842 41.5392 67.217C41.993 67.1736 43.339 66.6069 44.2287 61.1964C44.5748 61.4317 44.9209 61.6516 45.2644 61.8684Z" fill="#FCE172"/>
<path d="M46.5778 98.2771L46.5547 100.962L86.294 101.247L86.376 98.2028L46.5778 98.2771Z" fill="#325F73"/>
<path d="M103.518 74.3216L102.633 73.2376L73.6875 73.0084L59.166 98.3762L59.9249 99.1133L103.518 74.3216Z" fill="#325F73"/>
<path d="M74.2463 73.9467L59.9248 99.1132L87.2808 99.2773L103.518 74.3215L74.2463 73.9467Z" fill="#0B2D50"/>
<path d="M81.1589 90.0111C82.9175 90.0111 84.3432 89.1501 84.3432 88.0879C84.3432 87.0257 82.9175 86.1646 81.1589 86.1646C79.4003 86.1646 77.9746 87.0257 77.9746 88.0879C77.9746 89.1501 79.4003 90.0111 81.1589 90.0111Z" fill="#3C738C"/>
<path d="M47.1647 49.1034C47.6159 46.1791 49.2757 44.1001 50.8725 44.4594C52.4692 44.8189 53.3978 47.4805 52.9466 50.4047C52.4954 53.329 50.8356 55.408 49.2388 55.0487C47.6423 54.6895 46.7137 52.0276 47.1647 49.1034Z" fill="#56C4F9"/>
<path d="M52.951 41.2267C52.6535 43.7724 51.7126 46.5783 50.341 49.6785C49.859 47.1389 49.5513 44.045 49.1257 40.951C48.6924 37.8509 48.1412 34.7508 47.1849 32.2174C46.9695 31.6569 46.7362 31.1211 46.4824 30.6255C47.049 30.5605 47.6233 30.6255 48.1694 30.8083C49.0232 31.0839 49.8231 31.6166 50.4769 32.3289C51.5639 33.4965 52.292 35.0884 52.7253 36.7669C53.0817 38.1606 53.1458 39.641 52.951 41.2267Z" fill="#0B2D50"/>
<path d="M51.3407 43.8592C51.3253 44.3609 51.2971 44.8719 51.2587 45.3798C50.6741 53.6179 47.8103 59.27 43.4288 59.27C37.2422 59.27 33.2324 50.8894 33.2324 42.6792C33.2324 34.5804 37.3397 28.7178 42.1468 29.396C44.9183 29.78 46.9438 30.8919 48.3821 32.5209C49.3333 33.6049 50.0204 34.9149 50.4895 36.4046C51.0254 38.0739 51.2843 39.9631 51.3382 41.9978C51.3382 42.004 51.3433 42.0102 51.3433 42.0164C51.3638 42.6172 51.3587 43.2305 51.3407 43.8592Z" fill="#F9A07B"/>
<path d="M51.3407 43.8592C51.1561 43.0632 50.8818 42.2859 50.5075 41.589C46.8591 43.8932 42.5109 44.7821 38.3883 43.9397C37.6037 44.7294 36.8371 45.5068 36.0654 46.2842C36.0808 42.5367 36.1244 40.0003 37.3345 38.1854C38.4703 36.482 40.365 35.841 42.1596 35.5622C44.1799 35.2432 46.2336 35.2556 48.2487 35.6087C49.0204 35.7388 49.8204 35.9401 50.4921 36.4108C51.0279 38.0801 51.2869 39.9693 51.3407 42.004C51.3407 42.0102 51.3458 42.0164 51.3458 42.0226C51.3638 42.6173 51.3586 43.2305 51.3407 43.8592Z" fill="#E06A58"/>
<path d="M52.2329 38.7857C51.3843 39.6529 50.3203 40.3714 49.1256 40.9536C45.7259 42.6105 41.3084 43.1587 37.8652 42.9574C36.1731 47.4481 35.4886 49.0585 35.0553 52.9763C33.4016 51.1026 32.0556 47.6711 31.6556 44.9736C31.2608 42.2853 31.2993 39.4639 31.9197 36.8222C32.8965 32.6567 35.3604 30.4268 37.0679 29.3428C37.4935 29.061 37.878 28.8659 38.1754 28.7234C40.3573 27.7045 42.816 27.7974 45.0542 28.6243C46.2746 29.0827 47.3027 29.8569 48.1667 30.8108C49.9126 32.7155 50.992 35.2953 51.6894 37.2279C51.9099 37.8194 52.0868 38.3552 52.2329 38.7857Z" fill="#0B2D50"/>
<path d="M52.951 41.2267C52.81 40.3254 52.5998 39.4521 52.3024 38.6097C52.1357 38.1327 51.9306 37.6713 51.6922 37.2253C50.9153 35.7511 49.7847 34.5371 48.4182 34.0013C48.0285 33.3416 47.6183 32.747 47.1875 32.2205C45.6364 30.3158 43.8161 29.2257 41.8881 28.8447C40.2832 28.5319 38.6141 28.7085 37.0732 29.3403C37.4988 29.0584 37.8834 28.8633 38.1808 28.7209C40.3626 27.7019 42.8213 27.7949 45.0596 28.6218C46.2799 29.0801 47.308 29.8544 48.172 30.8083C49.0258 31.0839 49.8257 31.6166 50.4795 32.3289C51.5665 33.4965 52.2947 35.0884 52.728 36.767C53.0818 38.1606 53.1459 39.641 52.951 41.2267Z" fill="#225570"/>
<path d="M39.8369 46.2778C40.9802 45.4882 42.1671 45.1321 43.8308 45.866" stroke="#0B2D50" stroke-width="0.485777" stroke-miterlimit="10" stroke-linecap="round"/>
<path d="M47.667 46.2222C48.6462 45.3396 50.0971 45.2498 50.8534 46.2222" stroke="#0B2D50" stroke-width="0.485777" stroke-miterlimit="10" stroke-linecap="round"/>
<path d="M46.4851 50.7253C46.5851 51.3508 46.5312 52.735 46.2852 53.3574" stroke="#CC454E" stroke-width="0.485777" stroke-miterlimit="10" stroke-linecap="round"/>
<path d="M42.6211 51.1462C42.8816 51.1462 43.0928 50.7442 43.0928 50.2482C43.0928 49.7523 42.8816 49.3502 42.6211 49.3502C42.3606 49.3502 42.1494 49.7523 42.1494 50.2482C42.1494 50.7442 42.3606 51.1462 42.6211 51.1462Z" fill="#262D40"/>
<path d="M48.7871 50.7281C49.0476 50.7281 49.2588 50.326 49.2588 49.8301C49.2588 49.3341 49.0476 48.9321 48.7871 48.9321C48.5266 48.9321 48.3154 49.3341 48.3154 49.8301C48.3154 50.326 48.5266 50.7281 48.7871 50.7281Z" fill="#262D40"/>
<path d="M45.8996 54.5809C45.8996 54.5809 45.8073 54.7976 45.6304 55.0918C45.3536 55.5408 44.8819 56.1601 44.2385 56.4017H44.2359C43.9642 56.507 43.6694 56.5441 43.3413 56.4729C42.3774 56.2654 42.1236 55.1909 42.0775 54.3641C42.0672 54.2031 42.0672 54.0545 42.0698 53.9182C42.0749 53.5838 42.1057 53.3608 42.1057 53.3608C43.6412 54.3827 45.8996 54.5809 45.8996 54.5809Z" fill="#CC454E"/>
<path d="M45.9001 54.5809C45.9001 54.5809 45.8078 54.7976 45.6309 55.0918C44.8465 55.0794 43.2418 54.5933 42.0703 53.9182C42.0754 53.5838 42.1062 53.3608 42.1062 53.3608C43.6417 54.3827 45.9001 54.5809 45.9001 54.5809Z" fill="white"/>
<path d="M44.2356 56.3986C43.9638 56.5039 43.669 56.5411 43.3409 56.4698C42.3771 56.2624 42.1233 55.1879 42.0771 54.3611C42.5437 54.4292 42.9949 54.646 43.3691 54.9897C43.7613 55.352 44.0613 55.8443 44.2356 56.3986Z" fill="#E8729B"/>
<path d="M35.0709 44.8564C35.0709 44.8564 35.0171 40.9944 36.3477 37.1572C38.0168 32.3413 41.419 30.2817 44.7186 30.1424C48.6951 29.972 51.1846 33.196 51.1846 33.196C51.1846 33.196 49.8899 30.4366 47.3363 29.6438C45.6595 29.1234 43.129 29.0398 41.0985 30.0371C39.0064 31.0622 36.399 33.9084 35.4555 36.9156C34.5146 39.9228 34.0557 44.6055 34.0557 44.6055L35.0709 44.8564Z" fill="#3D86E0"/>
<path d="M35.0024 54.9093C36.7051 54.6954 37.8679 51.9957 37.5997 48.8793C37.3315 45.7629 35.7338 43.4098 34.0312 43.6236C32.3285 43.8375 31.1657 46.5372 31.4339 49.6536C31.7021 52.7701 33.2998 55.1231 35.0024 54.9093Z" fill="#56C4F9"/>
<path d="M33.1688 45.4511C34.2679 45.2516 35.3947 46.9835 35.6852 49.3193C35.9757 51.655 35.3203 53.7105 34.221 53.91C33.1219 54.1094 31.9951 52.3776 31.7046 50.0418C31.4141 47.706 32.0697 45.6505 33.1688 45.4511Z" fill="#3D86E0"/>
<path d="M44.7436 59.3842C45.6554 59.3842 46.3945 58.8283 46.3945 58.1425C46.3945 57.4567 45.6554 56.9008 44.7436 56.9008C43.8319 56.9008 43.0928 57.4567 43.0928 58.1425C43.0928 58.8283 43.8319 59.3842 44.7436 59.3842Z" fill="#3A92C9"/>
<path d="M36.4502 53.9896C36.4502 53.9896 38.8756 57.7556 43.0931 58.1427" stroke="#3A92C9" stroke-width="0.485777" stroke-miterlimit="10" stroke-linecap="round"/>
<path d="M46.5548 91.1073L46.3958 96.0594C46.3958 96.0594 31.5692 101.427 29.1207 99.7294C27.926 98.8994 26.8107 94.3344 25.9775 89.8778C25.1058 85.195 24.5469 80.6362 24.5469 80.6362L33.2382 78.5798C33.2382 78.5798 33.2434 84.9813 33.5382 88.6823C33.6433 90.0605 33.7946 91.0639 33.9971 91.2281C34.7637 91.8382 46.5548 91.1073 46.5548 91.1073Z" fill="#F9A07B"/>
<path d="M33.5382 88.6763C31.9589 89.2957 28.9105 90.2526 25.9775 89.8748C25.1058 85.1921 24.5469 80.6333 24.5469 80.6333L33.2382 78.5768C33.2382 78.5737 33.2434 84.9753 33.5382 88.6763Z" fill="#E06A58"/>
<path d="M46.1319 91.157C48.3368 90.5871 52.0698 89.2183 53.6183 88.7475C54.7182 88.413 57.582 90.2031 58.3383 91.891C58.669 92.6281 58.9818 96.8029 57.8358 96.3724C57.2615 96.1556 57.3564 94.3655 57.1769 93.6346C57.0308 93.04 56.5641 92.4639 55.854 91.9684C56.3283 93.3961 56.3103 94.6412 56.259 96.1835C56.2488 96.5242 56.2308 96.8803 56.095 97.1745C55.9565 97.4687 55.6591 97.6793 55.4027 97.5493C55.1412 97.4192 55.0515 97.0259 54.9925 96.6821C54.79 95.4928 54.5849 94.3036 54.5028 92.9595C54.5233 94.2819 54.5003 95.6074 54.431 96.9268C54.3798 97.9364 53.9644 98.4908 53.4542 98.3142C53.226 98.2368 53.1337 97.9828 53.0363 97.6484C52.8825 98.2956 52.4979 99.0111 52.0005 98.7385C51.698 98.5744 51.5108 97.255 51.5647 95.8985C50.6109 96.614 49.5341 96.9175 48.2932 96.9856C47.1805 97.0476 46.0422 96.7967 45.373 95.8831C45.4397 94.4553 45.8294 92.3432 46.1319 91.157Z" fill="#F9A07B"/>
<path d="M53.0592 97.4435C53.1335 96.3721 53.0566 95.2852 52.8311 94.2509" stroke="#CC454E" stroke-width="0.242889" stroke-miterlimit="10" stroke-linecap="round"/>
<path d="M32.2613 68.1925C31.6306 66.0463 29.3206 61.6547 29.3206 61.6547C29.3206 61.6547 25.7953 63.4262 24.5442 66.4334C22.4264 71.5249 23.5032 86.1429 23.5032 86.1429C26.3568 87.5861 32.0844 87.6078 34.5226 87.1928C34.5226 87.1928 33.5252 72.4819 32.2613 68.1925Z" fill="#FFC73C"/>
<path d="M32.71 69.0906C33.6714 74.6498 34.1867 79.8342 34.3508 84.9134" stroke="#F2AE30" stroke-width="0.242889" stroke-miterlimit="10" stroke-linecap="round"/>
<path d="M108.163 100.365H7.07617V103.427H108.163V100.365Z" fill="#0B2D50"/>
</svg>
