<svg width="72" height="74" viewBox="0 0 72 74" fill="none" xmlns="http://www.w3.org/2000/svg">
<rect opacity="0.1" x="0.504883" width="71.379" height="73.869" rx="2.48997" fill="#2BD35A"/>
<g clip-path="url(#clip0_979_4074)">
<path d="M67.1003 56.3685L55.7313 35.3438C56.8911 32.7113 57.54 29.802 57.54 26.7412C57.54 14.9447 47.9767 5.38232 36.1811 5.38232C24.3827 5.38232 14.8203 14.9456 14.8203 26.7412C14.8203 29.8759 15.5013 32.8503 16.7136 35.5313L5.29393 56.3588C4.92571 57.0281 4.98691 57.8538 5.44735 58.4648C5.90875 59.0739 6.68781 59.3604 7.43183 59.1856L17.1836 56.9485L20.5213 66.2447C20.7816 66.9674 21.4412 67.4686 22.2057 67.525C22.2553 67.5289 22.3028 67.5308 22.3494 67.5308C22.7007 67.5307 23.0454 67.4353 23.3468 67.2549C23.6482 67.0744 23.895 66.8156 24.061 66.506L33.9993 47.9904C34.7239 48.0638 35.4517 48.1005 36.1801 48.1002C36.8552 48.1002 37.5215 48.0652 38.1801 48.0031L48.334 66.5206C48.5137 66.8489 48.7844 67.1182 49.1136 67.2962C49.4427 67.4742 49.8163 67.5533 50.1894 67.524C50.9519 67.4628 51.6086 66.9625 51.8669 66.2437L55.2046 56.9475L64.9563 59.1846C65.7043 59.3653 66.4756 59.0748 66.937 58.4677C67.4003 57.8616 67.4625 57.0398 67.1002 56.3685H67.1003ZM22.7029 60.8233L20.2588 54.0138C19.9246 53.0881 18.9552 52.549 17.9954 52.7773L10.7829 54.4315L19.0039 39.4372C21.7111 43.0945 25.5578 45.8532 30.0194 47.1957L22.7029 60.8233ZM18.7231 26.7411C18.7231 17.1157 26.5554 9.28433 36.1818 9.28433C45.8073 9.28433 53.6386 17.1157 53.6386 26.7411C53.6386 36.3666 45.8073 44.1999 36.1818 44.1999C26.5544 44.1999 18.7231 36.3666 18.7231 26.7411ZM54.3924 52.7772C53.4288 52.5499 52.4633 53.088 52.1291 54.0137L49.6685 60.8727L42.1917 47.2392C46.7718 45.8978 50.7118 43.0662 53.4541 39.3021L61.6409 54.4392L54.3924 52.7772Z" fill="#48E975"/>
<circle cx="36.1948" cy="26.6408" r="19.6323" fill="#48E975"/>
</g>
<path d="M36.0042 32.6962C36.9866 32.6962 37.8219 32.3522 38.5098 31.6642C39.1978 30.9762 39.5415 30.1413 39.541 29.1594C39.541 28.1769 39.197 27.3417 38.5091 26.6537C37.8211 25.9657 36.9861 25.622 36.0042 25.6225C35.0217 25.6225 34.1865 25.9665 33.4985 26.6545C32.8105 27.3425 32.4668 28.1774 32.4673 29.1594C32.4673 30.1418 32.8113 30.977 33.4993 31.665C34.1873 32.353 35.0222 32.6967 36.0042 32.6962ZM33.7052 24.6008C33.9672 24.4567 34.2457 24.3422 34.5407 24.2573C34.8357 24.1724 35.1336 24.1166 35.4344 24.0899L33.4498 20.1208H31.4849L33.7052 24.6008ZM38.3031 24.6008L40.5431 20.1208H38.5586L36.8884 23.4611L37.2617 24.2078C37.4451 24.2602 37.622 24.316 37.7922 24.3752C37.9625 24.4344 38.1328 24.5096 38.3031 24.6008ZM31.6028 31.753C31.3801 31.3732 31.2064 30.9637 31.0817 30.5246C30.957 30.0855 30.8949 29.6304 30.8954 29.1594C30.8954 28.6878 30.9578 28.2324 31.0825 27.7933C31.2072 27.3543 31.3806 26.945 31.6028 26.5657C31.0526 26.7491 30.6007 27.0734 30.247 27.5387C29.8933 28.004 29.7165 28.5442 29.7165 29.1594C29.7165 29.775 29.8933 30.3155 30.247 30.7808C30.6007 31.2461 31.0526 31.5702 31.6028 31.753ZM40.4056 31.753C40.9558 31.5696 41.4077 31.2453 41.7614 30.78C42.1151 30.3147 42.2919 29.7745 42.2919 29.1594C42.2919 28.5437 42.1151 28.0032 41.7614 27.5379C41.4077 27.0726 40.9558 26.7485 40.4056 26.5657C40.6283 26.9456 40.802 27.355 40.9267 27.7941C41.0514 28.2332 41.1135 28.6883 41.113 29.1594C41.113 29.6309 41.0506 30.0863 40.9259 30.5254C40.8012 30.9645 40.6277 31.3737 40.4056 31.753ZM36.0042 34.2681C35.4802 34.2681 34.979 34.1927 34.5006 34.0418C34.0222 33.8909 33.5803 33.6847 33.1747 33.4232C33.0568 33.4494 32.9389 33.4659 32.821 33.4727C32.7031 33.4795 32.5787 33.4827 32.4477 33.4822C31.2556 33.4822 30.2404 33.063 29.4021 32.2246C28.5637 31.3863 28.1445 30.371 28.1445 29.179C28.1445 28.0394 28.5244 27.0634 29.2842 26.2513C30.0439 25.4391 30.9806 24.9872 32.094 24.8955L28.9305 18.5488H34.4323L36.0042 21.6927L37.5761 18.5488H43.0779L39.934 24.8562C41.0475 24.961 41.9809 25.4195 42.7344 26.2316C43.4879 27.0438 43.8644 28.0197 43.8638 29.1594C43.8638 30.3645 43.4446 31.3863 42.6063 32.2246C41.7679 33.063 40.7462 33.4822 39.541 33.4822C39.4231 33.4822 39.3018 33.4788 39.1771 33.4719C39.0524 33.4651 38.9314 33.4489 38.814 33.4232C38.4079 33.6852 37.9691 33.8916 37.4975 34.0426C37.0259 34.1935 36.5282 34.2687 36.0042 34.2681ZM34.5501 31.3208L35.1003 29.5327L33.6463 28.4913H35.4344L36.0042 26.605L36.574 28.4913H38.3621L36.908 29.5327L37.4582 31.3208L36.0042 30.2204L34.5501 31.3208Z" fill="white"/>
<defs>
<clipPath id="clip0_979_4074">
<rect width="62.1688" height="62.1688" fill="white" transform="translate(5.10986 5.37256)"/>
</clipPath>
</defs>
</svg>
