<svg width="15" height="15" viewBox="0 0 15 15" fill="none" xmlns="http://www.w3.org/2000/svg">
<path d="M4.9474 11.0416L7.4974 8.49163L10.0474 11.0416L11.0391 10.05L8.48906 7.49996L11.0391 4.94996L10.0474 3.95829L7.4974 6.50829L4.9474 3.95829L3.95573 4.94996L6.50573 7.49996L3.95573 10.05L4.9474 11.0416ZM7.4974 14.5833C6.51753 14.5833 5.5967 14.3972 4.7349 14.0251C3.87309 13.653 3.12344 13.1484 2.48594 12.5114C1.84844 11.8739 1.34387 11.1243 0.972229 10.2625C0.60059 9.40065 0.414535 8.47982 0.414062 7.49996C0.414062 6.5201 0.600118 5.59927 0.972229 4.73746C1.34434 3.87565 1.84891 3.126 2.48594 2.4885C3.12344 1.851 3.87309 1.34643 4.7349 0.974793C5.5967 0.603154 6.51753 0.417098 7.4974 0.416626C8.47726 0.416626 9.39809 0.602682 10.2599 0.974793C11.1217 1.3469 11.8714 1.85147 12.5089 2.4885C13.1464 3.126 13.6512 3.87565 14.0233 4.73746C14.3954 5.59927 14.5812 6.5201 14.5807 7.49996C14.5807 8.47982 14.3947 9.40065 14.0226 10.2625C13.6505 11.1243 13.1459 11.8739 12.5089 12.5114C11.8714 13.1489 11.1217 13.6537 10.2599 14.0258C9.39809 14.3979 8.47726 14.5838 7.4974 14.5833ZM7.4974 13.1666C9.07934 13.1666 10.4193 12.6177 11.5172 11.5198C12.6151 10.4218 13.1641 9.0819 13.1641 7.49996C13.1641 5.91801 12.6151 4.57808 11.5172 3.48017C10.4193 2.38225 9.07934 1.83329 7.4974 1.83329C5.91545 1.83329 4.57552 2.38225 3.4776 3.48017C2.37969 4.57808 1.83073 5.91801 1.83073 7.49996C1.83073 9.0819 2.37969 10.4218 3.4776 11.5198C4.57552 12.6177 5.91545 13.1666 7.4974 13.1666Z" fill="#4BE2F7"/>
</svg>
