<svg width="12" height="13" viewBox="0 0 12 13" fill="none" xmlns="http://www.w3.org/2000/svg">
<path d="M3.62502 1.125H3.50002C3.56877 1.125 3.62502 1.06875 3.62502 1V1.125H8.37504V1C8.37504 1.06875 8.43129 1.125 8.50004 1.125H8.37504V2.25001H9.50004V1C9.50004 0.448439 9.0516 0 8.50004 0H3.50002C2.94845 0 2.50001 0.448439 2.50001 1V2.25001H3.62502V1.125ZM11.5 2.25001H0.500002C0.223438 2.25001 0 2.47345 0 2.75001V3.25001C0 3.31876 0.0562502 3.37501 0.125001 3.37501H1.06875L1.45469 11.5469C1.47969 12.0797 1.92032 12.5001 2.45314 12.5001H9.54692C10.0813 12.5001 10.5204 12.0813 10.5454 11.5469L10.9313 3.37501H11.8751C11.9438 3.37501 12.0001 3.31876 12.0001 3.25001V2.75001C12.0001 2.47345 11.7766 2.25001 11.5 2.25001ZM9.4266 11.375H2.57345L2.19532 3.37501H9.80473L9.4266 11.375Z" fill="#C9C9C9"/>
</svg>
