<svg width="21" height="21" viewBox="0 0 21 21" fill="none" xmlns="http://www.w3.org/2000/svg">
<path d="M17.0625 3.28125H3.9375C3.41536 3.28125 2.9146 3.48867 2.54538 3.85788C2.17617 4.2271 1.96875 4.72786 1.96875 5.25V14.4375C1.96875 14.9596 2.17617 15.4604 2.54538 15.8296C2.9146 16.1988 3.41536 16.4062 3.9375 16.4062H9.84375V17.7188H7.875C7.70095 17.7188 7.53403 17.7879 7.41096 17.911C7.28789 18.034 7.21875 18.201 7.21875 18.375C7.21875 18.549 7.28789 18.716 7.41096 18.839C7.53403 18.9621 7.70095 19.0312 7.875 19.0312H13.125C13.299 19.0312 13.466 18.9621 13.589 18.839C13.7121 18.716 13.7812 18.549 13.7812 18.375C13.7812 18.201 13.7121 18.034 13.589 17.911C13.466 17.7879 13.299 17.7188 13.125 17.7188H11.1562V16.4062H17.0625C17.5846 16.4062 18.0854 16.1988 18.4546 15.8296C18.8238 15.4604 19.0312 14.9596 19.0312 14.4375V5.25C19.0312 4.72786 18.8238 4.2271 18.4546 3.85788C18.0854 3.48867 17.5846 3.28125 17.0625 3.28125ZM3.9375 4.59375H17.0625C17.2365 4.59375 17.4035 4.66289 17.5265 4.78596C17.6496 4.90903 17.7188 5.07595 17.7188 5.25V11.8125H3.28125V5.25C3.28125 5.07595 3.35039 4.90903 3.47346 4.78596C3.59653 4.66289 3.76345 4.59375 3.9375 4.59375ZM17.0625 15.0938H3.9375C3.76345 15.0938 3.59653 15.0246 3.47346 14.9015C3.35039 14.7785 3.28125 14.6115 3.28125 14.4375V13.125H17.7188V14.4375C17.7188 14.6115 17.6496 14.7785 17.5265 14.9015C17.4035 15.0246 17.2365 15.0938 17.0625 15.0938Z" fill="#7367F0"/>
</svg>
