<svg width="29" height="29" viewBox="0 0 29 29" fill="none" xmlns="http://www.w3.org/2000/svg">
<path d="M12.0885 2.71881C11.588 2.71881 11.1823 3.12455 11.1823 3.62506V4.53131H6.04687C5.54637 4.53131 5.14062 4.93705 5.14062 5.43756C5.14062 5.93807 5.54637 6.34381 6.04687 6.34381H22.9635C23.464 6.34381 23.8698 5.93807 23.8698 5.43756C23.8698 4.93705 23.464 4.53131 22.9635 4.53131H17.8281V3.62506C17.8281 3.12455 17.4224 2.71881 16.9219 2.71881H12.0885Z" fill="#6D6976"/>
<path d="M12.0885 12.8688C12.589 12.8688 12.9948 13.2745 12.9948 13.7751L12.9948 22.2334C12.9948 22.7339 12.589 23.1396 12.0885 23.1396C11.588 23.1396 11.1823 22.7339 11.1823 22.2334L11.1823 13.7751C11.1823 13.2745 11.588 12.8688 12.0885 12.8688Z" fill="#6D6976"/>
<path d="M17.8281 13.7751C17.8281 13.2745 17.4224 12.8688 16.9219 12.8688C16.4214 12.8688 16.0156 13.2745 16.0156 13.7751V22.2334C16.0156 22.7339 16.4214 23.1396 16.9219 23.1396C17.4224 23.1396 17.8281 22.7339 17.8281 22.2334V13.7751Z" fill="#6D6976"/>
<path fill-rule="evenodd" clip-rule="evenodd" d="M7.24485 9.56665C7.29584 9.10769 7.68377 8.76048 8.14555 8.76048H20.8648C21.3266 8.76048 21.7146 9.10769 21.7656 9.56665L22.0074 11.7433C22.4458 15.6889 22.4458 19.6709 22.0074 23.6165L21.9836 23.8308C21.8096 25.397 20.5957 26.6458 19.0351 26.8643C16.0298 27.285 12.9806 27.285 9.97526 26.8643C8.41465 26.6458 7.20083 25.397 7.02681 23.8308L7.003 23.6165C6.5646 19.6709 6.5646 15.6889 7.003 11.7433L7.24485 9.56665ZM8.95669 10.573L8.80441 11.9434C8.38079 15.756 8.38079 19.6038 8.80441 23.4163L8.82822 23.6306C8.91075 24.3734 9.48642 24.9657 10.2266 25.0693C13.0651 25.4667 15.9453 25.4667 18.7838 25.0693C19.524 24.9657 20.0996 24.3734 20.1822 23.6306L20.206 23.4163C20.6296 19.6038 20.6296 15.756 20.206 11.9434L20.0537 10.573H8.95669Z" fill="#6D6976"/>
</svg>
