<svg width="16" height="15" viewBox="0 0 16 15" fill="none" xmlns="http://www.w3.org/2000/svg">
<path d="M8.5 11.1893L11.2197 8.46967C11.5126 8.17678 11.9874 8.17678 12.2803 8.46967C12.5732 8.76256 12.5732 9.23744 12.2803 9.53033L8.28033 13.5303C7.98744 13.8232 7.51256 13.8232 7.21967 13.5303L3.21967 9.53033C2.92678 9.23744 2.92678 8.76256 3.21967 8.46967C3.51256 8.17678 3.98744 8.17678 4.28033 8.46967L7 11.1893L7 1.5C7 1.08579 7.33579 0.75 7.75 0.75C8.16421 0.75 8.5 1.08579 8.5 1.5L8.5 11.1893Z" fill="black"/>
<rect y="14" width="16" height="1" rx="0.5" fill="black"/>
</svg>
