<svg width="22" height="22" viewBox="0 0 22 22" fill="none" xmlns="http://www.w3.org/2000/svg">
<path d="M9.70833 4.99833V3.5H11.4583V4.99833V5.38826L11.8365 5.48326C13.335 5.85973 14.3766 6.85802 14.6148 8H13.758C13.6059 7.50433 13.2385 7.09174 12.7964 6.79635C12.2057 6.4016 11.4195 6.16667 10.5833 6.16667C9.7472 6.16667 8.961 6.4016 8.37023 6.79635C7.78675 7.18623 7.33333 7.78026 7.33333 8.5C7.33333 8.83635 7.4146 9.14674 7.59608 9.42262C7.77357 9.69243 8.02549 9.89667 8.31522 10.0612C8.87633 10.3797 9.68738 10.6062 10.6841 10.8464C11.6734 11.0937 12.6808 11.3505 13.4485 11.8308C14.1778 12.2871 14.6667 12.9281 14.6667 14C14.6667 15.3421 13.5504 16.5861 11.8365 17.0167L11.4583 17.1117V17.5017V19H9.70833V17.5017V17.1117L9.33016 17.0167C7.83166 16.6403 6.79004 15.642 6.55187 14.5H7.40862C7.56073 14.9957 7.92815 15.4083 8.37023 15.7036C8.961 16.0984 9.7472 16.3333 10.5833 16.3333C11.4195 16.3333 12.2057 16.0984 12.7964 15.7036C13.3799 15.3138 13.8333 14.7197 13.8333 14C13.8333 13.6636 13.7521 13.3533 13.5706 13.0774C13.3931 12.8076 13.1412 12.6033 12.8514 12.4388C12.2903 12.1203 11.4793 11.8937 10.4825 11.6536C9.49324 11.4062 8.48585 11.1495 7.71812 10.6692C6.98891 10.2129 6.5 9.57187 6.5 8.5C6.5 7.15789 7.61624 5.91386 9.33016 5.48326L9.70833 5.38826V4.99833Z" stroke="#7367F0"/>
</svg>
