<svg width="27" height="27" viewBox="0 0 27 27" fill="none" xmlns="http://www.w3.org/2000/svg">
<path d="M14.0625 17.3693L17.1221 14.3096C17.4516 13.9801 17.9859 13.9801 18.3154 14.3096C18.6449 14.6391 18.6449 15.1734 18.3154 15.5029L13.8154 20.0029C13.4859 20.3324 12.9516 20.3324 12.6221 20.0029L8.12213 15.5029C7.79262 15.1734 7.79262 14.6391 8.12213 14.3096C8.45163 13.9801 8.98587 13.9801 9.31537 14.3096L12.375 17.3693L12.375 6.46875C12.375 6.00276 12.7528 5.625 13.2187 5.625C13.6847 5.625 14.0625 6.00276 14.0625 6.46875L14.0625 17.3693Z" fill="#7367F0"/>
<rect x="5.625" y="20.25" width="15.75" height="1.125" rx="0.5625" fill="#7367F0"/>
</svg>
