<svg width="14" height="14" viewBox="0 0 14 14" fill="none" xmlns="http://www.w3.org/2000/svg">
<g clip-path="url(#clip0_586_1868)">
<path d="M5.00529 6.7169C5.01889 7.4666 5.63755 8.06321 6.38725 8.0496C7.13695 8.03599 7.73356 7.41733 7.71995 6.66763C7.70634 5.91793 7.08768 5.32133 6.33798 5.33494C5.58828 5.34855 4.99168 5.96721 5.00529 6.7169Z" fill="#B0BAC9"/>
<path d="M5.08781 11.2779C5.10141 12.0276 5.72007 12.6242 6.46977 12.6106C7.21947 12.597 7.81607 11.9784 7.80247 11.2287C7.78886 10.479 7.1702 9.88237 6.4205 9.89597C5.6708 9.90958 5.0742 10.5282 5.08781 11.2779Z" fill="#B0BAC9"/>
<path d="M4.91642 1.83067C4.93003 2.58037 5.54869 3.17698 6.29839 3.16337C7.04808 3.14976 7.64469 2.5311 7.63108 1.7814C7.61747 1.0317 6.99881 0.435101 6.24911 0.448708C5.49942 0.462315 4.90281 1.08098 4.91642 1.83067Z" fill="#B0BAC9"/>
</g>
<defs>
<clipPath id="clip0_586_1868">
<rect width="13.0325" height="13.0325" fill="white" transform="translate(13.0303) rotate(88.9602)"/>
</clipPath>
</defs>
</svg>
