<svg width="15" height="16" viewBox="0 0 15 16" fill="none" xmlns="http://www.w3.org/2000/svg">
<path d="M5.06288 10.3528L9.9382 5.25141M6.68799 2.70072L7.0642 2.245C7.82622 1.44776 8.85969 0.99992 9.93727 1C11.0149 1.00008 12.0483 1.44807 12.8102 2.24542C13.5721 3.04277 14.0001 4.12417 14 5.25171C13.9999 6.37925 13.5718 7.46058 12.8098 8.25782L12.3759 8.65233M8.3131 12.9035L7.99051 13.3575C7.2196 14.1552 6.17916 14.6026 5.09498 14.6026C4.0108 14.6026 2.97036 14.1552 2.19944 13.3575C1.81946 12.9644 1.51779 12.4962 1.3119 11.9802C1.10601 11.4643 1 10.9107 1 10.3515C1 9.79236 1.10601 9.23876 1.3119 8.72278C1.51779 8.20679 1.81946 7.73867 2.19944 7.34552L2.62522 6.95187" stroke="#6D6976" stroke-width="1.62511" stroke-linecap="round" stroke-linejoin="round"/>
</svg>
