<svg width="13" height="13" viewBox="0 0 13 13" fill="none" xmlns="http://www.w3.org/2000/svg">
<path d="M11.05 5.2C11.05 6.097 9.672 6.825 8.775 6.825C7.878 6.825 6.9875 6.097 6.9875 5.2H6.0125C6.0125 6.097 5.122 6.825 4.225 6.825C3.328 6.825 1.95 6.097 1.95 5.2H1.4625C1.3585 5.616 1.3 6.0515 1.3 6.5C1.3 7.87913 1.84786 9.20177 2.82304 10.177C3.79823 11.1521 5.12087 11.7 6.5 11.7C7.87913 11.7 9.20177 11.1521 10.177 10.177C11.1521 9.20177 11.7 7.87913 11.7 6.5C11.7 6.0515 11.6415 5.616 11.5375 5.2H11.05ZM6.5 1.3C4.576 1.3 2.8925 2.3465 1.9955 3.9H11.0045C10.1075 2.3465 8.424 1.3 6.5 1.3ZM13 6.5C13 8.22391 12.3152 9.87721 11.0962 11.0962C9.87721 12.3152 8.22391 13 6.5 13C5.64641 13 4.80117 12.8319 4.01256 12.5052C3.22394 12.1786 2.50739 11.6998 1.90381 11.0962C0.684819 9.87721 0 8.22391 0 6.5C0 4.77609 0.684819 3.12279 1.90381 1.90381C3.12279 0.684819 4.77609 0 6.5 0C7.35359 0 8.19883 0.168127 8.98744 0.494783C9.77606 0.821439 10.4926 1.30023 11.0962 1.90381C11.6998 2.50739 12.1786 3.22394 12.5052 4.01256C12.8319 4.80117 13 5.64641 13 6.5ZM6.5 9.8995C5.3625 9.8995 4.3615 9.425 3.7765 8.723L4.6995 7.8C4.992 8.268 5.6875 8.5995 6.5 8.5995C7.3125 8.5995 8.008 8.268 8.3005 7.8L9.2235 8.723C8.6385 9.425 7.6375 9.8995 6.5 9.8995Z" fill="#6D6976"/>
</svg>
