<svg width="24" height="24" viewBox="0 0 24 24" fill="none" xmlns="http://www.w3.org/2000/svg">
<path fill-rule="evenodd" clip-rule="evenodd" d="M19.8068 5.37075C20.4742 5.85237 20.9454 6.59097 21.0745 7.44948C21.1197 7.75033 21.1605 8.05169 21.1967 8.35345C21.4768 10.9564 21.4643 13.9582 21.0745 16.5505C20.8588 17.9849 19.6881 19.0845 18.2431 19.2102L16.7328 19.3414C13.5838 19.6152 10.4169 19.6152 7.26787 19.3414L5.75763 19.2102C4.31257 19.0845 3.1419 17.9849 2.9262 16.5505C2.53637 13.9582 2.52389 10.9562 2.80403 8.35329C2.84024 8.05158 2.88096 7.75028 2.9262 7.44948C3.05512 6.59216 3.52519 5.85441 4.1911 5.37275L4.19034 5.36602L4.23759 5.33977C4.4101 5.21969 4.59518 5.11656 4.79041 5.03264L9.20636 2.57934C10.943 1.61455 13.0546 1.61454 14.7913 2.57934L19.197 5.02698C19.4016 5.1138 19.5952 5.2217 19.7749 5.34805L19.8073 5.36606L19.8068 5.37075ZM18.9659 6.61451L14.0628 3.89057C12.7792 3.17747 11.2184 3.17747 9.93482 3.89058L5.04316 6.60817C4.70968 6.85978 4.47508 7.23654 4.40952 7.67254C4.39783 7.75031 4.38645 7.82811 4.37539 7.90595L9.93632 10.9954C11.2199 11.7085 12.7807 11.7085 14.0643 10.9954L19.6253 7.90592C19.6142 7.82809 19.6029 7.7503 19.5912 7.67254C19.5262 7.24019 19.2949 6.8661 18.9659 6.61451ZM19.7058 15.4805C19.9442 13.5016 19.9786 11.5042 19.8088 9.5199L14.7928 12.3066C13.0561 13.2714 10.9445 13.2714 9.20786 12.3066L4.19184 9.51993C4.02211 11.5042 4.05645 13.5016 4.29485 15.4805C4.32891 15.7633 4.36713 16.0456 4.40952 16.3275C4.43352 16.487 4.48015 16.6387 4.546 16.7791C4.7891 17.2978 5.29398 17.6642 5.88754 17.7158L7.39777 17.8471C10.4604 18.1133 13.5403 18.1133 16.6029 17.8471L18.1132 17.7158C18.5846 17.6748 19.0001 17.4352 19.2729 17.0785C19.4366 16.8645 19.5489 16.6082 19.5912 16.3274C19.6336 16.0456 19.6718 15.7632 19.7058 15.4805Z" fill="#6D6976"/>
</svg>
