<svg width="72" height="75" viewBox="0 0 72 75" fill="none" xmlns="http://www.w3.org/2000/svg">
<rect opacity="0.1" x="0.252441" y="0.835693" width="71.379" height="73.869" rx="2.48997" fill="#00DFFD"/>
<g clip-path="url(#clip0_979_4172)">
<path d="M66.8479 57.2042L55.4789 36.1795C56.6387 33.547 57.2876 30.6377 57.2876 27.5769C57.2876 15.7804 47.7243 6.21802 35.9287 6.21802C24.1302 6.21802 14.5679 15.7813 14.5679 27.5769C14.5679 30.7116 15.2488 33.686 16.4611 36.367L5.04149 57.1945C4.67327 57.8638 4.73447 58.6895 5.1949 59.3005C5.65631 59.9096 6.43537 60.1961 7.17939 60.0213L16.9312 57.7842L20.2688 67.0804C20.5292 67.8031 21.1887 68.3043 21.9532 68.3607C22.0028 68.3646 22.0504 68.3665 22.097 68.3665C22.4483 68.3664 22.793 68.271 23.0944 68.0905C23.3958 67.9101 23.6426 67.6513 23.8086 67.3417L33.7468 48.8261C34.4715 48.8995 35.1993 48.9362 35.9276 48.9359C36.6027 48.9359 37.269 48.9009 37.9276 48.8388L48.0816 67.3563C48.2613 67.6846 48.532 67.9539 48.8611 68.1319C49.1903 68.3099 49.5639 68.389 49.9369 68.3597C50.6995 68.2985 51.3561 67.7982 51.6144 67.0794L54.9521 57.7832L64.7039 60.0203C65.4519 60.201 66.2231 59.9105 66.6845 59.3034C67.1479 58.6973 67.2101 57.8755 66.8477 57.2042H66.8479ZM22.4505 61.659L20.0063 54.8495C19.6722 53.9238 18.7028 53.3847 17.743 53.6129L10.5304 55.2672L18.7514 40.2729C21.4587 43.9301 25.3054 46.6889 29.767 48.0314L22.4505 61.659ZM18.4706 27.5768C18.4706 17.9514 26.303 10.12 35.9294 10.12C45.5549 10.12 53.3862 17.9514 53.3862 27.5768C53.3862 37.2023 45.5549 45.0356 35.9294 45.0356C26.3019 45.0356 18.4706 37.2023 18.4706 27.5768ZM54.14 53.6129C53.1764 53.3856 52.2108 53.9237 51.8767 54.8494L49.4161 61.7084L41.9393 48.0749C46.5194 46.7335 50.4594 43.9019 53.2016 40.1378L61.3885 55.2749L54.14 53.6129Z" fill="#4BE2F7"/>
<circle cx="35.9418" cy="27.4765" r="19.6323" fill="#4BE2F7"/>
</g>
<g clip-path="url(#clip1_979_4172)">
<path d="M36.4528 20.1705C35.6867 20.1705 34.9521 20.4749 34.4104 21.0165C33.8687 21.5582 33.5644 22.2929 33.5644 23.059C33.5644 23.825 33.8687 24.5597 34.4104 25.1014C34.9521 25.6431 35.6867 25.9474 36.4528 25.9474C37.2189 25.9474 37.9535 25.6431 38.4952 25.1014C39.0369 24.5597 39.3412 23.825 39.3412 23.059C39.3412 22.2929 39.0369 21.5582 38.4952 21.0165C37.9535 20.4749 37.2189 20.1705 36.4528 20.1705ZM31.9138 23.059C31.9138 21.8552 32.3921 20.7007 33.2433 19.8494C34.0945 18.9982 35.249 18.52 36.4528 18.52C37.6566 18.52 38.8111 18.9982 39.6623 19.8494C40.5135 20.7007 40.9917 21.8552 40.9917 23.059C40.9917 24.2628 40.5135 25.4173 39.6623 26.2685C38.8111 27.1197 37.6566 27.5979 36.4528 27.5979C35.249 27.5979 34.0945 27.1197 33.2433 26.2685C32.3921 25.4173 31.9138 24.2628 31.9138 23.059ZM41.817 28.8358C41.0509 28.8358 40.3163 29.1401 39.7746 29.6818C39.2329 30.2235 38.9286 30.9582 38.9286 31.7242C38.9286 32.4903 39.2329 33.225 39.7746 33.7667C40.3163 34.3083 41.0509 34.6127 41.817 34.6127C42.5831 34.6127 43.3177 34.3083 43.8594 33.7667C44.4011 33.225 44.7054 32.4903 44.7054 31.7242C44.7054 30.9582 44.4011 30.2235 43.8594 29.6818C43.3177 29.1401 42.5831 28.8358 41.817 28.8358ZM37.2781 31.7242C37.2781 31.1282 37.3955 30.5379 37.6236 29.9873C37.8517 29.4366 38.186 28.9362 38.6075 28.5147C39.029 28.0932 39.5293 27.7589 40.08 27.5308C40.6307 27.3027 41.2209 27.1853 41.817 27.1853C42.4131 27.1853 43.0033 27.3027 43.554 27.5308C44.1047 27.7589 44.605 28.0932 45.0265 28.5147C45.448 28.9362 45.7823 29.4366 46.0104 29.9873C46.2385 30.5379 46.356 31.1282 46.356 31.7242C46.356 32.928 45.8777 34.0825 45.0265 34.9338C44.1753 35.785 43.0208 36.2632 41.817 36.2632C40.6132 36.2632 39.4587 35.785 38.6075 34.9338C37.7563 34.0825 37.2781 32.928 37.2781 31.7242ZM33.5644 30.0737C32.6889 30.0737 31.8492 30.4215 31.2302 31.0406C30.6111 31.6596 30.2633 32.4993 30.2633 33.3748H36.0814V35.0253H28.6128V33.3748C28.6128 32.0615 29.1345 30.8021 30.0631 29.8735C30.9917 28.9449 32.2511 28.4232 33.5644 28.4232H36.0402V30.0737H33.5644ZM42.6423 29.869V31.3826L43.8092 32.5495L42.6423 33.7164L40.9917 32.0659V29.869H42.6423Z" fill="white"/>
</g>
<defs>
<clipPath id="clip0_979_4172">
<rect width="62.1688" height="62.1688" fill="white" transform="translate(4.85742 6.20825)"/>
</clipPath>
<clipPath id="clip1_979_4172">
<rect width="19.8063" height="19.8063" fill="white" transform="translate(26.9619 16.8694)"/>
</clipPath>
</defs>
</svg>
