<svg width="21" height="21" viewBox="0 0 21 21" fill="none" xmlns="http://www.w3.org/2000/svg">
<path d="M18.75 3.75024H2.25C1.42157 3.75024 0.75 4.42182 0.75 5.25024V15.7502C0.75 16.5787 1.42157 17.2502 2.25 17.2502H18.75C19.5784 17.2502 20.25 16.5787 20.25 15.7502V5.25024C20.25 4.42182 19.5784 3.75024 18.75 3.75024Z" stroke="#7367F0" stroke-width="1.5" stroke-linecap="round" stroke-linejoin="round"/>
<path d="M10.5 12.7499C11.7426 12.7499 12.75 11.7425 12.75 10.4999C12.75 9.25724 11.7426 8.24988 10.5 8.24988C9.25736 8.24988 8.25 9.25724 8.25 10.4999C8.25 11.7425 9.25736 12.7499 10.5 12.7499Z" stroke="#7367F0" stroke-width="1.5" stroke-linecap="round" stroke-linejoin="round"/>
<path d="M4.5 7.50037H5.25M15.75 13.5004H16.5" stroke="#7367F0" stroke-width="1.5" stroke-linecap="round" stroke-linejoin="round"/>
</svg>
