<svg width="10" height="14" viewBox="0 0 10 14" fill="none" xmlns="http://www.w3.org/2000/svg">
<path fill-rule="evenodd" clip-rule="evenodd" d="M5 13.5C2.51472 13.5 0.5 11.4853 0.5 9L0.5 3.66667C0.499999 1.91776 1.91776 0.5 3.66667 0.5C5.41557 0.5 6.83333 1.91777 6.83333 3.66667L6.83333 9.09524C6.83333 10.1078 6.01252 10.9286 5 10.9286C3.98748 10.9286 3.16667 10.1078 3.16667 9.09524L3.16667 3.85714C3.16667 3.581 3.39052 3.35714 3.66667 3.35714C3.94281 3.35714 4.16667 3.581 4.16667 3.85714L4.16667 9.09524C4.16667 9.55548 4.53976 9.92857 5 9.92857C5.46024 9.92857 5.83333 9.55548 5.83333 9.09524L5.83333 3.66667C5.83333 2.47005 4.86328 1.5 3.66667 1.5C2.47005 1.5 1.5 2.47005 1.5 3.66667L1.5 9C1.5 10.933 3.067 12.5 5 12.5C6.933 12.5 8.5 10.933 8.5 9L8.5 3.85714C8.5 3.581 8.72386 3.35714 9 3.35714C9.27614 3.35714 9.5 3.581 9.5 3.85714L9.5 9C9.5 11.4853 7.48528 13.5 5 13.5Z" fill="#7367F0"/>
</svg>
