<svg width="35" height="35" viewBox="0 0 35 35" fill="none" xmlns="http://www.w3.org/2000/svg">
<g opacity="0.8" clip-path="url(#clip0_47_18)">
<path d="M31.9709 9.17719C31.6966 9.91137 31.0074 9.91137 30.7331 9.17719C30.4588 8.44295 30.8035 7.52016 31.352 7.52016C31.9005 7.52016 32.2451 8.44295 31.9709 9.17719ZM33.4042 7.10078C32.9034 7.10078 32.5887 7.98453 32.8391 8.68774C33.0895 9.39095 33.7189 9.39089 33.9694 8.68774C34.2198 7.98453 33.905 7.10078 33.4042 7.10078ZM33.8301 10.2993C34.3401 9.77869 34.6504 8.94648 34.6478 7.92451C34.6415 5.33232 32.7567 4.21841 31.5495 5.59236C30.648 5.0055 29.6087 5.45817 29.1213 6.67709C28.3465 7.35337 28.2127 7.62113 27.8478 9.97782C27.3391 10.9952 27.0911 12.1789 25.3206 12.1168C26.0483 11.1778 24.8045 9.94966 23.5317 10.4596C23.2128 9.62167 20.7859 8.1436 19.3987 7.61122C16.8144 6.61932 13.7265 6.77053 11.4919 7.546C8.40673 8.61665 6.44987 11.3564 5.73716 14.1464L1.74771 12.7464C0.0492479 12.0363 -0.526475 12.6588 0.53583 13.7271C3.43481 16.0987 4.43505 16.2547 5.06272 16.9948C2.93928 19.2739 3.00169 19.9793 3.59997 22.1003C4.00377 23.5319 7.77194 24.3202 8.48397 23.9228C9.01164 23.6283 9.55544 22.9952 9.55797 22.8516C9.57232 22.0229 7.78459 20.4486 8.80232 19.043C9.519 19.6135 11.7031 20.3476 12.5718 20.471C12.1381 21.1892 12.0784 22.0694 12.2139 22.7653C12.3541 24.1117 14.3248 24.6059 16.0033 24.8821C17.5946 24.7547 19.1109 25.5661 20.2369 23.8142C20.4279 22.702 20.233 21.2694 19.606 20.3895C20.0594 20.5319 20.4856 20.4618 20.9146 20.2968C20.9624 21.9627 21.8092 23.4229 23.1729 23.4113C25.0844 23.5705 26.1137 23.3082 27.0126 21.8279C27.5294 20.3057 26.2472 18.582 24.386 16.9573C27.6368 17.1624 27.1885 14.4292 29.3071 14.3551C31.2077 14.3268 31.9147 14.1848 32.2324 13.6212C31.071 13.4845 30.337 12.9884 29.7673 11.9768C29.6325 11.7144 30.0011 11.5105 30.151 11.7608C30.622 12.5971 31.2393 13.1649 32.72 13.218C34.0036 13.2446 34.242 13.1607 34.8957 12.0976C35.2368 11.5397 34.7058 11.0808 33.8302 10.2993H33.8301ZM23.1351 14.362C22.6573 16.717 21.3103 19.9007 20.0362 19.5863C17.4473 18.8757 14.9265 18.9058 13.2515 19.6643C12.0306 19.6455 10.9047 18.8701 9.71745 18.5914C8.99134 18.2645 7.65614 16.3374 5.69095 16.3726C4.56753 15.2715 4.47354 15.0553 5.71713 15.0578C8.01127 15.6289 8.66246 15.9986 10.5717 17.3971C13.3 18.9315 15.4639 17.3168 17.1709 17.1916C18.6697 17.0551 19.6397 18.2635 20.6255 17.8175C21.4221 17.4652 21.9265 16.2309 22.4601 14.1545C23.2346 10.8861 24.1824 10.981 24.6609 11.4832C24.5369 11.9149 23.6237 12.0564 23.1351 14.362ZM31.9908 9.48201C31.446 11.0951 30.0767 11.0951 29.532 9.48201C28.9872 7.869 29.6719 5.84167 30.7613 5.84167C31.8508 5.84167 32.5355 7.86893 31.9908 9.48201ZM32.224 10.1861C32.9458 8.84114 32.8218 6.99851 31.9331 5.93559C32.1568 5.66592 32.4297 5.49946 32.7368 5.49946C33.821 5.49946 34.5023 7.52666 33.9602 9.1398C33.5899 10.2416 32.8369 10.5896 32.224 10.1862V10.1861Z" fill="#7367F0"/>
</g>
<defs>
<clipPath id="clip0_47_18">
<rect width="35" height="35" fill="white"/>
</clipPath>
</defs>
</svg>
