<svg width="17" height="19" viewBox="0 0 17 19" fill="none" xmlns="http://www.w3.org/2000/svg">
<path d="M14.0893 2.2587C14.0162 2.2587 13.943 2.24041 13.879 2.20383C12.1233 1.29852 10.6053 0.914452 8.78552 0.914452C6.97491 0.914452 5.25574 1.34424 3.69202 2.20383C3.47256 2.32271 3.19822 2.24041 3.0702 2.02094C3.01316 1.91399 3.00037 1.78893 3.03457 1.67265C3.06877 1.55637 3.14723 1.45815 3.25309 1.39911C4.95397 0.475515 6.81945 0 8.78552 0C10.7333 0 12.4342 0.429793 14.2997 1.38997C14.5283 1.50885 14.6106 1.78318 14.4917 2.00265C14.4555 2.07888 14.3986 2.14335 14.3274 2.18865C14.2562 2.23395 14.1737 2.25823 14.0893 2.2587ZM1.00353 7.05957C0.919241 7.06036 0.836378 7.03778 0.764136 6.99434C0.691894 6.9509 0.633096 6.8883 0.594265 6.81348C0.555435 6.73866 0.538088 6.65454 0.54415 6.57046C0.550213 6.48639 0.579446 6.40563 0.628609 6.33715C1.53392 5.05692 2.68613 4.05102 4.0578 3.34689C6.92918 1.86548 10.6053 1.85634 13.4858 3.33775C14.8575 4.04188 16.0097 5.03863 16.915 6.30972C16.9501 6.35886 16.9751 6.41447 16.9886 6.47333C17.002 6.53219 17.0037 6.59313 16.9935 6.65265C16.9833 6.71216 16.9614 6.76906 16.9291 6.82007C16.8968 6.87108 16.8547 6.91519 16.8053 6.94984C16.5949 7.09615 16.3115 7.05043 16.1652 6.8401C15.3643 5.70653 14.3006 4.78401 13.0652 4.15161C10.4407 2.80737 7.08464 2.80737 4.46931 4.16076C3.22565 4.80087 2.18318 5.71533 1.36017 6.86754C1.28701 6.99556 1.14985 7.05957 1.00353 7.05957ZM6.71886 18.097C6.65889 18.0977 6.59944 18.0859 6.54432 18.0623C6.4892 18.0387 6.43963 18.0038 6.3988 17.9598C5.60323 17.1643 5.17344 16.6522 4.56075 15.5457C3.92978 14.4209 3.60058 13.0492 3.60058 11.577C3.60058 8.86104 5.92329 6.64807 8.77638 6.64807C11.6295 6.64807 13.9522 8.86104 13.9522 11.577C13.9522 11.833 13.751 12.0342 13.495 12.0342C13.2389 12.0342 13.0377 11.833 13.0377 11.577C13.0377 9.36399 11.1265 7.56252 8.77638 7.56252C6.42624 7.56252 4.51503 9.36399 4.51503 11.577C4.51503 12.8938 4.80766 14.11 5.36547 15.0976C5.95072 16.1492 6.35308 16.5973 7.05721 17.3106C7.23095 17.4935 7.23095 17.777 7.05721 17.9598C6.95662 18.0513 6.83774 18.097 6.71886 18.097ZM13.2755 16.4053C12.1873 16.4053 11.2271 16.1309 10.4407 15.5914C9.07815 14.6678 8.26428 13.1681 8.26428 11.577C8.26428 11.3209 8.46546 11.1197 8.72151 11.1197C8.97756 11.1197 9.17874 11.3209 9.17874 11.577C9.17874 12.8663 9.83714 14.0826 10.9528 14.8324C11.602 15.2714 12.361 15.4817 13.2755 15.4817C13.495 15.4817 13.8607 15.4542 14.2265 15.3902C14.4734 15.3445 14.7112 15.5091 14.7569 15.7652C14.8026 16.0121 14.638 16.2498 14.382 16.2955C13.8607 16.3961 13.4035 16.4053 13.2755 16.4053ZM11.4374 18.289C11.4009 18.289 11.3551 18.2799 11.3186 18.2708C9.86458 17.8684 8.91355 17.3289 7.91679 16.3504C7.28516 15.7267 6.78431 14.9833 6.44358 14.1637C6.10284 13.344 5.92907 12.4646 5.93243 11.577C5.93243 10.0956 7.19438 8.88848 8.74894 8.88848C10.3035 8.88848 11.5655 10.0956 11.5655 11.577C11.5655 12.5554 12.4159 13.351 13.4675 13.351C14.5191 13.351 15.3696 12.5554 15.3696 11.577C15.3696 8.12948 12.3976 5.33126 8.7398 5.33126C6.14276 5.33126 3.76518 6.77609 2.69527 9.0165C2.33863 9.75721 2.15574 10.6259 2.15574 11.577C2.15574 12.2902 2.21976 13.415 2.76843 14.8781C2.85987 15.1159 2.74099 15.3811 2.50324 15.4634C2.26548 15.5548 2.00029 15.4268 1.91799 15.1982C1.47735 14.0417 1.25114 12.8146 1.25044 11.577C1.25044 10.4796 1.46076 9.48287 1.87226 8.61414C3.08849 6.06282 5.78612 4.40766 8.7398 4.40766C12.9006 4.40766 16.284 7.61739 16.284 11.5678C16.284 13.0492 15.0221 14.2563 13.4675 14.2563C11.9129 14.2563 10.651 13.0492 10.651 11.5678C10.651 10.5894 9.80056 9.79378 8.74894 9.79378C7.69732 9.79378 6.84688 10.5894 6.84688 11.5678C6.84688 13.1315 7.45042 14.5947 8.55691 15.692C9.42564 16.5516 10.2578 17.0271 11.5472 17.3837C11.7941 17.4477 11.9312 17.7038 11.8672 17.9416C11.8215 18.1519 11.6295 18.289 11.4374 18.289Z" fill="#7367F0"/>
</svg>
