<svg width="15" height="15" viewBox="0 0 15 15" fill="none" xmlns="http://www.w3.org/2000/svg">
<path d="M11.0944 8.74993C11.279 8.75001 11.4617 8.78645 11.6322 8.85716C11.8027 8.92788 11.9577 9.03148 12.0881 9.16207C12.2186 9.29265 12.3221 9.44765 12.3926 9.61822C12.4632 9.78879 12.4995 9.97159 12.4994 10.1562V10.5156C12.4994 11.0743 12.2994 11.6149 11.9369 12.0393C10.9556 13.1849 9.46375 13.7506 7.4975 13.7506C5.53125 13.7506 4.04 13.1849 3.06125 12.0381C2.69913 11.6139 2.50013 11.0745 2.5 10.5168V10.1556C2.5 9.78276 2.64809 9.42523 2.9117 9.16162C3.1753 8.89802 3.53283 8.74993 3.90562 8.74993H11.0944ZM11.0944 9.68743H3.905C3.84342 9.68734 3.78243 9.69941 3.72552 9.72294C3.66861 9.74647 3.6169 9.78099 3.57336 9.82454C3.52982 9.86808 3.49529 9.91979 3.47176 9.9767C3.44824 10.0336 3.43617 10.0946 3.43625 10.1562V10.5168C3.43625 10.8512 3.55625 11.1749 3.77375 11.4293C4.55687 12.3474 5.78625 12.8131 7.49687 12.8131C9.20875 12.8131 10.4381 12.3474 11.2238 11.4299C11.4417 11.1751 11.5614 10.8508 11.5613 10.5156V10.1556C11.5613 10.0315 11.512 9.91253 11.4244 9.82476C11.3367 9.73699 11.2184 9.68759 11.0944 9.68743ZM7.4975 1.25305C7.90788 1.25305 8.31424 1.33388 8.69339 1.49093C9.07253 1.64797 9.41703 1.87816 9.70721 2.16834C9.99739 2.45853 10.2276 2.80302 10.3846 3.18217C10.5417 3.56131 10.6225 3.96767 10.6225 4.37805C10.6225 4.78843 10.5417 5.19479 10.3846 5.57394C10.2276 5.95308 9.99739 6.29758 9.70721 6.58776C9.41703 6.87794 9.07253 7.10813 8.69339 7.26517C8.31424 7.42222 7.90788 7.50305 7.4975 7.50305C6.6687 7.50305 5.87384 7.17381 5.28779 6.58776C4.70174 6.00171 4.3725 5.20685 4.3725 4.37805C4.3725 3.54925 4.70174 2.75439 5.28779 2.16834C5.87384 1.58229 6.6687 1.25305 7.4975 1.25305ZM7.4975 2.19055C7.21023 2.19055 6.92578 2.24713 6.66038 2.35707C6.39498 2.467 6.15383 2.62813 5.9507 2.83126C5.74758 3.03438 5.58645 3.27553 5.47651 3.54093C5.36658 3.80633 5.31 4.09079 5.31 4.37805C5.31 4.66532 5.36658 4.94977 5.47651 5.21517C5.58645 5.48057 5.74758 5.72172 5.9507 5.92485C6.15383 6.12798 6.39498 6.28911 6.66038 6.39904C6.92578 6.50897 7.21023 6.56555 7.4975 6.56555C8.07766 6.56555 8.63406 6.33508 9.0443 5.92485C9.45453 5.51461 9.685 4.95821 9.685 4.37805C9.685 3.79789 9.45453 3.24149 9.0443 2.83126C8.63406 2.42102 8.07766 2.19055 7.4975 2.19055Z" fill="#F88108"/>
</svg>
