<svg width="25" height="25" viewBox="0 0 25 25" fill="none" xmlns="http://www.w3.org/2000/svg">
<path fill-rule="evenodd" clip-rule="evenodd" d="M21.2087 19.3536C20.7862 19.7605 20.226 20.0221 19.6087 20.0663L17.9025 20.1883C14.3048 20.4457 10.6932 20.4457 7.09548 20.1883L5.51839 20.0755C4.27253 19.9864 3.24491 19.0653 3.02041 17.8366C2.56556 15.3472 2.48768 12.8034 2.78941 10.2908L3.07325 7.92712C3.2417 6.5244 4.4317 5.46875 5.8445 5.46875H8.23155C9.39587 5.46875 10.3659 6.30048 10.58 7.40221L19.2409 7.40221C20.6017 7.40221 21.7608 8.39097 21.9753 9.73474L22.042 10.1529C22.056 10.2408 22.0695 10.3287 22.0825 10.4167H22.4325C23.9663 10.4167 25.0208 11.9582 24.4649 13.3876L23.1634 16.7343C22.7592 17.7736 22.0812 18.6772 21.2087 19.3536ZM20.4323 9.98102L20.499 10.3992C20.5 10.405 20.5009 10.4108 20.5018 10.4167H10.8015C9.61851 10.4167 8.55718 11.1439 8.13012 12.2472L5.70111 18.5221L5.62989 18.517C5.09502 18.4787 4.65385 18.0833 4.55747 17.5558C4.13077 15.2204 4.05772 12.8342 4.34077 10.4771L4.62461 8.11342C4.69876 7.49594 5.22259 7.03125 5.8445 7.03125H8.23155C8.68992 7.03125 9.06151 7.40284 9.06151 7.86121C9.06151 8.47066 9.55556 8.96471 10.165 8.96471H19.2409C19.8338 8.96471 20.3388 9.39552 20.4323 9.98102ZM7.33148 18.6386C10.8138 18.8819 14.309 18.8789 17.791 18.6298L19.4972 18.5077L19.6998 18.4888L19.6984 18.4863C20.6156 17.9687 21.3254 17.1496 21.7071 16.168L23.0086 12.8213C23.1662 12.4161 22.8673 11.9792 22.4325 11.9792H10.8015C10.2638 11.9792 9.78137 12.3097 9.58725 12.8112L7.33148 18.6386Z" fill="#6D6976"/>
</svg>
