<svg width="16" height="16" viewBox="0 0 16 16" fill="none" xmlns="http://www.w3.org/2000/svg">
<path d="M7.99992 8.5H7.92992C6.78992 8.35 5.41992 7.82 5.41992 6.12C5.41992 5.1 6.09992 4 7.98992 4C9.87992 4 10.4999 5.36 10.5599 6.08C10.5799 6.36 10.3799 6.6 10.0999 6.62C9.96926 6.62907 9.84014 6.58733 9.73952 6.50348C9.63891 6.41963 9.57456 6.30016 9.55992 6.17C9.53992 5.98 9.36992 5.01 7.97992 5.01C6.93992 5.01 6.40992 5.39 6.40992 6.13C6.40992 6.51 6.40992 7.31 8.04992 7.52C8.17452 7.53934 8.28732 7.60476 8.36596 7.70333C8.44461 7.80189 8.48336 7.92639 8.47456 8.05217C8.46575 8.17796 8.41003 8.29585 8.31842 8.38249C8.22681 8.46914 8.106 8.51821 7.97992 8.52L7.99992 8.5Z" fill="white"/>
<path d="M7.9996 12C6.0996 12 5.4896 10.64 5.4296 9.91997C5.4096 9.63997 5.6096 9.39997 5.8896 9.37997C6.1596 9.35997 6.3996 9.55997 6.4296 9.82997C6.4496 10.02 6.6196 10.99 8.0096 10.99C9.0496 10.99 9.5796 10.61 9.5796 9.86997C9.5796 9.48997 9.5796 8.68997 7.9396 8.47997C7.80875 8.46179 7.69029 8.39287 7.60984 8.28809C7.52938 8.18331 7.49337 8.05108 7.5096 7.91997C7.5496 7.64997 7.7996 7.44997 8.0696 7.48997C9.2096 7.63997 10.5796 8.16997 10.5796 9.86997C10.5796 10.89 9.8996 11.99 8.0096 11.99L7.9996 12Z" fill="white"/>
<path d="M8 15C4.14 15 1 11.86 1 8C1 4.14 4.14 1 8 1C11.86 1 15 4.14 15 8C15 11.86 11.86 15 8 15ZM8 2C4.69 2 2 4.69 2 8C2 11.31 4.69 14 8 14C11.31 14 14 11.31 14 8C14 4.69 11.31 2 8 2Z" fill="white"/>
<path d="M8 13C7.72 13 7.5 12.78 7.5 12.5V3.5C7.5 3.22 7.72 3 8 3C8.28 3 8.5 3.22 8.5 3.5V12.5C8.5 12.78 8.28 13 8 13Z" fill="white"/>
</svg>
