<svg width="117" height="30" viewBox="0 0 117 30" fill="none" xmlns="http://www.w3.org/2000/svg">
<rect opacity="0.5" width="20.234" height="16.9966" rx="6.47489" fill="#F14800" fill-opacity="0.2"/>
<path d="M13.355 4.71621H12.0556V4.06653C12.0556 4.0091 12.0328 3.95402 11.9922 3.9134C11.9516 3.87279 11.8965 3.84998 11.839 3.84998C11.7816 3.84998 11.7265 3.87279 11.6859 3.9134C11.6453 3.95402 11.6225 4.0091 11.6225 4.06653V4.71621H8.59066V4.06653C8.59066 4.0091 8.56784 3.95402 8.52723 3.9134C8.48661 3.87279 8.43153 3.84998 8.3741 3.84998C8.31666 3.84998 8.26158 3.87279 8.22097 3.9134C8.18035 3.95402 8.15754 4.0091 8.15754 4.06653V4.71621H6.85819C6.57112 4.71655 6.2959 4.83075 6.09291 5.03373C5.88992 5.23672 5.77573 5.51194 5.77539 5.79901V11.4295C5.77573 11.7166 5.88992 11.9918 6.09291 12.1948C6.2959 12.3978 6.57112 12.512 6.85819 12.5123H13.355C13.6421 12.5121 13.9173 12.3979 14.1203 12.1949C14.3234 11.9919 14.4375 11.7166 14.4377 11.4295V5.79901C14.4375 5.5119 14.3234 5.23662 14.1203 5.03361C13.9173 4.83059 13.6421 4.71644 13.355 4.71621ZM14.0046 11.4295C14.0046 11.6018 13.9362 11.7671 13.8143 11.8889C13.6925 12.0108 13.5273 12.0792 13.355 12.0792H6.85819C6.68588 12.0792 6.52063 12.0108 6.39879 11.8889C6.27696 11.7671 6.20851 11.6018 6.20851 11.4295V7.74804H14.0046V11.4295ZM14.0046 7.31492H6.20851V5.79901C6.20851 5.44038 6.4987 5.14933 6.85819 5.14933H8.15754V5.79901C8.15754 5.85644 8.18035 5.91152 8.22097 5.95214C8.26158 5.99275 8.31666 6.01556 8.3741 6.01556C8.43153 6.01556 8.48661 5.99275 8.52723 5.95214C8.56784 5.91152 8.59066 5.85644 8.59066 5.79901V5.14933H11.6225V5.79901C11.6225 5.85644 11.6453 5.91152 11.6859 5.95214C11.7265 5.99275 11.7816 6.01556 11.839 6.01556C11.8965 6.01556 11.9516 5.99275 11.9922 5.95214C12.0328 5.91152 12.0556 5.85644 12.0556 5.79901V5.14933H13.355C13.5273 5.14933 13.6925 5.21778 13.8143 5.33961C13.9362 5.46145 14.0046 5.6267 14.0046 5.79901V7.31492Z" fill="#FF3D00"/>
<path d="M27.5471 12L30.8003 2.95361H32.4457L35.6926 12H34.1661L33.3591 9.72902H29.9057L29.0799 12H27.5471ZM30.256 8.37769H32.9837L31.6261 4.43632L30.256 8.37769ZM39.4789 5.40602C39.9835 5.40602 40.4277 5.50612 40.8114 5.70632C41.1951 5.90651 41.5017 6.18387 41.7311 6.53838C41.9646 6.8929 42.1044 7.29538 42.1502 7.74582H40.849C40.8198 7.54979 40.7489 7.3642 40.6363 7.18902C40.5236 7.00968 40.3714 6.86579 40.1796 6.75735C39.9877 6.64474 39.7562 6.58843 39.4851 6.58843C39.0013 6.58843 38.6072 6.76778 38.3027 7.12646C38.0024 7.48515 37.8523 8.03569 37.8523 8.77808C37.8523 9.46209 37.9962 10.0064 38.2839 10.4109C38.5717 10.8155 38.9826 11.0178 39.5164 11.0178C39.7833 11.0178 40.0106 10.9594 40.1983 10.8426C40.3902 10.7217 40.5403 10.5736 40.6488 10.3984C40.7614 10.2191 40.8344 10.0397 40.8677 9.8604H42.1315C42.0939 10.2983 41.9563 10.6883 41.7186 11.0303C41.485 11.3723 41.1764 11.6413 40.7927 11.8373C40.4131 12.0292 39.9752 12.1251 39.4789 12.1251C38.8866 12.1251 38.359 11.9958 37.8961 11.7372C37.4373 11.4745 37.0765 11.0949 36.8138 10.5986C36.551 10.0981 36.4196 9.49546 36.4196 8.7906C36.4196 8.1191 36.5427 7.53103 36.7887 7.02636C37.0348 6.51753 37.3872 6.12131 37.846 5.8377C38.3048 5.54991 38.8491 5.40602 39.4789 5.40602ZM46.236 5.40602C46.7407 5.40602 47.1848 5.50612 47.5686 5.70632C47.9523 5.90651 48.2588 6.18387 48.4882 6.53838C48.7218 6.8929 48.8615 7.29538 48.9074 7.74582H47.6061C47.5769 7.54979 47.506 7.3642 47.3934 7.18902C47.2808 7.00968 47.1285 6.86579 46.9367 6.75735C46.7448 6.64474 46.5134 6.58843 46.2423 6.58843C45.7584 6.58843 45.3643 6.76778 45.0598 7.12646C44.7595 7.48515 44.6094 8.03569 44.6094 8.77808C44.6094 9.46209 44.7533 10.0064 45.0411 10.4109C45.3289 10.8155 45.7397 11.0178 46.2735 11.0178C46.5405 11.0178 46.7678 10.9594 46.9555 10.8426C47.1473 10.7217 47.2975 10.5736 47.4059 10.3984C47.5185 10.2191 47.5915 10.0397 47.6249 9.8604H48.8886C48.8511 10.2983 48.7134 10.6883 48.4757 11.0303C48.2421 11.3723 47.9335 11.6413 47.5498 11.8373C47.1703 12.0292 46.7323 12.1251 46.236 12.1251C45.6438 12.1251 45.1161 11.9958 44.6532 11.7372C44.1944 11.4745 43.8336 11.0949 43.5709 10.5986C43.3081 10.0981 43.1767 9.49546 43.1767 8.7906C43.1767 8.1191 43.2998 7.53103 43.5459 7.02636C43.7919 6.51753 44.1444 6.12131 44.6031 5.8377C45.0619 5.54991 45.6062 5.40602 46.236 5.40602ZM52.601 12.1251C52.2841 12.1251 51.9775 12.0792 51.6814 11.9875C51.3894 11.8916 51.1267 11.7539 50.8931 11.5746C50.6596 11.3911 50.474 11.1658 50.3363 10.8989C50.1987 10.632 50.1299 10.3213 50.1299 9.96675V5.53115H51.6564V9.79158C51.6564 10.1419 51.7669 10.4297 51.9879 10.6549C52.2132 10.8801 52.551 10.9928 53.0014 10.9928C53.4102 10.9928 53.7376 10.8864 53.9836 10.6737C54.2297 10.4568 54.3528 10.1461 54.3528 9.74153V5.53115H55.8667V12H54.6968L54.5279 10.7363C54.4487 11.0908 54.309 11.3702 54.1088 11.5746C53.9127 11.7748 53.6813 11.9166 53.4143 12C53.1516 12.0834 52.8805 12.1251 52.601 12.1251ZM57.5551 12V5.53115H59.0128V6.93252C59.1171 6.61137 59.2651 6.33819 59.457 6.11297C59.653 5.88357 59.8824 5.7084 60.1452 5.58745C60.4079 5.4665 60.6936 5.40602 61.0023 5.40602C61.0773 5.40602 61.1503 5.41019 61.2212 5.41853C61.2921 5.42688 61.3443 5.44147 61.3776 5.46233V6.92001C61.3318 6.89916 61.2713 6.88456 61.1962 6.87622C61.1253 6.86788 61.0627 6.8637 61.0085 6.8637C60.6957 6.83868 60.4184 6.85119 60.1765 6.90124C59.9387 6.95129 59.7364 7.03679 59.5696 7.15774C59.4069 7.27452 59.2839 7.42467 59.2005 7.60819C59.1171 7.78753 59.0754 7.99815 59.0754 8.24006V12H57.5551ZM63.6621 9.11592C63.6579 9.48294 63.7163 9.80826 63.8373 10.0919C63.9582 10.3755 64.1376 10.5986 64.3753 10.7613C64.613 10.9198 64.9071 10.999 65.2574 10.999C65.6161 10.999 65.9268 10.9198 66.1896 10.7613C66.4565 10.5986 66.6338 10.3525 66.7214 10.0231H68.1165C68.0414 10.4735 67.8621 10.8551 67.5784 11.1679C67.2948 11.4807 66.9507 11.7185 66.5462 11.8811C66.1458 12.0438 65.7287 12.1251 65.295 12.1251C64.6693 12.1251 64.1188 11.9937 63.6433 11.731C63.172 11.4641 62.8029 11.0845 62.536 10.5924C62.2732 10.1002 62.1419 9.51422 62.1419 8.83439C62.1419 8.17124 62.2628 7.58316 62.5047 7.07016C62.7466 6.55298 63.0949 6.14633 63.5495 5.85021C64.0083 5.55408 64.5588 5.40602 65.2011 5.40602C65.8392 5.40602 66.3752 5.54157 66.8089 5.81267C67.2469 6.08377 67.5764 6.46331 67.7974 6.95129C68.0226 7.4351 68.1352 8.00232 68.1352 8.65296V9.11592H63.6621ZM63.6621 8.17124H66.6963C66.6963 7.85843 66.6421 7.5769 66.5337 7.32666C66.4252 7.07224 66.2584 6.87205 66.0332 6.72607C65.8121 6.57592 65.5327 6.50085 65.1949 6.50085C64.8612 6.50085 64.5797 6.58218 64.3503 6.74484C64.1209 6.9075 63.9478 7.11812 63.831 7.37671C63.7142 7.63112 63.6579 7.89597 63.6621 8.17124ZM71.9253 12.1251C71.0703 12.1251 70.3988 11.8311 69.9108 11.243C69.4228 10.6549 69.1788 9.81869 69.1788 8.73429C69.1788 8.05863 69.2769 7.47264 69.4729 6.97631C69.6731 6.47582 69.965 6.09003 70.3487 5.81893C70.7366 5.54366 71.2163 5.40602 71.7877 5.40602C72.0546 5.40602 72.2965 5.43939 72.5134 5.50612C72.7344 5.56868 72.9304 5.6521 73.1015 5.75637C73.2725 5.86064 73.4163 5.97533 73.5331 6.10045C73.6541 6.22558 73.7479 6.3507 73.8147 6.47582V2.70337H75.3412V12H74.215L74.0461 10.6737C73.9961 10.828 73.921 10.9907 73.8209 11.1617C73.725 11.3285 73.5936 11.4849 73.4268 11.6309C73.2641 11.7769 73.0597 11.8957 72.8137 11.9875C72.5676 12.0792 72.2715 12.1251 71.9253 12.1251ZM72.2381 11.0053C72.7845 11.0053 73.1828 10.828 73.433 10.4735C73.6874 10.1148 73.8147 9.52257 73.8147 8.69676C73.8105 8.22546 73.7521 7.82924 73.6395 7.50809C73.531 7.18694 73.3621 6.94503 73.1327 6.78237C72.9075 6.61971 72.6156 6.53838 72.2569 6.53838C71.7981 6.53838 71.4206 6.7073 71.1245 7.04513C70.8284 7.38296 70.6803 7.93351 70.6803 8.69676C70.6803 9.45583 70.8159 10.0314 71.087 10.4235C71.3581 10.8113 71.7418 11.0053 72.2381 11.0053ZM83.3151 12.1251C82.8772 12.1251 82.4497 12.0709 82.0326 11.9625C81.6155 11.8499 81.236 11.6851 80.894 11.4682C80.5561 11.2472 80.2746 10.974 80.0494 10.6487C79.8242 10.3192 79.6865 9.93547 79.6365 9.49754H81.213C81.2798 9.80201 81.4111 10.0585 81.6072 10.267C81.8032 10.4756 82.0472 10.6341 82.3391 10.7425C82.6353 10.851 82.9585 10.9052 83.3088 10.9052C83.6842 10.9052 84.022 10.8551 84.3223 10.755C84.6268 10.6549 84.8666 10.509 85.0418 10.3171C85.2211 10.1252 85.3108 9.88959 85.3108 9.61015C85.3108 9.36408 85.2462 9.15554 85.1169 8.98454C84.9876 8.81354 84.8061 8.67382 84.5726 8.56538C84.3432 8.45277 84.0742 8.36309 83.7655 8.29636L82.1014 7.93351C81.4299 7.79587 80.8981 7.52894 80.5061 7.13272C80.114 6.7365 79.9138 6.20889 79.9055 5.54991C79.9013 5.00354 80.0452 4.52808 80.3372 4.12351C80.6333 3.71478 81.0358 3.39988 81.5446 3.17883C82.0534 2.95361 82.629 2.841 83.2713 2.841C84.022 2.841 84.6539 2.96404 85.1669 3.21012C85.6841 3.45202 86.0741 3.77734 86.3368 4.18607C86.6037 4.59481 86.7393 5.04317 86.7435 5.53115H85.2045C85.1669 5.17246 85.0585 4.88676 84.8791 4.67405C84.704 4.46134 84.4787 4.30911 84.2035 4.21735C83.9282 4.1256 83.6237 4.07972 83.2901 4.07972C83.0398 4.07972 82.8063 4.10891 82.5894 4.16731C82.3725 4.2257 82.1827 4.3112 82.0201 4.42381C81.8574 4.53642 81.7302 4.67405 81.6384 4.83671C81.5509 4.9952 81.5071 5.17663 81.5071 5.381C81.5071 5.67295 81.603 5.91068 81.7949 6.0942C81.9909 6.27354 82.3558 6.42577 82.8897 6.5509L84.5163 6.91375C85.0209 7.01385 85.4276 7.164 85.7362 7.3642C86.0449 7.56439 86.2805 7.79378 86.4432 8.05237C86.6058 8.30679 86.7143 8.56746 86.7685 8.83439C86.8227 9.10132 86.8498 9.35574 86.8498 9.59764C86.8498 10.0689 86.7038 10.4964 86.4119 10.8801C86.1241 11.2639 85.7154 11.5683 85.1857 11.7935C84.6602 12.0146 84.0366 12.1251 83.3151 12.1251ZM91.0432 12.1251C90.4259 12.1251 89.8879 11.9937 89.4291 11.731C88.9703 11.4641 88.6137 11.0824 88.3593 10.5861C88.1091 10.0898 87.9839 9.49337 87.9839 8.79685C87.9839 8.12119 88.1049 7.52894 88.3468 7.02011C88.5929 6.51127 88.9453 6.11505 89.4041 5.83144C89.8629 5.54783 90.4113 5.40602 91.0495 5.40602C91.6667 5.40602 92.2027 5.54157 92.6573 5.81267C93.1119 6.08377 93.4622 6.47165 93.7083 6.97631C93.9586 7.48098 94.0837 8.08782 94.0837 8.79685C94.0837 9.45166 93.9648 10.0293 93.7271 10.5298C93.4935 11.0261 93.1494 11.4161 92.6948 11.6997C92.2444 11.9833 91.6938 12.1251 91.0432 12.1251ZM91.0495 10.9677C91.3998 10.9677 91.6876 10.8718 91.9128 10.68C92.1422 10.4881 92.3111 10.2253 92.4196 9.89168C92.5322 9.55802 92.5885 9.17848 92.5885 8.75306C92.5885 8.35684 92.5384 7.9919 92.4383 7.65824C92.3424 7.32457 92.1797 7.05764 91.9503 6.85745C91.7251 6.65308 91.4248 6.5509 91.0495 6.5509C90.6949 6.5509 90.4009 6.64474 90.1673 6.83242C89.9379 7.01594 89.7649 7.27452 89.6481 7.60819C89.5355 7.93768 89.4792 8.3193 89.4792 8.75306C89.4792 9.14511 89.5292 9.51005 89.6293 9.84789C89.7336 10.1815 89.9004 10.4526 90.1298 10.6612C90.3592 10.8656 90.6657 10.9677 91.0495 10.9677ZM98.366 2.95361H104.284L104.278 4.24238H99.9113V6.84494H103.765V8.11493H99.9113V12H98.366V2.95361ZM107.409 12.1251C106.996 12.1251 106.625 12.05 106.295 11.8999C105.97 11.7456 105.714 11.5266 105.526 11.243C105.342 10.9552 105.251 10.607 105.251 10.1982C105.251 9.48503 105.507 8.947 106.02 8.58414C106.537 8.22129 107.361 8.03152 108.491 8.01484L109.455 7.98981V7.55188C109.455 7.20988 109.353 6.94295 109.148 6.75109C108.948 6.55507 108.635 6.45914 108.21 6.46331C107.897 6.46748 107.609 6.54256 107.346 6.68853C107.088 6.83034 106.917 7.07016 106.833 7.40799H105.538C105.563 6.96589 105.691 6.59678 105.92 6.30065C106.154 6.00036 106.473 5.77722 106.877 5.63124C107.282 5.4811 107.749 5.40602 108.279 5.40602C108.896 5.40602 109.398 5.48735 109.786 5.65001C110.174 5.81267 110.46 6.04832 110.643 6.35696C110.827 6.66142 110.919 7.03053 110.919 7.46429V12H109.636L109.517 10.8364C109.284 11.3243 108.988 11.6622 108.629 11.8499C108.274 12.0334 107.868 12.1251 107.409 12.1251ZM107.903 11.0929C108.091 11.0929 108.277 11.0595 108.46 10.9928C108.644 10.9219 108.81 10.828 108.961 10.7112C109.111 10.5903 109.23 10.4568 109.317 10.3108C109.409 10.1649 109.455 10.0126 109.455 9.85414V8.83439L108.66 8.8469C108.268 8.85107 107.926 8.89278 107.634 8.97203C107.342 9.05127 107.113 9.17848 106.946 9.35365C106.783 9.52465 106.702 9.75404 106.702 10.0418C106.702 10.3713 106.817 10.6299 107.046 10.8176C107.276 11.0011 107.561 11.0929 107.903 11.0929ZM112.7 12V5.53115H114.157V6.93252C114.262 6.61137 114.41 6.33819 114.601 6.11297C114.798 5.88357 115.027 5.7084 115.29 5.58745C115.552 5.4665 115.838 5.40602 116.147 5.40602C116.222 5.40602 116.295 5.41019 116.366 5.41853C116.437 5.42688 116.489 5.44147 116.522 5.46233V6.92001C116.476 6.89916 116.416 6.88456 116.341 6.87622C116.27 6.86788 116.207 6.8637 116.153 6.8637C115.84 6.83868 115.563 6.85119 115.321 6.90124C115.083 6.95129 114.881 7.03679 114.714 7.15774C114.551 7.27452 114.428 7.42467 114.345 7.60819C114.262 7.78753 114.22 7.99815 114.22 8.24006V12H112.7Z" fill="#86848C"/>
<path d="M31.0044 20.945C31.7776 20.945 32.3919 21.2498 32.8475 21.8594C33.3063 22.4657 33.5357 23.3576 33.5357 24.5351C33.5357 25.7061 33.3079 26.5948 32.8523 27.2011C32.4 27.8043 31.7824 28.1059 30.9995 28.1059C30.2135 28.1059 29.5943 27.8059 29.142 27.206C28.6896 26.6028 28.4634 25.7157 28.4634 24.5447C28.4634 23.7587 28.5677 23.0994 28.7762 22.5668C28.9847 22.031 29.2783 21.6268 29.6569 21.354C30.0387 21.0813 30.4878 20.945 31.0044 20.945ZM31.0044 27.23C31.4792 27.23 31.8353 27.0215 32.0727 26.6044C32.3101 26.1841 32.4288 25.4959 32.4288 24.5399C32.4288 23.5646 32.3085 22.8635 32.0679 22.4368C31.8273 22.0069 31.4712 21.792 30.9995 21.792C30.5311 21.792 30.1734 22.0085 29.9264 22.4417C29.6793 22.8716 29.5558 23.571 29.5558 24.5399C29.5558 25.4927 29.6777 26.1793 29.9216 26.5996C30.1686 27.0199 30.5295 27.23 31.0044 27.23Z" fill="#B8B7BD"/>
</svg>
