<svg width="108" height="30" viewBox="0 0 108 30" fill="none" xmlns="http://www.w3.org/2000/svg">
<rect opacity="0.5" y="0.194336" width="20.234" height="16.9966" rx="6.47489" fill="#7900F1" fill-opacity="0.2"/>
<path d="M13.355 4.91055H12.0556V4.26087C12.0556 4.20344 12.0328 4.14835 11.9922 4.10774C11.9516 4.06713 11.8965 4.04431 11.839 4.04431C11.7816 4.04431 11.7265 4.06713 11.6859 4.10774C11.6453 4.14835 11.6225 4.20344 11.6225 4.26087V4.91055H8.59066V4.26087C8.59066 4.20344 8.56784 4.14835 8.52723 4.10774C8.48661 4.06713 8.43153 4.04431 8.3741 4.04431C8.31666 4.04431 8.26158 4.06713 8.22097 4.10774C8.18035 4.14835 8.15754 4.20344 8.15754 4.26087V4.91055H6.85819C6.57112 4.91089 6.2959 5.02508 6.09291 5.22807C5.88992 5.43106 5.77573 5.70627 5.77539 5.99334V11.6239C5.77573 11.9109 5.88992 12.1862 6.09291 12.3891C6.2959 12.5921 6.57112 12.7063 6.85819 12.7067H13.355C13.6421 12.7064 13.9173 12.5923 14.1203 12.3893C14.3234 12.1863 14.4375 11.911 14.4377 11.6239V5.99334C14.4375 5.70624 14.3234 5.43096 14.1203 5.22794C13.9173 5.02493 13.6421 4.91078 13.355 4.91055ZM14.0046 11.6239C14.0046 11.7962 13.9362 11.9614 13.8143 12.0833C13.6925 12.2051 13.5273 12.2735 13.355 12.2735H6.85819C6.68588 12.2735 6.52063 12.2051 6.39879 12.0833C6.27696 11.9614 6.20851 11.7962 6.20851 11.6239V7.94237H14.0046V11.6239ZM14.0046 7.50925H6.20851V5.99334C6.20851 5.63472 6.4987 5.34366 6.85819 5.34366H8.15754V5.99334C8.15754 6.05078 8.18035 6.10586 8.22097 6.14647C8.26158 6.18708 8.31666 6.2099 8.3741 6.2099C8.43153 6.2099 8.48661 6.18708 8.52723 6.14647C8.56784 6.10586 8.59066 6.05078 8.59066 5.99334V5.34366H11.6225V5.99334C11.6225 6.05078 11.6453 6.10586 11.6859 6.14647C11.7265 6.18708 11.7816 6.2099 11.839 6.2099C11.8965 6.2099 11.9516 6.18708 11.9922 6.14647C12.0328 6.10586 12.0556 6.05078 12.0556 5.99334V5.34366H13.355C13.5273 5.34366 13.6925 5.41211 13.8143 5.53395C13.9362 5.65579 14.0046 5.82104 14.0046 5.99334V7.50925Z" fill="#8000FF"/>
<path d="M27.6293 12.1943L30.8825 3.14795H32.5278L35.7748 12.1943H34.2483L33.4412 9.92336H29.9878L29.162 12.1943H27.6293ZM30.3382 8.57203H33.0659L31.7083 4.63066L30.3382 8.57203ZM37.0604 12.1943V5.72548H38.5494V6.65139C38.6495 6.48456 38.785 6.32399 38.956 6.16967C39.1312 6.01535 39.346 5.89023 39.6004 5.7943C39.8548 5.69837 40.153 5.65041 40.495 5.65041C40.8954 5.65041 41.2666 5.72965 41.6086 5.88814C41.9548 6.04663 42.2322 6.29479 42.4407 6.63262C42.6534 6.97045 42.7598 7.4063 42.7598 7.94016V12.1943H41.2333V8.12159C41.2333 7.69617 41.1165 7.38127 40.8829 7.17691C40.6494 6.96837 40.3553 6.8641 40.0008 6.8641C39.7589 6.8641 39.5295 6.90581 39.3126 6.98922C39.0957 7.06847 38.9185 7.1915 38.7809 7.35834C38.6474 7.521 38.5807 7.72536 38.5807 7.97144V12.1943H37.0604ZM44.3918 12.1943V5.72548H45.8808V6.65139C45.9809 6.48456 46.1164 6.32399 46.2874 6.16967C46.4626 6.01535 46.6774 5.89023 46.9318 5.7943C47.1862 5.69837 47.4845 5.65041 47.8265 5.65041C48.2268 5.65041 48.598 5.72965 48.94 5.88814C49.2862 6.04663 49.5636 6.29479 49.7721 6.63262C49.9848 6.97045 50.0912 7.4063 50.0912 7.94016V12.1943H48.5647V8.12159C48.5647 7.69617 48.4479 7.38127 48.2143 7.17691C47.9808 6.96837 47.6867 6.8641 47.3322 6.8641C47.0903 6.8641 46.8609 6.90581 46.644 6.98922C46.4272 7.06847 46.2499 7.1915 46.1123 7.35834C45.9788 7.521 45.9121 7.72536 45.9121 7.97144V12.1943H44.3918ZM54.0151 12.3195C53.6981 12.3195 53.3915 12.2736 53.0954 12.1818C52.8034 12.0859 52.5407 11.9483 52.3071 11.7689C52.0736 11.5854 51.888 11.3602 51.7503 11.0933C51.6127 10.8263 51.5439 10.5156 51.5439 10.1611V5.72548H53.0704V9.98592C53.0704 10.3363 53.1809 10.624 53.402 10.8493C53.6272 11.0745 53.965 11.1871 54.4154 11.1871C54.8242 11.1871 55.1516 11.0807 55.3977 10.868C55.6437 10.6512 55.7668 10.3404 55.7668 9.93587V5.72548H57.2808V12.1943H56.1109L55.9419 10.9306C55.8627 11.2851 55.723 11.5646 55.5228 11.7689C55.3268 11.9691 55.0953 12.1109 54.8284 12.1943C54.5656 12.2778 54.2945 12.3195 54.0151 12.3195ZM60.7411 12.3195C60.3282 12.3195 59.957 12.2444 59.6275 12.0942C59.3022 11.9399 59.0457 11.721 58.858 11.4373C58.6745 11.1496 58.5827 10.8013 58.5827 10.3926C58.5827 9.67937 58.8392 9.14134 59.3522 8.77848C59.8694 8.41562 60.6931 8.22585 61.8234 8.20917L62.7869 8.18415V7.74622C62.7869 7.40421 62.6847 7.13728 62.4803 6.94543C62.2801 6.7494 61.9673 6.65348 61.5419 6.65765C61.2291 6.66182 60.9413 6.73689 60.6785 6.88287C60.4199 7.02467 60.2489 7.26449 60.1655 7.60232H58.8705C58.8955 7.16022 59.0227 6.79111 59.2521 6.49499C59.4857 6.19469 59.8048 5.97156 60.2093 5.82558C60.6139 5.67543 61.081 5.60036 61.6107 5.60036C62.228 5.60036 62.7305 5.68169 63.1184 5.84435C63.5063 6.00701 63.792 6.24266 63.9755 6.55129C64.159 6.85576 64.2508 7.22487 64.2508 7.65863V12.1943H62.9683L62.8494 11.0307C62.6159 11.5187 62.3197 11.8565 61.961 12.0442C61.6065 12.2277 61.1999 12.3195 60.7411 12.3195ZM61.2353 11.2872C61.423 11.2872 61.6086 11.2538 61.7921 11.1871C61.9756 11.1162 62.1425 11.0224 62.2926 10.9056C62.4428 10.7846 62.5616 10.6512 62.6492 10.5052C62.741 10.3592 62.7869 10.207 62.7869 10.0485V9.02873L61.9923 9.04124C61.6003 9.04541 61.2583 9.08712 60.9663 9.16636C60.6744 9.24561 60.445 9.37281 60.2781 9.54799C60.1155 9.71899 60.0341 9.94838 60.0341 10.2362C60.0341 10.5657 60.1488 10.8242 60.3782 11.0119C60.6076 11.1954 60.8933 11.2872 61.2353 11.2872ZM67.8961 12.2882C67.479 12.2882 67.1453 12.236 66.8951 12.1318C66.6448 12.0275 66.4572 11.8878 66.332 11.7126C66.2069 11.5374 66.1256 11.3414 66.088 11.1245C66.0505 10.9035 66.0317 10.6783 66.0317 10.4489V2.8977H67.5207V10.2737C67.5207 10.5531 67.577 10.77 67.6896 10.9243C67.8064 11.0787 67.9941 11.1683 68.2527 11.1934L68.578 11.2059V12.1631C68.4654 12.1964 68.3507 12.2256 68.2339 12.2506C68.1171 12.2757 68.0045 12.2882 67.8961 12.2882ZM72.4719 7.68991C72.4719 6.70978 72.6387 5.87146 72.9723 5.17494C73.306 4.47842 73.7752 3.94665 74.38 3.57962C74.9889 3.20843 75.7063 3.02283 76.5321 3.02283C77.3579 3.02283 78.0732 3.20843 78.678 3.57962C79.2827 3.94665 79.7498 4.47842 80.0793 5.17494C80.413 5.87146 80.5798 6.70978 80.5798 7.68991C80.5798 8.56577 80.4484 9.32694 80.1857 9.9734C79.9229 10.6157 79.5121 11.1433 78.9532 11.5562C79.0783 11.8482 79.2827 12.0713 79.5663 12.2256C79.8541 12.3841 80.1732 12.4675 80.5235 12.4759V13.7208C80.1732 13.7208 79.827 13.6854 79.485 13.6145C79.1472 13.5477 78.8177 13.4059 78.4965 13.1891C78.1754 12.9764 77.8688 12.6531 77.5769 12.2194C77.3683 12.2527 77.1827 12.2778 77.0201 12.2944C76.8616 12.3111 76.6989 12.3195 76.5321 12.3195C75.7063 12.3195 74.9889 12.138 74.38 11.7752C73.7752 11.4123 73.306 10.8868 72.9723 10.1986C72.6387 9.50628 72.4719 8.67004 72.4719 7.68991ZM74.1548 7.71494C74.1548 8.88275 74.3612 9.72941 74.7741 10.2549C75.1912 10.7804 75.7772 11.0432 76.5321 11.0432C77.287 11.0432 77.873 10.7804 78.2901 10.2549C78.7071 9.72941 78.9157 8.87858 78.9157 7.70242C78.9157 6.53044 78.7071 5.67126 78.2901 5.12489C77.8772 4.57435 77.2912 4.29908 76.5321 4.29908C75.7772 4.29908 75.1912 4.57435 74.7741 5.12489C74.3612 5.67126 74.1548 6.53461 74.1548 7.71494ZM84.6115 12.3195C84.2945 12.3195 83.988 12.2736 83.6919 12.1818C83.3999 12.0859 83.1371 11.9483 82.9036 11.7689C82.67 11.5854 82.4844 11.3602 82.3468 11.0933C82.2092 10.8263 82.1403 10.5156 82.1403 10.1611V5.72548H83.6668V9.98592C83.6668 10.3363 83.7774 10.624 83.9984 10.8493C84.2236 11.0745 84.5615 11.1871 85.0119 11.1871C85.4206 11.1871 85.748 11.0807 85.9941 10.868C86.2402 10.6512 86.3632 10.3404 86.3632 9.93587V5.72548H87.8772V12.1943H86.7073L86.5384 10.9306C86.4592 11.2851 86.3194 11.5646 86.1192 11.7689C85.9232 11.9691 85.6917 12.1109 85.4248 12.1943C85.1621 12.2778 84.891 12.3195 84.6115 12.3195ZM92.1884 12.3195C91.5711 12.3195 91.0331 12.1881 90.5743 11.9253C90.1155 11.6584 89.7589 11.2768 89.5045 10.7804C89.2543 10.2841 89.1291 9.68771 89.1291 8.99119C89.1291 8.31553 89.2501 7.72328 89.492 7.21444C89.7381 6.70561 90.0905 6.30939 90.5493 6.02578C91.0081 5.74216 91.5565 5.60036 92.1946 5.60036C92.8119 5.60036 93.3479 5.73591 93.8025 6.00701C94.2571 6.27811 94.6074 6.66599 94.8535 7.17065C95.1038 7.67531 95.2289 8.28216 95.2289 8.99119C95.2289 9.646 95.11 10.2237 94.8723 10.7241C94.6387 11.2205 94.2946 11.6104 93.84 11.894C93.3896 12.1777 92.839 12.3195 92.1884 12.3195ZM92.1946 11.1621C92.545 11.1621 92.8328 11.0661 93.058 10.8743C93.2874 10.6824 93.4563 10.4197 93.5647 10.086C93.6774 9.75235 93.7337 9.37281 93.7337 8.9474C93.7337 8.55117 93.6836 8.18623 93.5835 7.85257C93.4876 7.51891 93.3249 7.25198 93.0955 7.05178C92.8703 6.84742 92.57 6.74523 92.1946 6.74523C91.8401 6.74523 91.5461 6.83908 91.3125 7.02676C91.0831 7.21027 90.9101 7.46886 90.7933 7.80252C90.6807 8.13201 90.6244 8.51364 90.6244 8.9474C90.6244 9.33945 90.6744 9.70439 90.7745 10.0422C90.8788 10.3759 91.0456 10.647 91.275 10.8555C91.5044 11.0599 91.8109 11.1621 92.1946 11.1621ZM100.014 6.80154H98.5684L98.5747 10.5114C98.5747 10.7033 98.5955 10.8451 98.6372 10.9369C98.6831 11.0244 98.754 11.0828 98.8499 11.112C98.95 11.137 99.0835 11.1496 99.2503 11.1496H100.045V12.113C99.9614 12.1464 99.8342 12.1756 99.6632 12.2006C99.4964 12.2298 99.2712 12.2444 98.9876 12.2444C98.4746 12.2444 98.0762 12.1777 97.7926 12.0442C97.5132 11.9066 97.3193 11.7126 97.2108 11.4624C97.1024 11.2121 97.0482 10.9139 97.0482 10.5677V6.80154H95.9971V5.72548H97.0919L97.4736 3.80484H98.5684V5.71922H100.014V6.80154ZM103.312 12.3195C102.899 12.3195 102.528 12.2444 102.199 12.0942C101.873 11.9399 101.617 11.721 101.429 11.4373C101.246 11.1496 101.154 10.8013 101.154 10.3926C101.154 9.67937 101.41 9.14134 101.923 8.77848C102.441 8.41562 103.264 8.22585 104.395 8.20917L105.358 8.18415V7.74622C105.358 7.40421 105.256 7.13728 105.051 6.94543C104.851 6.7494 104.538 6.65348 104.113 6.65765C103.8 6.66182 103.512 6.73689 103.25 6.88287C102.991 7.02467 102.82 7.26449 102.737 7.60232H101.442C101.467 7.16022 101.594 6.79111 101.823 6.49499C102.057 6.19469 102.376 5.97156 102.78 5.82558C103.185 5.67543 103.652 5.60036 104.182 5.60036C104.799 5.60036 105.302 5.68169 105.69 5.84435C106.077 6.00701 106.363 6.24266 106.547 6.55129C106.73 6.85576 106.822 7.22487 106.822 7.65863V12.1943H105.539L105.421 11.0307C105.187 11.5187 104.891 11.8565 104.532 12.0442C104.178 12.2277 103.771 12.3195 103.312 12.3195ZM103.806 11.2872C103.994 11.2872 104.18 11.2538 104.363 11.1871C104.547 11.1162 104.714 11.0224 104.864 10.9056C105.014 10.7846 105.133 10.6512 105.22 10.5052C105.312 10.3592 105.358 10.207 105.358 10.0485V9.02873L104.563 9.04124C104.171 9.04541 103.829 9.08712 103.537 9.16636C103.245 9.24561 103.016 9.37281 102.849 9.54799C102.687 9.71899 102.605 9.94838 102.605 10.2362C102.605 10.5657 102.72 10.8242 102.949 11.0119C103.179 11.1954 103.464 11.2872 103.806 11.2872Z" fill="#86848C"/>
<path d="M28.8265 27.8096V22.3619H27.5079V21.7219C27.9186 21.7219 28.241 21.6898 28.4752 21.6256C28.7126 21.5582 28.8826 21.4604 28.9853 21.3321C29.0912 21.2005 29.1505 21.0401 29.1634 20.8508H29.8804V27.8096H28.8265ZM31.6188 27.8096V27.2273V26.9193C31.6188 26.5664 31.6845 26.26 31.8161 26.0001C31.9508 25.7402 32.1273 25.514 32.3454 25.3215C32.5636 25.1258 32.8026 24.9526 33.0625 24.8018C33.3256 24.651 33.587 24.5066 33.8469 24.3687C34.1068 24.2307 34.3458 24.088 34.564 23.9404C34.7821 23.7896 34.957 23.6212 35.0885 23.4351C35.2233 23.2458 35.2906 23.0244 35.2906 22.771C35.2906 22.4373 35.1735 22.1662 34.9393 21.9577C34.7051 21.7491 34.3875 21.6449 33.9865 21.6449C33.5598 21.6449 33.2133 21.7652 32.947 22.0058C32.6807 22.2464 32.5267 22.5785 32.485 23.002H31.4744C31.484 22.5881 31.5851 22.2111 31.7776 21.871C31.9701 21.531 32.254 21.2599 32.6294 21.0577C33.0047 20.8556 33.4699 20.7546 34.025 20.7546C34.5062 20.7546 34.9217 20.8396 35.2714 21.0096C35.6243 21.1765 35.897 21.4107 36.0895 21.7122C36.282 22.0138 36.3782 22.3651 36.3782 22.7662C36.3782 23.1223 36.3125 23.4287 36.1809 23.6853C36.0494 23.942 35.8761 24.1634 35.6612 24.3494C35.4494 24.5355 35.2152 24.7007 34.9586 24.8451C34.7019 24.9863 34.4453 25.1226 34.1886 25.2542C33.9319 25.3825 33.6961 25.5189 33.4812 25.6632C33.2662 25.8044 33.093 25.9648 32.9614 26.1445C32.8299 26.3241 32.7641 26.5407 32.7641 26.7941V26.9145H36.4023V27.8096H31.6188Z" fill="#B8B7BD"/>
</svg>
