<svg width="92" height="29" viewBox="0 0 92 29" fill="none" xmlns="http://www.w3.org/2000/svg">
<rect opacity="0.5" x="2" y="0.424316" width="20.234" height="16.9966" rx="6.47489" fill="#99DEE7" fill-opacity="0.3"/>
<g filter="url(#filter0_d_278_3147)">
<path d="M13.6419 7.99927C14.0022 8.36018 14.6825 8.26213 15.1625 7.78152C15.6425 7.30092 15.7399 6.6194 15.3802 6.2591C15.0199 5.89819 14.3396 5.99564 13.8596 6.47624C13.3796 6.95745 13.2821 7.63897 13.6419 7.99927Z" fill="#53BCD2"/>
<path d="M17.2866 6.26647C17.0683 7.18919 16.4842 8.44755 15.0971 10.0067L14.9527 11.4551C14.9143 11.8021 14.759 12.1258 14.5124 12.373L13.0796 13.8082C13.0341 13.8542 12.9753 13.8847 12.9114 13.8952C12.8476 13.9057 12.7821 13.8958 12.7242 13.8668C12.6664 13.8379 12.6191 13.7913 12.5893 13.7339C12.5595 13.6765 12.5486 13.6112 12.5581 13.5472L12.7205 12.4049C12.7446 12.2365 12.7127 12.0482 12.6417 11.8298C12.5967 11.6963 12.5468 11.5645 12.492 11.4347L12.4426 11.3132C11.9524 11.1947 11.4934 10.915 11.1247 10.545C10.7554 10.1751 10.4757 9.71554 10.3578 9.2247L10.2357 9.17478C10.1062 9.12025 9.9748 9.0705 9.8417 9.0256C9.62335 8.95402 9.43567 8.92214 9.26725 8.9462L8.12678 9.10861C8.06285 9.11801 7.99758 9.10698 7.94028 9.07709C7.88298 9.0472 7.83659 8.99998 7.80771 8.94217C7.77884 8.88435 7.76896 8.8189 7.77949 8.75514C7.79001 8.69137 7.82041 8.63257 7.86633 8.5871L9.29913 7.15189C9.54575 6.90527 9.86876 6.74888 10.2158 6.71038H10.2194L11.6631 6.56722C13.1927 5.2066 14.4451 4.62434 15.369 4.39937C15.9043 4.26885 16.3254 4.25982 16.6201 4.28629C16.7669 4.30012 16.8818 4.32238 16.963 4.34223C17.0033 4.35246 17.0352 4.36208 17.0592 4.3693C17.1699 4.40539 17.2271 4.44749 17.2704 4.54674L17.2878 4.59065C17.3346 4.73146 17.3663 4.87684 17.3822 5.02434C17.4153 5.31608 17.4129 5.73292 17.2866 6.26647ZM14.3825 10.7628L14.4066 10.7387L14.3422 11.3889C14.3187 11.5967 14.2254 11.7903 14.0775 11.9381L13.2968 12.7201L13.3293 12.4915C13.3726 12.1871 13.3088 11.8942 13.2258 11.6386C13.1955 11.5474 13.1626 11.4572 13.1272 11.3679C13.5711 11.3288 14.0066 11.1393 14.3825 10.7628ZM10.907 7.28182C10.531 7.65836 10.3416 8.09446 10.3031 8.53898C10.2138 8.50356 10.1235 8.47066 10.0324 8.44033C9.77733 8.35732 9.485 8.29356 9.18063 8.33687L8.95206 8.36935L9.73402 7.58739C9.8814 7.43941 10.0745 7.34618 10.2814 7.32272L10.931 7.25836L10.907 7.28182ZM16.5648 4.89923C16.3362 4.87878 15.9831 4.88299 15.5146 4.99728C14.5774 5.22585 13.1584 5.89714 11.3419 7.71671C10.9689 8.08965 10.8613 8.52274 10.9286 8.95041C10.993 9.35703 11.2192 9.76967 11.559 10.1101C11.8983 10.45 12.3109 10.6761 12.7163 10.7411C13.1434 10.8085 13.5759 10.7008 13.9482 10.3273C15.8003 8.47281 16.4698 7.05264 16.6887 6.12451C16.7988 5.66074 16.797 5.31548 16.7717 5.09412C16.7656 5.03696 16.7565 4.98014 16.7446 4.92389C16.6849 4.91272 16.6247 4.90448 16.5642 4.89923H16.5648Z" fill="#53BCD2"/>
<path d="M11.9917 11.5759C11.5918 11.36 11.2261 11.0859 10.9066 10.7626C10.5641 10.4236 10.2777 10.0324 10.0579 9.60352C9.39501 10.2002 8.87591 12.6436 8.9517 12.7193C9.02689 12.7951 11.3192 12.1804 11.9917 11.5753V11.5759Z" fill="#53BCD2"/>
</g>
<path d="M33.7958 3.25281C34.4589 3.25281 35.047 3.38836 35.56 3.65946C36.073 3.92639 36.4859 4.28924 36.7987 4.74803C37.1157 5.20681 37.3034 5.71773 37.3618 6.28078H35.7539C35.6914 5.94712 35.5746 5.64891 35.4036 5.38615C35.2368 5.12339 35.0157 4.91486 34.7404 4.76054C34.4652 4.60622 34.1357 4.52906 33.752 4.52906C33.2723 4.52906 32.8636 4.64376 32.5258 4.87315C32.1921 5.09837 31.9356 5.45706 31.7563 5.94921C31.5811 6.44136 31.4935 7.07948 31.4935 7.86359C31.4935 9.05225 31.6895 9.91769 32.0816 10.4599C32.4736 11.0021 33.0304 11.2732 33.752 11.2732C34.1357 11.2732 34.4652 11.1898 34.7404 11.0229C35.0157 10.8519 35.2368 10.6267 35.4036 10.3473C35.5746 10.0637 35.6914 9.75503 35.7539 9.42137H37.3618C37.3117 9.8301 37.2075 10.2222 37.049 10.5975C36.8946 10.9729 36.6757 11.3086 36.3921 11.6048C36.1085 11.8967 35.7519 12.1282 35.3223 12.2992C34.8969 12.466 34.388 12.5494 33.7958 12.5494C32.9658 12.5494 32.2526 12.3597 31.6562 11.9801C31.0639 11.5964 30.6072 11.0542 30.2861 10.3535C29.9691 9.64867 29.8106 8.81243 29.8106 7.84482C29.8106 6.88137 29.9691 6.05765 30.2861 5.37364C30.603 4.68963 31.0577 4.1662 31.6499 3.80335C32.2463 3.43632 32.9616 3.25281 33.7958 3.25281ZM41.5359 12.5494C40.9186 12.5494 40.3806 12.4181 39.9218 12.1553C39.463 11.8884 39.1064 11.5067 38.852 11.0104C38.6018 10.5141 38.4766 9.91769 38.4766 9.22117C38.4766 8.54551 38.5976 7.95326 38.8395 7.44442C39.0856 6.93559 39.438 6.53937 39.8968 6.25576C40.3556 5.97214 40.904 5.83034 41.5421 5.83034C42.1594 5.83034 42.6954 5.96589 43.15 6.23699C43.6046 6.50809 43.9549 6.89597 44.201 7.40063C44.4513 7.90529 44.5764 8.51214 44.5764 9.22117C44.5764 9.87598 44.4575 10.4536 44.2198 10.9541C43.9862 11.4504 43.6421 11.8404 43.1875 12.124C42.7371 12.4076 42.1865 12.5494 41.5359 12.5494ZM41.5421 11.3921C41.8925 11.3921 42.1803 11.2961 42.4055 11.1043C42.6349 10.9124 42.8038 10.6497 42.9122 10.316C43.0249 9.98233 43.0812 9.60279 43.0812 9.17738C43.0812 8.78115 43.0311 8.41621 42.931 8.08255C42.8351 7.74889 42.6724 7.48196 42.443 7.28176C42.2178 7.0774 41.9175 6.97521 41.5421 6.97521C41.1876 6.97521 40.8936 7.06906 40.66 7.25674C40.4306 7.44025 40.2576 7.69884 40.1408 8.0325C40.0282 8.36199 39.9719 8.74362 39.9719 9.17738C39.9719 9.56943 40.0219 9.93437 40.122 10.2722C40.2263 10.6059 40.3931 10.877 40.6225 11.0855C40.8519 11.2899 41.1584 11.3921 41.5421 11.3921ZM45.9268 12.4243V5.95546H47.4158V6.88137C47.5159 6.71454 47.6514 6.55397 47.8224 6.39965C47.9976 6.24533 48.2124 6.12021 48.4668 6.02428C48.7212 5.92835 49.0194 5.88039 49.3615 5.88039C49.7618 5.88039 50.133 5.95963 50.475 6.11812C50.8212 6.27661 51.0986 6.52477 51.3071 6.8626C51.5198 7.20043 51.6262 7.63628 51.6262 8.17014V12.4243H50.0997V8.35157C50.0997 7.92615 49.9829 7.61125 49.7493 7.40689C49.5158 7.19835 49.2217 7.09408 48.8672 7.09408C48.6253 7.09408 48.3959 7.13579 48.179 7.2192C47.9622 7.29845 47.7849 7.42149 47.6473 7.58832C47.5138 7.75098 47.4471 7.95534 47.4471 8.20142V12.4243H45.9268ZM55.6064 12.5494C55.1559 12.5494 54.7284 12.4785 54.3238 12.3367C53.9234 12.1908 53.5856 11.9634 53.3103 11.6548C53.0392 11.3462 52.8682 10.9479 52.7973 10.4599H54.1362C54.1945 10.6976 54.2967 10.8916 54.4427 11.0417C54.5929 11.1919 54.7701 11.3024 54.9745 11.3733C55.1788 11.44 55.3874 11.4734 55.6001 11.4734C55.988 11.4734 56.3008 11.4067 56.5385 11.2732C56.7804 11.1397 56.9014 10.9333 56.9014 10.6538C56.9014 10.4495 56.8346 10.2868 56.7012 10.1658C56.5677 10.0449 56.355 9.95314 56.0631 9.89058L54.8306 9.60905C54.2842 9.4881 53.8442 9.2879 53.5105 9.00846C53.1811 8.72902 53.0142 8.33488 53.0101 7.82605C53.0059 7.44234 53.1018 7.10034 53.2978 6.80004C53.4939 6.49975 53.7858 6.2641 54.1737 6.0931C54.5616 5.91792 55.0412 5.83034 55.6126 5.83034C56.3675 5.83034 56.9723 5.99925 57.4269 6.33709C57.8815 6.67075 58.1151 7.1483 58.1276 7.76974H56.8326C56.7867 7.4903 56.6553 7.27342 56.4384 7.1191C56.2215 6.96062 55.94 6.88137 55.5938 6.88137C55.2352 6.88137 54.9411 6.95019 54.7117 7.08782C54.4823 7.22546 54.3676 7.43608 54.3676 7.71969C54.3676 7.91572 54.4552 8.07004 54.6304 8.18265C54.8056 8.29526 55.0683 8.39119 55.4187 8.47043L56.5823 8.75196C56.916 8.83537 57.1892 8.94798 57.4019 9.08979C57.6146 9.2316 57.7814 9.388 57.9024 9.559C58.0233 9.72583 58.1067 9.89892 58.1526 10.0783C58.2027 10.2534 58.2277 10.4161 58.2277 10.5662C58.2277 10.9833 58.1192 11.3399 57.9024 11.636C57.6896 11.928 57.3873 12.1532 56.9952 12.3117C56.6032 12.4702 56.1402 12.5494 55.6064 12.5494ZM62.0384 12.5494C61.7214 12.5494 61.4148 12.5036 61.1187 12.4118C60.8267 12.3159 60.564 12.1782 60.3304 11.9989C60.0969 11.8154 59.9113 11.5902 59.7736 11.3232C59.636 11.0563 59.5672 10.7456 59.5672 10.3911V5.95546H61.0937V10.2159C61.0937 10.5662 61.2042 10.854 61.4253 11.0792C61.6505 11.3045 61.9883 11.4171 62.4387 11.4171C62.8475 11.4171 63.1749 11.3107 63.421 11.098C63.667 10.8811 63.7901 10.5704 63.7901 10.1658V5.95546H65.3041V12.4243H64.1342L63.9652 11.1606C63.886 11.5151 63.7463 11.7945 63.5461 11.9989C63.3501 12.1991 63.1186 12.3409 62.8517 12.4243C62.5889 12.5077 62.3178 12.5494 62.0384 12.5494ZM66.9924 12.4243V5.95546H68.4751V6.88137C68.6628 6.59776 68.9172 6.35168 69.2384 6.14315C69.5637 5.93461 69.9766 5.83034 70.4771 5.83034C70.7065 5.83034 70.938 5.86996 71.1715 5.94921C71.4093 6.02845 71.6282 6.14523 71.8284 6.29955C72.0328 6.45387 72.1955 6.64572 72.3164 6.87512C72.5208 6.57065 72.7919 6.3204 73.1297 6.12438C73.4717 5.92835 73.8554 5.83034 74.2809 5.83034C74.5144 5.83034 74.7542 5.86788 75.0003 5.94295C75.2506 6.01802 75.4799 6.14315 75.6885 6.31832C75.897 6.49349 76.0659 6.73331 76.1952 7.03777C76.3245 7.33807 76.3892 7.71552 76.3892 8.17014V12.4243H74.8689V8.35157C74.8689 8.03042 74.8126 7.77809 74.7 7.59457C74.5874 7.41106 74.4414 7.28176 74.2621 7.20669C74.0869 7.12745 73.8992 7.08782 73.699 7.08782C73.5197 7.08782 73.332 7.12328 73.136 7.19418C72.9441 7.26508 72.7794 7.38186 72.6417 7.54452C72.5083 7.70718 72.4415 7.92615 72.4415 8.20142V12.4243H70.9213V8.10758C70.9213 7.88235 70.8629 7.69467 70.7461 7.54452C70.6293 7.39438 70.4813 7.28176 70.3019 7.20669C70.1268 7.12745 69.9474 7.08782 69.7639 7.08782C69.5762 7.08782 69.3844 7.12745 69.1883 7.20669C68.9965 7.28594 68.8359 7.40689 68.7066 7.56955C68.5773 7.73221 68.5127 7.94283 68.5127 8.20142V12.4243H66.9924ZM79.2212 9.54023C79.217 9.90726 79.2754 10.2326 79.3963 10.5162C79.5173 10.7998 79.6966 11.0229 79.9344 11.1856C80.1721 11.3441 80.4661 11.4233 80.8165 11.4233C81.1752 11.4233 81.4859 11.3441 81.7486 11.1856C82.0156 11.0229 82.1928 10.7769 82.2804 10.4474H83.6755C83.6005 10.8978 83.4211 11.2794 83.1375 11.5922C82.8539 11.9051 82.5098 12.1428 82.1052 12.3054C81.7048 12.4681 81.2878 12.5494 80.854 12.5494C80.2284 12.5494 79.6779 12.4181 79.2024 12.1553C78.7311 11.8884 78.362 11.5088 78.095 11.0167C77.8323 10.5245 77.7009 9.93854 77.7009 9.25871C77.7009 8.59556 77.8219 8.00748 78.0638 7.49447C78.3057 6.9773 78.6539 6.57065 79.1085 6.27453C79.5673 5.9784 80.1179 5.83034 80.7602 5.83034C81.3983 5.83034 81.9342 5.96589 82.368 6.23699C82.8059 6.50809 83.1354 6.88763 83.3565 7.37561C83.5817 7.85942 83.6943 8.42664 83.6943 9.07728V9.54023H79.2212ZM79.2212 8.59556H82.2554C82.2554 8.28275 82.2012 8.00122 82.0927 7.75098C81.9843 7.49656 81.8175 7.29636 81.5922 7.15039C81.3712 7.00024 81.0917 6.92516 80.7539 6.92516C80.4202 6.92516 80.1387 7.00649 79.9093 7.16915C79.6799 7.33181 79.5068 7.54244 79.3901 7.80102C79.2733 8.05544 79.217 8.32028 79.2212 8.59556ZM87.4843 12.5494C86.6293 12.5494 85.9578 12.2554 85.4699 11.6673C84.9819 11.0792 84.7379 10.243 84.7379 9.15861C84.7379 8.48294 84.8359 7.89695 85.0319 7.40063C85.2321 6.90014 85.5241 6.51434 85.9078 6.24324C86.2957 5.96797 86.7753 5.83034 87.3467 5.83034C87.6136 5.83034 87.8555 5.8637 88.0724 5.93044C88.2935 5.993 88.4895 6.07641 88.6605 6.18068C88.8315 6.28495 88.9754 6.39965 89.0922 6.52477C89.2131 6.64989 89.307 6.77502 89.3737 6.90014V3.12768H90.9002V12.4243H89.7741L89.6052 11.098C89.5551 11.2523 89.4801 11.415 89.38 11.586C89.284 11.7528 89.1527 11.9092 88.9858 12.0552C88.8232 12.2012 88.6188 12.32 88.3727 12.4118C88.1266 12.5036 87.8305 12.5494 87.4843 12.5494ZM87.7972 11.4296C88.3435 11.4296 88.7418 11.2523 88.9921 10.8978C89.2465 10.5391 89.3737 9.94688 89.3737 9.12107C89.3695 8.64978 89.3111 8.25355 89.1985 7.9324C89.0901 7.61125 88.9212 7.36935 88.6918 7.20669C88.4666 7.04403 88.1746 6.9627 87.8159 6.9627C87.3571 6.9627 86.9797 7.13162 86.6836 7.46945C86.3874 7.80728 86.2394 8.35782 86.2394 9.12107C86.2394 9.88015 86.3749 10.4557 86.646 10.8478C86.9171 11.2356 87.3008 11.4296 87.7972 11.4296Z" fill="#86848C"/>
<path d="M31.976 19.1912C32.7492 19.1912 33.3636 19.496 33.8192 20.1056C34.278 20.7119 34.5074 21.6038 34.5074 22.7813C34.5074 23.9523 34.2796 24.841 33.824 25.4474C33.3716 26.0505 32.754 26.3521 31.9712 26.3521C31.1852 26.3521 30.566 26.0521 30.1136 25.4522C29.6613 24.849 29.4351 23.9619 29.4351 22.7909C29.4351 22.0049 29.5394 21.3456 29.7479 20.813C29.9564 20.2772 30.25 19.873 30.6286 19.6003C31.0103 19.3276 31.4595 19.1912 31.976 19.1912ZM31.976 25.4762C32.4509 25.4762 32.807 25.2677 33.0444 24.8506C33.2818 24.4303 33.4005 23.7422 33.4005 22.7861C33.4005 21.8108 33.2802 21.1098 33.0396 20.6831C32.799 20.2531 32.4428 20.0382 31.9712 20.0382C31.5028 20.0382 31.1451 20.2548 30.8981 20.6879C30.651 21.1178 30.5275 21.8172 30.5275 22.7861C30.5275 23.7389 30.6494 24.4255 30.8932 24.8458C31.1403 25.2661 31.5012 25.4762 31.976 25.4762Z" fill="#B8B7BD"/>
<defs>
<filter id="filter0_d_278_3147" x="0.0755196" y="1.38684" width="25.0247" height="25.0247" filterUnits="userSpaceOnUse" color-interpolation-filters="sRGB">
<feFlood flood-opacity="0" result="BackgroundImageFix"/>
<feColorMatrix in="SourceAlpha" type="matrix" values="0 0 0 0 0 0 0 0 0 0 0 0 0 0 0 0 0 0 127 0" result="hardAlpha"/>
<feOffset dy="4.81242"/>
<feGaussianBlur stdDeviation="3.84994"/>
<feComposite in2="hardAlpha" operator="out"/>
<feColorMatrix type="matrix" values="0 0 0 0 0 0 0 0 0 0 0 0 0 0 0 0 0 0 0.1 0"/>
<feBlend mode="normal" in2="BackgroundImageFix" result="effect1_dropShadow_278_3147"/>
<feBlend mode="normal" in="SourceGraphic" in2="effect1_dropShadow_278_3147" result="shape"/>
</filter>
</defs>
</svg>
