<svg width="13" height="11" viewBox="0 0 13 11" fill="none" xmlns="http://www.w3.org/2000/svg">
<path d="M7.88086 3.13923C7.88086 2.56726 8.34454 2.10358 8.91651 2.10358C9.48848 2.10358 9.95216 2.56726 9.95216 3.13923C9.95216 3.7112 9.48848 4.17488 8.91651 4.17488C8.34454 4.17488 7.88086 3.7112 7.88086 3.13923Z" fill="#6D6976"/>
<path fill-rule="evenodd" clip-rule="evenodd" d="M3.23254 0.14175C5.40675 -0.0472498 7.59325 -0.04725 9.76746 0.14175L10.8102 0.232391C11.8079 0.319121 12.6162 1.07835 12.7651 2.0687C13.0783 4.15154 13.0783 6.26951 12.7651 8.35235C12.6162 9.3427 11.8079 10.1019 10.8102 10.1887L9.76746 10.2793C7.59325 10.4683 5.40675 10.4683 3.23254 10.2793L2.18983 10.1887C1.1921 10.1019 0.383832 9.3427 0.234907 8.35235C-0.0783023 6.26951 -0.0783023 4.15154 0.234907 2.0687C0.383832 1.07835 1.1921 0.319121 2.18982 0.232391L3.23254 0.14175ZM9.67777 1.17351C7.56324 0.989697 5.43675 0.989697 3.32223 1.17351L2.27951 1.26415C1.7587 1.30942 1.33678 1.70574 1.25904 2.22271C1.08123 3.40516 1.00957 4.59951 1.04405 5.79155L3.71732 3.11829C3.81816 3.01745 3.95613 2.96266 4.09868 2.96685C4.24124 2.97103 4.37575 3.03383 4.4705 3.14042L7.00539 5.99217L8.75276 5.40971C8.94817 5.34457 9.16361 5.40145 9.3014 5.55456L11.7311 8.25425C11.7348 8.23578 11.7381 8.21714 11.741 8.19834C12.0388 6.2176 12.0388 4.20345 11.741 2.22271C11.6632 1.70574 11.2413 1.30942 10.7205 1.26415L9.67777 1.17351ZM11.0708 9.06866L8.7585 6.49947L7.00896 7.08265C6.81244 7.14815 6.5958 7.09024 6.45818 6.93542L4.0613 4.23893L1.13132 7.16892C1.165 7.51283 1.20757 7.85608 1.25904 8.19834C1.33678 8.71531 1.7587 9.11163 2.27951 9.1569L3.32223 9.24755C5.43675 9.43136 7.56325 9.43136 9.67777 9.24755L10.7205 9.1569C10.8439 9.14618 10.9617 9.11574 11.0708 9.06866Z" fill="#6D6976"/>
</svg>
