
            <svg width="22" height="22" viewBox="0 0 22 22" fill="none" xmlns="http://www.w3.org/2000/svg">
<g clip-path="url(#clip0_620_4328)">
<path d="M9.86133 20.2061C9.78971 20.4782 9.736 20.7539 9.70019 21.0332C9.66439 21.3125 9.63932 21.599 9.625 21.8926C8.70833 21.7852 7.83463 21.5703 7.00391 21.248C6.17318 20.9258 5.40332 20.514 4.69434 20.0127C3.98535 19.5114 3.34082 18.9313 2.76074 18.2725C2.18066 17.6136 1.68652 16.8975 1.27832 16.124C0.870117 15.3506 0.555013 14.5342 0.333008 13.6748C0.111003 12.8154 0 11.9238 0 11C0 9.99023 0.128906 9.01628 0.386719 8.07812C0.644531 7.13997 1.01335 6.2627 1.49316 5.44629C1.97298 4.62988 2.5459 3.88867 3.21191 3.22266C3.87793 2.55664 4.62272 1.98372 5.44629 1.50391C6.26986 1.02409 7.14355 0.655273 8.06738 0.397461C8.99121 0.139648 9.96875 0.00716146 11 0C12.0098 0 12.9801 0.128906 13.9111 0.386719C14.8421 0.644531 15.7194 1.01693 16.543 1.50391C17.3665 1.99089 18.1077 2.5638 18.7666 3.22266C19.4255 3.88151 20.002 4.6263 20.4961 5.45703C20.9902 6.28776 21.359 7.16146 21.6025 8.07812C21.846 8.99479 21.9785 9.96875 22 11H21.2373C21.137 10.8353 21.0332 10.6742 20.9258 10.5166C20.8184 10.359 20.693 10.2087 20.5498 10.0654C20.5068 9.44238 20.3958 8.83724 20.2168 8.25H7.05762C7.00032 8.70833 6.95736 9.16309 6.92871 9.61426C6.90006 10.0654 6.88216 10.5273 6.875 11C6.875 11.4655 6.88932 11.9238 6.91797 12.375C6.94661 12.8262 6.99316 13.2845 7.05762 13.75H11C11 13.9792 11.0179 14.2083 11.0537 14.4375C11.0895 14.6667 11.1361 14.8958 11.1934 15.125H7.29394C7.37988 15.5332 7.49447 15.9808 7.63769 16.4678C7.78092 16.9548 7.95996 17.431 8.1748 17.8965C8.38965 18.362 8.63672 18.7988 8.91601 19.207C9.19531 19.6152 9.51042 19.9482 9.86133 20.2061ZM19.6904 6.875C19.4111 6.29492 19.0817 5.75065 18.7021 5.24219C18.3226 4.73372 17.8929 4.26823 17.4131 3.8457C16.9333 3.42318 16.4248 3.0472 15.8877 2.71777C15.3506 2.38835 14.7705 2.11979 14.1475 1.91211C14.4053 2.27018 14.6344 2.64974 14.835 3.05078C15.0355 3.45182 15.2181 3.86361 15.3828 4.28613C15.5475 4.70866 15.6872 5.13835 15.8018 5.5752C15.9163 6.01204 16.0166 6.44531 16.1025 6.875H19.6904ZM11 1.375C10.6419 1.375 10.3125 1.47168 10.0117 1.66504C9.71094 1.8584 9.43164 2.11263 9.17383 2.42773C8.91601 2.74284 8.68685 3.09733 8.48633 3.49121C8.28581 3.88509 8.10319 4.28971 7.93848 4.70508C7.77376 5.12044 7.64128 5.51432 7.54102 5.88672C7.44075 6.25911 7.3584 6.58854 7.29394 6.875H14.7061C14.6488 6.5957 14.5664 6.26628 14.459 5.88672C14.3516 5.50716 14.2191 5.11328 14.0615 4.70508C13.904 4.29688 13.7249 3.89583 13.5244 3.50195C13.3239 3.10807 13.0947 2.75 12.8369 2.42773C12.5791 2.10547 12.2962 1.85124 11.9883 1.66504C11.6803 1.47884 11.3509 1.38216 11 1.375ZM7.86328 1.90137C7.25456 2.10905 6.67448 2.37402 6.12305 2.69629C5.57161 3.01855 5.05957 3.39453 4.58691 3.82422C4.11426 4.25391 3.68457 4.72298 3.29785 5.23145C2.91113 5.73991 2.58171 6.28776 2.30957 6.875H5.89746C5.97624 6.48112 6.07292 6.06217 6.1875 5.61816C6.30208 5.17415 6.44531 4.73014 6.61719 4.28613C6.78906 3.84212 6.97526 3.41602 7.17578 3.00781C7.3763 2.59961 7.60547 2.23079 7.86328 1.90137ZM1.375 11C1.375 11.9525 1.50749 12.8691 1.77246 13.75H5.67187C5.61458 13.2917 5.57161 12.8369 5.54297 12.3857C5.51432 11.9346 5.5 11.4727 5.5 11C5.5 10.5345 5.51432 10.0762 5.54297 9.625C5.57161 9.17383 5.61458 8.7155 5.67187 8.25H1.77246C1.50749 9.13086 1.375 10.0475 1.375 11ZM2.28809 15.125C2.56738 15.7051 2.89681 16.2493 3.27637 16.7578C3.65592 17.2663 4.08561 17.7354 4.56543 18.165C5.04525 18.5947 5.56087 18.9671 6.1123 19.2822C6.66374 19.5973 7.24381 19.8659 7.85254 20.0879C7.59473 19.7298 7.36556 19.3503 7.16504 18.9492C6.96452 18.5482 6.7819 18.1364 6.61719 17.7139C6.45247 17.2913 6.31283 16.8617 6.19824 16.4248C6.08366 15.988 5.97982 15.5547 5.88672 15.125H2.28809ZM18.9277 17.0693C19.3932 17.3057 19.8158 17.5957 20.1953 17.9395C20.5749 18.2832 20.8971 18.6699 21.1621 19.0996C21.4271 19.5293 21.6348 19.9876 21.7852 20.4746C21.9355 20.9616 22.0072 21.4701 22 22H20.625C20.625 21.4342 20.5176 20.9007 20.3027 20.3994C20.0879 19.8981 19.7943 19.4613 19.4219 19.0889C19.0495 18.7165 18.609 18.4193 18.1006 18.1973C17.5921 17.9753 17.0586 17.8678 16.5 17.875C15.9271 17.875 15.3936 17.9824 14.8994 18.1973C14.4053 18.4121 13.9684 18.7057 13.5889 19.0781C13.2093 19.4505 12.9121 19.891 12.6973 20.3994C12.4824 20.9079 12.375 21.4414 12.375 22H11C11 21.4772 11.0716 20.9723 11.2148 20.4854C11.3581 19.9984 11.5622 19.5365 11.8271 19.0996C12.0921 18.6628 12.4144 18.276 12.7939 17.9395C13.1735 17.6029 13.596 17.3128 14.0615 17.0693C13.5244 16.6826 13.109 16.1992 12.8154 15.6191C12.5218 15.0391 12.375 14.416 12.375 13.75C12.375 13.1842 12.4824 12.6507 12.6973 12.1494C12.9121 11.6481 13.2057 11.2113 13.5781 10.8389C13.9505 10.4665 14.3874 10.1693 14.8887 9.94727C15.39 9.72526 15.9271 9.61784 16.5 9.625C17.0658 9.625 17.5993 9.73242 18.1006 9.94727C18.6019 10.1621 19.0387 10.4557 19.4111 10.8281C19.7835 11.2005 20.0807 11.641 20.3027 12.1494C20.5247 12.6579 20.6322 13.1914 20.625 13.75C20.625 14.4089 20.4782 15.0283 20.1846 15.6084C19.8909 16.1885 19.472 16.6755 18.9277 17.0693ZM16.5 16.5C16.8796 16.5 17.234 16.4284 17.5635 16.2852C17.8929 16.1419 18.1865 15.945 18.4443 15.6943C18.7021 15.4437 18.8991 15.1536 19.0352 14.8242C19.1712 14.4948 19.2428 14.1367 19.25 13.75C19.25 13.3704 19.1784 13.016 19.0352 12.6865C18.8919 12.3571 18.695 12.0635 18.4443 11.8057C18.1937 11.5479 17.9036 11.3509 17.5742 11.2148C17.2448 11.0788 16.8867 11.0072 16.5 11C16.1204 11 15.7659 11.0716 15.4365 11.2148C15.1071 11.3581 14.8135 11.555 14.5557 11.8057C14.2979 12.0563 14.1009 12.3464 13.9648 12.6758C13.8288 13.0052 13.7572 13.3633 13.75 13.75C13.75 14.1296 13.8216 14.484 13.9648 14.8135C14.1081 15.1429 14.305 15.4365 14.5557 15.6943C14.8063 15.9521 15.0964 16.1491 15.4258 16.2852C15.7552 16.4212 16.1133 16.4928 16.5 16.5Z" fill="white"/>
</g>
<defs>
<clipPath id="clip0_620_4328">
<rect width="22" height="22" fill="white"/>
</clipPath>
</defs>
</svg>