<svg width="68" height="96" viewBox="0 0 68 96" fill="none" xmlns="http://www.w3.org/2000/svg">
<path d="M34 79.0385C52.7777 79.0385 68 63.8161 68 45.0385C68 26.2608 52.7777 11.0385 34 11.0385C15.2223 11.0385 0 26.2608 0 45.0385C0 63.8161 15.2223 79.0385 34 79.0385Z" fill="#F0F0F1"/>
<path opacity="0.4" d="M34.686 95.5639C43.7213 95.5639 51.0458 94.4304 51.0458 93.0322C51.0458 91.634 43.7213 90.5005 34.686 90.5005C25.6507 90.5005 18.3262 91.634 18.3262 93.0322C18.3262 94.4304 25.6507 95.5639 34.686 95.5639Z" fill="#353535"/>
<path d="M31.3298 24.5488L29.4935 34.8418C25.6829 40.0502 23.6644 43.7578 18.6795 43.2312C12.4265 42.5692 9.00439 33.4443 9.00439 33.4443L10.2196 32.2938C10.2196 32.2938 10.4285 32.5939 10.7816 33.0676C11.9822 34.6949 14.8365 38.373 16.5461 39.0529C18.9648 40.015 21.8428 38.4789 24.5353 32.5114C28.0428 24.7401 31.3298 24.5488 31.3298 24.5488Z" fill="#68C2DD"/>
<path opacity="0.3" d="M31.3298 24.5488L29.4935 34.8418C25.6829 40.0502 23.6644 43.7578 18.6795 43.2312C12.4265 42.5692 9.00439 33.4443 9.00439 33.4443L10.2196 32.2938C10.2196 32.2938 10.4285 32.5939 10.7816 33.0676C11.9822 34.6949 14.8365 38.373 16.5461 39.0529C18.9648 40.015 21.8428 38.4789 24.5353 32.5114C28.0428 24.7401 31.3298 24.5488 31.3298 24.5488Z" fill="#808083"/>
<path d="M42.4854 49.2401C29.6905 54.4385 23.6944 49.5544 23.6944 49.5544C23.549 38.3676 29.6878 25.4275 31.0363 24.6298C31.974 24.0739 32.9094 23.7152 33.8186 23.4997C36.2917 22.9126 38.5701 23.4114 40.168 24.0114C41.5969 24.5492 42.4854 25.17 42.4854 25.17C47.9932 29.0826 42.4854 49.2401 42.4854 49.2401Z" fill="#68C2DD"/>
<path d="M40.7182 55.67C39.84 56.6234 38.5489 57.3406 36.6628 57.5326C36.4991 57.5482 36.3356 57.5639 36.1743 57.5795C35.4417 57.6444 34.7378 57.6861 34.0647 57.7042C33.1114 57.7303 32.2151 57.7069 31.381 57.6341C27.8452 57.3223 25.385 56.1015 24.1795 53.7554C23.886 53.184 23.6651 52.5422 23.5248 51.8304C23.395 51.1913 23.3301 50.4951 23.3301 49.7416C23.3301 47.8348 23.7639 47.0112 23.7639 47.0112C23.7639 47.0112 25.5877 47.9336 30.6485 48.4634C36.6472 49.0896 42.5703 48.9129 42.5703 48.9129C42.6042 50.0454 42.7445 53.48 40.7182 55.67Z" fill="#404041"/>
<path d="M42.2099 91.2642L39.9366 90.5004C39.9366 90.5004 40.6692 81.9793 37.8271 73.3515C35.7825 67.1475 34.5797 60.7879 34.0653 57.7042C34.0289 57.499 33.9977 57.3067 33.9691 57.13C33.8315 56.2806 33.7666 55.7972 33.7666 55.7972L40.7707 54.4385C40.7707 54.4385 40.7421 54.8697 40.7187 55.6698C40.6355 58.4599 40.6148 65.7446 42.093 75.0764C42.1997 75.757 42.2956 76.4144 42.3788 77.0484C43.6387 86.6918 42.2099 91.2642 42.2099 91.2642Z" fill="#404041"/>
<path d="M32.8881 90.5005L30.9084 89.5757C30.9084 89.5757 31.3915 81.1507 28.5494 72.5253C26.3723 65.9136 24.7981 57.3792 24.1798 53.7553C24.0836 53.1784 24.0082 52.7265 23.9616 52.4251C23.9175 52.1472 23.894 51.9991 23.894 51.9991L31.4931 53.6099C31.4931 53.6099 31.3969 54.8283 31.384 56.9871C31.384 57.195 31.3813 57.4105 31.3813 57.634C31.3891 61.2945 31.6385 67.1918 32.8178 74.2505C34.4806 84.2187 32.8881 90.5005 32.8881 90.5005Z" fill="#404041"/>
<path opacity="0.3" d="M40.1674 24.0114C40.0686 24.2713 39.4141 25.8431 37.3382 27.3862C37.3382 27.3862 37.1408 26.3809 36.4756 26.0561C36.4756 26.0561 35.8107 26.6822 35.4859 26.9965L33.9947 41.1682L31.8824 43.431L30.6172 40.4745L34.5452 26.2845L34.3502 25.1701C34.3502 25.1701 33.0071 26.1859 32.7707 26.8665C32.7707 26.8665 32.5291 24.8738 33.8175 23.4995C36.2911 22.9126 38.5695 23.4114 40.1674 24.0114Z" fill="#808083"/>
<path d="M9.9337 32.041C9.9337 32.041 10.7248 32.7999 10.7663 33.1725C10.7663 33.1725 10.7531 34.884 9.00276 34.8399C7.25241 34.7957 9.9337 32.041 9.9337 32.041Z" fill="#68C2DD"/>
<path d="M23.8942 47.1997C23.8942 47.1997 28.9925 49.535 42.2096 49.0479V49.9571C42.2096 49.9571 29.8563 51.6782 23.6929 48.0411L23.8942 47.1997Z" fill="#231F20"/>
<path d="M28.8337 48.7885L28.7334 49.6016C28.7032 49.8471 28.8752 50.0716 29.12 50.1062L31.5721 50.4542C31.8254 50.4901 32.0582 50.3097 32.0867 50.0555L32.18 49.2226C32.2075 48.9774 32.034 48.7553 31.7895 48.7224L29.3442 48.3942C29.0941 48.3608 28.8645 48.5379 28.8337 48.7885Z" fill="#6D6E70"/>
<path d="M36.689 48.983C36.689 48.983 36.8405 49.7189 36.689 50.7582H37.3817C37.3817 50.7582 37.5765 49.6326 37.3817 48.983H36.689Z" fill="#404041"/>
<path d="M26.2327 47.8229C26.2327 47.8229 25.9462 48.5177 25.9008 49.5669L25.2202 49.4374C25.2202 49.4374 25.2392 48.2951 25.5521 47.6934L26.2327 47.8229Z" fill="#404041"/>
<path d="M38.6104 50.4979C38.6104 50.4979 38.6104 53.3734 40.6013 55.1381C40.6013 55.1381 42.0493 53.5091 41.7777 50.1357C41.7777 50.1357 40.6467 50.4979 38.6104 50.4979Z" fill="#353535"/>
<path opacity="0.3" d="M36.7996 32.4279C36.7996 32.4279 38.7464 32.3237 40.9979 33.2818L40.3142 37.0982C40.2349 37.5414 39.8911 37.8901 39.4491 37.9757L37.7288 38.3096L36.5836 37.5746C36.2149 37.3379 36.0238 36.9033 36.0985 36.4716L36.7996 32.4279Z" fill="#808083"/>
<path d="M39.6873 23.9646C39.6873 23.9646 37.0321 24.9156 35.1644 24.7257C34.7254 24.6789 34.424 24.6401 34.2266 24.5881C33.1251 24.2919 35.2995 23.6218 34.7722 19.6936L39.2771 17.6177C39.2771 17.6177 39.2509 17.7372 39.2146 17.9476C39.1548 18.2982 39.0614 18.8959 39.0016 19.592C38.8769 21.0706 38.8976 23.001 39.6873 23.9646Z" fill="#EAA688"/>
<path d="M39.2766 17.6179C39.2766 17.6179 39.2505 17.7375 39.2141 17.9478C39.1543 18.2985 39.0609 18.8961 39.0011 19.5923C38.006 21.4419 36.333 23.897 34.2261 24.5881C33.1246 24.2919 35.2991 23.6218 34.7717 19.6936L39.2766 17.6179Z" fill="#CC8569"/>
<path d="M31.3297 24.5488C31.3297 24.5488 25.8007 30.8135 25.2504 35.5304C25.2504 35.5304 23.485 41.1214 19.3652 41.3186C15.2456 41.5158 10.7669 34.6478 10.7669 34.6478C10.7669 34.6478 11.0434 34.1476 10.7669 33.1737C10.761 33.1471 10.764 33.112 10.7815 33.0678C11.9821 34.6952 14.8364 38.3733 16.546 39.0531C18.9647 40.0153 21.8427 38.4792 24.5352 32.5117C28.0428 24.7401 31.3297 24.5488 31.3297 24.5488Z" fill="#68C2DD"/>
<path d="M36.7637 33.2719C36.7637 33.2719 38.6375 33.1028 40.4562 33.9147L40.586 33.3342C40.586 33.3342 39.3195 32.4245 36.9057 32.486L36.7637 33.2719Z" fill="#68C2DD"/>
<path d="M36.7634 33.3735C36.7634 33.3735 39.1243 33.4277 40.4017 34.1097C40.4017 34.1097 40.0987 37.2813 39.4925 37.5846C38.8864 37.8877 37.7822 38.1258 37.7822 38.1258C37.7822 38.1258 36.4418 37.3142 36.2776 36.8486C36.1133 36.383 36.7634 33.3735 36.7634 33.3735Z" fill="#68C2DD"/>
<path d="M30.3027 50.4588C30.3027 50.4588 29.6321 54.766 31.8781 57.6711L31.6438 57.6342C31.6438 57.6342 29.4965 55.2501 30.0321 50.3639L30.3027 50.4588Z" fill="#353535"/>
<path d="M28.9114 50.2656C28.9114 50.2656 28.603 52.9123 28.9114 53.8703C29.2199 54.8283 30.4561 55.0555 30.4561 55.0555L30.5837 55.3315C30.5837 55.3315 29.0781 55.2341 28.735 53.87C28.3919 52.5062 28.735 50.1356 28.735 50.1356L28.9114 50.2656Z" fill="#353535"/>
<path d="M42.2105 91.2643L39.9372 90.5005C39.9372 90.5005 40.6697 81.9793 37.8276 73.3515C35.783 67.1476 34.5802 60.7879 34.0658 57.7042C33.1124 57.7303 32.2162 57.7069 31.3821 57.6342C31.3899 61.2947 31.6393 67.192 32.8186 74.2507C34.4814 84.2189 32.8889 90.5007 32.8889 90.5007L30.9092 89.5759C30.9092 89.5759 31.3923 81.1509 28.5502 72.5255C26.3731 65.9138 24.7989 57.3794 24.1806 53.7555C23.887 53.184 23.6662 52.5422 23.5259 51.8304C23.6611 52.0227 23.8065 52.2228 23.9624 52.4254C25.1913 54.0283 27.0644 55.8494 29.5844 56.582C30.2184 56.7665 30.8184 56.899 31.3848 56.9873C32.3513 57.1406 33.2164 57.1718 33.9697 57.1303C36.209 57.0134 37.4692 56.2782 37.4692 56.2782C37.4692 56.2782 36.9548 57.081 36.1754 57.5798C35.8584 57.7799 35.4972 57.9331 35.1102 57.9617C35.1102 57.9617 35.8455 58.9983 37.0795 59.4788C37.0795 59.4788 36.2844 59.4607 35.3935 58.9514C35.3935 58.9514 36.3211 75.2014 41.7351 76.802C41.9586 76.8695 42.1741 76.9501 42.3793 77.0487C43.6392 86.6918 42.2105 91.2643 42.2105 91.2643Z" fill="#353535"/>
<path d="M38.3937 23.9361C37.9806 24.3129 37.5909 24.6452 37.2402 24.9337C36.0867 25.8819 35.3256 26.3678 35.3256 26.3678C35.3127 26.4354 35.2971 26.5132 35.2842 26.5964C34.7932 29.3165 33.4216 40.6046 33.4216 40.6046L31.3952 43.0726L30.3042 40.2591C31.0836 35.4087 34.5467 26.2848 34.5467 26.2848C34.3466 25.8405 34.2168 25.412 34.1336 25.0301V25.0274C33.9389 24.1338 33.996 23.4893 33.996 23.4893C34.0167 23.7023 34.066 23.8841 34.1363 24.0374C34.5753 25.0325 35.9003 24.8583 36.9576 24.5232C37.7158 24.287 38.3339 23.9674 38.3937 23.9361Z" fill="#FE4543"/>
<path d="M37.2399 24.9339C36.0864 25.8821 35.3253 26.368 35.3253 26.368C35.3124 26.4356 35.2968 26.5134 35.2839 26.5966C35.1099 26.7006 34.9825 26.7682 34.9356 26.7706C34.707 26.7862 34.5459 26.2848 34.5459 26.2848C34.8551 26.4614 35.2109 26.368 35.2109 26.368L36.024 25.6511C36.024 25.6511 35.9591 25.3082 35.8551 25.1703C35.7511 25.03 35.0342 25.2457 35.0342 25.2457C35.0342 25.2457 34.7512 24.89 34.5952 24.8224C34.4369 24.7548 34.1328 25.0303 34.1328 25.0303V24.0405L34.1355 24.0378C34.5745 25.033 35.8995 24.8587 36.9569 24.5237L37.2399 24.9339Z" fill="#9E0404"/>
<path d="M39.0785 22.491C38.0263 22.2413 35.1788 24.6022 35.1788 24.6022C35.1788 24.6022 34.5737 23.1444 34.6378 22.5795C34.6378 22.5795 34.232 22.3321 33.2023 23.9639C32.6478 24.8423 32.7857 26.1583 32.7857 26.1583C33.4453 24.7191 34.4268 24.2591 34.6215 24.6596C34.7945 25.0151 35.0329 25.2442 35.0329 25.2442C35.0329 25.2442 35.4062 25.0446 35.7147 24.7955C35.9204 24.6293 36.7737 25.0917 37.3433 26.3689C37.3433 26.3689 39.7981 25.0341 40.182 23.9724C40.182 23.9724 39.528 22.5976 39.0785 22.491Z" fill="#68C2DD"/>
<path d="M33.3363 89.4942C33.0633 88.7043 31.7263 89.186 31.7263 89.186C31.3961 88.3199 30.4979 88.3199 30.4979 88.3199C30.4832 89.5391 29.1019 90.1013 26.9118 90.9612C25.2366 91.6189 25.2495 92.4963 25.2495 92.4963C27.7954 93.132 31.8807 91.9241 31.8807 91.9241C31.8807 91.9241 31.8729 92.3089 33.605 92.1357C33.605 92.1357 33.9071 90.5237 33.269 89.654C33.269 89.654 33.2956 89.594 33.3363 89.4942Z" fill="#231F20"/>
<path d="M42.6945 90.534C42.4212 89.7441 41.0844 90.2258 41.0844 90.2258C40.7543 89.3597 39.856 89.3597 39.856 89.3597C39.8414 90.5789 38.46 91.1411 36.2699 92.001C34.5947 92.6586 34.6079 93.5361 34.6079 93.5361C37.1538 94.1718 41.2391 92.9639 41.2391 92.9639C41.2391 92.9639 41.2313 93.3487 42.9634 93.1755C42.9634 93.1755 43.2655 91.5635 42.6274 90.6938C42.6274 90.6938 42.654 90.6338 42.6945 90.534Z" fill="#231F20"/>
<path d="M43.0337 6.5072C43.0337 15.4883 39.085 20.7985 34.341 21.2245C34.0787 21.2479 33.811 21.2582 33.5409 21.2506C32.0497 21.2143 30.3454 17.5225 30.3037 12.4879C30.2752 9.03256 30.6258 4.41083 34.9176 2.72734C35.149 2.63632 35.3905 2.55335 35.6451 2.48063C40.2046 1.17342 43.0337 4.02601 43.0337 6.5072Z" fill="#EAA688"/>
<path d="M32.5541 4.52963C32.529 4.46692 32.4621 4.43251 32.3992 4.40859C32.028 4.26755 31.5942 4.30318 31.2511 4.50254C31.0561 4.61577 30.917 4.77658 30.8121 4.96276C30.6198 4.94495 30.3814 5.13748 30.2713 5.30854C30.1239 5.53743 30.0795 5.81683 30.0637 6.08843C30.0085 7.02351 30.2481 7.9481 30.4861 8.85415C30.5017 8.77801 30.5173 8.70188 30.5329 8.62599C30.579 9.29777 30.6857 9.96517 30.906 10.5945C31.3021 11.725 31.6515 9.87634 31.7108 9.53642C31.8194 8.91417 31.8953 8.28607 31.9626 7.65821C31.9919 7.38368 32.0324 7.10526 32.0444 6.82927C32.0612 6.44396 32.1115 6.28218 32.285 5.92518C32.3709 5.74826 32.4053 5.55134 32.4387 5.35734C32.4778 5.13041 32.5168 4.90347 32.5561 4.67653C32.5644 4.62724 32.5724 4.5755 32.5541 4.52963Z" fill="#49260A"/>
<path d="M31.8418 10.8915C31.8418 10.8915 29.2193 8.34905 29.5029 11.4308C29.7857 14.5118 31.8098 14.593 31.8098 14.593L31.8418 10.8915Z" fill="#EAA688"/>
<path d="M31.1305 11.4433C30.1737 9.59802 29.8535 11.1231 29.8535 11.1231C30.1083 10.3411 30.6585 11.0133 30.9626 11.8445C30.7444 11.811 30.485 11.8725 30.5651 12.4047C30.5651 12.4047 30.619 11.8691 31.0551 12.1302C31.0675 12.1744 31.0804 12.2183 31.0912 12.2625C31.324 13.2168 30.9113 12.8862 31.0282 13.5821C31.4057 13.864 31.6888 12.5197 31.1305 11.4433Z" fill="#CC8569"/>
<path d="M40.9449 7.0294C40.9449 14.6492 38.1001 19.6294 34.341 21.2245C34.0787 21.2479 33.811 21.2582 33.5409 21.2506C32.0497 21.2143 30.3454 17.5225 30.3037 12.4879C30.2752 9.03256 30.6258 4.41082 34.9176 2.72733C38.6716 2.28273 40.9449 4.8054 40.9449 7.0294Z" fill="#FFBF9C"/>
<path d="M41.5927 12.0008C41.5927 12.0008 45.5988 9.79363 44.6989 12.8185C43.8004 15.8429 41.021 15.6789 41.021 15.6789L41.5927 12.0008Z" fill="#EAA688"/>
<path d="M42.4721 12.6343C44.0863 10.9181 44.27 12.4708 44.27 12.4708C44.0518 11.6636 43.1883 12.2646 42.6348 13.0528C42.9386 13.046 43.2827 13.1382 43.0848 13.657C43.0848 13.657 43.1002 13.1187 42.4611 13.3254C42.4367 13.3676 42.4118 13.4098 42.3896 13.4522C41.913 14.3715 42.5316 14.093 42.2564 14.7697C41.6936 15.0042 41.5302 13.6355 42.4721 12.6343Z" fill="#CC8569"/>
<path d="M36.1875 8.03357C36.1875 8.03357 37.9574 6.89692 38.964 8.618C38.964 8.618 38.1846 7.70878 36.2685 8.2771L36.1875 8.03357Z" fill="#49260A"/>
<path d="M33.3228 7.54603C33.3228 7.54603 31.9338 6.26298 30.9053 7.88888C30.9053 7.88888 31.6588 7.05116 33.2291 7.78151L33.3228 7.54603Z" fill="#49260A"/>
<path d="M44.3508 9.61438C42.3245 9.11561 41.7996 7.47628 41.7996 7.47628C41.9086 8.57779 42.2749 9.20663 42.2749 9.20663C40.62 8.33377 39.212 5.29401 39.8069 4.59002C40.4045 3.88846 42.1139 3.2157 42.1139 3.2157C42.1139 3.2157 44.0182 3.51975 44.6261 6.16175C44.9196 7.44236 44.678 8.67906 44.3508 9.61438Z" fill="#FFBD5C"/>
<path d="M38.7651 4.1934C38.7651 4.1934 38.9128 9.37663 41.8003 9.53353C41.5209 10.0543 41.4201 10.7636 41.251 11.3266C40.9586 12.3002 40.6458 13.2439 40.2922 14.1963C40.4294 14.256 40.5665 14.3161 40.7036 14.3759C41.1795 13.6877 41.6553 12.9996 42.1309 12.3115C42.3656 11.972 42.5377 11.6894 42.863 11.4513C43.454 11.0186 43.9808 10.4984 44.3612 9.86857C44.8747 9.01841 45.0706 8.02744 44.9764 7.04234C44.8834 6.06992 44.5118 5.13898 43.9315 4.35275C43.5057 3.77564 42.8149 3.12362 41.6114 3.21513C41.5714 3.09532 38.7651 4.1934 38.7651 4.1934Z" fill="#49260A"/>
<path d="M40.3527 0.848399C39.1311 -0.0757037 37.543 -0.0932725 36.0857 0.0948667C35.1099 0.221025 34.1397 0.392328 33.1797 0.608529C32.7468 0.705893 32.3154 0.812773 31.894 0.952108C31.5121 1.07827 30.9982 1.22102 30.6831 1.48114C30.1365 1.93258 30.2464 2.86327 30.3281 3.47674C30.3879 3.9272 30.4479 4.37741 30.5077 4.82787C30.5404 5.07433 30.5099 5.53529 30.6792 5.74465C30.6212 5.7815 30.5624 5.81762 30.5016 5.85129C30.6051 5.84983 30.708 5.84373 30.8159 5.83641C30.7978 5.8918 30.7776 5.94646 30.7603 6.0021L30.9611 5.85544C31.2649 5.8552 31.7283 5.68267 31.9374 5.62923C32.3408 5.52601 32.7373 5.39864 33.1363 5.28004C34.9733 4.73344 36.6807 4.5575 38.5264 5.14022C38.7658 5.21586 39.0145 5.32201 39.1074 5.57213C39.4613 5.17414 39.6975 4.68366 39.8646 4.16975L40.074 4.11973L41.4974 3.2842C41.4971 2.32838 41.1238 1.43185 40.3527 0.848399Z" fill="#49260A"/>
<path d="M40.2918 7.54017C40.7518 8.22782 41.405 8.78491 42.1566 9.13069C41.5897 8.7937 41.1856 8.22757 40.9387 7.61606C40.6917 7.00454 40.5888 6.34545 40.5134 5.69025C40.8313 6.34179 41.3691 6.85447 41.8045 7.43402C42.2276 7.99722 42.5582 8.63313 42.7488 9.31151C42.5953 8.31469 42.3084 7.33861 41.8979 6.41719C42.1759 6.66999 42.4548 6.92768 42.6676 7.23758C43.0536 7.79981 43.1939 8.49307 43.2747 9.17022C43.4511 8.03114 43.3433 6.8491 42.9631 5.76102C43.4226 6.24857 43.6788 6.90254 43.772 7.56603C43.8811 8.34202 43.9323 9.13362 44.0263 9.9135C44.2383 9.07896 44.3059 8.20781 44.2251 7.35056C44.3842 7.80444 44.464 8.28589 44.4604 8.76661C44.6331 7.22099 44.2095 5.61632 43.2962 4.35766C43.4228 4.61315 43.4777 4.90354 43.4533 5.18757C43.1866 4.64024 42.7581 4.1727 42.2359 3.85938C42.4858 4.14 42.6698 4.47919 42.7683 4.8418C42.4184 4.37792 41.8262 4.25591 41.4214 3.89061C41.8233 4.25322 42.1246 4.72638 42.2835 5.24394C41.9084 4.85571 41.4467 4.55117 40.9419 4.35961C41.3235 4.78274 41.5958 5.30348 41.7256 5.85838C41.3891 5.50602 41.0133 5.19172 40.6073 4.92281C40.8804 5.31495 41.0824 5.75638 41.201 6.21929C40.8128 5.78884 40.4443 5.34057 40.0973 4.87621C40.1124 5.24858 40.1276 5.62095 40.1427 5.99333C40.1398 5.92378 39.9831 5.76029 39.9458 5.69245C39.8799 5.57313 39.824 5.44819 39.7789 5.31959C39.7327 5.18806 39.7296 4.94648 39.6378 4.84912C39.4782 5.09241 39.5595 5.60582 39.6105 5.874C39.7227 6.46746 39.9563 7.03846 40.2918 7.54017Z" fill="#58320E"/>
<path d="M32.1531 2.14787C31.8493 2.16275 31.5557 2.29769 31.3515 2.55928C31.2485 2.6913 31.1985 2.94483 31.1626 3.1093C31.247 2.74474 31.5948 2.46338 31.9681 2.43825C32.3417 2.41311 32.7153 2.63468 32.8895 2.96606C33.0059 3.18763 33.0379 3.44385 33.0415 3.69422C33.0479 4.10808 32.9581 4.56464 32.6135 4.83184C33.2639 4.71349 33.521 4.29158 33.4827 3.66079C33.453 3.17397 33.3156 2.64933 32.8912 2.35894C32.6692 2.20716 32.4076 2.13542 32.1531 2.14787Z" fill="#58320E"/>
<path d="M33.8881 2.43891C33.6295 1.83399 32.977 1.38719 32.3247 1.47308C32.9643 1.32082 33.668 1.38573 34.232 1.72345C34.7961 2.06117 35.1973 2.68781 35.1924 3.34545C35.3452 2.58825 35.0448 1.75737 34.443 1.27299C35.0765 1.54556 35.5851 2.09509 35.8078 2.7476C36.1783 2.27932 36.1402 1.5375 35.7237 1.10974C36.1912 1.48626 36.4874 2.068 36.5165 2.66756C36.9896 2.16268 36.9111 1.25054 36.3588 0.833752C37.1246 1.09851 37.6143 1.98796 37.4284 2.77664C37.8561 2.41231 38.055 1.79958 37.9228 1.25347C37.8518 0.960398 37.6563 0.663915 37.3593 0.611938C38.157 0.763963 38.5265 1.6927 38.4084 2.44379C38.8242 1.92623 38.5516 1.09241 38.1529 0.687096C38.7114 1.17099 39.3117 1.73467 39.3635 2.47186C39.403 3.03481 39.1075 3.56043 38.822 4.047C38.8686 3.77077 38.8591 3.48527 38.7939 3.21294C38.6446 3.64559 38.3747 4.03602 38.0226 4.32836C38.1065 4.00869 37.9464 3.64169 37.6553 3.48576C37.7129 3.76589 37.6553 4.06799 37.4989 4.30737C37.4711 4.06286 37.2973 3.85447 37.0892 3.72343C36.8808 3.59264 36.6392 3.527 36.4018 3.46331C36.5829 3.68561 36.6731 3.98014 36.6478 4.26589C36.3864 3.90328 35.9328 3.68829 35.4867 3.71587C35.6829 3.90938 35.8086 4.17267 35.8359 4.44671C35.4611 4.23148 35.0297 4.11631 34.5975 4.11606C34.7608 4.23075 34.9006 4.37911 35.0055 4.54895C34.4406 4.48258 33.8606 4.54798 33.3247 4.73831C34.1168 4.45744 34.1509 3.05336 33.8881 2.43891Z" fill="#58320E"/>
<path d="M32.5675 4.02188C32.5605 3.85204 32.5141 3.66781 32.3765 3.56825C32.3187 3.52628 32.2491 3.5031 32.1796 3.48675C31.999 3.44429 31.8047 3.44453 31.6317 3.51188C31.3548 3.61974 31.1605 3.89572 31.1176 4.19001C31.0746 4.48405 31.171 4.78884 31.3462 5.02895C31.2784 4.83398 31.235 4.62583 31.2611 4.42085C31.2872 4.21612 31.3911 4.01432 31.5663 3.905C31.7415 3.79568 31.9907 3.79885 32.1415 3.94014C32.2245 4.01773 32.2716 4.12681 32.3013 4.23662C32.3409 4.38205 32.3543 4.53701 32.3184 4.68342C32.2825 4.82983 32.1937 4.96648 32.0629 5.0414C32.4468 4.82129 32.5861 4.46234 32.5675 4.02188Z" fill="#58320E"/>
<path d="M31.6429 6.08264C31.6519 6.22808 31.7298 6.36326 31.8342 6.46502C31.9386 6.56678 32.0682 6.63876 32.2002 6.70074C32.0831 6.58947 31.9884 6.45087 31.946 6.29494C31.9035 6.13901 31.9167 5.96502 31.9984 5.82569C32.0501 5.7376 32.1265 5.66634 32.208 5.60485C32.3854 5.47113 32.5933 5.37791 32.8112 5.33423C32.7642 5.34375 32.657 5.29251 32.6019 5.28933C32.5204 5.2847 32.446 5.29909 32.3666 5.31496C32.2703 5.33423 32.1656 5.3313 32.0775 5.37816C31.8525 5.49773 31.627 5.82374 31.6429 6.08264Z" fill="#49260A"/>
<path d="M38.8535 0.850342C39.3128 1.14512 39.6746 1.5885 39.8716 2.09728C39.8206 1.86912 39.7618 1.64292 39.6951 1.41891C39.6419 1.24053 39.5773 1.05361 39.4328 0.936236C39.9387 1.27347 40.199 1.86864 40.4123 2.43793C40.4226 2.00895 40.2693 1.57801 39.9906 1.25175C40.3518 1.67366 40.7242 2.12022 40.8425 2.66292C40.8994 2.37791 40.8657 2.07556 40.7473 1.81007C41.008 2.31226 41.1368 2.88229 41.1173 3.44769C41.049 3.25174 40.9806 3.05579 40.9126 2.8596C40.9213 3.35325 40.7627 3.84837 40.4687 4.2449C40.5577 3.92011 40.5858 3.57873 40.5512 3.24369C40.4836 3.5797 40.2898 3.88888 40.0172 4.09654C40.1407 3.85593 40.1805 3.57336 40.1285 3.30811C40.0604 3.69586 39.7557 3.99185 39.4667 4.25905C39.5392 4.03431 39.5919 3.80347 39.6241 3.56945C39.5131 3.89668 39.2166 4.22318 38.8704 4.30078C38.9694 4.07897 39.1068 3.90596 39.2549 3.7183C39.4004 3.53383 39.4606 3.30567 39.5007 3.07727C39.5885 2.57361 39.5253 2.04384 39.3245 1.57386C39.2103 1.30788 39.0521 1.06069 38.8535 0.850342Z" fill="#58320E"/>
<path d="M30.4072 6.68317C30.4531 6.53969 30.5222 6.40353 30.6107 6.28176C30.4585 6.77956 30.4016 7.3064 30.4438 7.82543C30.5092 7.29591 30.6334 6.77346 30.8133 6.27127C30.7684 6.31495 30.7335 6.36863 30.7118 6.42719C30.7242 6.16414 30.8426 5.94428 31.0087 5.74858C30.8235 5.69294 30.6071 5.70075 30.5083 5.8801C30.3704 6.13022 30.4878 6.43232 30.4072 6.68317Z" fill="#58320E"/>
<path d="M39.3118 11.5152C39.5921 10.3228 38.8528 9.12881 37.6603 8.84843C36.4679 8.56805 35.2739 9.30743 34.9935 10.4999C34.7131 11.6923 35.4525 12.8863 36.645 13.1667C37.8374 13.4471 39.0314 12.7077 39.3118 11.5152Z" stroke="#404041" stroke-width="0.24402" stroke-miterlimit="10"/>
<path d="M31.9298 12.4369C33.1547 12.4369 34.1477 11.4439 34.1477 10.219C34.1477 8.99408 33.1547 8.0011 31.9298 8.0011C30.7049 8.0011 29.7119 8.99408 29.7119 10.219C29.7119 11.4439 30.7049 12.4369 31.9298 12.4369Z" stroke="#404041" stroke-width="0.24402" stroke-miterlimit="10"/>
<path d="M32.8799 13.3807C32.8672 13.6018 32.9123 13.8656 33.1334 13.971C33.2713 14.0366 33.4248 13.9451 33.5402 13.8724C33.6766 13.7865 33.7847 13.7795 33.946 13.8246C34.07 13.8592 34.1973 13.9066 34.3242 13.8844C34.448 13.8627 34.5509 13.778 34.6395 13.6887C34.6739 13.6538 34.7078 13.6169 34.7278 13.5723C34.7644 13.49 34.7252 13.3478 34.7239 13.2577C34.7217 13.1101 34.7144 12.9627 34.7071 12.8153C34.6583 11.8324 34.5895 10.8534 34.5114 9.87221C34.5058 9.80193 34.5009 9.69871 34.437 9.65991C34.1895 9.94981 34.0534 10.361 33.8928 10.7031C33.7105 11.0911 33.5395 11.4844 33.3799 11.8824C33.1832 12.3727 32.9197 12.8222 32.8811 13.3636C32.8804 13.3693 32.8801 13.3751 32.8799 13.3807Z" fill="#F27864"/>
<path d="M34.0151 9.53983C34.1467 9.42733 34.3177 9.35925 34.5044 9.35925C34.8353 9.35925 35.1164 9.57253 35.2174 9.86925" stroke="#404041" stroke-width="0.24402" stroke-miterlimit="10"/>
<path d="M29.8848 9.35925L30.4428 9.43026" stroke="#404041" stroke-width="0.24402" stroke-miterlimit="10"/>
<path d="M39.332 10.4103L39.2969 10.6517L42.9389 11.3952L42.9259 11.424L43.3281 11.3091L43.3522 11.0582L39.332 10.4103Z" fill="#404041"/>
<path d="M37.6623 10.3159C37.6623 10.4571 37.5477 10.5718 37.4064 10.5718C37.2651 10.5718 37.1504 10.4571 37.1504 10.3159C37.1504 10.1746 37.2651 10.0599 37.4064 10.0599C37.5479 10.0601 37.6623 10.1746 37.6623 10.3159Z" fill="#404041"/>
<path d="M33.1335 9.80413C33.1335 9.94542 33.0188 10.0601 32.8776 10.0601C32.7363 10.0601 32.6216 9.94542 32.6216 9.80413C32.6216 9.66285 32.7363 9.54816 32.8776 9.54816C33.0188 9.54816 33.1335 9.6626 33.1335 9.80413Z" fill="#404041"/>
<path d="M32.1764 15.0037C32.1764 15.0037 33.3789 16.4551 37.7744 14.7963C37.7744 14.9207 37.1524 18.2382 33.4204 17.9063C33.4204 17.8648 31.6786 17.8648 32.1764 15.0037Z" fill="#A52A16"/>
<path d="M37.7744 14.7963C36.4806 15.2845 35.4653 15.502 34.6739 15.5676C33.2776 16.2535 32.8796 17.053 32.8384 17.6899C33.1412 17.8795 33.4204 17.8897 33.4204 17.9063C37.1524 18.2382 37.7744 14.9207 37.7744 14.7963Z" fill="#E35F6C"/>
<path d="M37.4351 15.8158C37.6974 15.2794 37.7752 14.8402 37.7752 14.7965C34.6886 15.9612 33.1777 15.5925 32.5508 15.2697V16.0974C32.5508 16.0969 35.1586 16.9717 37.4351 15.8158Z" fill="white"/>
<path d="M10.4031 33.0753C10.4434 32.9755 10.4751 32.8716 10.4963 32.7632C10.5734 32.3718 10.59 31.9326 10.5556 31.5366C10.5197 31.1222 10.4295 30.7152 10.3872 30.3018C10.316 29.6066 10.3941 28.8626 10.7969 28.2916C10.917 28.1215 11.0637 27.9695 11.1664 27.7884C11.2691 27.6074 11.3243 27.3824 11.2435 27.1903C11.1486 26.9646 10.8841 26.8448 10.6396 26.8575C10.3948 26.8702 10.1686 26.991 9.96826 27.132C9.05977 27.7713 8.52952 28.9099 8.62103 30.0166C8.5976 29.9844 8.57296 29.9529 8.54758 29.9229C7.9324 29.1964 7.14617 28.6383 6.36873 28.0888C6.28844 28.0319 6.20621 27.9761 6.12275 27.9224C6.07809 27.8924 6.03344 27.8619 5.98878 27.8321C5.83847 27.7318 5.6701 27.6269 5.49099 27.652C5.23062 27.6884 5.08786 27.9756 5.03564 28.2333C4.99904 28.4143 4.98172 28.6069 4.8802 28.7611C4.80285 28.8782 4.68474 28.9609 4.57103 29.0432C4.29822 29.2408 4.01442 29.4946 3.99368 29.8306C3.9866 29.9448 4.01149 30.0634 3.97465 30.1718C3.91047 30.3606 3.69256 30.4419 3.552 30.5837C3.35606 30.7813 3.32189 31.0956 3.38851 31.3657C3.4073 31.4421 3.43341 31.5187 3.42877 31.5973C3.41657 31.806 3.1972 31.9565 3.17939 32.1649C3.16645 32.3162 3.26357 32.4533 3.36216 32.5685C4.24795 33.6036 5.59494 34.1044 6.89751 34.5036C7.21889 34.6022 7.54563 34.6978 7.8814 34.7113C8.41092 34.7325 8.93557 34.5446 9.37236 34.2444C9.80403 33.9487 10.2069 33.5609 10.4031 33.0753Z" fill="#FFBF9C"/>
<path d="M6.11289 29.8275C6.52114 30.1305 7.08946 30.7313 7.54846 30.1635C7.70609 29.9683 7.75343 29.6981 7.70634 29.4517C7.84323 29.6381 7.80321 29.9026 7.70609 30.1125C7.67266 30.1847 7.63264 30.255 7.57847 30.3136C7.23831 30.6818 6.67926 30.491 6.36252 30.2179C6.00186 29.9068 5.40279 29.6454 5.31787 29.1191C5.52919 29.3846 5.84154 29.6259 6.11289 29.8275Z" fill="#EAA688"/>
<path d="M5.4255 31.0051C5.57021 31.1074 5.71979 31.1999 5.86157 31.2789C6.12194 31.4244 6.44649 31.5293 6.71222 31.3941C6.854 31.3219 6.95746 31.1896 7.02481 31.0456C7.09192 30.9017 7.12632 30.7448 7.16024 30.5896C7.25395 30.8233 7.1456 31.09 6.99968 31.2953C6.85522 31.4985 6.64512 31.6864 6.39597 31.6859C6.2032 31.6857 6.05483 31.5752 5.89769 31.4805C5.71125 31.3682 5.52336 31.2726 5.36743 31.1166C5.18734 30.9368 4.90233 30.7943 4.86865 30.5144C5.02043 30.6918 5.21809 30.8587 5.4255 31.0051Z" fill="#EAA688"/>
<path d="M6.27148 28.2287C6.27539 28.2848 6.32029 28.328 6.36201 28.3653C6.62385 28.5989 6.88763 28.8305 7.15337 29.0596C7.25293 29.1455 7.35493 29.2324 7.47621 29.2831C7.44424 29.2697 7.38763 29.1308 7.3642 29.0974C7.32272 29.0381 7.27684 28.982 7.2278 28.9288C7.15776 28.8529 7.0787 28.7877 7.00256 28.7182C6.78319 28.5183 6.54357 28.3497 6.27148 28.2287Z" fill="#EAA688"/>
<path d="M4.75506 32.1066C4.93051 32.2545 5.10791 32.4038 5.31264 32.5071C5.51737 32.6105 5.75529 32.6652 5.97857 32.6127C6.17159 32.5673 6.34387 32.4404 6.44489 32.2699C6.54591 32.0993 6.57398 31.887 6.52078 31.6962C6.66012 31.8748 6.62571 32.1357 6.53201 32.3419C6.42732 32.5717 6.23748 32.783 5.98882 32.826C5.77847 32.8624 5.56788 32.7743 5.3795 32.6737C4.951 32.4456 4.56179 32.1435 4.23456 31.785C4.18649 31.7323 4.13573 31.6752 4.1167 31.6052C4.34193 31.7547 4.54886 31.9319 4.75506 32.1066Z" fill="#EAA688"/>
<path d="M4.68337 33.4343C5.025 33.6151 5.44666 33.7518 5.78732 33.5693C6.09625 33.4038 6.23021 32.9756 6.07087 32.6637C6.18019 32.8545 6.22582 33.0861 6.17213 33.2994C6.11845 33.5126 5.95813 33.7018 5.74827 33.7674C5.55086 33.8291 5.33637 33.7806 5.14066 33.714C4.64286 33.5449 4.0621 33.2325 3.74072 32.8052C4.06942 32.9885 4.34614 33.2557 4.68337 33.4343Z" fill="#EAA688"/>
<path d="M8.22852 29.5771C8.37322 30.2394 8.63237 30.8861 8.96033 31.4578C8.8676 31.2963 8.90884 30.8324 8.85321 30.6189C8.77927 30.3341 8.69874 30.0505 8.62334 29.766C8.62017 29.7541 8.61602 29.7426 8.6126 29.7304C8.61138 29.8258 8.61309 29.921 8.6209 30.0161C8.59747 29.9839 8.57283 29.9524 8.54745 29.9224C8.44618 29.8026 8.33857 29.6887 8.22852 29.5771Z" fill="#EAA688"/>
<path d="M40.958 49.2065C41.4914 49.372 42.0651 49.2953 42.6231 49.3195C42.7122 49.3234 42.8081 49.3324 42.8759 49.3905C42.945 49.4496 42.9679 49.5445 42.9933 49.6316C43.1119 50.0401 43.3625 50.4093 43.699 50.6697C42.7876 52.0972 41.7735 53.459 40.6676 54.7416C39.5519 53.7668 38.8425 52.3407 38.7376 50.8629C38.9853 50.7404 39.2332 50.6177 39.4811 50.4952C39.5236 50.2172 39.2786 49.9703 39.0156 49.8707C38.7525 49.7712 38.4626 49.7673 38.1944 49.6828C37.9084 49.5928 37.6525 49.4093 37.4753 49.1672C37.3648 49.0164 37.294 48.7839 37.4328 48.6584C37.5121 48.5869 37.6295 48.5821 37.7364 48.583C38.0802 48.5862 38.4314 48.5996 38.7691 48.6594C38.9445 48.6904 39.1302 48.6919 39.3079 48.7102C39.6068 48.7412 39.8979 48.7587 40.1781 48.8732C40.4394 48.9798 40.6866 49.125 40.958 49.2065Z" fill="#FFBF9C"/>
<path d="M42.6131 25.3841C42.311 25.2924 42.0277 25.2714 41.78 25.3522C41.5917 25.4134 41.443 25.5772 41.3171 25.7485C40.3389 27.0803 40.4504 29.0596 41.7088 30.0391C43.9584 31.7904 45.9174 34.0185 47.4816 36.56C48.5369 38.275 51.1153 42.1092 49.8805 44.243C49.5128 44.8784 48.9549 45.334 48.4 45.7571C47.2536 46.6312 46.0753 47.4677 44.8337 48.2022C44.2207 48.5648 43.5929 48.9023 42.9477 49.2036C42.8393 49.2541 42.5528 49.3217 42.4813 49.4106C42.4072 49.5025 42.4396 49.6924 42.4525 49.8144C42.5131 50.3842 42.7407 50.9367 43.0145 51.4354C43.0197 51.4447 43.0255 51.4547 43.0353 51.4591C43.0441 51.463 43.0543 51.4613 43.0638 51.4596C43.1966 51.4342 43.3266 51.3947 43.4508 51.3415C43.7639 51.2078 44.0611 51.0987 44.3854 50.9969C44.701 50.8979 45.007 50.7695 45.3066 50.6302C45.8442 50.38 46.3578 50.0855 46.8788 49.8034C46.9371 49.7717 46.9957 49.7405 47.055 49.7102C48.618 48.9115 50.095 47.9452 51.4474 46.8259C52.3971 46.0397 53.9193 44.9582 53.7604 43.4143C53.349 39.4179 51.95 35.5829 49.8454 32.3624C48.7785 30.7299 47.5289 29.2514 46.1304 27.9851C45.4059 27.3292 43.851 25.7607 42.6131 25.3841Z" fill="#68C2DD"/>
<path d="M39.69 50.2499C39.5382 50.1452 39.3495 50.0161 39.1558 49.941C39.3578 50.0632 39.5157 50.2682 39.4811 50.4951C39.2332 50.6176 38.9855 50.7404 38.7378 50.8629C38.7424 50.9271 38.7495 50.9912 38.7563 51.0554C38.8478 51.0505 38.9394 51.0466 39.0292 51.0425C39.5831 51.0166 40.1348 50.9432 40.676 50.8231C40.3793 50.8887 39.9074 50.3997 39.69 50.2499Z" fill="#EAA688"/>
<path opacity="0.2" d="M37.7069 48.6952C37.6867 48.6918 37.6654 48.6882 37.6457 48.694C37.6237 48.7006 37.6066 48.7179 37.5932 48.7362C37.5361 48.8133 37.5244 48.9214 37.5632 49.009C37.5912 49.0725 37.6425 49.1228 37.6969 49.1657C37.8889 49.3172 38.1378 49.3953 38.3821 49.3802C38.3096 49.1806 38.4548 48.9505 38.3828 48.7509C38.1588 48.7335 37.928 48.7323 37.7069 48.6952Z" fill="white"/>
<path d="M39.1899 49.6882C39.2602 49.5647 39.3251 49.4361 39.3556 49.2973C39.3861 49.1584 39.3793 49.0074 39.3117 48.8824C39.2983 49.0191 39.3344 49.157 39.321 49.2951C39.3071 49.4393 39.2612 49.5633 39.1899 49.6882Z" fill="#EAA688"/>
<path opacity="0.3" d="M51.124 41.994C50.9091 40.885 50.7055 39.63 50.2512 38.6C49.798 37.5726 49.2514 36.5685 48.6904 35.5968C47.5762 33.6669 46.2273 31.8365 44.4559 30.4592C44.4006 30.416 44.3447 30.3736 44.2886 30.3313C43.5807 29.7999 42.8203 29.3436 42.0499 28.9092C41.7578 28.1364 41.3676 26.583 42.2747 25.3153C42.0992 25.2953 41.9323 25.3026 41.78 25.3521C41.5917 25.4134 41.443 25.5771 41.3171 25.7484C40.3389 27.0803 40.4504 29.0595 41.7088 30.039C43.9584 31.7903 45.9174 34.0185 47.4816 36.56C48.5369 38.2749 51.1152 42.1092 49.8805 44.2429C49.5128 44.8783 48.9549 45.3339 48.4 45.7571C47.2536 46.6311 46.0753 47.4676 44.8337 48.2021C44.5021 48.3983 44.1648 48.5855 43.8239 48.7653L43.8242 48.7856C43.823 48.7795 43.821 48.7734 43.82 48.7673C43.7534 48.8024 43.6848 48.8341 43.6177 48.8686C43.6302 48.9469 43.6461 49.0252 43.6539 49.0865C43.6951 49.4071 43.7803 49.7219 43.9042 50.0206C44.0455 50.3612 44.2393 50.6802 44.4745 50.9647C44.5275 50.9471 44.5797 50.9269 44.6321 50.9078C44.3435 50.4359 44.1207 49.9244 43.9677 49.393C44.9459 48.9537 50.9352 46.1695 51.3834 43.649C51.4679 43.1722 51.2136 42.4557 51.124 41.994Z" fill="#808083"/>
</svg>
