<svg width="20" height="20" viewBox="0 0 20 20" fill="none" xmlns="http://www.w3.org/2000/svg">
<path d="M2.40625 4.77716H16.7374V14.3314H2.40625V4.77716ZM9.57184 7.16573C10.2053 7.16573 10.8129 7.41738 11.2608 7.86533C11.7087 8.31327 11.9604 8.92081 11.9604 9.5543C11.9604 10.1878 11.7087 10.7953 11.2608 11.2433C10.8129 11.6912 10.2053 11.9429 9.57184 11.9429C8.93837 11.9429 8.33083 11.6912 7.8829 11.2433C7.43496 10.7953 7.18331 10.1878 7.18331 9.5543C7.18331 8.92081 7.43496 8.31327 7.8829 7.86533C8.33083 7.41738 8.93837 7.16573 9.57184 7.16573ZM5.59096 6.36954C5.59096 6.79187 5.42319 7.1969 5.12457 7.49552C4.82594 7.79415 4.42092 7.96192 3.9986 7.96192V11.1467C4.42092 11.1467 4.82594 11.3145 5.12457 11.6131C5.42319 11.9117 5.59096 12.3167 5.59096 12.7391H13.5527C13.5527 12.3167 13.7205 11.9117 14.0191 11.6131C14.3177 11.3145 14.7228 11.1467 15.1451 11.1467V7.96192C14.7228 7.96192 14.3177 7.79415 14.0191 7.49552C13.7205 7.1969 13.5527 6.79187 13.5527 6.36954H5.59096Z" fill="#2BD35A"/>
</svg>
