<svg width="20" height="15" viewBox="0 0 20 15" fill="none" xmlns="http://www.w3.org/2000/svg">
<g id="Group 172">
<path id="Vector" d="M0 12.2224C0 12.8117 0.234126 13.377 0.650874 13.7937C1.06762 14.2105 1.63285 14.4446 2.22222 14.4446H17.7778C18.3671 14.4446 18.9324 14.2105 19.3491 13.7937C19.7659 13.377 20 12.8117 20 12.2224V9.44458H0V12.2224Z" fill="#138808"/>
<path id="Vector_2" d="M20 5V2.22222C20 1.63285 19.7659 1.06762 19.3491 0.650874C18.9324 0.234126 18.3671 0 17.7778 0H2.22222C1.63285 0 1.06762 0.234126 0.650874 0.650874C0.234126 1.06762 0 1.63285 0 2.22222L0 5H20Z" fill="#FF9933"/>
<path id="Vector_3" d="M0 5H20V9.815H0V5Z" fill="#F7F7F7"/>
<path id="Vector_4" d="M10.0005 9.44444C11.2278 9.44444 12.2228 8.44952 12.2228 7.22222C12.2228 5.99492 11.2278 5 10.0005 5C8.77324 5 7.77832 5.99492 7.77832 7.22222C7.77832 8.44952 8.77324 9.44444 10.0005 9.44444Z" fill="#000080"/>
<path id="Vector_5" d="M10 9.09717C11.0355 9.09717 11.875 8.2577 11.875 7.22217C11.875 6.18663 11.0355 5.34717 10 5.34717C8.96447 5.34717 8.125 6.18663 8.125 7.22217C8.125 8.2577 8.96447 9.09717 10 9.09717Z" fill="#F7F7F7"/>
<path id="Vector_6" d="M10.055 6.52791L9.99946 6.88902L9.9439 6.52791L9.99946 5.44458L10.055 6.52791ZM9.53946 5.50514L9.76612 6.56569L9.91335 6.90014L9.87335 6.53736L9.53946 5.50514ZM9.11057 5.68291L9.6039 6.64847L9.83279 6.93347L9.70057 6.59291L9.11057 5.68291ZM8.74224 5.96514L9.4689 6.77069L9.7639 6.9868L9.54779 6.6918L8.74224 5.96514ZM8.46001 6.33347L9.37001 6.92347L9.71057 7.05569L9.42557 6.8268L8.46001 6.33347ZM8.28224 6.76236L9.31446 7.09625L9.67724 7.13625L9.34279 6.98902L8.28224 6.76236ZM8.22168 7.22236L9.30501 7.27791L9.66612 7.22236L9.30501 7.1668L8.22168 7.22236ZM8.28224 7.68236L9.34279 7.45569L9.67724 7.30847L9.31446 7.34847L8.28224 7.68236ZM8.46001 8.11125L9.42557 7.61791L9.71057 7.38902L9.37001 7.52125L8.46001 8.11125ZM8.74224 8.47958L9.54779 7.75291L9.7639 7.45791L9.4689 7.67402L8.74224 8.47958ZM9.11057 8.7618L9.70057 7.8518L9.83279 7.51125L9.6039 7.79625L9.11057 8.7618ZM9.53946 8.93958L9.87335 7.90736L9.91335 7.54458L9.76612 7.87902L9.53946 8.93958ZM9.99946 9.00014L10.055 7.9168L9.99946 7.55569L9.9439 7.9168L9.99946 9.00014ZM10.4595 8.93958L10.2328 7.87902L10.0856 7.54458L10.1256 7.90736L10.4595 8.93958ZM10.8883 8.7618L10.395 7.79625L10.1661 7.51125L10.2983 7.8518L10.8883 8.7618ZM11.2567 8.47958L10.53 7.67402L10.235 7.45791L10.4511 7.75291L11.2567 8.47958ZM11.5389 8.11125L10.6289 7.52125L10.2883 7.38902L10.5733 7.61791L11.5389 8.11125ZM11.7167 7.68236L10.6845 7.34847L10.3217 7.30847L10.6561 7.45569L11.7167 7.68236ZM11.7772 7.22236L10.6939 7.1668L10.3328 7.22236L10.6939 7.27791L11.7772 7.22236ZM11.7167 6.76236L10.6561 6.98902L10.3217 7.13625L10.6845 7.09625L11.7167 6.76236ZM11.5389 6.33347L10.5733 6.8268L10.2883 7.05569L10.6289 6.92347L11.5389 6.33347ZM11.2567 5.96514L10.4511 6.6918L10.235 6.9868L10.53 6.77069L11.2567 5.96514ZM10.8883 5.68291L10.2983 6.59291L10.1661 6.93347L10.395 6.64847L10.8883 5.68291ZM10.4595 5.50514L10.1256 6.53736L10.0856 6.90014L10.2328 6.56569L10.4595 5.50514Z" fill="#6666B3"/>
<g id="Group">
<path id="Vector_7" d="M9.75467 5.47711C9.81603 5.47711 9.86578 5.42736 9.86578 5.36599C9.86578 5.30463 9.81603 5.25488 9.75467 5.25488C9.6933 5.25488 9.64355 5.30463 9.64355 5.36599C9.64355 5.42736 9.6933 5.47711 9.75467 5.47711Z" fill="#000080"/>
<path id="Vector_8" d="M9.28201 5.60357C9.34337 5.60357 9.39312 5.55382 9.39312 5.49246C9.39312 5.43109 9.34337 5.38135 9.28201 5.38135C9.22064 5.38135 9.1709 5.43109 9.1709 5.49246C9.1709 5.55382 9.22064 5.60357 9.28201 5.60357Z" fill="#000080"/>
<path id="Vector_9" d="M8.86013 5.84771C8.9215 5.84771 8.97125 5.79796 8.97125 5.7366C8.97125 5.67523 8.9215 5.62549 8.86013 5.62549C8.79877 5.62549 8.74902 5.67523 8.74902 5.7366C8.74902 5.79796 8.79877 5.84771 8.86013 5.84771Z" fill="#000080"/>
<path id="Vector_10" d="M8.51345 6.19317C8.57482 6.19317 8.62457 6.14342 8.62457 6.08206C8.62457 6.02069 8.57482 5.97095 8.51345 5.97095C8.45209 5.97095 8.40234 6.02069 8.40234 6.08206C8.40234 6.14342 8.45209 6.19317 8.51345 6.19317Z" fill="#000080"/>
<path id="Vector_11" d="M8.27029 6.61651C8.33166 6.61651 8.3814 6.56676 8.3814 6.5054C8.3814 6.44403 8.33166 6.39429 8.27029 6.39429C8.20893 6.39429 8.15918 6.44403 8.15918 6.5054C8.15918 6.56676 8.20893 6.61651 8.27029 6.61651Z" fill="#000080"/>
<path id="Vector_12" d="M8.14334 7.08868C8.2047 7.08868 8.25445 7.03893 8.25445 6.97757C8.25445 6.9162 8.2047 6.86646 8.14334 6.86646C8.08197 6.86646 8.03223 6.9162 8.03223 6.97757C8.03223 7.03893 8.08197 7.08868 8.14334 7.08868Z" fill="#000080"/>
<path id="Vector_13" d="M8.14334 7.57745C8.2047 7.57745 8.25445 7.5277 8.25445 7.46634C8.25445 7.40497 8.2047 7.35522 8.14334 7.35522C8.08197 7.35522 8.03223 7.40497 8.03223 7.46634C8.03223 7.5277 8.08197 7.57745 8.14334 7.57745Z" fill="#000080"/>
<path id="Vector_14" d="M8.27029 8.04986C8.33166 8.04986 8.3814 8.00011 8.3814 7.93875C8.3814 7.87738 8.33166 7.82764 8.27029 7.82764C8.20893 7.82764 8.15918 7.87738 8.15918 7.93875C8.15918 8.00011 8.20893 8.04986 8.27029 8.04986Z" fill="#000080"/>
<path id="Vector_15" d="M8.51345 8.4732C8.57482 8.4732 8.62457 8.42345 8.62457 8.36209C8.62457 8.30072 8.57482 8.25098 8.51345 8.25098C8.45209 8.25098 8.40234 8.30072 8.40234 8.36209C8.40234 8.42345 8.45209 8.4732 8.51345 8.4732Z" fill="#000080"/>
<path id="Vector_16" d="M8.86013 8.81866C8.9215 8.81866 8.97125 8.76891 8.97125 8.70755C8.97125 8.64618 8.9215 8.59644 8.86013 8.59644C8.79877 8.59644 8.74902 8.64618 8.74902 8.70755C8.74902 8.76891 8.79877 8.81866 8.86013 8.81866Z" fill="#000080"/>
<path id="Vector_17" d="M9.28201 9.06255C9.34337 9.06255 9.39312 9.01281 9.39312 8.95144C9.39312 8.89008 9.34337 8.84033 9.28201 8.84033C9.22064 8.84033 9.1709 8.89008 9.1709 8.95144C9.1709 9.01281 9.22064 9.06255 9.28201 9.06255Z" fill="#000080"/>
<path id="Vector_18" d="M9.75467 9.18926C9.81603 9.18926 9.86578 9.13952 9.86578 9.07815C9.86578 9.01679 9.81603 8.96704 9.75467 8.96704C9.6933 8.96704 9.64355 9.01679 9.64355 9.07815C9.64355 9.13952 9.6933 9.18926 9.75467 9.18926Z" fill="#000080"/>
<path id="Vector_19" d="M10.2439 9.18926C10.3053 9.18926 10.355 9.13952 10.355 9.07815C10.355 9.01679 10.3053 8.96704 10.2439 8.96704C10.1826 8.96704 10.1328 9.01679 10.1328 9.07815C10.1328 9.13952 10.1826 9.18926 10.2439 9.18926Z" fill="#000080"/>
<path id="Vector_20" d="M10.7156 9.06255C10.777 9.06255 10.8267 9.01281 10.8267 8.95144C10.8267 8.89008 10.777 8.84033 10.7156 8.84033C10.6542 8.84033 10.6045 8.89008 10.6045 8.95144C10.6045 9.01281 10.6542 9.06255 10.7156 9.06255Z" fill="#000080"/>
<path id="Vector_21" d="M11.1394 8.81866C11.2008 8.81866 11.2505 8.76891 11.2505 8.70755C11.2505 8.64618 11.2008 8.59644 11.1394 8.59644C11.0781 8.59644 11.0283 8.64618 11.0283 8.70755C11.0283 8.76891 11.0781 8.81866 11.1394 8.81866Z" fill="#000080"/>
<path id="Vector_22" d="M11.4851 8.4732C11.5465 8.4732 11.5962 8.42345 11.5962 8.36209C11.5962 8.30072 11.5465 8.25098 11.4851 8.25098C11.4238 8.25098 11.374 8.30072 11.374 8.36209C11.374 8.42345 11.4238 8.4732 11.4851 8.4732Z" fill="#000080"/>
<path id="Vector_23" d="M11.7293 8.04986C11.7906 8.04986 11.8404 8.00011 11.8404 7.93875C11.8404 7.87738 11.7906 7.82764 11.7293 7.82764C11.6679 7.82764 11.6182 7.87738 11.6182 7.93875C11.6182 8.00011 11.6679 8.04986 11.7293 8.04986Z" fill="#000080"/>
<path id="Vector_24" d="M11.8553 7.57745C11.9166 7.57745 11.9664 7.5277 11.9664 7.46634C11.9664 7.40497 11.9166 7.35522 11.8553 7.35522C11.7939 7.35522 11.7441 7.40497 11.7441 7.46634C11.7441 7.5277 11.7939 7.57745 11.8553 7.57745Z" fill="#000080"/>
<path id="Vector_25" d="M11.8553 7.08868C11.9166 7.08868 11.9664 7.03893 11.9664 6.97757C11.9664 6.9162 11.9166 6.86646 11.8553 6.86646C11.7939 6.86646 11.7441 6.9162 11.7441 6.97757C11.7441 7.03893 11.7939 7.08868 11.8553 7.08868Z" fill="#000080"/>
<path id="Vector_26" d="M11.7293 6.61651C11.7906 6.61651 11.8404 6.56676 11.8404 6.5054C11.8404 6.44403 11.7906 6.39429 11.7293 6.39429C11.6679 6.39429 11.6182 6.44403 11.6182 6.5054C11.6182 6.56676 11.6679 6.61651 11.7293 6.61651Z" fill="#000080"/>
<path id="Vector_27" d="M11.4851 6.19317C11.5465 6.19317 11.5962 6.14342 11.5962 6.08206C11.5962 6.02069 11.5465 5.97095 11.4851 5.97095C11.4238 5.97095 11.374 6.02069 11.374 6.08206C11.374 6.14342 11.4238 6.19317 11.4851 6.19317Z" fill="#000080"/>
<path id="Vector_28" d="M11.1394 5.84771C11.2008 5.84771 11.2505 5.79796 11.2505 5.7366C11.2505 5.67523 11.2008 5.62549 11.1394 5.62549C11.0781 5.62549 11.0283 5.67523 11.0283 5.7366C11.0283 5.79796 11.0781 5.84771 11.1394 5.84771Z" fill="#000080"/>
<path id="Vector_29" d="M10.7156 5.60357C10.777 5.60357 10.8267 5.55382 10.8267 5.49246C10.8267 5.43109 10.777 5.38135 10.7156 5.38135C10.6542 5.38135 10.6045 5.43109 10.6045 5.49246C10.6045 5.55382 10.6542 5.60357 10.7156 5.60357Z" fill="#000080"/>
<path id="Vector_30" d="M10.2439 5.47711C10.3053 5.47711 10.355 5.42736 10.355 5.36599C10.355 5.30463 10.3053 5.25488 10.2439 5.25488C10.1826 5.25488 10.1328 5.30463 10.1328 5.36599C10.1328 5.42736 10.1826 5.47711 10.2439 5.47711Z" fill="#000080"/>
<path id="Vector_31" d="M9.99902 7.72217C10.2752 7.72217 10.499 7.49831 10.499 7.22217C10.499 6.94603 10.2752 6.72217 9.99902 6.72217C9.72288 6.72217 9.49902 6.94603 9.49902 7.22217C9.49902 7.49831 9.72288 7.72217 9.99902 7.72217Z" fill="#000080"/>
</g>
</g>
</svg>
