<svg width="27" height="26" viewBox="0 0 27 26" fill="none" xmlns="http://www.w3.org/2000/svg">
<ellipse cx="13.5" cy="13" rx="13.5" ry="13" fill="#7367F0"/>
<path d="M11.0782 9.8C11.0168 9.80009 10.9562 9.81365 10.9009 9.83968C10.8456 9.86571 10.7971 9.90355 10.7588 9.9504L8.26099 13H11.9135C12.0221 13 12.1262 13.0421 12.203 13.1172C12.2798 13.1922 12.3229 13.2939 12.3229 13.4C12.3229 13.7183 12.4524 14.0235 12.6827 14.2485C12.9131 14.4736 13.2256 14.6 13.5514 14.6C13.8772 14.6 14.1896 14.4736 14.42 14.2485C14.6504 14.0235 14.7798 13.7183 14.7798 13.4C14.7798 13.2939 14.8229 13.1922 14.8997 13.1172C14.9765 13.0421 15.0806 13 15.1892 13H18.8417L16.344 9.9504C16.3057 9.90355 16.2571 9.86571 16.2018 9.83968C16.1465 9.81365 16.0859 9.80009 16.0246 9.8H11.0782ZM19.2299 13.8H15.5578C15.4638 14.2521 15.2127 14.6586 14.847 14.9506C14.4814 15.2425 14.0236 15.402 13.5514 15.402C13.0791 15.402 12.6214 15.2425 12.2557 14.9506C11.89 14.6586 11.6389 14.2521 11.545 13.8H7.87281L8.13488 15.8496C8.14727 15.9465 8.19549 16.0356 8.27046 16.1001C8.34542 16.1646 8.44196 16.2002 8.54189 16.2H18.5608C18.6606 16.2 18.757 16.1644 18.8318 16.0998C18.9066 16.0353 18.9547 15.9463 18.967 15.8496L19.2291 13.8H19.2299ZM10.1192 9.4504C10.2343 9.30979 10.3804 9.1963 10.5465 9.11833C10.7127 9.04036 10.8946 8.99992 11.079 9H16.0237C16.2081 8.99992 16.3901 9.04036 16.5562 9.11833C16.7224 9.1963 16.8684 9.30979 16.9835 9.4504L20.0136 13.1504C20.0477 13.1921 20.0728 13.2401 20.0876 13.2915C20.1024 13.3429 20.1065 13.3966 20.0996 13.4496L19.7802 15.9488C19.7431 16.2391 19.5987 16.5062 19.3741 16.6998C19.1496 16.8933 18.8603 17.0001 18.5608 17H8.54189C8.24239 17.0001 7.95317 16.8933 7.72861 16.6998C7.50405 16.5062 7.35962 16.2391 7.32248 15.9488L7.0031 13.4496C6.99639 13.3966 7.00061 13.3428 7.01552 13.2914C7.03043 13.24 7.05572 13.1921 7.08991 13.1504L10.1192 9.4504Z" fill="white"/>
</svg>
