<svg width="15" height="14" viewBox="0 0 15 14" fill="none" xmlns="http://www.w3.org/2000/svg">
<path d="M7.36842 0.921053C7.19909 0.921053 7.03141 0.954406 6.87496 1.01921C6.71852 1.08401 6.57636 1.17899 6.45663 1.29873C6.33689 1.41847 6.24191 1.56062 6.1771 1.71707C6.1123 1.87351 6.07895 2.04119 6.07895 2.21053C6.07895 2.37986 6.1123 2.54754 6.1771 2.70399C6.24191 2.86043 6.33689 3.00258 6.45663 3.12232C6.57636 3.24206 6.71852 3.33704 6.87496 3.40184C7.03141 3.46665 7.19909 3.5 7.36842 3.5C7.71041 3.5 8.03839 3.36415 8.28022 3.12232C8.52204 2.8805 8.6579 2.55252 8.6579 2.21053C8.6579 1.86854 8.52204 1.54055 8.28022 1.29873C8.03839 1.05691 7.71041 0.921053 7.36842 0.921053ZM5.1579 2.21053C5.1579 1.62426 5.39079 1.062 5.80534 0.647448C6.2199 0.232894 6.78215 0 7.36842 0C7.95469 0 8.51695 0.232894 8.9315 0.647448C9.34605 1.062 9.57895 1.62426 9.57895 2.21053C9.57895 2.79679 9.34605 3.35905 8.9315 3.7736C8.51695 4.18816 7.95469 4.42105 7.36842 4.42105C6.78215 4.42105 6.2199 4.18816 5.80534 3.7736C5.39079 3.35905 5.1579 2.79679 5.1579 2.21053ZM12.1579 1.65789C11.9136 1.65789 11.6793 1.75493 11.5066 1.92766C11.3339 2.1004 11.2368 2.33467 11.2368 2.57895C11.2368 2.82323 11.3339 3.0575 11.5066 3.23023C11.6793 3.40296 11.9136 3.5 12.1579 3.5C12.4022 3.5 12.6364 3.40296 12.8092 3.23023C12.9819 3.0575 13.0789 2.82323 13.0789 2.57895C13.0789 2.33467 12.9819 2.1004 12.8092 1.92766C12.6364 1.75493 12.4022 1.65789 12.1579 1.65789ZM10.3158 2.57895C10.3158 2.09039 10.5099 1.62184 10.8553 1.27638C11.2008 0.93092 11.6693 0.736842 12.1579 0.736842C12.6465 0.736842 13.115 0.93092 13.4605 1.27638C13.8059 1.62184 14 2.09039 14 2.57895C14 3.0675 13.8059 3.53605 13.4605 3.88151C13.115 4.22697 12.6465 4.42105 12.1579 4.42105C11.6693 4.42105 11.2008 4.22697 10.8553 3.88151C10.5099 3.53605 10.3158 3.0675 10.3158 2.57895ZM1.65789 2.57895C1.65789 2.33467 1.75493 2.1004 1.92766 1.92766C2.1004 1.75493 2.33467 1.65789 2.57895 1.65789C2.82323 1.65789 3.0575 1.75493 3.23023 1.92766C3.40296 2.1004 3.5 2.33467 3.5 2.57895C3.5 2.82323 3.40296 3.0575 3.23023 3.23023C3.0575 3.40296 2.82323 3.5 2.57895 3.5C2.33467 3.5 2.1004 3.40296 1.92766 3.23023C1.75493 3.0575 1.65789 2.82323 1.65789 2.57895ZM2.57895 0.736842C2.09039 0.736842 1.62184 0.93092 1.27638 1.27638C0.930921 1.62184 0.736842 2.09039 0.736842 2.57895C0.736842 3.0675 0.930921 3.53605 1.27638 3.88151C1.62184 4.22697 2.09039 4.42105 2.57895 4.42105C3.0675 4.42105 3.53605 4.22697 3.88151 3.88151C4.22697 3.53605 4.42105 3.0675 4.42105 2.57895C4.42105 2.09039 4.22697 1.62184 3.88151 1.27638C3.53605 0.93092 3.0675 0.736842 2.57895 0.736842ZM4.05263 6.72368C4.05263 6.30841 4.2176 5.91015 4.51124 5.6165C4.80488 5.32286 5.20315 5.15789 5.61842 5.15789H9.11842C9.5337 5.15789 9.93196 5.32286 10.2256 5.6165C10.5192 5.91015 10.6842 6.30841 10.6842 6.72368V10.6842C10.6842 11.5636 10.3349 12.407 9.71304 13.0288C9.09121 13.6507 8.24782 14 7.36842 14C6.48902 14 5.64564 13.6507 5.0238 13.0288C4.40197 12.407 4.05263 11.5636 4.05263 10.6842V6.72368ZM7.36842 13.0789C8.00355 13.0789 8.61266 12.8266 9.06176 12.3775C9.51086 11.9284 9.76316 11.3193 9.76316 10.6842V6.72368C9.76316 6.55269 9.69523 6.3887 9.57432 6.26779C9.45341 6.14687 9.28942 6.07895 9.11842 6.07895H5.61842C5.44743 6.07895 5.28344 6.14687 5.16252 6.26779C5.04161 6.3887 4.97368 6.55269 4.97368 6.72368V10.6842C4.97368 11.3193 5.22599 11.9284 5.67509 12.3775C6.12419 12.8266 6.7333 13.0789 7.36842 13.0789ZM2.57895 11.9737C2.88704 11.9742 3.18912 11.8884 3.451 11.7261C3.53168 12.0304 3.647 12.3204 3.79216 12.5919C3.39918 12.8014 2.95864 12.9056 2.51345 12.8942C2.06826 12.8829 1.63358 12.7565 1.25174 12.5274C0.869906 12.2982 0.553923 11.974 0.334563 11.5865C0.115203 11.1989 -5.93452e-05 10.7611 4.33476e-08 10.3158V6.72405C-4.83457e-05 6.5184 0.0404163 6.31475 0.119083 6.12474C0.19775 5.93472 0.313077 5.76207 0.458479 5.61663C0.603881 5.4712 0.776508 5.35583 0.966503 5.27712C1.1565 5.19841 1.36014 5.15789 1.56579 5.15789H3.59211C3.69821 5.15789 3.80211 5.16858 3.90195 5.18847C3.6725 5.44456 3.50342 5.74886 3.40716 6.07895H1.56579C1.39479 6.07895 1.2308 6.14687 1.10989 6.26779C0.98898 6.3887 0.921053 6.55269 0.921053 6.72368V10.3158C0.921053 10.7555 1.09572 11.1772 1.40664 11.4881C1.71755 11.799 2.13925 11.9737 2.57895 11.9737ZM12.1579 12.8947C11.7347 12.8954 11.318 12.7915 10.9447 12.5923C11.0898 12.3204 11.2052 12.0304 11.2858 11.7261C11.537 11.8814 11.8251 11.9669 12.1203 11.9736C12.4155 11.9803 12.7072 11.908 12.9651 11.7642C13.2231 11.6204 13.4379 11.4103 13.5875 11.1557C13.737 10.9011 13.8158 10.6111 13.8158 10.3158V6.72368C13.8158 6.55269 13.7479 6.3887 13.627 6.26779C13.506 6.14687 13.342 6.07895 13.1711 6.07895H11.3297C11.2333 5.74882 11.0641 5.44453 10.8345 5.18847C10.9351 5.16858 11.0386 5.15789 11.1447 5.15789H13.1711C13.5863 5.15789 13.9846 5.32286 14.2782 5.6165C14.5719 5.91015 14.7368 6.30841 14.7368 6.72368V10.3158C14.7368 10.9998 14.4651 11.6557 13.9815 12.1394C13.4978 12.623 12.8419 12.8947 12.1579 12.8947Z" fill="white"/>
</svg>
