<svg width="14" height="14" viewBox="0 0 14 14" fill="none" xmlns="http://www.w3.org/2000/svg">
<path d="M5.8625 2.66875C5.8625 2.5481 5.83874 2.42863 5.79256 2.31716C5.74639 2.20569 5.67872 2.10441 5.5934 2.0191C5.50809 1.93378 5.40681 1.86611 5.29534 1.81994C5.18387 1.77376 5.0644 1.75 4.94375 1.75C4.8231 1.75 4.70363 1.77376 4.59216 1.81994C4.48069 1.86611 4.37941 1.93378 4.2941 2.0191C4.20878 2.10441 4.14111 2.20569 4.09494 2.31716C4.04876 2.42863 4.025 2.5481 4.025 2.66875V4.41875M5.8625 2.66875V1.79375C5.8625 1.55008 5.9593 1.31639 6.1316 1.1441C6.30389 0.971797 6.53758 0.875 6.78125 0.875C7.02492 0.875 7.25861 0.971797 7.4309 1.1441C7.6032 1.31639 7.7 1.55008 7.7 1.79375V2.66875M5.8625 2.66875L5.90625 6.125M4.025 4.41875C4.025 4.17508 3.9282 3.94139 3.7559 3.7691C3.58361 3.5968 3.34992 3.5 3.10625 3.5C2.86258 3.5 2.62889 3.5968 2.4566 3.7691C2.2843 3.94139 2.1875 4.17508 2.1875 4.41875V9.1875C2.1875 10.2318 2.60234 11.2333 3.34077 11.9717C4.07919 12.7102 5.08071 13.125 6.125 13.125H7.30217C8.11436 13.1249 8.89324 12.8022 9.4675 12.2278L10.4778 11.2175C11.0522 10.6432 11.3749 9.86435 11.375 9.05217L11.3768 7.8715C11.3773 7.76823 11.4189 7.66941 11.4923 7.59675C11.5776 7.51141 11.6453 7.4101 11.6915 7.2986C11.7376 7.18711 11.7614 7.0676 11.7614 6.94692C11.7614 6.82623 11.7376 6.70673 11.6915 6.59523C11.6453 6.48373 11.5776 6.38242 11.4923 6.29708C11.4069 6.21175 11.3056 6.14405 11.1941 6.09787C11.0826 6.05168 10.9631 6.02791 10.8424 6.02791C10.7217 6.02791 10.6022 6.05168 10.4907 6.09787C10.3792 6.14405 10.2779 6.21175 10.1926 6.29708C9.77635 6.71277 9.54148 7.27625 9.53925 7.8645M4.025 4.41875V7M7.7 2.66875V6.5625M7.7 2.66875C7.7 2.42508 7.7968 2.19139 7.9691 2.0191C8.14139 1.8468 8.37508 1.75 8.61875 1.75C8.86242 1.75 9.09611 1.8468 9.2684 2.0191C9.4407 2.19139 9.5375 2.42508 9.5375 2.66875V8.75M9.5375 8.75C9.19293 8.74983 8.85171 8.81766 8.5334 8.94959C8.21508 9.08152 7.92593 9.27496 7.6825 9.51883M9.5375 8.75H9.53867" stroke="white" stroke-width="0.875" stroke-linecap="round" stroke-linejoin="round"/>
</svg>
