<svg width="72" height="75" viewBox="0 0 72 75" fill="none" xmlns="http://www.w3.org/2000/svg">
<rect opacity="0.1" y="0.917969" width="71.379" height="73.869" rx="2.48997" fill="#9785C2"/>
<g clip-path="url(#clip0_979_4138)">
<path d="M66.5949 57.2865L55.2259 36.2618C56.3858 33.6293 57.0347 30.72 57.0347 27.6592C57.0347 15.8626 47.4713 6.30029 35.6758 6.30029C23.8773 6.30029 14.315 15.8636 14.315 27.6592C14.315 30.7938 14.9959 33.7682 16.2082 36.4493L4.78856 57.2768C4.42034 57.9461 4.48154 58.7718 4.94197 59.3828C5.40338 59.9919 6.18244 60.2784 6.92646 60.1036L16.6782 57.8665L20.0159 67.1627C20.2762 67.8854 20.9358 68.3866 21.7003 68.443C21.7499 68.4468 21.7974 68.4488 21.8441 68.4488C22.1954 68.4487 22.54 68.3533 22.8414 68.1728C23.1428 67.9924 23.3897 67.7336 23.5557 67.424L33.4939 48.9084C34.2185 48.9818 34.9464 49.0184 35.6747 49.0182C36.3498 49.0182 37.0161 48.9832 37.6747 48.921L47.8286 67.4386C48.0083 67.7668 48.279 68.0362 48.6082 68.2142C48.9373 68.3922 49.3109 68.4713 49.684 68.442C50.4465 68.3808 51.1032 67.8805 51.3615 67.1617L54.6992 57.8655L64.451 60.1026C65.1989 60.2832 65.9702 59.9928 66.4316 59.3857C66.895 58.7795 66.9571 57.9577 66.5948 57.2865H66.5949ZM22.1975 61.7413L19.7534 54.9318C19.4192 54.0061 18.4499 53.4669 17.4901 53.6952L10.2775 55.3495L18.4985 40.3551C21.2057 44.0124 25.0524 46.7712 29.514 48.1137L22.1975 61.7413ZM18.2177 27.6591C18.2177 18.0336 26.0501 10.2023 35.6764 10.2023C45.3019 10.2023 53.1333 18.0336 53.1333 27.6591C53.1333 37.2846 45.3019 45.1179 35.6764 45.1179C26.049 45.1179 18.2177 37.2846 18.2177 27.6591ZM53.8871 53.6952C52.9234 53.4679 51.9579 54.006 51.6237 54.9317L49.1631 61.7906L41.6864 48.1572C46.2665 46.8157 50.2065 43.9842 52.9487 40.2201L61.1356 55.3572L53.8871 53.6952Z" fill="#9785C2"/>
<circle cx="35.6894" cy="27.5588" r="19.6323" fill="#9785C2"/>
</g>
<g clip-path="url(#clip1_979_4138)">
<path d="M27.9409 17.4351L29.9331 19.4272L28.7662 20.5942L26.774 18.602L27.9409 17.4351ZM43.9626 18.602L41.9704 20.5942L40.8035 19.4272L42.7957 17.4351L43.9626 18.602ZM34.0124 19.6773C33.8874 19.6749 33.7654 19.7161 33.6673 19.7938C33.5693 19.8715 33.5014 19.9808 33.4752 20.1031L31.5936 28.912L30.5884 29.9163L32.8182 32.1454L34.0784 30.8852C34.3741 30.5898 34.5403 30.189 34.5406 29.7711V20.2145C34.5404 20.0736 34.485 19.9383 34.3863 19.8378C34.2875 19.7372 34.1533 19.6801 34.0124 19.6773ZM31.6513 33.3131L29.4215 31.0833L28.8908 31.6147L31.1199 33.8438L31.6513 33.3131ZM31.8609 19.7573C31.939 19.3925 32.109 19.0536 32.3548 18.7729C32.6006 18.4922 32.9141 18.279 33.2655 18.1535C33.6169 18.028 33.9945 17.9943 34.3625 18.0558C34.7306 18.1173 35.0768 18.2717 35.3683 18.5046C35.6598 18.2715 36.0061 18.1168 36.3743 18.0553C36.7424 17.9938 37.1202 18.0274 37.4717 18.153C37.8231 18.2787 38.1367 18.4921 38.3824 18.773C38.6281 19.054 38.7979 19.3931 38.8757 19.7582L40.6541 28.09L44.1788 31.6139L39.6151 36.1776L35.4896 32.0521C35.4484 32.0109 35.4071 31.9671 35.3675 31.9234C35.3279 31.9674 35.2872 32.0103 35.2453 32.0521L31.1199 36.1784L26.5562 31.6147L30.08 28.0909L31.8609 19.7573ZM37.2606 20.1023C37.2341 19.9711 37.1595 19.8545 37.0516 19.7753C36.9436 19.6961 36.8101 19.6599 36.6769 19.674C36.5437 19.688 36.4206 19.7512 36.3315 19.8511C36.2425 19.9511 36.1939 20.0807 36.1952 20.2145V29.7703C36.1952 30.1878 36.3611 30.5889 36.6574 30.8844L37.9176 32.1445L40.1458 29.9155L39.1422 28.9112L37.2606 20.1023ZM41.3135 31.0824L39.0845 33.3123L39.6151 33.8429L41.845 31.6139L41.3135 31.0824ZM29.9331 22.7283L27.9409 24.7205L26.774 23.5536L28.7662 21.5614L29.9331 22.7283ZM41.9704 21.5614L43.9626 23.5536L42.7957 24.7205L40.8035 22.7283L41.9704 21.5614Z" fill="white"/>
</g>
<defs>
<clipPath id="clip0_979_4138">
<rect width="62.1688" height="62.1688" fill="white" transform="translate(4.60498 6.29028)"/>
</clipPath>
<clipPath id="clip1_979_4138">
<rect width="19.8063" height="19.8063" fill="white" transform="translate(25.4653 16.9517)"/>
</clipPath>
</defs>
</svg>
