<svg width="26" height="18" viewBox="0 0 26 18" fill="none" xmlns="http://www.w3.org/2000/svg">
<path fill-rule="evenodd" clip-rule="evenodd" d="M8 9C8 6.23858 10.2386 4 13 4C15.7614 4 18 6.23858 18 9C18 11.7614 15.7614 14 13 14C10.2386 14 8 11.7614 8 9ZM13 6C11.3431 6 10 7.34315 10 9C10 10.6569 11.3431 12 13 12C14.6569 12 16 10.6569 16 9C16 7.34315 14.6569 6 13 6Z" fill="#6D6976"/>
<path fill-rule="evenodd" clip-rule="evenodd" d="M2.76457 7.19514C2.20574 8.00038 2 8.63027 2 9C2 9.36973 2.20574 9.99962 2.76457 10.8049C3.30476 11.5833 4.1077 12.427 5.12356 13.2067C7.15971 14.7694 9.95127 16 13 16C16.0487 16 18.8403 14.7694 20.8764 13.2067C21.8923 12.427 22.6952 11.5833 23.2354 10.8049C23.7943 9.99962 24 9.36973 24 9C24 8.63027 23.7943 8.00038 23.2354 7.19514C22.6952 6.41674 21.8923 5.57296 20.8764 4.79329C18.8403 3.23056 16.0487 2 13 2C9.95127 2 7.15971 3.23056 5.12356 4.79329C4.1077 5.57296 3.30476 6.41674 2.76457 7.19514ZM3.90587 3.20671C6.21287 1.43611 9.42131 0 13 0C16.5787 0 19.7871 1.43611 22.0941 3.20671C23.2498 4.09371 24.2043 5.08326 24.8785 6.05486C25.5342 6.99962 26 8.0364 26 9C26 9.9636 25.5342 11.0004 24.8785 11.9451C24.2043 12.9167 23.2498 13.9063 22.0941 14.7933C19.7871 16.5639 16.5787 18 13 18C9.42131 18 6.21287 16.5639 3.90587 14.7933C2.75016 13.9063 1.79574 12.9167 1.12147 11.9451C0.465828 11.0004 0 9.9636 0 9C0 8.0364 0.465828 6.99962 1.12147 6.05486C1.79574 5.08326 2.75016 4.09371 3.90587 3.20671Z" fill="#6D6976"/>
</svg>
