<svg width="18" height="19" viewBox="0 0 18 19" fill="none" xmlns="http://www.w3.org/2000/svg">
<path d="M9.5625 2.50684V3.63522H13.8167L10.4586 7.00347C9.56691 6.28401 8.45686 5.89184 7.3125 5.892C4.5225 5.892 2.25 8.17135 2.25 10.9698C2.25 13.7682 4.5225 16.0475 7.3125 16.0475C10.1025 16.0475 12.375 13.7682 12.375 10.9698C12.3744 9.8219 11.9835 8.70857 11.2669 7.81365L14.625 4.44541V8.71298H15.75V2.50684H9.5625ZM7.3125 7.02039C9.49387 7.02039 11.25 8.78181 11.25 10.9698C11.25 13.1577 9.49387 14.9191 7.3125 14.9191C5.13112 14.9191 3.375 13.1577 3.375 10.9698C3.375 8.78181 5.13112 7.02039 7.3125 7.02039Z" fill="#7367F0"/>
</svg>
