<svg width="34" height="34" viewBox="0 0 34 34" fill="none" xmlns="http://www.w3.org/2000/svg">
<g filter="url(#filter0_d_269_1874)">
<path d="M11.6146 6.79267C12.9281 5.45774 14.7433 4.63299 16.75 4.63299C20.7541 4.63299 24 7.92052 24 11.9759C24 16.0313 20.7541 19.3188 16.75 19.3188C12.7459 19.3188 9.5 16.0313 9.5 11.9759C9.5 11.5564 9.16421 11.2163 8.75 11.2163C8.33579 11.2163 8 11.5564 8 11.9759C8 16.8703 11.9175 20.838 16.75 20.838C21.5825 20.838 25.5 16.8703 25.5 11.9759C25.5 7.08148 21.5825 3.11377 16.75 3.11377C14.3285 3.11377 12.1356 4.11101 10.5521 5.72027C10.5267 5.74613 10.5035 5.77339 10.4824 5.80179L9.22488 4.52811C9.08769 4.38917 8.88353 4.34314 8.70111 4.41003C8.51869 4.47693 8.39094 4.64466 8.37338 4.84035L8.01982 8.77927C8.00639 8.92894 8.05929 9.07693 8.16422 9.1832C8.26914 9.28947 8.41526 9.34305 8.56304 9.32944L12.4521 8.97136C12.6453 8.95357 12.8109 8.82419 12.877 8.63943C12.943 8.45467 12.8976 8.24789 12.7604 8.10895L11.5323 6.8651C11.561 6.84331 11.5885 6.81917 11.6146 6.79267Z" fill="#FDCB6E"/>
<path d="M17.5 6.91182C17.5 6.4923 17.1642 6.15221 16.75 6.15221C16.3358 6.15221 16 6.4923 16 6.91182V11.9759C16 12.2378 16.1332 12.4812 16.3525 12.62L19.3525 14.5191C19.7038 14.7414 20.1665 14.6333 20.386 14.2775C20.6055 13.9218 20.4988 13.4531 20.1475 13.2308L17.5 11.5549V6.91182Z" fill="#FDCB6E"/>
</g>
<defs>
<filter id="filter0_d_269_1874" x="0" y="0.11377" width="33.5" height="33.7242" filterUnits="userSpaceOnUse" color-interpolation-filters="sRGB">
<feFlood flood-opacity="0" result="BackgroundImageFix"/>
<feColorMatrix in="SourceAlpha" type="matrix" values="0 0 0 0 0 0 0 0 0 0 0 0 0 0 0 0 0 0 127 0" result="hardAlpha"/>
<feOffset dy="5"/>
<feGaussianBlur stdDeviation="4"/>
<feComposite in2="hardAlpha" operator="out"/>
<feColorMatrix type="matrix" values="0 0 0 0 0 0 0 0 0 0 0 0 0 0 0 0 0 0 0.05 0"/>
<feBlend mode="normal" in2="BackgroundImageFix" result="effect1_dropShadow_269_1874"/>
<feBlend mode="normal" in="SourceGraphic" in2="effect1_dropShadow_269_1874" result="shape"/>
</filter>
</defs>
</svg>
