<svg width="34" height="34" viewBox="0 0 34 34" fill="none" xmlns="http://www.w3.org/2000/svg">
<g filter="url(#filter0_d_269_1873)">
<path d="M11.6146 6.6789C12.9281 5.34397 14.7433 4.51922 16.75 4.51922C20.7541 4.51922 24 7.80675 24 11.8621C24 15.9175 20.7541 19.205 16.75 19.205C12.7459 19.205 9.5 15.9175 9.5 11.8621C9.5 11.4426 9.16421 11.1025 8.75 11.1025C8.33579 11.1025 8 11.4426 8 11.8621C8 16.7565 11.9175 20.7243 16.75 20.7243C21.5825 20.7243 25.5 16.7565 25.5 11.8621C25.5 6.96771 21.5825 3 16.75 3C14.3285 3 12.1356 3.99724 10.5521 5.6065C10.5267 5.63236 10.5035 5.65962 10.4824 5.68802L9.22488 4.41434C9.08769 4.2754 8.88353 4.22937 8.70111 4.29626C8.51869 4.36316 8.39094 4.53089 8.37338 4.72658L8.01982 8.6655C8.00639 8.81517 8.05929 8.96316 8.16422 9.06943C8.26914 9.1757 8.41526 9.22928 8.56304 9.21568L12.4521 8.85759C12.6453 8.8398 12.8109 8.71042 12.877 8.52566C12.943 8.3409 12.8976 8.13412 12.7604 7.99518L11.5323 6.75133C11.561 6.72954 11.5885 6.7054 11.6146 6.6789Z" fill="#EE5A24"/>
<path d="M17.5 6.79805C17.5 6.37853 17.1642 6.03844 16.75 6.03844C16.3358 6.03844 16 6.37853 16 6.79805V11.8621C16 12.124 16.1332 12.3675 16.3525 12.5063L19.3525 14.4053C19.7038 14.6276 20.1665 14.5195 20.386 14.1637C20.6055 13.808 20.4988 13.3394 20.1475 13.117L17.5 11.4411V6.79805Z" fill="#EE5A24"/>
</g>
<defs>
<filter id="filter0_d_269_1873" x="0" y="0" width="33.5" height="33.7242" filterUnits="userSpaceOnUse" color-interpolation-filters="sRGB">
<feFlood flood-opacity="0" result="BackgroundImageFix"/>
<feColorMatrix in="SourceAlpha" type="matrix" values="0 0 0 0 0 0 0 0 0 0 0 0 0 0 0 0 0 0 127 0" result="hardAlpha"/>
<feOffset dy="5"/>
<feGaussianBlur stdDeviation="4"/>
<feComposite in2="hardAlpha" operator="out"/>
<feColorMatrix type="matrix" values="0 0 0 0 0 0 0 0 0 0 0 0 0 0 0 0 0 0 0.05 0"/>
<feBlend mode="normal" in2="BackgroundImageFix" result="effect1_dropShadow_269_1873"/>
<feBlend mode="normal" in="SourceGraphic" in2="effect1_dropShadow_269_1873" result="shape"/>
</filter>
</defs>
</svg>
