<svg width="36" height="36" viewBox="0 0 36 36" fill="none" xmlns="http://www.w3.org/2000/svg">
<g clip-path="url(#clip0_610_2386)">
<path d="M0 27C0 28.0609 0.421427 29.0783 1.17157 29.8284C1.92172 30.5786 2.93913 31 4 31H32C33.0609 31 34.0783 30.5786 34.8284 29.8284C35.5786 29.0783 36 28.0609 36 27V22H0V27Z" fill="#138808"/>
<path d="M36 14V9C36 7.93913 35.5786 6.92172 34.8284 6.17157C34.0783 5.42143 33.0609 5 32 5H4C2.93913 5 1.92172 5.42143 1.17157 6.17157C0.421427 6.92172 0 7.93913 0 9L0 14H36Z" fill="#FF9933"/>
<path d="M0 13.667H36V22.334H0V13.667Z" fill="#F7F7F7"/>
<path d="M18 22C20.2091 22 22 20.2091 22 18C22 15.7909 20.2091 14 18 14C15.7909 14 14 15.7909 14 18C14 20.2091 15.7909 22 18 22Z" fill="#000080"/>
<path d="M18 21.375C19.864 21.375 21.375 19.864 21.375 18C21.375 16.136 19.864 14.625 18 14.625C16.136 14.625 14.625 16.136 14.625 18C14.625 19.864 16.136 21.375 18 21.375Z" fill="#F7F7F7"/>
<path d="M18.1008 16.75L18.0008 17.4L17.9008 16.75L18.0008 14.8L18.1008 16.75ZM17.1728 14.909L17.5808 16.818L17.8458 17.42L17.7738 16.767L17.1728 14.909ZM16.4008 15.229L17.2888 16.967L17.7008 17.48L17.4628 16.867L16.4008 15.229ZM15.7378 15.737L17.0458 17.187L17.5768 17.576L17.1878 17.045L15.7378 15.737ZM15.2298 16.4L16.8678 17.462L17.4808 17.7L16.9678 17.288L15.2298 16.4ZM14.9098 17.172L16.7678 17.773L17.4208 17.845L16.8188 17.58L14.9098 17.172ZM14.8008 18L16.7508 18.1L17.4008 18L16.7508 17.9L14.8008 18ZM14.9098 18.828L16.8188 18.42L17.4208 18.155L16.7678 18.227L14.9098 18.828ZM15.2298 19.6L16.9678 18.712L17.4808 18.3L16.8678 18.538L15.2298 19.6ZM15.7378 20.263L17.1878 18.955L17.5768 18.424L17.0458 18.813L15.7378 20.263ZM16.4008 20.771L17.4628 19.133L17.7008 18.52L17.2888 19.033L16.4008 20.771ZM17.1728 21.091L17.7738 19.233L17.8458 18.58L17.5808 19.182L17.1728 21.091ZM18.0008 21.2L18.1008 19.25L18.0008 18.6L17.9008 19.25L18.0008 21.2ZM18.8288 21.091L18.4208 19.182L18.1558 18.58L18.2278 19.233L18.8288 21.091ZM19.6008 20.771L18.7128 19.033L18.3008 18.52L18.5388 19.133L19.6008 20.771ZM20.2638 20.263L18.9558 18.813L18.4248 18.424L18.8138 18.955L20.2638 20.263ZM20.7718 19.6L19.1338 18.538L18.5208 18.3L19.0338 18.712L20.7718 19.6ZM21.0918 18.828L19.2338 18.227L18.5808 18.155L19.1828 18.42L21.0918 18.828ZM21.2008 18L19.2508 17.9L18.6008 18L19.2508 18.1L21.2008 18ZM21.0918 17.172L19.1828 17.58L18.5808 17.845L19.2338 17.773L21.0918 17.172ZM20.7718 16.4L19.0338 17.288L18.5208 17.7L19.1338 17.462L20.7718 16.4ZM20.2638 15.737L18.8138 17.045L18.4248 17.576L18.9558 17.187L20.2638 15.737ZM19.6008 15.229L18.5388 16.867L18.3008 17.48L18.7128 16.967L19.6008 15.229ZM18.8288 14.909L18.2278 16.767L18.1558 17.42L18.4208 16.818L18.8288 14.909Z" fill="#6666B3"/>
<path d="M17.5594 14.859C17.6698 14.859 17.7594 14.7694 17.7594 14.659C17.7594 14.5485 17.6698 14.459 17.5594 14.459C17.4489 14.459 17.3594 14.5485 17.3594 14.659C17.3594 14.7694 17.4489 14.859 17.5594 14.859Z" fill="#000080"/>
<path d="M16.7098 15.087C16.8202 15.087 16.9098 14.9975 16.9098 14.887C16.9098 14.7766 16.8202 14.687 16.7098 14.687C16.5993 14.687 16.5098 14.7766 16.5098 14.887C16.5098 14.9975 16.5993 15.087 16.7098 15.087Z" fill="#000080"/>
<path d="M15.948 15.526C16.0585 15.526 16.148 15.4364 16.148 15.326C16.148 15.2155 16.0585 15.126 15.948 15.126C15.8376 15.126 15.748 15.2155 15.748 15.326C15.748 15.4364 15.8376 15.526 15.948 15.526Z" fill="#000080"/>
<path d="M15.327 16.148C15.4374 16.148 15.527 16.0584 15.527 15.948C15.527 15.8375 15.4374 15.748 15.327 15.748C15.2165 15.748 15.127 15.8375 15.127 15.948C15.127 16.0584 15.2165 16.148 15.327 16.148Z" fill="#000080"/>
<path d="M14.8875 16.91C14.998 16.91 15.0875 16.8205 15.0875 16.71C15.0875 16.5996 14.998 16.51 14.8875 16.51C14.777 16.51 14.6875 16.5996 14.6875 16.71C14.6875 16.8205 14.777 16.91 14.8875 16.91Z" fill="#000080"/>
<path d="M14.659 17.76C14.7694 17.76 14.859 17.6704 14.859 17.56C14.859 17.4495 14.7694 17.36 14.659 17.36C14.5485 17.36 14.459 17.4495 14.459 17.56C14.459 17.6704 14.5485 17.76 14.659 17.76Z" fill="#000080"/>
<path d="M14.659 18.64C14.7694 18.64 14.859 18.5504 14.859 18.44C14.859 18.3295 14.7694 18.24 14.659 18.24C14.5485 18.24 14.459 18.3295 14.459 18.44C14.459 18.5504 14.5485 18.64 14.659 18.64Z" fill="#000080"/>
<path d="M14.8875 19.49C14.998 19.49 15.0875 19.4004 15.0875 19.29C15.0875 19.1795 14.998 19.09 14.8875 19.09C14.777 19.09 14.6875 19.1795 14.6875 19.29C14.6875 19.4004 14.777 19.49 14.8875 19.49Z" fill="#000080"/>
<path d="M15.327 20.252C15.4374 20.252 15.527 20.1624 15.527 20.052C15.527 19.9415 15.4374 19.852 15.327 19.852C15.2165 19.852 15.127 19.9415 15.127 20.052C15.127 20.1624 15.2165 20.252 15.327 20.252Z" fill="#000080"/>
<path d="M15.948 20.874C16.0585 20.874 16.148 20.7845 16.148 20.674C16.148 20.5635 16.0585 20.474 15.948 20.474C15.8376 20.474 15.748 20.5635 15.748 20.674C15.748 20.7845 15.8376 20.874 15.948 20.874Z" fill="#000080"/>
<path d="M16.7098 21.313C16.8202 21.313 16.9098 21.2234 16.9098 21.113C16.9098 21.0025 16.8202 20.913 16.7098 20.913C16.5993 20.913 16.5098 21.0025 16.5098 21.113C16.5098 21.2234 16.5993 21.313 16.7098 21.313Z" fill="#000080"/>
<path d="M17.5594 21.541C17.6698 21.541 17.7594 21.4514 17.7594 21.341C17.7594 21.2305 17.6698 21.141 17.5594 21.141C17.4489 21.141 17.3594 21.2305 17.3594 21.341C17.3594 21.4514 17.4489 21.541 17.5594 21.541Z" fill="#000080"/>
<path d="M18.4402 21.541C18.5507 21.541 18.6402 21.4514 18.6402 21.341C18.6402 21.2305 18.5507 21.141 18.4402 21.141C18.3298 21.141 18.2402 21.2305 18.2402 21.341C18.2402 21.4514 18.3298 21.541 18.4402 21.541Z" fill="#000080"/>
<path d="M19.2898 21.313C19.4003 21.313 19.4898 21.2234 19.4898 21.113C19.4898 21.0025 19.4003 20.913 19.2898 20.913C19.1794 20.913 19.0898 21.0025 19.0898 21.113C19.0898 21.2234 19.1794 21.313 19.2898 21.313Z" fill="#000080"/>
<path d="M20.0516 20.874C20.162 20.874 20.2516 20.7845 20.2516 20.674C20.2516 20.5635 20.162 20.474 20.0516 20.474C19.9411 20.474 19.8516 20.5635 19.8516 20.674C19.8516 20.7845 19.9411 20.874 20.0516 20.874Z" fill="#000080"/>
<path d="M20.6746 20.252C20.7851 20.252 20.8746 20.1624 20.8746 20.052C20.8746 19.9415 20.7851 19.852 20.6746 19.852C20.5642 19.852 20.4746 19.9415 20.4746 20.052C20.4746 20.1624 20.5642 20.252 20.6746 20.252Z" fill="#000080"/>
<path d="M21.1121 19.49C21.2226 19.49 21.3121 19.4004 21.3121 19.29C21.3121 19.1795 21.2226 19.09 21.1121 19.09C21.0017 19.09 20.9121 19.1795 20.9121 19.29C20.9121 19.4004 21.0017 19.49 21.1121 19.49Z" fill="#000080"/>
<path d="M21.3406 18.64C21.4511 18.64 21.5406 18.5504 21.5406 18.44C21.5406 18.3295 21.4511 18.24 21.3406 18.24C21.2302 18.24 21.1406 18.3295 21.1406 18.44C21.1406 18.5504 21.2302 18.64 21.3406 18.64Z" fill="#000080"/>
<path d="M21.3406 17.76C21.4511 17.76 21.5406 17.6704 21.5406 17.56C21.5406 17.4495 21.4511 17.36 21.3406 17.36C21.2302 17.36 21.1406 17.4495 21.1406 17.56C21.1406 17.6704 21.2302 17.76 21.3406 17.76Z" fill="#000080"/>
<path d="M21.1121 16.91C21.2226 16.91 21.3121 16.8205 21.3121 16.71C21.3121 16.5996 21.2226 16.51 21.1121 16.51C21.0017 16.51 20.9121 16.5996 20.9121 16.71C20.9121 16.8205 21.0017 16.91 21.1121 16.91Z" fill="#000080"/>
<path d="M20.6746 16.148C20.7851 16.148 20.8746 16.0584 20.8746 15.948C20.8746 15.8375 20.7851 15.748 20.6746 15.748C20.5642 15.748 20.4746 15.8375 20.4746 15.948C20.4746 16.0584 20.5642 16.148 20.6746 16.148Z" fill="#000080"/>
<path d="M20.0516 15.526C20.162 15.526 20.2516 15.4364 20.2516 15.326C20.2516 15.2155 20.162 15.126 20.0516 15.126C19.9411 15.126 19.8516 15.2155 19.8516 15.326C19.8516 15.4364 19.9411 15.526 20.0516 15.526Z" fill="#000080"/>
<path d="M19.2898 15.087C19.4003 15.087 19.4898 14.9975 19.4898 14.887C19.4898 14.7766 19.4003 14.687 19.2898 14.687C19.1794 14.687 19.0898 14.7766 19.0898 14.887C19.0898 14.9975 19.1794 15.087 19.2898 15.087Z" fill="#000080"/>
<path d="M18.4402 14.859C18.5507 14.859 18.6402 14.7694 18.6402 14.659C18.6402 14.5485 18.5507 14.459 18.4402 14.459C18.3298 14.459 18.2402 14.5485 18.2402 14.659C18.2402 14.7694 18.3298 14.859 18.4402 14.859Z" fill="#000080"/>
<path d="M17.9996 18.9C18.4967 18.9 18.8996 18.497 18.8996 18C18.8996 17.5029 18.4967 17.1 17.9996 17.1C17.5026 17.1 17.0996 17.5029 17.0996 18C17.0996 18.497 17.5026 18.9 17.9996 18.9Z" fill="#000080"/>
</g>
<defs>
<clipPath id="clip0_610_2386">
<rect width="36" height="36" fill="white"/>
</clipPath>
</defs>
</svg>
