<svg width="72" height="75" viewBox="0 0 72 75" fill="none" xmlns="http://www.w3.org/2000/svg">
<rect opacity="0.1" y="0.835693" width="71.379" height="73.869" rx="2.48997" fill="#5747FC"/>
<g clip-path="url(#clip0_979_4166)">
<path d="M66.5949 57.2042L55.2259 36.1795C56.3858 33.547 57.0347 30.6377 57.0347 27.5769C57.0347 15.7804 47.4713 6.21802 35.6758 6.21802C23.8773 6.21802 14.315 15.7813 14.315 27.5769C14.315 30.7116 14.9959 33.686 16.2082 36.367L4.78856 57.1945C4.42034 57.8638 4.48154 58.6895 4.94197 59.3005C5.40338 59.9096 6.18244 60.1961 6.92646 60.0213L16.6782 57.7842L20.0159 67.0804C20.2762 67.8031 20.9358 68.3043 21.7003 68.3607C21.7499 68.3646 21.7974 68.3665 21.8441 68.3665C22.1954 68.3664 22.54 68.271 22.8414 68.0905C23.1428 67.9101 23.3897 67.6513 23.5557 67.3417L33.4939 48.8261C34.2185 48.8995 34.9464 48.9362 35.6747 48.9359C36.3498 48.9359 37.0161 48.9009 37.6747 48.8388L47.8286 67.3563C48.0083 67.6846 48.279 67.9539 48.6082 68.1319C48.9373 68.3099 49.3109 68.389 49.684 68.3597C50.4465 68.2985 51.1032 67.7982 51.3615 67.0794L54.6992 57.7832L64.451 60.0203C65.1989 60.201 65.9702 59.9105 66.4316 59.3034C66.895 58.6973 66.9571 57.8755 66.5948 57.2042H66.5949ZM22.1975 61.659L19.7534 54.8495C19.4192 53.9238 18.4499 53.3847 17.4901 53.6129L10.2775 55.2672L18.4985 40.2729C21.2057 43.9301 25.0524 46.6889 29.514 48.0314L22.1975 61.659ZM18.2177 27.5768C18.2177 17.9514 26.0501 10.12 35.6764 10.12C45.3019 10.12 53.1333 17.9514 53.1333 27.5768C53.1333 37.2023 45.3019 45.0356 35.6764 45.0356C26.049 45.0356 18.2177 37.2023 18.2177 27.5768ZM53.8871 53.6129C52.9234 53.3856 51.9579 53.9237 51.6237 54.8494L49.1631 61.7084L41.6864 48.0749C46.2665 46.7335 50.2065 43.9019 52.9487 40.1378L61.1356 55.2749L53.8871 53.6129Z" fill="#7367F0"/>
<circle cx="35.6894" cy="27.4765" r="19.6323" fill="#7367F0"/>
<g clip-path="url(#clip1_979_4166)">
<path d="M35.4195 26.7213L27.0483 35.0925M42.5875 20.2061L41.5123 23.3805C41.4752 23.4539 41.4559 23.5351 41.4559 23.6173C41.4559 23.6996 41.4752 23.7807 41.5123 23.8541L43.5219 26.5421C43.5797 26.6191 43.6146 26.7107 43.6227 26.8066C43.6307 26.9024 43.6116 26.9986 43.5675 27.0841C43.5234 27.1696 43.4562 27.241 43.3734 27.29C43.2906 27.339 43.1957 27.3638 43.0995 27.3613H39.7459C39.6637 27.3637 39.5831 27.3845 39.51 27.4222C39.437 27.4598 39.3732 27.5134 39.3235 27.5789L37.4547 30.2669C37.3999 30.3455 37.3242 30.4071 37.2361 30.4448C37.148 30.4824 37.0511 30.4946 36.9564 30.48C36.8618 30.4653 36.7731 30.4244 36.7005 30.3618C36.628 30.2993 36.5744 30.2176 36.5459 30.1261L35.5475 26.9261C35.5248 26.847 35.4823 26.775 35.4241 26.7168C35.3659 26.6586 35.2938 26.6161 35.2147 26.5933L32.0147 25.5949C31.9233 25.5665 31.8416 25.5129 31.7791 25.4403C31.7165 25.3678 31.6756 25.2791 31.6609 25.1844C31.6462 25.0898 31.6584 24.9929 31.6961 24.9048C31.7337 24.8167 31.7954 24.7409 31.8739 24.6861L34.6131 22.7533C34.6787 22.7036 34.7322 22.6399 34.7699 22.5668C34.8075 22.4937 34.8283 22.4131 34.8307 22.3309V18.9773C34.8343 18.8892 34.8606 18.8036 34.907 18.7286C34.9534 18.6537 35.0183 18.5919 35.0956 18.5495C35.1728 18.507 35.2597 18.4852 35.3479 18.4861C35.436 18.4871 35.5224 18.5108 35.5987 18.5549L38.2867 20.5645C38.355 20.6119 38.4335 20.6424 38.5158 20.6536C38.5982 20.6647 38.682 20.6561 38.7603 20.6285L41.9347 19.5533C42.0258 19.5213 42.124 19.5157 42.2181 19.5371C42.3122 19.5585 42.3983 19.6061 42.4665 19.6743C42.5348 19.7426 42.5823 19.8287 42.6037 19.9228C42.6252 20.0169 42.6195 20.1151 42.5875 20.2061Z" stroke="white" stroke-width="1.34737" stroke-linecap="round" stroke-linejoin="round"/>
</g>
</g>
<defs>
<clipPath id="clip0_979_4166">
<rect width="62.1688" height="62.1688" fill="white" transform="translate(4.60498 6.20825)"/>
</clipPath>
<clipPath id="clip1_979_4166">
<rect width="17.92" height="17.92" fill="white" transform="translate(26.4082 17.8127)"/>
</clipPath>
</defs>
</svg>
