<svg width="72" height="74" viewBox="0 0 72 74" fill="none" xmlns="http://www.w3.org/2000/svg">
<rect opacity="0.1" x="0.252441" width="71.379" height="73.869" rx="2.48997" fill="#7367F0"/>
<g clip-path="url(#clip0_979_4068)">
<path d="M66.8479 56.3688L55.4789 35.3441C56.6387 32.7116 57.2876 29.8023 57.2876 26.7414C57.2876 14.9449 47.7243 5.38257 35.9287 5.38257C24.1302 5.38257 14.5679 14.9459 14.5679 26.7414C14.5679 29.8761 15.2488 32.8505 16.4611 35.5315L5.04149 56.3591C4.67327 57.0283 4.73447 57.854 5.1949 58.465C5.65631 59.0742 6.43537 59.3607 7.17939 59.1859L16.9312 56.9488L20.2688 66.2449C20.5292 66.9676 21.1887 67.4689 21.9532 67.5252C22.0028 67.5291 22.0504 67.5311 22.097 67.5311C22.4483 67.5309 22.793 67.4356 23.0944 67.2551C23.3958 67.0746 23.6426 66.8158 23.8086 66.5062L33.7468 47.9907C34.4715 48.0641 35.1993 48.1007 35.9276 48.1004C36.6027 48.1004 37.269 48.0655 37.9276 48.0033L48.0816 66.5209C48.2613 66.8491 48.532 67.1184 48.8611 67.2964C49.1903 67.4745 49.5639 67.5536 49.9369 67.5243C50.6995 67.4631 51.3561 66.9628 51.6144 66.244L54.9521 56.9478L64.7039 59.1849C65.4519 59.3655 66.2231 59.0751 66.6845 58.4679C67.1479 57.8618 67.2101 57.04 66.8477 56.3688H66.8479ZM22.4505 60.8236L20.0063 54.0141C19.6722 53.0883 18.7028 52.5492 17.743 52.7775L10.5304 54.4318L18.7514 39.4374C21.4587 43.0947 25.3054 45.8534 29.767 47.196L22.4505 60.8236ZM18.4706 26.7414C18.4706 17.1159 26.303 9.28457 35.9294 9.28457C45.5549 9.28457 53.3862 17.1159 53.3862 26.7414C53.3862 36.3669 45.5549 44.2001 35.9294 44.2001C26.3019 44.2001 18.4706 36.3669 18.4706 26.7414ZM54.14 52.7774C53.1764 52.5501 52.2108 53.0883 51.8767 54.014L49.4161 60.8729L41.9393 47.2395C46.5194 45.898 50.4594 43.0665 53.2016 39.3023L61.3885 54.4395L54.14 52.7774Z" fill="#867BFA"/>
<circle cx="35.9418" cy="26.6408" r="19.6323" fill="#867BFA"/>
<g clip-path="url(#clip1_979_4068)">
<path d="M37.182 25.2543C37.4037 25.3418 37.6195 25.4381 37.8295 25.5431C38.0395 25.6481 38.2437 25.7676 38.442 25.9018C38.3137 26.0418 38.197 26.1876 38.092 26.3393C37.987 26.491 37.8908 26.6543 37.8033 26.8293C37.3541 26.5376 36.8758 26.316 36.3683 26.1643C35.8608 26.0126 35.3387 25.9368 34.802 25.9368C34.2887 25.9368 33.7929 26.0039 33.3145 26.1381C32.8362 26.2722 32.3899 26.4589 31.9758 26.6981C31.5616 26.9372 31.1854 27.2289 30.847 27.5731C30.5087 27.9172 30.217 28.2964 29.972 28.7106C29.727 29.1247 29.5374 29.571 29.4033 30.0493C29.2691 30.5276 29.202 31.0235 29.202 31.5368H28.082C28.082 30.8368 28.1841 30.1631 28.3883 29.5156C28.5924 28.8681 28.887 28.2701 29.272 27.7218C29.657 27.1735 30.112 26.6864 30.637 26.2606C31.162 25.8347 31.757 25.4993 32.422 25.2543C31.7629 24.8226 31.2495 24.2801 30.882 23.6268C30.5145 22.9735 30.3279 22.2501 30.322 21.4568C30.322 20.8385 30.4387 20.2581 30.672 19.7156C30.9054 19.1731 31.2233 18.6976 31.6258 18.2893C32.0283 17.881 32.5037 17.5601 33.052 17.3268C33.6004 17.0935 34.1837 16.9768 34.802 16.9768C35.4204 16.9768 36.0008 17.0935 36.5433 17.3268C37.0858 17.5601 37.5612 17.8781 37.9695 18.2806C38.3779 18.6831 38.6987 19.1585 38.932 19.7068C39.1654 20.2551 39.282 20.8385 39.282 21.4568C39.282 21.8418 39.2354 22.2181 39.142 22.5856C39.0487 22.9531 38.9087 23.3001 38.722 23.6268C38.5354 23.9535 38.3166 24.2539 38.0658 24.5281C37.8149 24.8022 37.5204 25.0443 37.182 25.2543ZM31.442 21.4568C31.442 21.9235 31.5295 22.3581 31.7045 22.7606C31.8795 23.1631 32.1187 23.5189 32.422 23.8281C32.7254 24.1372 33.0812 24.3793 33.4895 24.5543C33.8979 24.7293 34.3354 24.8168 34.802 24.8168C35.2629 24.8168 35.6974 24.7293 36.1058 24.5543C36.5141 24.3793 36.8699 24.1401 37.1733 23.8368C37.4766 23.5335 37.7187 23.1776 37.8995 22.7693C38.0804 22.361 38.1679 21.9235 38.162 21.4568C38.162 20.996 38.0745 20.5614 37.8995 20.1531C37.7245 19.7447 37.4854 19.3889 37.182 19.0856C36.8787 18.7822 36.5199 18.5401 36.1058 18.3593C35.6916 18.1785 35.257 18.091 34.802 18.0968C34.3354 18.0968 33.9008 18.1843 33.4983 18.3593C33.0958 18.5343 32.7399 18.7735 32.4308 19.0768C32.1216 19.3801 31.8795 19.7389 31.7045 20.1531C31.5295 20.5672 31.442 21.0018 31.442 21.4568ZM44.322 28.7368C44.322 29.0401 44.2754 29.3347 44.182 29.6206C44.0887 29.9064 43.9487 30.1718 43.762 30.4168V34.8968L41.522 33.7768L39.282 34.8968V30.4168C39.1012 30.1718 38.9641 29.9064 38.8708 29.6206C38.7774 29.3347 38.7279 29.0401 38.722 28.7368C38.722 28.3518 38.7949 27.9901 38.9408 27.6518C39.0866 27.3135 39.2849 27.0189 39.5358 26.7681C39.7866 26.5172 40.0841 26.316 40.4283 26.1643C40.7724 26.0126 41.137 25.9368 41.522 25.9368C41.907 25.9368 42.2687 26.0097 42.607 26.1556C42.9454 26.3014 43.2399 26.5026 43.4908 26.7593C43.7416 27.016 43.9429 27.3135 44.0945 27.6518C44.2462 27.9901 44.322 28.3518 44.322 28.7368ZM41.522 27.0568C41.2887 27.0568 41.0699 27.1006 40.8658 27.1881C40.6616 27.2756 40.4837 27.3951 40.332 27.5468C40.1804 27.6985 40.0608 27.8764 39.9733 28.0806C39.8858 28.2847 39.842 28.5035 39.842 28.7368C39.842 28.9701 39.8858 29.1889 39.9733 29.3931C40.0608 29.5972 40.1804 29.7751 40.332 29.9268C40.4837 30.0785 40.6616 30.1981 40.8658 30.2856C41.0699 30.3731 41.2887 30.4168 41.522 30.4168C41.7554 30.4168 41.9741 30.3731 42.1783 30.2856C42.3824 30.1981 42.5604 30.0785 42.712 29.9268C42.8637 29.7751 42.9833 29.5972 43.0708 29.3931C43.1583 29.1889 43.202 28.9701 43.202 28.7368C43.202 28.5035 43.1583 28.2847 43.0708 28.0806C42.9833 27.8764 42.8637 27.6985 42.712 27.5468C42.5604 27.3951 42.3824 27.2756 42.1783 27.1881C41.9741 27.1006 41.7554 27.0568 41.522 27.0568ZM42.642 33.0856V31.3006C42.292 31.4581 41.9187 31.5368 41.522 31.5368C41.1254 31.5368 40.752 31.4581 40.402 31.3006V33.0856C40.5887 32.9922 40.7754 32.9018 40.962 32.8143C41.1487 32.7268 41.3354 32.6306 41.522 32.5256C41.7087 32.6247 41.8954 32.7181 42.082 32.8056C42.2687 32.8931 42.4554 32.9864 42.642 33.0856Z" fill="white"/>
</g>
</g>
<defs>
<clipPath id="clip0_979_4068">
<rect width="62.1688" height="62.1688" fill="white" transform="translate(4.85742 5.37256)"/>
</clipPath>
<clipPath id="clip1_979_4068">
<rect width="17.92" height="17.92" fill="white" transform="translate(26.9619 16.9768)"/>
</clipPath>
</defs>
</svg>
