<svg width="15" height="15" viewBox="0 0 15 15" fill="none" xmlns="http://www.w3.org/2000/svg">
<path fill-rule="evenodd" clip-rule="evenodd" d="M11.5098 5.33709C11.5862 5.27347 11.6848 5.24278 11.7838 5.25179C11.8828 5.26079 11.9742 5.30874 12.0378 5.38509L13.6001 7.26009C13.6609 7.33678 13.6894 7.43423 13.6794 7.53161C13.6693 7.62899 13.6216 7.71859 13.5464 7.78126C13.4712 7.84393 13.3745 7.87471 13.2769 7.86702C13.1793 7.85933 13.0886 7.81377 13.0241 7.74009L11.4618 5.86509C11.3982 5.7887 11.3675 5.69017 11.3765 5.59116C11.3855 5.49215 11.4335 5.40076 11.5098 5.33709Z" fill="white"/>
<path fill-rule="evenodd" clip-rule="evenodd" d="M11.5098 9.66296C11.4335 9.59929 11.3855 9.5079 11.3765 9.40889C11.3675 9.30988 11.3982 9.21135 11.4618 9.13496L13.0241 7.25996C13.0552 7.22079 13.0938 7.18823 13.1376 7.16419C13.1815 7.14016 13.2297 7.12514 13.2794 7.12002C13.3292 7.11489 13.3794 7.11977 13.4273 7.13435C13.4751 7.14894 13.5195 7.17295 13.5579 7.20496C13.5963 7.23697 13.628 7.27634 13.6509 7.32075C13.6739 7.36517 13.6878 7.41373 13.6917 7.46358C13.6956 7.51342 13.6896 7.56355 13.6738 7.61102C13.6581 7.65848 13.633 7.70232 13.6001 7.73996L12.0378 9.61496C11.9742 9.69131 11.8828 9.73926 11.7838 9.74826C11.6848 9.75726 11.5862 9.72658 11.5098 9.66296Z" fill="white"/>
<path fill-rule="evenodd" clip-rule="evenodd" d="M13.125 7.5C13.125 7.59946 13.0855 7.69484 13.0152 7.76517C12.9448 7.83549 12.8495 7.875 12.75 7.875H7.125C7.02554 7.875 6.93016 7.83549 6.85983 7.76517C6.78951 7.69484 6.75 7.59946 6.75 7.5C6.75 7.40054 6.78951 7.30516 6.85983 7.23483C6.93016 7.16451 7.02554 7.125 7.125 7.125H12.75C12.8495 7.125 12.9448 7.16451 13.0152 7.23483C13.0855 7.30516 13.125 7.40054 13.125 7.5ZM2.625 2.25C2.625 2.15054 2.66451 2.05516 2.73484 1.98484C2.80516 1.91451 2.90054 1.875 3 1.875H9.75C9.84946 1.875 9.94484 1.91451 10.0152 1.98484C10.0855 2.05516 10.125 2.15054 10.125 2.25C10.125 2.34946 10.0855 2.44484 10.0152 2.51516C9.94484 2.58549 9.84946 2.625 9.75 2.625H3C2.90054 2.625 2.80516 2.58549 2.73484 2.51516C2.66451 2.44484 2.625 2.34946 2.625 2.25ZM2.625 12.75C2.625 12.6505 2.66451 12.5552 2.73484 12.4848C2.80516 12.4145 2.90054 12.375 3 12.375H9.75C9.84946 12.375 9.94484 12.4145 10.0152 12.4848C10.0855 12.5552 10.125 12.6505 10.125 12.75C10.125 12.8495 10.0855 12.9448 10.0152 13.0152C9.94484 13.0855 9.84946 13.125 9.75 13.125H3C2.90054 13.125 2.80516 13.0855 2.73484 13.0152C2.66451 12.9448 2.625 12.8495 2.625 12.75Z" fill="white"/>
<path fill-rule="evenodd" clip-rule="evenodd" d="M9.75 1.875C9.84946 1.875 9.94484 1.91451 10.0152 1.98484C10.0855 2.05516 10.125 2.15054 10.125 2.25V5.25C10.125 5.34946 10.0855 5.44484 10.0152 5.51516C9.94484 5.58549 9.84946 5.625 9.75 5.625C9.65054 5.625 9.55516 5.58549 9.48483 5.51516C9.41451 5.44484 9.375 5.34946 9.375 5.25V2.25C9.375 2.15054 9.41451 2.05516 9.48483 1.98484C9.55516 1.91451 9.65054 1.875 9.75 1.875ZM9.75 9.375C9.84946 9.375 9.94484 9.41451 10.0152 9.48483C10.0855 9.55516 10.125 9.65054 10.125 9.75V12.75C10.125 12.8495 10.0855 12.9448 10.0152 13.0152C9.94484 13.0855 9.84946 13.125 9.75 13.125C9.65054 13.125 9.55516 13.0855 9.48483 13.0152C9.41451 12.9448 9.375 12.8495 9.375 12.75V9.75C9.375 9.65054 9.41451 9.55516 9.48483 9.48483C9.55516 9.41451 9.65054 9.375 9.75 9.375ZM3 1.875C3.09946 1.875 3.19484 1.91451 3.26516 1.98484C3.33549 2.05516 3.375 2.15054 3.375 2.25V12.75C3.375 12.8495 3.33549 12.9448 3.26516 13.0152C3.19484 13.0855 3.09946 13.125 3 13.125C2.90054 13.125 2.80516 13.0855 2.73484 13.0152C2.66451 12.9448 2.625 12.8495 2.625 12.75V2.25C2.625 2.15054 2.66451 2.05516 2.73484 1.98484C2.80516 1.91451 2.90054 1.875 3 1.875Z" fill="white"/>
</svg>
