<svg width="72" height="75" viewBox="0 0 72 75" fill="none" xmlns="http://www.w3.org/2000/svg">
<rect opacity="0.1" x="0.252441" y="0.917969" width="71.379" height="73.869" rx="2.48997" fill="#EC8686"/>
<g clip-path="url(#clip0_979_4144)">
<path d="M66.8479 57.2865L55.4789 36.2618C56.6387 33.6293 57.2876 30.72 57.2876 27.6592C57.2876 15.8626 47.7243 6.30029 35.9287 6.30029C24.1302 6.30029 14.5679 15.8636 14.5679 27.6592C14.5679 30.7938 15.2488 33.7682 16.4611 36.4493L5.04149 57.2768C4.67327 57.9461 4.73447 58.7718 5.1949 59.3828C5.65631 59.9919 6.43537 60.2784 7.17939 60.1036L16.9312 57.8665L20.2688 67.1627C20.5292 67.8854 21.1887 68.3866 21.9532 68.443C22.0028 68.4468 22.0504 68.4488 22.097 68.4488C22.4483 68.4487 22.793 68.3533 23.0944 68.1728C23.3958 67.9924 23.6426 67.7336 23.8086 67.424L33.7468 48.9084C34.4715 48.9818 35.1993 49.0184 35.9276 49.0182C36.6027 49.0182 37.269 48.9832 37.9276 48.921L48.0816 67.4386C48.2613 67.7668 48.532 68.0362 48.8611 68.2142C49.1903 68.3922 49.5639 68.4713 49.9369 68.442C50.6995 68.3808 51.3561 67.8805 51.6144 67.1617L54.9521 57.8655L64.7039 60.1026C65.4519 60.2832 66.2231 59.9928 66.6845 59.3857C67.1479 58.7795 67.2101 57.9577 66.8477 57.2865H66.8479ZM22.4505 61.7413L20.0063 54.9318C19.6722 54.0061 18.7028 53.4669 17.743 53.6952L10.5304 55.3495L18.7514 40.3551C21.4587 44.0124 25.3054 46.7712 29.767 48.1137L22.4505 61.7413ZM18.4706 27.6591C18.4706 18.0336 26.303 10.2023 35.9294 10.2023C45.5549 10.2023 53.3862 18.0336 53.3862 27.6591C53.3862 37.2846 45.5549 45.1179 35.9294 45.1179C26.3019 45.1179 18.4706 37.2846 18.4706 27.6591ZM54.14 53.6952C53.1764 53.4679 52.2108 54.006 51.8767 54.9317L49.4161 61.7906L41.9393 48.1572C46.5194 46.8157 50.4594 43.9842 53.2016 40.2201L61.3885 55.3572L54.14 53.6952Z" fill="#EC8686"/>
<circle cx="35.9418" cy="27.5588" r="19.6323" fill="#EC8686"/>
</g>
<g clip-path="url(#clip1_979_4144)">
<path d="M43.31 34.2428C43.31 34.4721 43.2189 34.692 43.0567 34.8541C42.8946 35.0162 42.6747 35.1073 42.4454 35.1073H30.3415C30.1123 35.1073 29.8923 35.0162 29.7302 34.8541C29.5681 34.692 29.477 34.4721 29.477 34.2428V26.4617H26.8833L35.8116 18.3452C35.9708 18.2004 36.1783 18.1201 36.3935 18.1201C36.6087 18.1201 36.8162 18.2004 36.9753 18.3452L45.9037 26.4617H43.31V34.2428ZM41.5808 33.3782V24.8692L36.3935 20.153L31.2061 24.8692V33.3782H41.5808ZM36.3935 31.6491L33.4894 28.745C33.3088 28.5644 33.1655 28.3499 33.0677 28.1139C32.97 27.8779 32.9197 27.625 32.9197 27.3695C32.9197 27.114 32.97 26.8611 33.0677 26.6251C33.1655 26.3891 33.3088 26.1746 33.4894 25.994C33.67 25.8134 33.8845 25.6701 34.1205 25.5723C34.3565 25.4745 34.6095 25.4242 34.8649 25.4242C35.1204 25.4242 35.3733 25.4745 35.6094 25.5723C35.8454 25.6701 36.0598 25.8134 36.2404 25.994L36.3935 26.147L36.5465 25.994C36.7271 25.8134 36.9416 25.6701 37.1776 25.5723C37.4136 25.4745 37.6666 25.4242 37.922 25.4242C38.1775 25.4242 38.4304 25.4745 38.6664 25.5723C38.9025 25.6701 39.1169 25.8134 39.2975 25.994C39.4782 26.1746 39.6215 26.3891 39.7192 26.6251C39.817 26.8611 39.8673 27.114 39.8673 27.3695C39.8673 27.625 39.817 27.8779 39.7192 28.1139C39.6215 28.3499 39.4782 28.5644 39.2975 28.745L36.3935 31.6491Z" fill="white"/>
</g>
<defs>
<clipPath id="clip0_979_4144">
<rect width="62.1688" height="62.1688" fill="white" transform="translate(4.85742 6.29028)"/>
</clipPath>
<clipPath id="clip1_979_4144">
<rect width="20.7495" height="20.7495" fill="white" transform="translate(26.019 16.9517)"/>
</clipPath>
</defs>
</svg>
