<svg width="17" height="17" viewBox="0 0 17 17" fill="none" xmlns="http://www.w3.org/2000/svg">
<path fill-rule="evenodd" clip-rule="evenodd" d="M4.94364 7.0184C4.94364 5.22975 6.39363 3.77976 8.18228 3.77976C9.97093 3.77976 11.4209 5.22975 11.4209 7.0184C11.4209 8.80705 9.97093 10.257 8.18228 10.257C6.39363 10.257 4.94364 8.80705 4.94364 7.0184ZM8.18228 4.80249C6.95847 4.80249 5.96637 5.79459 5.96637 7.0184C5.96637 8.24221 6.95847 9.23431 8.18228 9.23431C9.40609 9.23431 10.3982 8.24221 10.3982 7.0184C10.3982 5.79459 9.40609 4.80249 8.18228 4.80249Z" fill="#67F06C"/>
<path fill-rule="evenodd" clip-rule="evenodd" d="M2.40344 6.23898C2.64502 3.30811 5.09422 1.05249 8.03503 1.05249H8.32953C11.2703 1.05249 13.7195 3.30811 13.9611 6.23898C14.0909 7.8134 13.6046 9.37673 12.6046 10.5997L9.33658 14.5964C8.73999 15.326 7.62457 15.326 7.02798 14.5964L3.75998 10.5997C2.75999 9.37674 2.27366 7.8134 2.40344 6.23898ZM8.03503 2.07522C5.62648 2.07522 3.62057 3.92259 3.42271 6.323C3.3147 7.63334 3.71945 8.93447 4.55172 9.95231L7.81972 13.949C8.0071 14.1781 8.35745 14.1781 8.54484 13.949L11.8128 9.95231C12.6451 8.93447 13.0499 7.63334 12.9419 6.323C12.744 3.92259 10.7381 2.07522 8.32953 2.07522H8.03503Z" fill="#67F06C"/>
</svg>
