<svg width="11" height="14" viewBox="0 0 11 14" fill="none" xmlns="http://www.w3.org/2000/svg">
<path d="M5.50006 3.00003C5.0056 3.00003 4.52224 3.14665 4.11112 3.42136C3.69999 3.69607 3.37955 4.08652 3.19033 4.54334C3.00111 5.00016 2.9516 5.50283 3.04807 5.98779C3.14453 6.47274 3.38264 6.9182 3.73227 7.26784C4.08191 7.61747 4.52737 7.85558 5.01232 7.95204C5.49728 8.04851 5.99995 7.999 6.45677 7.80978C6.91359 7.62056 7.30404 7.30012 7.57875 6.88899C7.85346 6.47787 8.00008 5.99451 8.00008 5.50006C8.00008 4.83701 7.73669 4.20112 7.26784 3.73227C6.79899 3.26342 6.1631 3.00003 5.50006 3.00003ZM5.50006 7.00007C5.20338 7.00007 4.91337 6.9121 4.66669 6.74727C4.42002 6.58245 4.22775 6.34818 4.11422 6.07409C4.00069 5.79999 3.97098 5.49839 4.02886 5.20742C4.08674 4.91644 4.2296 4.64917 4.43938 4.43938C4.64917 4.2296 4.91644 4.08674 5.20742 4.02886C5.49839 3.97098 5.79999 4.00069 6.07409 4.11422C6.34818 4.22775 6.58245 4.42002 6.74727 4.66669C6.9121 4.91337 7.00007 5.20338 7.00007 5.50006C7.00007 5.89788 6.84203 6.27942 6.56073 6.56073C6.27942 6.84203 5.89788 7.00007 5.50006 7.00007ZM5.50006 0C4.04186 0.00165422 2.64386 0.581654 1.61276 1.61276C0.581654 2.64386 0.00165422 4.04186 0 5.50006C0 7.46257 0.906884 9.5426 2.62503 11.5157C3.39705 12.4074 4.26595 13.2102 5.21568 13.9095C5.29975 13.9684 5.39991 14 5.50255 14C5.6052 14 5.70536 13.9684 5.78943 13.9095C6.73741 13.2099 7.60463 12.4071 8.37508 11.5157C10.0907 9.5426 11.0001 7.46257 11.0001 5.50006C10.9985 4.04186 10.4185 2.64386 9.38735 1.61276C8.35625 0.581654 6.95825 0.00165422 5.50006 0ZM5.50006 12.8751C4.46692 12.0626 1.00001 9.07822 1.00001 5.50006C1.00001 4.30657 1.47412 3.16196 2.31804 2.31804C3.16196 1.47412 4.30657 1.00001 5.50006 1.00001C6.69354 1.00001 7.83814 1.47412 8.68207 2.31804C9.52599 3.16196 10.0001 4.30657 10.0001 5.50006C10.0001 9.07697 6.53319 12.0626 5.50006 12.8751Z" fill="black"/>
</svg>
