<svg width="12" height="12" viewBox="0 0 12 12" fill="none" xmlns="http://www.w3.org/2000/svg">
<path d="M1.33333 12C0.966668 12 0.652668 11.8693 0.391334 11.608C0.130001 11.3467 -0.000443313 11.0329 1.13186e-06 10.6667V8H1.33333V10.6667H10.6667V1.33333H1.33333V4H1.13186e-06V1.33333C1.13186e-06 0.966668 0.130668 0.652668 0.392001 0.391334C0.653334 0.130001 0.967112 -0.000443313 1.33333 1.13186e-06H10.6667C11.0333 1.13186e-06 11.3473 0.130668 11.6087 0.392001C11.87 0.653334 12.0004 0.967112 12 1.33333V10.6667C12 11.0333 11.8693 11.3473 11.608 11.6087C11.3467 11.87 11.0329 12.0004 10.6667 12H1.33333ZM5 9.33333L4.06667 8.36667L5.76667 6.66667H1.13186e-06V5.33333H5.76667L4.06667 3.63333L5 2.66667L8.33333 6L5 9.33333Z" fill="#7367F0"/>
</svg>
