<svg width="8" height="11" viewBox="0 0 8 11" fill="none" xmlns="http://www.w3.org/2000/svg">
<path d="M0.750054 4.87511L0.750054 10.1255C0.750054 10.1945 0.806058 10.2505 0.875063 10.2505H7.12551C7.15867 10.2505 7.19046 10.2373 7.21391 10.2139C7.23735 10.1904 7.25052 10.1586 7.25052 10.1255L7.25052 4.87511C7.25052 4.84195 7.23735 4.81016 7.21391 4.78671C7.19046 4.76327 7.15867 4.7501 7.12551 4.7501H5.87542C5.77596 4.7501 5.68057 4.71059 5.61024 4.64026C5.53991 4.56992 5.5004 4.47453 5.5004 4.37507C5.5004 4.27561 5.53991 4.18022 5.61024 4.10989C5.68057 4.03956 5.77596 4.00004 5.87542 4.00004H7.12551C7.60855 4.00004 8.00058 4.39207 8.00058 4.87511V10.1255C8.00058 10.3576 7.90838 10.5801 7.74428 10.7442C7.58017 10.9084 7.35759 11.0005 7.12551 11.0005H0.875063C0.642982 11.0005 0.420406 10.9084 0.2563 10.7442C0.0921939 10.5801 0 10.3576 0 10.1255L0 4.87511C0 4.39207 0.392028 4.00004 0.875063 4.00004H2.12515C2.22462 4.00004 2.32001 4.03956 2.39034 4.10989C2.46067 4.18022 2.50018 4.27561 2.50018 4.37507C2.50018 4.47453 2.46067 4.56992 2.39034 4.64026C2.32001 4.71059 2.22462 4.7501 2.12515 4.7501H0.875063C0.841909 4.7501 0.810112 4.76327 0.786668 4.78671C0.763225 4.81016 0.750054 4.84195 0.750054 4.87511ZM4.26531 0.6098L5.89042 2.23492C5.93979 2.28076 5.97588 2.33906 5.99489 2.40369C6.0139 2.46832 6.01512 2.53688 5.99843 2.60215C5.98174 2.66741 5.94776 2.72697 5.90007 2.77454C5.85237 2.82212 5.79272 2.85594 5.72741 2.87246C5.66222 2.88917 5.59373 2.88801 5.52914 2.86909C5.46456 2.85017 5.40626 2.8142 5.36039 2.76496L4.37532 1.77988V7.12527C4.37532 7.22473 4.3358 7.32012 4.26547 7.39045C4.19514 7.46078 4.09975 7.5003 4.00029 7.5003C3.90083 7.5003 3.80544 7.46078 3.7351 7.39045C3.66477 7.32012 3.62526 7.22473 3.62526 7.12527L3.62526 1.77988L2.64019 2.76496C2.56905 2.83116 2.47502 2.86722 2.37786 2.86554C2.28069 2.86386 2.18796 2.82458 2.11915 2.75595C2.05053 2.68715 2.01125 2.59442 2.00957 2.49725C2.00789 2.40009 2.04394 2.30605 2.11015 2.23492L3.73527 0.6098C3.80559 0.53957 3.90091 0.500122 4.00029 0.500122C4.09967 0.500122 4.19499 0.53957 4.26531 0.6098Z" fill="#6D6976"/>
</svg>
