<svg width="12" height="12" viewBox="0 0 12 12" fill="none" xmlns="http://www.w3.org/2000/svg">
<path d="M3.31787 4.26562L5.68766 5.92448L8.05745 4.26562" stroke="#9F9EA2" stroke-width="0.710937" stroke-linecap="round" stroke-linejoin="round"/>
<path d="M0.947754 8.05731V3.31773C0.947754 3.06633 1.04762 2.82522 1.22539 2.64745C1.40316 2.46968 1.64427 2.36981 1.89567 2.36981H9.479C9.73041 2.36981 9.97151 2.46968 10.1493 2.64745C10.3271 2.82522 10.4269 3.06633 10.4269 3.31773V8.05731C10.4269 8.30871 10.3271 8.54982 10.1493 8.72759C9.97151 8.90536 9.73041 9.00523 9.479 9.00523H1.89567C1.64427 9.00523 1.40316 8.90536 1.22539 8.72759C1.04762 8.54982 0.947754 8.30871 0.947754 8.05731Z" stroke="#9F9EA2" stroke-width="0.710937"/>
</svg>
