<svg width="17" height="17" viewBox="0 0 17 17" fill="none" xmlns="http://www.w3.org/2000/svg">
<path d="M2.125 4.25H14.875V12.75H2.125V4.25ZM8.5 6.375C9.06358 6.375 9.60409 6.59888 10.0026 6.9974C10.4011 7.39591 10.625 7.93641 10.625 8.5C10.625 9.06358 10.4011 9.60409 10.0026 10.0026C9.60409 10.4011 9.06358 10.625 8.5 10.625C7.93641 10.625 7.39591 10.4011 6.9974 10.0026C6.59888 9.60409 6.375 9.06358 6.375 8.5C6.375 7.93641 6.59888 7.39591 6.9974 6.9974C7.39591 6.59888 7.93641 6.375 8.5 6.375ZM4.95833 5.66667C4.95833 6.04239 4.80908 6.40272 4.5434 6.6684C4.27772 6.93408 3.91739 7.08333 3.54167 7.08333V9.91667C3.91739 9.91667 4.27772 10.0659 4.5434 10.3316C4.80908 10.5973 4.95833 10.9576 4.95833 11.3333H12.0417C12.0417 10.9576 12.1909 10.5973 12.4566 10.3316C12.7223 10.0659 13.0826 9.91667 13.4583 9.91667V7.08333C13.0826 7.08333 12.7223 6.93408 12.4566 6.6684C12.1909 6.40272 12.0417 6.04239 12.0417 5.66667H4.95833Z" fill="white"/>
</svg>
