<svg width="10" height="12" viewBox="0 0 10 12" fill="none" xmlns="http://www.w3.org/2000/svg">
<path fill-rule="evenodd" clip-rule="evenodd" d="M4.88375 0C4.18062 0 3.50629 0.279318 3.0091 0.776508C2.51191 1.2737 2.23259 1.94803 2.23259 2.65116C2.23259 3.3543 2.51191 4.02863 3.0091 4.52582C3.50629 5.02301 4.18062 5.30233 4.88375 5.30233C5.58688 5.30233 6.26122 5.02301 6.75841 4.52582C7.2556 4.02863 7.53492 3.3543 7.53492 2.65116C7.53492 1.94803 7.2556 1.2737 6.75841 0.776508C6.26122 0.279318 5.58688 0 4.88375 0ZM3.0698 2.65116C3.0698 2.17007 3.26091 1.70869 3.60109 1.3685C3.94128 1.02832 4.40266 0.837209 4.88375 0.837209C5.36484 0.837209 5.82623 1.02832 6.16641 1.3685C6.50659 1.70869 6.69771 2.17007 6.69771 2.65116C6.69771 3.13225 6.50659 3.59364 6.16641 3.93382C5.82623 4.274 5.36484 4.46512 4.88375 4.46512C4.40266 4.46512 3.94128 4.274 3.60109 3.93382C3.26091 3.59364 3.0698 3.13225 3.0698 2.65116ZM4.88375 6.13953C3.59278 6.13953 2.40282 6.43312 1.52152 6.92874C0.653054 7.41767 3.12011e-05 8.15777 3.12011e-05 9.06977V9.1267C-0.000526939 9.77526 -0.00108513 10.589 0.712775 11.1706C1.06385 11.4564 1.55557 11.6601 2.21975 11.794C2.88505 11.9291 3.75296 12 4.88375 12C6.01454 12 6.88189 11.9291 7.54831 11.794C8.2125 11.6601 8.70366 11.4564 9.05529 11.1706C9.76915 10.589 9.76803 9.77526 9.76747 9.1267V9.06977C9.76747 8.15777 9.11445 7.41767 8.24654 6.92874C7.36468 6.43312 6.17529 6.13953 4.88375 6.13953ZM0.837241 9.06977C0.837241 8.59479 1.1844 8.07907 1.93175 7.65879C2.66626 7.24577 3.70887 6.97674 4.88431 6.97674C6.05864 6.97674 7.10124 7.24577 7.83575 7.65879C8.58366 8.07907 8.93026 8.59479 8.93026 9.06977C8.93026 9.79981 8.90794 10.2106 8.52617 10.5209C8.31966 10.6895 7.97361 10.8541 7.38199 10.9736C6.79203 11.093 5.98552 11.1628 4.88375 11.1628C3.78199 11.1628 2.97492 11.093 2.38552 10.9736C1.79389 10.8541 1.44785 10.6895 1.24133 10.5215C0.859566 10.2106 0.837241 9.79981 0.837241 9.06977Z" fill="white"/>
</svg>
