<svg width="20" height="20" viewBox="0 0 20 20" fill="none" xmlns="http://www.w3.org/2000/svg">
<circle cx="9.74116" cy="9.74116" r="9.74116" fill="#BBF7B6"/>
<path d="M17.1904 12.2823L15.4625 10.1647L17.1565 8.08949C17.2492 7.97596 17.3076 7.83838 17.3248 7.69286C17.3421 7.54734 17.3175 7.39991 17.254 7.26787C17.1896 7.11987 17.0828 6.99423 16.9472 6.90681C16.8115 6.81938 16.653 6.77407 16.4916 6.77659H3.36264C3.2564 6.77491 3.15088 6.79417 3.0521 6.83328C2.95331 6.87238 2.86319 6.93057 2.7869 7.0045C2.7106 7.07844 2.64962 7.16668 2.60743 7.26419C2.56524 7.3617 2.54267 7.46657 2.54102 7.5728V12.7609C2.54547 12.9747 2.6344 13.178 2.78837 13.3264C2.94234 13.4748 3.14881 13.5562 3.36264 13.5528H16.5382C16.6942 13.5554 16.8477 13.5134 16.9805 13.4316C17.1133 13.3498 17.22 13.2317 17.2878 13.0912C17.3488 12.9607 17.372 12.8158 17.3547 12.6728C17.3375 12.5299 17.2806 12.3946 17.1904 12.2823ZM3.38805 12.7058V7.62362H16.4239L14.374 10.1351L16.4535 12.7058H3.38805Z" fill="#7FBF7A"/>
<path d="M6.51793 10.7365L5.13726 8.89423H4.65869V11.5116H5.13726V9.6735L6.51793 11.5116H6.99226V8.89423H6.51793V10.7365Z" fill="#7FBF7A"/>
<path d="M7.69922 11.5116H9.6728V11.0796H8.17779V10.3977H9.52881V9.96149H8.17779V9.33045H9.6728V8.89423H7.69922V11.5116Z" fill="#7FBF7A"/>
<path d="M12.9254 10.7704L12.3071 8.89423H11.7904L11.1679 10.7704L10.6088 8.89423H10.0879L10.918 11.5116H11.3881L12.0488 9.56762L12.7052 11.5116H13.1838L14.0096 8.89423H13.4887L12.9254 10.7704Z" fill="#7FBF7A"/>
</svg>
