<svg width="11" height="10" viewBox="0 0 11 10" fill="none" xmlns="http://www.w3.org/2000/svg">
<path d="M5.49805 3.49951H6.49805V2.49951H5.49805M5.99805 8.99951C3.79305 8.99951 1.99805 7.20451 1.99805 4.99951C1.99805 2.79451 3.79305 0.999512 5.99805 0.999512C8.20305 0.999512 9.99805 2.79451 9.99805 4.99951C9.99805 7.20451 8.20305 8.99951 5.99805 8.99951ZM5.99805 -0.000488281C5.34144 -0.000488281 4.69126 0.128841 4.08463 0.380114C3.478 0.631388 2.92681 0.999685 2.46251 1.46398C1.52483 2.40166 0.998047 3.67343 0.998047 4.99951C0.998047 6.32559 1.52483 7.59736 2.46251 8.53505C2.92681 8.99934 3.478 9.36764 4.08463 9.61891C4.69126 9.87018 5.34144 9.99951 5.99805 9.99951C7.32413 9.99951 8.5959 9.47273 9.53358 8.53505C10.4713 7.59736 10.998 6.32559 10.998 4.99951C10.998 4.3429 10.8687 3.69272 10.6174 3.08609C10.3662 2.47947 9.99788 1.92827 9.53358 1.46398C9.06929 0.999685 8.51809 0.631388 7.91147 0.380114C7.30484 0.128841 6.65466 -0.000488281 5.99805 -0.000488281ZM5.49805 7.49951H6.49805V4.49951H5.49805V7.49951Z" fill="#C9C9C9"/>
</svg>
