<svg width="20" height="21" viewBox="0 0 20 21" fill="none" xmlns="http://www.w3.org/2000/svg">
<path d="M9 7.0897H11V5.06407H9M10 18.2307C5.59 18.2307 2 14.5947 2 10.1281C2 5.66163 5.59 2.02563 10 2.02563C14.41 2.02563 18 5.66163 18 10.1281C18 14.5947 14.41 18.2307 10 18.2307ZM10 0C8.68678 0 7.38642 0.261972 6.17317 0.770959C4.95991 1.27995 3.85752 2.02598 2.92893 2.96646C1.05357 4.86586 0 7.44199 0 10.1281C0 12.8143 1.05357 15.3904 2.92893 17.2898C3.85752 18.2303 4.95991 18.9763 6.17317 19.4853C7.38642 19.9943 8.68678 20.2563 10 20.2563C12.6522 20.2563 15.1957 19.1892 17.0711 17.2898C18.9464 15.3904 20 12.8143 20 10.1281C20 8.7981 19.7413 7.48107 19.2388 6.25227C18.7362 5.02347 17.9997 3.90695 17.0711 2.96646C16.1425 2.02598 15.0401 1.27995 13.8268 0.770959C12.6136 0.261972 11.3132 0 10 0ZM9 15.1922H11V9.11533H9V15.1922Z" fill="#A3A0A0"/>
</svg>
