<svg width="18" height="18" viewBox="0 0 18 18" fill="none" xmlns="http://www.w3.org/2000/svg">
<g clip-path="url(#clip0_1649_6620)">
<path d="M18 4.5V18H0V4.5H4.54395C4.53223 4.40625 4.52344 4.3125 4.51758 4.21875C4.51172 4.125 4.50586 4.03125 4.5 3.9375C4.5 3.39258 4.60254 2.88281 4.80762 2.4082C5.0127 1.93359 5.29395 1.51465 5.65137 1.15137C6.00879 0.788086 6.4248 0.506836 6.89941 0.307617C7.37402 0.108398 7.88672 0.00585938 8.4375 0C8.98242 0 9.49219 0.102539 9.9668 0.307617C10.4414 0.512695 10.8604 0.793945 11.2236 1.15137C11.5869 1.50879 11.8682 1.9248 12.0674 2.39941C12.2666 2.87402 12.3691 3.38672 12.375 3.9375C12.375 4.03125 12.3721 4.125 12.3662 4.21875C12.3604 4.3125 12.3486 4.40625 12.3311 4.5H18ZM8.4375 1.125C8.05078 1.125 7.6875 1.19824 7.34766 1.34473C7.00781 1.49121 6.70898 1.69336 6.45117 1.95117C6.19336 2.20898 5.99121 2.50781 5.84473 2.84766C5.69824 3.1875 5.625 3.55078 5.625 3.9375C5.625 4.32422 5.69824 4.6875 5.84473 5.02734C5.99121 5.36719 6.19043 5.66602 6.44238 5.92383C6.69434 6.18164 6.99316 6.38379 7.33887 6.53027C7.68457 6.67676 8.05078 6.75 8.4375 6.75C8.82422 6.75 9.1875 6.67676 9.52734 6.53027C9.86719 6.38379 10.1631 6.18457 10.415 5.93262C10.667 5.68066 10.8691 5.38184 11.0215 5.03613C11.1738 4.69043 11.25 4.32422 11.25 3.9375C11.25 3.55078 11.1768 3.1875 11.0303 2.84766C10.8838 2.50781 10.6816 2.21191 10.4238 1.95996C10.166 1.70801 9.86719 1.50586 9.52734 1.35352C9.1875 1.20117 8.82422 1.125 8.4375 1.125ZM16.875 5.625H11.9971C11.8506 5.92969 11.6689 6.21387 11.4521 6.47754C11.2354 6.74121 10.9863 6.9668 10.7051 7.1543C11.3086 7.38867 11.8535 7.69922 12.3398 8.08594C12.8262 8.47266 13.2363 8.91797 13.5703 9.42188C13.9043 9.92578 14.165 10.4766 14.3525 11.0742C14.54 11.6719 14.6309 12.293 14.625 12.9375V13.5H13.5V12.9375C13.5 12.2168 13.3711 11.5488 13.1133 10.9336C12.8555 10.3184 12.501 9.78223 12.0498 9.3252C11.5986 8.86816 11.0654 8.51367 10.4502 8.26172C9.83496 8.00977 9.16406 7.88086 8.4375 7.875C7.78711 7.875 7.17188 7.98633 6.5918 8.20898C6.01172 8.43164 5.49609 8.74512 5.04492 9.14941C4.59375 9.55371 4.22461 10.0283 3.9375 10.5732C3.65039 11.1182 3.47168 11.7188 3.40137 12.375H9.09668L7.0752 10.3535L7.875 9.5625L11.25 12.9375L7.875 16.3125L7.0752 15.5215L9.09668 13.5H2.25V12.9375C2.25 12.293 2.34082 11.6748 2.52246 11.083C2.7041 10.4912 2.96777 9.94336 3.31348 9.43945C3.65918 8.93555 4.07227 8.49023 4.55273 8.10352C5.0332 7.7168 5.5752 7.40332 6.17871 7.16309C5.60449 6.75879 5.1709 6.24609 4.87793 5.625H1.125V16.875H16.875V5.625Z" fill="#7367F0"/>
</g>
<defs>
<clipPath id="clip0_1649_6620">
<rect width="18" height="18" fill="white"/>
</clipPath>
</defs>
</svg>
