<svg width="156" height="156" viewBox="0 0 156 156" fill="none" xmlns="http://www.w3.org/2000/svg">
<path d="M77.775 155.55C120.729 155.55 155.55 120.729 155.55 77.775C155.55 34.8211 120.729 0 77.775 0C34.821 0 0 34.8211 0 77.775C0 120.729 34.821 155.55 77.775 155.55Z" fill="url(#paint0_linear_2594_15956)"/>
<path d="M77.7749 147.183C116.108 147.183 147.183 116.108 147.183 77.7752C147.183 39.4422 116.108 8.36719 77.7749 8.36719C39.442 8.36719 8.36694 39.4422 8.36694 77.7752C8.36694 116.108 39.442 147.183 77.7749 147.183Z" fill="url(#paint1_linear_2594_15956)"/>
<path d="M94.4299 51.714C93.9889 42.842 86.7059 35.74 77.7609 35.59C68.2649 35.431 60.4939 43.518 60.4939 53.016V67.416H50.4939V53.14C50.4939 38.46 61.9819 26.035 76.6559 25.6C91.5759 25.157 103.911 36.898 104.434 51.595C104.453 52.127 104.013 52.566 103.481 52.566H95.3019C94.8269 52.566 94.4529 52.188 94.4299 51.714Z" fill="url(#paint2_linear_2594_15956)"/>
<path d="M77.7429 30.498C65.6699 30.498 55.8469 40.4601 55.8469 52.7061V64.9301H60.4939V53.0161C60.4939 43.5191 68.2649 35.4311 77.7609 35.5901C86.6839 35.7401 93.9519 42.806 94.4259 51.647C94.4529 52.158 94.8569 52.566 95.3689 52.566L99.6199 52.5681C99.6199 40.3231 89.8159 30.498 77.7429 30.498Z" fill="url(#paint3_linear_2594_15956)"/>
<path d="M107.359 60.7251H48.1919C45.6049 60.7251 43.5079 62.8221 43.5079 65.4091V117.279C43.5079 119.866 45.6049 121.963 48.1919 121.963H107.359C109.946 121.963 112.044 119.866 112.044 117.279V65.4091C112.043 62.8221 109.946 60.7251 107.359 60.7251ZM81.4079 92.1011V100.25C81.4079 102.256 79.7819 103.882 77.7759 103.882C75.7699 103.882 74.144 102.256 74.144 100.25V92.1011C72.043 90.8561 70.6289 88.5731 70.6289 85.9541C70.6289 82.0071 73.8289 78.8071 77.7759 78.8071C81.7229 78.8071 84.9229 82.0071 84.9229 85.9541C84.9219 88.5731 83.5089 90.8561 81.4079 92.1011Z" fill="url(#paint4_linear_2594_15956)"/>
<path d="M112.043 117.279V65.4091C112.043 62.8221 109.946 60.7241 107.358 60.7241H106.848C108.214 72.4271 110.009 110.155 78.601 121.963H107.358C109.946 121.964 112.043 119.866 112.043 117.279Z" fill="url(#paint5_linear_2594_15956)"/>
<path d="M43.507 65.4091V117.279C43.507 119.866 45.604 121.964 48.192 121.964H48.601C44.337 73.8931 68.233 60.7251 68.233 60.7251H48.192C45.605 60.7251 43.507 62.8221 43.507 65.4091Z" fill="url(#paint6_linear_2594_15956)"/>
<defs>
<linearGradient id="paint0_linear_2594_15956" x1="77.7754" y1="0.0003" x2="77.7754" y2="309.667" gradientUnits="userSpaceOnUse">
<stop stop-color="#5FB1D4"/>
<stop offset="0.1315" stop-color="#699FD8"/>
<stop offset="0.3938" stop-color="#8272E3"/>
<stop offset="0.7591" stop-color="#AA29F5"/>
<stop offset="0.9507" stop-color="#C000FF"/>
</linearGradient>
<linearGradient id="paint1_linear_2594_15956" x1="77.7754" y1="8.36759" x2="77.7754" y2="284.72" gradientUnits="userSpaceOnUse">
<stop stop-color="white"/>
<stop offset="0.8703" stop-color="#A7F5FF"/>
</linearGradient>
<linearGradient id="paint2_linear_2594_15956" x1="57.0113" y1="70.5907" x2="92.6167" y2="30.0491" gradientUnits="userSpaceOnUse">
<stop stop-color="#4D00CB"/>
<stop offset="0.8972" stop-color="#9100FF"/>
</linearGradient>
<linearGradient id="paint3_linear_2594_15956" x1="75.6152" y1="47.714" x2="161.536" y2="47.714" gradientUnits="userSpaceOnUse">
<stop stop-color="#4D00CB"/>
<stop offset="0.8972" stop-color="#9100FF"/>
</linearGradient>
<linearGradient id="paint4_linear_2594_15956" x1="24.2993" y1="113.154" x2="115.798" y2="75.8373" gradientUnits="userSpaceOnUse">
<stop stop-color="#4D00CB"/>
<stop offset="0.8972" stop-color="#9100FF"/>
</linearGradient>
<linearGradient id="paint5_linear_2594_15956" x1="71.2233" y1="91.3444" x2="119.439" y2="91.3444" gradientUnits="userSpaceOnUse">
<stop stop-color="#4D00CB"/>
<stop offset="0.8972" stop-color="#9100FF"/>
</linearGradient>
<linearGradient id="paint6_linear_2594_15956" x1="24.688" y1="96.4681" x2="93.4859" y2="81.438" gradientUnits="userSpaceOnUse">
<stop stop-color="#4D00CB"/>
<stop offset="0.6786" stop-color="#9100FF"/>
</linearGradient>
</defs>
</svg>
