<svg width="156" height="156" viewBox="0 0 156 156" fill="none" xmlns="http://www.w3.org/2000/svg">
<path d="M77.775 155.55C120.729 155.55 155.55 120.729 155.55 77.775C155.55 34.8211 120.729 0 77.775 0C34.821 0 0 34.8211 0 77.775C0 120.729 34.821 155.55 77.775 155.55Z" fill="url(#paint0_linear_2608_8281)"/>
<path d="M77.7749 147.183C116.108 147.183 147.183 116.108 147.183 77.7752C147.183 39.4422 116.108 8.36719 77.7749 8.36719C39.442 8.36719 8.36694 39.4422 8.36694 77.7752C8.36694 116.108 39.442 147.183 77.7749 147.183Z" fill="url(#paint1_linear_2608_8281)"/>
<path d="M120.964 72.0204L120.618 72.0537L121.069 76.7477L121.415 76.7144L120.964 72.0204Z" fill="#9100FF"/>
<path d="M121.576 78.3461L121.23 78.3794L121.412 80.2739L121.759 80.2406L121.576 78.3461Z" fill="#9100FF"/>
<path d="M37.8975 118.999L123.465 110.772L118.568 59.8319L32.9999 68.0586L37.8975 118.999Z" fill="#9100FF"/>
<path opacity="0.1" d="M37.8975 118.999L123.465 110.772L118.568 59.8319L32.9999 68.0586L37.8975 118.999Z" fill="black"/>
<path opacity="0.1" d="M78.4564 91.7265L33.0013 68.0537L118.57 59.8291L78.4564 91.7265Z" fill="#263238"/>
<path d="M68.1024 40.1431L33.0018 68.0539L118.571 59.8296L78.7964 39.1152C75.3413 37.316 71.1513 37.7188 68.1024 40.1431Z" fill="#9100FF"/>
<path opacity="0.2" d="M115.391 60.1349L77.6 40.4535C74.9929 39.0956 71.8311 39.3995 69.5301 41.2291L36.1796 67.7484L115.391 60.1349Z" fill="#263238"/>
<path d="M99.5884 59.5112L111.169 62.6026L111.447 65.4942L78.456 91.7272L41.0727 72.258L40.5173 66.4811L99.5884 59.5112Z" fill="white"/>
<path d="M99.5886 59.5112L101.775 65.5734L111.169 62.6026" fill="#E0E0E0"/>
<path d="M99.5886 59.5112L100.711 64.5107L111.169 62.6026" fill="#F0F0F0"/>
<path d="M85.2964 86.2807L123.466 110.772L37.8973 118.996L70.7039 87.6833C74.6622 83.9057 80.691 83.3261 85.2964 86.2807Z" fill="#9100FF"/>
<defs>
<linearGradient id="paint0_linear_2608_8281" x1="77.7754" y1="0.0003" x2="77.7754" y2="309.667" gradientUnits="userSpaceOnUse">
<stop stop-color="#5FB1D4"/>
<stop offset="0.1315" stop-color="#699FD8"/>
<stop offset="0.3938" stop-color="#8272E3"/>
<stop offset="0.7591" stop-color="#AA29F5"/>
<stop offset="0.9507" stop-color="#C000FF"/>
</linearGradient>
<linearGradient id="paint1_linear_2608_8281" x1="77.7754" y1="8.36759" x2="77.7754" y2="284.72" gradientUnits="userSpaceOnUse">
<stop stop-color="white"/>
<stop offset="0.8703" stop-color="#A7F5FF"/>
</linearGradient>
</defs>
</svg>
