<svg width="28" height="28" viewBox="0 0 28 28" fill="none" xmlns="http://www.w3.org/2000/svg">
<g opacity="0.3" filter="url(#filter0_d_1347_4068)">
<ellipse cx="13.657" cy="12.392" rx="11.4187" ry="11.4531" fill="#FF1515"/>
</g>
<g clip-path="url(#clip0_1347_4068)">
<path d="M17.9807 10.8331H17.7L17.7147 9.79783C17.713 9.73733 17.6897 9.67944 17.6492 9.6346L15.2376 6.98783C15.2182 6.96562 15.1945 6.94765 15.1679 6.93502C15.1413 6.9224 15.1124 6.91539 15.083 6.91443H10.0369C9.92381 6.91625 9.81578 6.96203 9.73562 7.04213C9.65546 7.12223 9.6094 7.2304 9.60715 7.34387V10.8331H9.32591C9.17026 10.8331 9.02008 10.8977 8.91086 11.0128C8.79942 11.1297 8.73755 11.2854 8.73829 11.4471V14.6406C8.73829 14.9791 9.00151 15.254 9.32591 15.254H9.60715V17.4396C9.60927 17.5534 9.65541 17.6618 9.73583 17.7421C9.81624 17.8223 9.92461 17.868 10.038 17.8696H17.2893C17.516 17.8696 17.7153 17.6768 17.7153 17.4401V15.2546H17.9812C18.3056 15.2546 18.5689 14.9791 18.5689 14.64V11.4466C18.5689 11.2844 18.5072 11.1278 18.3968 11.0128C18.3433 10.9563 18.279 10.9112 18.2076 10.8803C18.1363 10.8495 18.0595 10.8334 17.9818 10.8331H17.9807ZM10.3493 7.66924H14.1481V10.1763C14.1479 10.2328 14.1694 10.2871 14.2082 10.3281C14.227 10.3479 14.2496 10.3637 14.2746 10.3745C14.2997 10.3853 14.3267 10.391 14.354 10.391H16.9529V10.8331H10.3493V7.66924ZM10.3493 17.1148V15.254H16.9529V17.1148H10.3493ZM14.9044 7.74702L15.1147 7.98475L16.5237 9.5475L16.6018 9.64226H15.1617C15.0524 9.64226 14.9842 9.62419 14.9552 9.58749C14.9263 9.55188 14.9094 9.49437 14.9044 9.41604V7.74702ZM9.83051 14.7101V11.4236H10.878C11.2744 11.4236 11.5333 11.44 11.6534 11.4729C11.8391 11.5222 11.9942 11.6295 12.1193 11.795C12.2438 11.9598 12.3066 12.1729 12.3066 12.4347C12.3066 12.6363 12.2705 12.8061 12.1985 12.9442C12.1264 13.0811 12.0346 13.189 11.9238 13.2673C11.8224 13.3415 11.7073 13.3946 11.5852 13.4234C11.4295 13.4547 11.204 13.4705 10.9085 13.4705H10.4831V14.7101H9.83051ZM10.4831 11.9795V12.9124H10.8403C11.0975 12.9124 11.2695 12.8949 11.3564 12.8609C11.4403 12.8291 11.5122 12.7718 11.5619 12.6969C11.6117 12.622 11.6368 12.5334 11.6338 12.4435C11.6378 12.3353 11.6007 12.2296 11.53 12.1477C11.4618 12.0705 11.3693 12.0191 11.2679 12.002C11.1903 11.9872 11.0336 11.9801 10.7982 11.9801H10.4831V11.9795ZM12.6894 11.4236H13.8821C14.1514 11.4236 14.3562 11.4444 14.4976 11.4866C14.6871 11.543 14.8493 11.6443 14.9847 11.7889C15.1196 11.9341 15.2228 12.1116 15.2933 12.3213C15.3643 12.5317 15.3992 12.7902 15.3992 13.0981C15.3992 13.3687 15.3665 13.602 15.2998 13.7976C15.219 14.0369 15.1032 14.2303 14.9536 14.3782C14.8406 14.4905 14.6876 14.5781 14.4949 14.6411C14.3512 14.6871 14.1585 14.7101 13.9176 14.7101H12.6894V11.4236ZM13.342 11.9795V14.1563H13.8292C14.0116 14.1563 14.1432 14.1459 14.224 14.1251C14.3299 14.0977 14.4179 14.0528 14.4872 13.9882C14.5571 13.9241 14.6145 13.8184 14.6582 13.671C14.7024 13.5237 14.7242 13.3232 14.7242 13.069C14.7242 12.8149 14.7024 12.6199 14.6587 12.484C14.624 12.3642 14.5602 12.2548 14.473 12.1658C14.3887 12.0869 14.2841 12.0332 14.171 12.0108C14.0798 11.99 13.9012 11.9795 13.6358 11.9795H13.342ZM15.8066 14.7101V11.4236H18.0222V11.9795H16.4592V12.7574H17.8081V13.3133H16.4592V14.7101H15.8066Z" fill="#FF1515"/>
</g>
<defs>
<filter id="filter0_d_1347_4068" x="0.238281" y="0.938843" width="26.8359" height="26.9062" filterUnits="userSpaceOnUse" color-interpolation-filters="sRGB">
<feFlood flood-opacity="0" result="BackgroundImageFix"/>
<feColorMatrix in="SourceAlpha" type="matrix" values="0 0 0 0 0 0 0 0 0 0 0 0 0 0 0 0 0 0 127 0" result="hardAlpha"/>
<feOffset dy="2"/>
<feGaussianBlur stdDeviation="1"/>
<feComposite in2="hardAlpha" operator="out"/>
<feColorMatrix type="matrix" values="0 0 0 0 0 0 0 0 0 0 0 0 0 0 0 0 0 0 0.25 0"/>
<feBlend mode="normal" in2="BackgroundImageFix" result="effect1_dropShadow_1347_4068"/>
<feBlend mode="normal" in="SourceGraphic" in2="effect1_dropShadow_1347_4068" result="shape"/>
</filter>
<clipPath id="clip0_1347_4068">
<rect width="10.9223" height="10.9552" fill="white" transform="translate(8.19531 6.91443)"/>
</clipPath>
</defs>
</svg>
