<svg width="17" height="19" viewBox="0 0 17 19" fill="none" xmlns="http://www.w3.org/2000/svg">
<path d="M10.25 9.0625C10.5373 9.0625 10.8217 9.00592 11.0871 8.89599C11.3525 8.78605 11.5937 8.62492 11.7968 8.4218C11.9999 8.21867 12.1611 7.97752 12.271 7.71212C12.3809 7.44672 12.4375 7.16227 12.4375 6.875C12.4375 6.29484 12.207 5.73844 11.7968 5.3282C11.3866 4.91797 10.8302 4.6875 10.25 4.6875C9.66984 4.6875 9.11344 4.91797 8.7032 5.3282C8.29297 5.73844 8.0625 6.29484 8.0625 6.875C8.0625 7.16227 8.11908 7.44672 8.22901 7.71212C8.33895 7.97752 8.50008 8.21867 8.7032 8.4218C9.11344 8.83203 9.66984 9.0625 10.25 9.0625ZM10.25 0.75C13.6275 0.75 16.375 3.48875 16.375 6.875C16.375 11.4688 10.25 18.25 10.25 18.25C10.25 18.25 4.125 11.4688 4.125 6.875C4.125 5.25055 4.77031 3.69263 5.91897 2.54397C7.06763 1.39531 8.62555 0.75 10.25 0.75ZM2.375 6.875C2.375 10.8125 6.82 16.2025 7.625 17.2087L6.75 18.25C6.75 18.25 0.625 11.4688 0.625 6.875C0.625 4.10125 2.47125 1.75625 5 1.00375C3.39 2.4475 2.375 4.53875 2.375 6.875Z" fill="#F66C72"/>
</svg>
