<svg width="27" height="27" viewBox="0 0 27 27" fill="none" xmlns="http://www.w3.org/2000/svg">
<path d="M11.1135 11.5613L11.1191 11.5348C11.2288 11.0829 11.3669 10.5193 11.2591 10.0087C11.1872 9.60591 10.8903 9.44895 10.6369 9.4376C10.3381 9.42436 10.0715 9.59456 10.0053 9.8423C9.88046 10.2962 9.99204 10.9164 10.1963 11.7069C9.93909 12.3196 9.52872 13.2103 9.22803 13.7399C8.66827 14.0292 7.9175 14.4755 7.80592 15.039C7.78323 15.1431 7.8097 15.2754 7.87211 15.3946C7.94208 15.5269 8.05366 15.6291 8.18414 15.6782C8.24088 15.699 8.30896 15.7161 8.38838 15.7161C8.72122 15.7161 9.26018 15.4475 9.9788 14.2145C10.0885 14.1786 10.2019 14.1408 10.3116 14.1029C10.826 13.929 11.3593 13.7474 11.8415 13.6661C12.3748 13.9517 12.9819 14.1351 13.3941 14.1351C13.8026 14.1351 13.9634 13.893 14.0239 13.7474C14.1298 13.4921 14.0787 13.1706 13.9066 12.9985C13.657 12.7527 13.05 12.6884 12.1044 12.8057C11.6392 12.522 11.3347 12.1362 11.1135 11.5613ZM9.03892 14.4339C8.77606 14.8159 8.57749 15.0069 8.4697 15.0901C8.5964 14.8575 8.84414 14.6117 9.03892 14.4339ZM10.6955 9.98035C10.7939 10.1487 10.7806 10.6574 10.705 10.9146C10.6123 10.5382 10.5991 10.0049 10.6539 9.94252C10.6691 9.94441 10.6823 9.95576 10.6955 9.98035ZM10.6653 12.2591C10.8676 12.609 11.1229 12.9097 11.4047 13.1328C10.9962 13.2255 10.6237 13.3787 10.2908 13.5148C10.2114 13.547 10.1339 13.5791 10.0582 13.6094C10.3097 13.1536 10.5197 12.6373 10.6653 12.2591ZM13.6078 13.4978C13.6097 13.5016 13.6116 13.5073 13.6003 13.5148H13.5965L13.5927 13.5205C13.5776 13.5299 13.4225 13.6207 12.7549 13.3579C13.5227 13.3219 13.6059 13.4959 13.6078 13.4978ZM17.2274 6.15654L13.1577 2.08688C13.0443 1.97342 12.8911 1.90912 12.7304 1.90912H4.69695C4.36222 1.90912 4.0918 2.17955 4.0918 2.51427V18.2482C4.0918 18.583 4.36222 18.8534 4.69695 18.8534H16.8C17.1347 18.8534 17.4052 18.583 17.4052 18.2482V6.58582C17.4052 6.42507 17.3409 6.27 17.2274 6.15654ZM16.0095 6.86381H12.4505V3.30475L16.0095 6.86381ZM16.0436 17.4918H5.45339V3.27071H11.1645V7.35549C11.1645 7.56615 11.2482 7.76817 11.3972 7.91712C11.5461 8.06608 11.7481 8.14976 11.9588 8.14976H16.0436V17.4918Z" fill="#6D6976"/>
</svg>
