<svg width="19" height="19" viewBox="0 0 19 19" fill="none" xmlns="http://www.w3.org/2000/svg">
<g clip-path="url(#clip0_586_1900)">
<path d="M12.6712 7.91593C13.5457 7.91593 14.2546 7.20705 14.2546 6.3326C14.2546 5.45815 13.5457 4.74927 12.6712 4.74927C11.7968 4.74927 11.0879 5.45815 11.0879 6.3326C11.0879 7.20705 11.7968 7.91593 12.6712 7.91593Z" stroke="#6D6976" stroke-width="1.1875"/>
<path d="M1.58789 9.89534L2.97489 8.68172C3.32254 8.37777 3.77269 8.21727 4.23421 8.23271C4.69574 8.24814 5.13416 8.43835 5.46072 8.76484L8.85697 12.1611C9.12053 12.4246 9.46858 12.5867 9.83987 12.6188C10.2112 12.651 10.5819 12.5511 10.8868 12.3368L11.1235 12.1706C11.5634 11.8617 12.095 11.7111 12.6315 11.7434C13.168 11.7758 13.6777 11.9892 14.0772 12.3487L16.6296 14.6453" stroke="#6D6976" stroke-width="1.1875" stroke-linecap="round"/>
<path d="M17.4212 9.49943C17.4212 13.2313 17.4212 15.0973 16.2614 16.2563C15.1032 17.4161 13.2365 17.4161 9.50456 17.4161C5.77264 17.4161 3.90668 17.4161 2.74689 16.2563C1.58789 15.0981 1.58789 13.2313 1.58789 9.49943C1.58789 5.76751 1.58789 3.90156 2.74689 2.74176C3.90747 1.58276 5.77264 1.58276 9.50456 1.58276C13.2365 1.58276 15.1024 1.58276 16.2614 2.74176C17.0325 3.51285 17.2906 4.59664 17.3777 6.33276" stroke="#6D6976" stroke-width="1.1875" stroke-linecap="round"/>
</g>
<defs>
<clipPath id="clip0_586_1900">
<rect width="19" height="19" fill="white"/>
</clipPath>
</defs>
</svg>
