<svg width="12" height="18" viewBox="0 0 12 18" fill="none" xmlns="http://www.w3.org/2000/svg">
<path fill-rule="evenodd" clip-rule="evenodd" d="M6 0.875C9.1066 0.875 11.625 3.3934 11.625 6.5L11.625 13.1667C11.625 15.3528 9.85279 17.125 7.66667 17.125C5.48054 17.125 3.70833 15.3528 3.70833 13.1667L3.70833 6.38095C3.70833 5.1153 4.73435 4.08929 6 4.08929C7.26565 4.08929 8.29167 5.1153 8.29167 6.38095L8.29167 12.9286C8.29167 13.2737 8.01184 13.5536 7.66667 13.5536C7.32149 13.5536 7.04167 13.2737 7.04167 12.9286L7.04167 6.38095C7.04167 5.80566 6.5753 5.33929 6 5.33929C5.4247 5.33929 4.95833 5.80566 4.95833 6.38095L4.95833 13.1667C4.95833 14.6624 6.17089 15.875 7.66667 15.875C9.16244 15.875 10.375 14.6624 10.375 13.1667L10.375 6.5C10.375 4.08375 8.41625 2.125 6 2.125C3.58375 2.125 1.625 4.08375 1.625 6.5L1.625 12.9286C1.625 13.2737 1.34518 13.5536 0.999998 13.5536C0.654821 13.5536 0.374999 13.2737 0.374999 12.9286L0.374999 6.5C0.374999 3.3934 2.8934 0.875 6 0.875Z" fill="#C9C9C9"/>
</svg>
