<svg width="9" height="9" viewBox="0 0 9 9" fill="none" xmlns="http://www.w3.org/2000/svg">
<g clip-path="url(#clip0_663_5002)">
<path d="M4.125 6.75H4.875V6H4.125V6.75ZM4.5 0.75C4.00754 0.75 3.51991 0.846997 3.06494 1.03545C2.60997 1.22391 2.19657 1.50013 1.84835 1.84835C1.14509 2.55161 0.75 3.50544 0.75 4.5C0.75 5.49456 1.14509 6.44839 1.84835 7.15165C2.19657 7.49987 2.60997 7.77609 3.06494 7.96455C3.51991 8.153 4.00754 8.25 4.5 8.25C5.49456 8.25 6.44839 7.85491 7.15165 7.15165C7.85491 6.44839 8.25 5.49456 8.25 4.5C8.25 4.00754 8.153 3.51991 7.96455 3.06494C7.77609 2.60997 7.49987 2.19657 7.15165 1.84835C6.80343 1.50013 6.39003 1.22391 5.93506 1.03545C5.48009 0.846997 4.99246 0.75 4.5 0.75ZM4.5 7.5C2.84625 7.5 1.5 6.15375 1.5 4.5C1.5 2.84625 2.84625 1.5 4.5 1.5C6.15375 1.5 7.5 2.84625 7.5 4.5C7.5 6.15375 6.15375 7.5 4.5 7.5ZM4.5 2.25C4.10218 2.25 3.72064 2.40804 3.43934 2.68934C3.15804 2.97064 3 3.35218 3 3.75H3.75C3.75 3.55109 3.82902 3.36032 3.96967 3.21967C4.11032 3.07902 4.30109 3 4.5 3C4.69891 3 4.88968 3.07902 5.03033 3.21967C5.17098 3.36032 5.25 3.55109 5.25 3.75C5.25 4.5 4.125 4.40625 4.125 5.625H4.875C4.875 4.78125 6 4.6875 6 3.75C6 3.35218 5.84196 2.97064 5.56066 2.68934C5.27936 2.40804 4.89782 2.25 4.5 2.25Z" fill="#7367F0"/>
</g>
<defs>
<clipPath id="clip0_663_5002">
<rect width="9" height="9" fill="white"/>
</clipPath>
</defs>
</svg>
