<svg width="15" height="15" viewBox="0 0 15 15" fill="none" xmlns="http://www.w3.org/2000/svg">
<path d="M4.14407 7.28814L6.83898 9.5339L10.4322 5.04237M7.28814 13.5763C6.46237 13.5763 5.64468 13.4136 4.88177 13.0976C4.11886 12.7816 3.42566 12.3184 2.84175 11.7345C2.25784 11.1506 1.79466 10.4574 1.47866 9.6945C1.16265 8.93159 1 8.11391 1 7.28814C1 6.46237 1.16265 5.64468 1.47866 4.88177C1.79466 4.11886 2.25784 3.42566 2.84175 2.84175C3.42566 2.25784 4.11886 1.79466 4.88177 1.47866C5.64468 1.16265 6.46237 1 7.28814 1C8.95585 1 10.5553 1.6625 11.7345 2.84175C12.9138 4.02101 13.5763 5.62042 13.5763 7.28814C13.5763 8.95585 12.9138 10.5553 11.7345 11.7345C10.5553 12.9138 8.95585 13.5763 7.28814 13.5763Z" stroke="#2BD35A" stroke-width="0.898305"/>
</svg>
