<svg width="73" height="75" viewBox="0 0 73 75" fill="none" xmlns="http://www.w3.org/2000/svg">
<rect opacity="0.1" x="0.757324" y="0.917969" width="71.379" height="73.869" rx="2.48997" fill="#FF8000"/>
<g clip-path="url(#clip0_979_4156)">
<path d="M67.3523 57.2865L55.9833 36.2618C57.1431 33.6293 57.792 30.72 57.792 27.6592C57.792 15.8626 48.2287 6.30029 36.4331 6.30029C24.6346 6.30029 15.0723 15.8636 15.0723 27.6592C15.0723 30.7938 15.7532 33.7682 16.9655 36.4493L5.54588 57.2768C5.17766 57.9461 5.23886 58.7718 5.6993 59.3828C6.16071 59.9919 6.93976 60.2784 7.68378 60.1036L17.4355 57.8665L20.7732 67.1627C21.0336 67.8854 21.6931 68.3866 22.4576 68.443C22.5072 68.4468 22.5548 68.4488 22.6014 68.4488C22.9527 68.4487 23.2974 68.3533 23.5988 68.1728C23.9002 67.9924 24.147 67.7336 24.313 67.424L34.2512 48.9084C34.9758 48.9818 35.7037 49.0184 36.432 49.0182C37.1071 49.0182 37.7734 48.9832 38.432 48.921L48.586 67.4386C48.7656 67.7668 49.0364 68.0362 49.3655 68.2142C49.6947 68.3922 50.0682 68.4713 50.4413 68.442C51.2038 68.3808 51.8605 67.8805 52.1188 67.1617L55.4565 57.8655L65.2083 60.1026C65.9562 60.2832 66.7275 59.9928 67.1889 59.3857C67.6523 58.7795 67.7145 57.9577 67.3521 57.2865H67.3523ZM22.9549 61.7413L20.5107 54.9318C20.1766 54.0061 19.2072 53.4669 18.2474 53.6952L11.0348 55.3495L19.2558 40.3551C21.9631 44.0124 25.8098 46.7712 30.2713 48.1137L22.9549 61.7413ZM18.975 27.6591C18.975 18.0336 26.8074 10.2023 36.4338 10.2023C46.0592 10.2023 53.8906 18.0336 53.8906 27.6591C53.8906 37.2846 46.0592 45.1179 36.4338 45.1179C26.8063 45.1179 18.975 37.2846 18.975 27.6591ZM54.6444 53.6952C53.6808 53.4679 52.7152 54.006 52.381 54.9317L49.9205 61.7906L42.4437 48.1572C47.0238 46.8157 50.9638 43.9842 53.706 40.2201L61.8929 55.3572L54.6444 53.6952Z" fill="#F7A24B"/>
<circle cx="36.4467" cy="27.5588" r="19.6323" fill="#F7A24B"/>
</g>
<mask id="mask0_979_4156" style="mask-type:luminance" maskUnits="userSpaceOnUse" x="28" y="18" width="18" height="19">
<path d="M36.5579 27.7588V20.1939C36.5579 19.6401 36.774 18.6809 37.8547 18.6809C38.9355 18.6809 39.1516 19.6401 39.1516 20.1939V29.9202L42.1776 26.8942C42.7382 26.3336 43.5081 26.0634 44.1228 26.6781C44.7375 27.2928 44.8119 27.9343 44.1228 28.6234L41.313 31.4332C41.313 31.4332 38.7599 35.9721 37.4225 35.9721H31.8028C31.8028 35.9721 30.506 35.9721 29.6414 35.1076C28.7769 34.243 28.7769 33.1623 28.7769 33.1623V22.4768C28.7769 22.166 28.993 21.2746 30.0737 21.2746C31.1544 21.2746 31.3705 22.1392 31.3705 22.4768V27.7588" stroke="white" stroke-width="0.943158" stroke-linecap="round" stroke-linejoin="round"/>
<path d="M33.9643 26.4619C33.9643 25.7457 33.3837 25.165 32.6674 25.165C31.9512 25.165 31.3706 25.7457 31.3706 26.4619V29.0556C31.3706 29.7718 31.9512 30.3524 32.6674 30.3524C33.3837 30.3524 33.9643 29.7718 33.9643 29.0556V26.4619Z" fill="#555555" stroke="white" stroke-width="0.943158" stroke-linejoin="round"/>
<path d="M36.558 26.4619C36.558 25.7457 35.9774 25.165 35.2612 25.165C34.545 25.165 33.9644 25.7457 33.9644 26.4619V29.0556C33.9644 29.7718 34.545 30.3524 35.2612 30.3524C35.9774 30.3524 36.558 29.7718 36.558 29.0556V26.4619Z" fill="#555555" stroke="white" stroke-width="0.943158" stroke-linejoin="round"/>
</mask>
<g mask="url(#mask0_979_4156)">
<path d="M26.1831 16.9517H46.9326V37.7011H26.1831V16.9517Z" fill="white"/>
</g>
<defs>
<clipPath id="clip0_979_4156">
<rect width="62.1688" height="62.1688" fill="white" transform="translate(5.3623 6.29028)"/>
</clipPath>
</defs>
</svg>
