<svg width="80" height="91" viewBox="0 0 80 91" fill="none" xmlns="http://www.w3.org/2000/svg">
<path d="M40 90.5023C54.0607 90.5023 65.4591 89.1436 65.4591 87.4675C65.4591 85.7915 54.0607 84.4327 40 84.4327C25.9393 84.4327 14.5408 85.7915 14.5408 87.4675C14.5408 89.1436 25.9393 90.5023 40 90.5023Z" fill="#EDEDED"/>
<g filter="url(#filter0_d_2544_15301)">
<path d="M41.449 79.7079L48.6694 75.7778C64.8868 66.9508 75 49.8354 75 31.2165V12.4196C75 10.9563 73.8529 9.74169 72.4059 9.70197C55.3428 9.23458 44.7574 4.25573 41.2732 2.32857C40.4813 1.89048 39.5188 1.89048 38.7268 2.32857C35.2426 4.25573 24.6572 9.23438 7.59413 9.70197C6.14713 9.74169 5 10.9563 5 12.4196V31.2165C5 49.8354 15.1132 66.9508 31.3306 75.7778L38.551 79.7079C39.4555 80.2002 40.5445 80.2002 41.449 79.7079Z" fill="#F3F2FF"/>
<path d="M71.5393 14.6325V30.5839C71.5393 48.3405 61.9413 64.5926 46.4921 73.0035L41.3701 75.7901C40.9442 76.0215 40.4721 76.1395 40 76.1395C39.5279 76.1395 39.0558 76.0215 38.6299 75.7901L33.5079 73.0035C18.0589 64.5926 8.46068 48.3405 8.46068 30.5839V14.6325C8.46068 13.878 9.05784 13.26 9.80995 13.2068C24.3448 12.2185 34.3247 8.36712 39.3749 5.90002C39.5763 5.80052 39.7869 5.75195 39.9998 5.75195C40.2128 5.75195 40.4233 5.80052 40.6247 5.90002C45.6749 8.36732 55.6572 12.2185 70.1897 13.2068C70.9422 13.26 71.5393 13.878 71.5393 14.6325Z" fill="#7F74F2"/>
<path d="M71.5393 14.6325V30.5839C71.5393 48.3405 61.9413 64.5926 46.4921 73.0035L41.3701 75.7901C40.9442 76.0215 40.4721 76.1395 40 76.1395V5.75195C40.2129 5.75195 40.4235 5.80052 40.6249 5.90002C45.6751 8.36732 55.6574 12.2185 70.1899 13.2068C70.9422 13.26 71.5393 13.878 71.5393 14.6325Z" fill="#7A6DF9"/>
<path d="M51.9936 34.6342H28.0064C26.5783 34.6342 25.4188 35.7937 25.4188 37.2218V56.3485C25.4188 57.7766 26.5783 58.9361 28.0064 58.9361H51.9936C53.4217 58.9361 54.5812 57.7766 54.5812 56.3485V37.2218C54.581 35.7937 53.4215 34.6342 51.9936 34.6342ZM42.3145 47.9979V49.9097C42.3145 51.1872 41.2777 52.2242 40 52.2242C38.7223 52.2242 37.6855 51.1874 37.6855 49.9097V47.9979C36.7017 47.2851 36.0653 46.1254 36.0653 44.8178C36.0653 42.6444 37.8267 40.8832 39.9998 40.8832C42.1729 40.8832 43.9344 42.6444 43.9344 44.8178C43.9346 46.1256 43.2981 47.2851 42.3145 47.9979Z" fill="white"/>
<path d="M48.5636 27.4687V30.4683C48.5636 31.4909 47.7346 32.3199 46.7119 32.3199C45.6893 32.3199 44.8603 31.4909 44.8603 30.4683V27.5881C44.8603 24.956 42.8173 22.7113 40.1872 22.612C37.4222 22.5076 35.1395 24.7265 35.1395 27.4689V32.783H31.4364V27.6083C31.4364 22.9413 35.1136 19.0254 39.779 18.9081C42.2319 18.8463 44.4558 19.8153 46.0546 21.4141C47.6054 22.9647 48.5636 25.1033 48.5636 27.4687Z" fill="white"/>
</g>
<defs>
<filter id="filter0_d_2544_15301" x="0.625" y="0.359375" width="78.75" height="86.8271" filterUnits="userSpaceOnUse" color-interpolation-filters="sRGB">
<feFlood flood-opacity="0" result="BackgroundImageFix"/>
<feColorMatrix in="SourceAlpha" type="matrix" values="0 0 0 0 0 0 0 0 0 0 0 0 0 0 0 0 0 0 127 0" result="hardAlpha"/>
<feOffset dy="2.73438"/>
<feGaussianBlur stdDeviation="2.1875"/>
<feComposite in2="hardAlpha" operator="out"/>
<feColorMatrix type="matrix" values="0 0 0 0 0 0 0 0 0 0 0 0 0 0 0 0 0 0 0.1 0"/>
<feBlend mode="normal" in2="BackgroundImageFix" result="effect1_dropShadow_2544_15301"/>
<feBlend mode="normal" in="SourceGraphic" in2="effect1_dropShadow_2544_15301" result="shape"/>
</filter>
</defs>
</svg>
