<svg width="24" height="24" viewBox="0 0 24 24" fill="none" xmlns="http://www.w3.org/2000/svg">
<path fill-rule="evenodd" clip-rule="evenodd" d="M10.8245 4.95539C11.1974 4.74819 11.6509 4.74819 12.0239 4.95539L17.4124 7.94901C17.8044 8.16681 18.0476 8.58002 18.0476 9.02849V14.9715C18.0476 15.42 17.8044 15.8332 17.4124 16.051L12.0239 19.0446C11.6509 19.2518 11.1974 19.2518 10.8245 19.0446L5.43595 16.051C5.04392 15.8332 4.80078 15.42 4.80078 14.9715V9.02849C4.80078 8.58002 5.04392 8.16681 5.43595 7.94901L10.8245 4.95539ZM11.4787 5.93673C11.4448 5.91789 11.4036 5.91789 11.3697 5.93673L5.98113 8.93035C5.94549 8.95015 5.92339 8.98772 5.92339 9.02849V14.9715C5.92339 15.0123 5.94549 15.0498 5.98113 15.0696L11.3697 18.0633C11.4036 18.0821 11.4448 18.0821 11.4787 18.0633L16.8672 15.0696C16.9029 15.0498 16.925 15.0123 16.925 14.9715V9.02849C16.925 8.98772 16.9029 8.95015 16.8672 8.93035L11.4787 5.93673Z" fill="white"/>
<path fill-rule="evenodd" clip-rule="evenodd" d="M7.86925 12C7.86925 10.0367 9.46085 8.44506 11.4242 8.44506C13.3875 8.44506 14.9791 10.0367 14.9791 12C14.9791 13.9633 13.3875 15.5549 11.4242 15.5549C9.46085 15.5549 7.86925 13.9633 7.86925 12ZM11.4242 9.56767C10.0808 9.56767 8.99186 10.6567 8.99186 12C8.99186 13.3433 10.0808 14.4323 11.4242 14.4323C12.7675 14.4323 13.8565 13.3433 13.8565 12C13.8565 10.6567 12.7675 9.56767 11.4242 9.56767Z" fill="white"/>
</svg>
