<svg width="27" height="27" viewBox="0 0 27 27" fill="none" xmlns="http://www.w3.org/2000/svg">
<path fill-rule="evenodd" clip-rule="evenodd" d="M11.7811 4.62139C12.5387 3.31582 14.4241 3.31582 15.1816 4.62139L17.5016 8.6196C17.7155 8.98813 18.0851 9.23963 18.5064 9.30326L22.3589 9.88513C24.0382 10.1388 24.6273 12.2591 23.3194 13.3426L20.5124 15.6682C20.1184 15.9946 19.9332 16.5095 20.0289 17.0121L20.8152 21.1413C21.1232 22.7588 19.4252 24.0155 17.9683 23.2484L14.1355 21.2303C13.7261 21.0147 13.2367 21.0147 12.8272 21.2303L8.99446 23.2484C7.53753 24.0155 5.83953 22.7588 6.14754 21.1413L6.93382 17.0121C7.02953 16.5095 6.84428 15.9946 6.45029 15.6682L3.64329 13.3426C2.33545 12.2591 2.92451 10.1388 4.60383 9.88513L8.45634 9.30326C8.87764 9.23963 9.24726 8.98813 9.46111 8.6196L11.7811 4.62139ZM13.7243 5.46704C13.616 5.28053 13.3467 5.28053 13.2385 5.46704L10.9185 9.46525C10.448 10.276 9.63484 10.8293 8.70797 10.9693L4.85547 11.5512C4.61556 11.5874 4.53141 11.8903 4.71825 12.0451L7.52525 14.3707C8.39202 15.0888 8.79958 16.2215 8.58902 17.3273L7.80274 21.4565C7.75874 21.6875 8.00131 21.8671 8.20944 21.7575L12.0422 19.7394C12.943 19.265 14.0197 19.265 14.9206 19.7394L18.7533 21.7575C18.9614 21.8671 19.204 21.6875 19.16 21.4565L18.3737 17.3273C18.1631 16.2215 18.5707 15.0888 19.4375 14.3707L22.2445 12.0451C22.4313 11.8903 22.3472 11.5874 22.1073 11.5512L18.2548 10.9693C17.3279 10.8293 16.5147 10.276 16.0443 9.46525L13.7243 5.46704Z" fill="#6D6976"/>
</svg>
