<svg width="24" height="24" viewBox="0 0 24 24" fill="none" xmlns="http://www.w3.org/2000/svg">
<path fill-rule="evenodd" clip-rule="evenodd" d="M10.4873 4.11419C11.1617 2.95192 12.8401 2.95193 13.5146 4.11419L15.5799 7.67355C15.7703 8.00164 16.0993 8.22553 16.4744 8.28218L19.9041 8.80018C21.3991 9.02598 21.9234 10.9136 20.7592 11.8781L18.2603 13.9485C17.9095 14.239 17.7446 14.6974 17.8298 15.1449L18.5298 18.8208C18.804 20.2608 17.2924 21.3796 15.9953 20.6966L12.5833 18.9001C12.2188 18.7081 11.7831 18.7081 11.4186 18.9001L8.00652 20.6966C6.7095 21.3796 5.19788 20.2608 5.47208 18.8208L6.17206 15.1449C6.25726 14.6974 6.09234 14.239 5.7416 13.9485L3.2427 11.8781C2.07841 10.9136 2.60281 9.02598 4.09781 8.80018L7.52746 8.28218C7.90252 8.22553 8.23157 8.00164 8.42194 7.67355L10.4873 4.11419ZM12.2172 4.86702C12.1208 4.70098 11.881 4.70098 11.7847 4.86702L9.71934 8.42638C9.30052 9.14817 8.57661 9.64073 7.75147 9.76535L4.32183 10.2834C4.10825 10.3156 4.03334 10.5853 4.19967 10.7231L6.69857 12.7934C7.4702 13.4327 7.83302 14.4411 7.64558 15.4254L6.9456 19.1014C6.90643 19.3071 7.12237 19.467 7.30766 19.3694L10.7197 17.5728C11.5217 17.1505 12.4802 17.1505 13.2822 17.5728L16.6942 19.3694C16.8795 19.467 17.0954 19.3071 17.0563 19.1014L16.3563 15.4254C16.1688 14.4411 16.5317 13.4327 17.3033 12.7934L19.8022 10.7231C19.9685 10.5853 19.8936 10.3156 19.68 10.2834L16.2504 9.76535C15.4252 9.64073 14.7013 9.14817 14.2825 8.42638L12.2172 4.86702Z" fill="#F88108"/>
<path d="M6.70588 14.8182L6.17647 20.4848L12.5294 18.4242L17.2941 21L17.8235 19.9697L17.2941 14.8182L21 11.2121L20.4706 9.66667L15.1765 8.63636L13.5882 5.0303L11.4706 4L7.76471 9.15152L3 10.1818V11.2121L6.70588 14.8182Z" fill="#F88108"/>
</svg>
