<svg width="21" height="21" viewBox="0 0 21 21" fill="none" xmlns="http://www.w3.org/2000/svg">
<path d="M10.5 1.09375C10.8624 1.09375 11.1562 1.38756 11.1562 1.75V2.625C11.1562 2.98744 10.8624 3.28125 10.5 3.28125C10.1376 3.28125 9.84375 2.98744 9.84375 2.625V1.75C9.84375 1.38756 10.1376 1.09375 10.5 1.09375Z" fill="white"/>
<path fill-rule="evenodd" clip-rule="evenodd" d="M5.46875 10.5C5.46875 7.72132 7.72132 5.46875 10.5 5.46875C13.2787 5.46875 15.5312 7.72132 15.5312 10.5C15.5312 13.2787 13.2787 15.5312 10.5 15.5312C7.72132 15.5312 5.46875 13.2787 5.46875 10.5ZM10.5 6.78125C8.44619 6.78125 6.78125 8.44619 6.78125 10.5C6.78125 12.5538 8.44619 14.2188 10.5 14.2188C12.5538 14.2188 14.2188 12.5538 14.2188 10.5C14.2188 8.44619 12.5538 6.78125 10.5 6.78125Z" fill="white"/>
<path d="M4.77687 3.8488C4.52059 3.59252 4.10507 3.59252 3.84879 3.8488C3.59251 4.10508 3.59251 4.52059 3.84879 4.77687L4.46751 5.39559C4.72379 5.65187 5.1393 5.65187 5.39559 5.39559C5.65187 5.13931 5.65187 4.7238 5.39559 4.46752L4.77687 3.8488Z" fill="white"/>
<path d="M19.9062 10.5C19.9062 10.8624 19.6124 11.1562 19.25 11.1562H18.375C18.0126 11.1562 17.7188 10.8624 17.7188 10.5C17.7188 10.1376 18.0126 9.84375 18.375 9.84375H19.25C19.6124 9.84375 19.9062 10.1376 19.9062 10.5Z" fill="white"/>
<path d="M17.1512 4.77687C17.4075 4.52059 17.4075 4.10507 17.1512 3.84879C16.8949 3.59251 16.4794 3.59251 16.2231 3.84879L15.6044 4.46751C15.3481 4.72379 15.3481 5.1393 15.6044 5.39559C15.8607 5.65187 16.2762 5.65187 16.5325 5.39559L17.1512 4.77687Z" fill="white"/>
<path d="M10.5 17.7188C10.8624 17.7188 11.1562 18.0126 11.1562 18.375V19.25C11.1562 19.6124 10.8624 19.9062 10.5 19.9062C10.1376 19.9062 9.84375 19.6124 9.84375 19.25V18.375C9.84375 18.0126 10.1376 17.7188 10.5 17.7188Z" fill="white"/>
<path d="M16.5325 15.6044C16.2763 15.3481 15.8607 15.3481 15.6045 15.6044C15.3482 15.8607 15.3482 16.2762 15.6045 16.5325L16.2232 17.1512C16.4795 17.4075 16.895 17.4075 17.1513 17.1512C17.4075 16.8949 17.4075 16.4794 17.1513 16.2231L16.5325 15.6044Z" fill="white"/>
<path d="M3.28125 10.5C3.28125 10.8624 2.98744 11.1562 2.625 11.1562H1.75C1.38756 11.1562 1.09375 10.8624 1.09375 10.5C1.09375 10.1376 1.38756 9.84375 1.75 9.84375H2.625C2.98744 9.84375 3.28125 10.1376 3.28125 10.5Z" fill="white"/>
<path d="M5.39553 16.5325C5.65181 16.2762 5.65181 15.8607 5.39553 15.6044C5.13925 15.3481 4.72373 15.3481 4.46745 15.6044L3.84873 16.2231C3.59245 16.4794 3.59245 16.8949 3.84873 17.1512C4.10501 17.4075 4.52053 17.4075 4.77681 17.1512L5.39553 16.5325Z" fill="white"/>
</svg>
