<svg width="15" height="15" viewBox="0 0 15 15" fill="none" xmlns="http://www.w3.org/2000/svg">
<path d="M7.5 11.875H3.125C2.79348 11.875 2.47554 11.7433 2.24112 11.5089C2.0067 11.2745 1.875 10.9565 1.875 10.625V4.375C1.875 4.04348 2.0067 3.72554 2.24112 3.49112C2.47554 3.2567 2.79348 3.125 3.125 3.125H11.875C12.2065 3.125 12.5245 3.2567 12.7589 3.49112C12.9933 3.72554 13.125 4.04348 13.125 4.375V7.5M10.625 13.125L13.125 10.625M10 11.875C10 12.3723 10.1975 12.8492 10.5492 13.2008C10.9008 13.5525 11.3777 13.75 11.875 13.75C12.3723 13.75 12.8492 13.5525 13.2008 13.2008C13.5525 12.8492 13.75 12.3723 13.75 11.875C13.75 11.3777 13.5525 10.9008 13.2008 10.5492C12.8492 10.1975 12.3723 10 11.875 10C11.3777 10 10.9008 10.1975 10.5492 10.5492C10.1975 10.9008 10 11.3777 10 11.875Z" stroke="#2BD35A" stroke-linecap="round" stroke-linejoin="round"/>
<path d="M1.875 4.37488L7.5 8.12488L13.125 4.37488" stroke="#2BD35A" stroke-width="1.2" stroke-linecap="round" stroke-linejoin="round"/>
</svg>
