<svg width="72" height="75" viewBox="0 0 72 75" fill="none" xmlns="http://www.w3.org/2000/svg">
<rect opacity="0.1" x="0.504883" y="0.917969" width="71.379" height="73.869" rx="2.48997" fill="#5D9ED3"/>
<g clip-path="url(#clip0_979_4150)">
<path d="M67.1003 57.2865L55.7313 36.2618C56.8911 33.6293 57.54 30.72 57.54 27.6592C57.54 15.8626 47.9767 6.30029 36.1811 6.30029C24.3827 6.30029 14.8203 15.8636 14.8203 27.6592C14.8203 30.7938 15.5013 33.7682 16.7136 36.4493L5.29393 57.2768C4.92571 57.9461 4.98691 58.7718 5.44735 59.3828C5.90875 59.9919 6.68781 60.2784 7.43183 60.1036L17.1836 57.8665L20.5213 67.1627C20.7816 67.8854 21.4412 68.3866 22.2057 68.443C22.2553 68.4468 22.3028 68.4488 22.3494 68.4488C22.7007 68.4487 23.0454 68.3533 23.3468 68.1728C23.6482 67.9924 23.895 67.7336 24.061 67.424L33.9993 48.9084C34.7239 48.9818 35.4517 49.0184 36.1801 49.0182C36.8552 49.0182 37.5215 48.9832 38.1801 48.921L48.334 67.4386C48.5137 67.7668 48.7844 68.0362 49.1136 68.2142C49.4427 68.3922 49.8163 68.4713 50.1894 68.442C50.9519 68.3808 51.6086 67.8805 51.8669 67.1617L55.2046 57.8655L64.9563 60.1026C65.7043 60.2832 66.4756 59.9928 66.937 59.3857C67.4003 58.7795 67.4625 57.9577 67.1002 57.2865H67.1003ZM22.7029 61.7413L20.2588 54.9318C19.9246 54.0061 18.9552 53.4669 17.9954 53.6952L10.7829 55.3495L19.0039 40.3551C21.7111 44.0124 25.5578 46.7712 30.0194 48.1137L22.7029 61.7413ZM18.7231 27.6591C18.7231 18.0336 26.5554 10.2023 36.1818 10.2023C45.8073 10.2023 53.6386 18.0336 53.6386 27.6591C53.6386 37.2846 45.8073 45.1179 36.1818 45.1179C26.5544 45.1179 18.7231 37.2846 18.7231 27.6591ZM54.3924 53.6952C53.4288 53.4679 52.4633 54.006 52.1291 54.9317L49.6685 61.7906L42.1917 48.1572C46.7718 46.8157 50.7118 43.9842 53.4541 40.2201L61.6409 55.3572L54.3924 53.6952Z" fill="#5D9ED3"/>
<circle cx="36.1948" cy="27.5588" r="19.6323" fill="#5D9ED3"/>
</g>
<path d="M35.5324 26.0294C36.6268 26.0294 37.6763 26.4642 38.4502 27.238C39.224 28.0118 39.6587 29.0614 39.6587 30.1557V35.1073H38.0082V30.1557C38.0082 29.5242 37.767 28.9166 37.3337 28.4571C36.9005 27.9977 36.3081 27.7211 35.6777 27.6841L35.5324 27.6799C34.9009 27.6799 34.2933 27.9212 33.8338 28.3544C33.3743 28.7876 33.0978 29.3801 33.0608 30.0105L33.0566 30.1557V35.1073H31.4061V30.1557C31.4061 29.0614 31.8408 28.0118 32.6147 27.238C33.3885 26.4642 34.438 26.0294 35.5324 26.0294ZM30.1682 28.5052C30.3985 28.5052 30.6221 28.5324 30.8367 28.5828C30.6956 29.0028 30.612 29.4401 30.5883 29.8826L30.5808 30.1557V30.2267C30.486 30.1928 30.3873 30.1706 30.287 30.1607L30.1682 30.1557C29.8606 30.1557 29.564 30.2702 29.3363 30.477C29.1085 30.6837 28.9658 30.9678 28.9361 31.274L28.9303 31.3936V35.1073H27.2798V31.3936C27.2798 30.6276 27.5841 29.8929 28.1258 29.3512C28.6675 28.8095 29.4021 28.5052 30.1682 28.5052ZM40.8966 28.5052C41.6627 28.5052 42.3974 28.8095 42.939 29.3512C43.4807 29.8929 43.785 30.6276 43.785 31.3936V35.1073H42.1345V31.3936C42.1345 31.086 42.02 30.7895 41.8133 30.5617C41.6066 30.3339 41.3224 30.1912 41.0163 30.1615L40.8966 30.1557C40.7522 30.1557 40.6136 30.1805 40.484 30.2259V30.1557C40.484 29.6061 40.3949 29.0779 40.2298 28.5844C40.4427 28.5324 40.6672 28.5052 40.8966 28.5052ZM30.1682 23.5536C30.7154 23.5536 31.2402 23.771 31.6271 24.1579C32.014 24.5448 32.2314 25.0696 32.2314 25.6168C32.2314 26.164 32.014 26.6887 31.6271 27.0757C31.2402 27.4626 30.7154 27.6799 30.1682 27.6799C29.621 27.6799 29.0963 27.4626 28.7093 27.0757C28.3224 26.6887 28.105 26.164 28.105 25.6168C28.105 25.0696 28.3224 24.5448 28.7093 24.1579C29.0963 23.771 29.621 23.5536 30.1682 23.5536ZM40.8966 23.5536C41.4438 23.5536 41.9686 23.771 42.3555 24.1579C42.7424 24.5448 42.9598 25.0696 42.9598 25.6168C42.9598 26.164 42.7424 26.6887 42.3555 27.0757C41.9686 27.4626 41.4438 27.6799 40.8966 27.6799C40.3494 27.6799 39.8247 27.4626 39.4378 27.0757C39.0508 26.6887 38.8335 26.164 38.8335 25.6168C38.8335 25.0696 39.0508 24.5448 39.4378 24.1579C39.8247 23.771 40.3494 23.5536 40.8966 23.5536ZM30.1682 25.2042C30.0588 25.2042 29.9538 25.2476 29.8764 25.325C29.799 25.4024 29.7556 25.5074 29.7556 25.6168C29.7556 25.7262 29.799 25.8312 29.8764 25.9086C29.9538 25.9859 30.0588 26.0294 30.1682 26.0294C30.2776 26.0294 30.3826 25.9859 30.46 25.9086C30.5374 25.8312 30.5808 25.7262 30.5808 25.6168C30.5808 25.5074 30.5374 25.4024 30.46 25.325C30.3826 25.2476 30.2776 25.2042 30.1682 25.2042ZM40.8966 25.2042C40.7872 25.2042 40.6822 25.2476 40.6049 25.325C40.5275 25.4024 40.484 25.5074 40.484 25.6168C40.484 25.7262 40.5275 25.8312 40.6049 25.9086C40.6822 25.9859 40.7872 26.0294 40.8966 26.0294C41.0061 26.0294 41.111 25.9859 41.1884 25.9086C41.2658 25.8312 41.3093 25.7262 41.3093 25.6168C41.3093 25.5074 41.2658 25.4024 41.1884 25.325C41.111 25.2476 41.0061 25.2042 40.8966 25.2042ZM35.5324 18.6021C36.4079 18.6021 37.2475 18.9498 37.8666 19.5689C38.4857 20.188 38.8335 21.0276 38.8335 21.9031C38.8335 22.7786 38.4857 23.6182 37.8666 24.2373C37.2475 24.8564 36.4079 25.2042 35.5324 25.2042C34.6569 25.2042 33.8173 24.8564 33.1982 24.2373C32.5792 23.6182 32.2314 22.7786 32.2314 21.9031C32.2314 21.0276 32.5792 20.188 33.1982 19.5689C33.8173 18.9498 34.6569 18.6021 35.5324 18.6021ZM35.5324 20.2526C35.0947 20.2526 34.6749 20.4265 34.3653 20.736C34.0558 21.0455 33.8819 21.4654 33.8819 21.9031C33.8819 22.3409 34.0558 22.7607 34.3653 23.0702C34.6749 23.3797 35.0947 23.5536 35.5324 23.5536C35.9702 23.5536 36.39 23.3797 36.6995 23.0702C37.009 22.7607 37.1829 22.3409 37.1829 21.9031C37.1829 21.4654 37.009 21.0455 36.6995 20.736C36.39 20.4265 35.9702 20.2526 35.5324 20.2526Z" fill="white"/>
<defs>
<clipPath id="clip0_979_4150">
<rect width="62.1688" height="62.1688" fill="white" transform="translate(5.10986 6.29028)"/>
</clipPath>
</defs>
</svg>
