<svg width="31" height="31" viewBox="0 0 31 31" fill="none" xmlns="http://www.w3.org/2000/svg">
<path d="M17.757 7.63838C17.7628 6.59689 16.9233 5.74785 15.8818 5.742C14.8403 5.73615 13.9913 6.5757 13.9854 7.61719C13.9796 8.65868 14.8191 9.50772 15.8606 9.51357C16.9021 9.51942 17.7511 8.67987 17.757 7.63838Z" fill="#6D6976"/>
<path d="M15.8394 13.2851C16.8809 13.291 17.7205 14.14 17.7146 15.1815C17.7088 16.223 16.8597 17.0626 15.8182 17.0567C14.7768 17.0509 13.9372 16.2018 13.943 15.1603C13.9489 14.1188 14.7979 13.2793 15.8394 13.2851Z" fill="#6D6976"/>
<path d="M15.7971 20.8283C16.8385 20.8341 17.6781 21.6832 17.6722 22.7246C17.6664 23.7661 16.8174 24.6057 15.7759 24.5998C14.7344 24.594 13.8948 23.745 13.9007 22.7035C13.9065 21.662 14.7556 20.8224 15.7971 20.8283Z" fill="#6D6976"/>
</svg>
