<svg width="18" height="18" viewBox="0 0 18 18" fill="none" xmlns="http://www.w3.org/2000/svg">
<path d="M1.72619 16.5551L5.31164 10.1903L10.0451 14.3227C10.1882 14.45 10.3582 14.5434 10.5424 14.596C10.7266 14.6485 10.9202 14.6588 11.1089 14.6262C11.2977 14.5935 11.4766 14.5186 11.6324 14.4072C11.7882 14.2958 11.9169 14.1507 12.0088 13.9827L16.4469 7.35874L15.3892 6.64942L10.9321 13.302L10.8875 13.3676L6.1534 9.2352C6.01036 9.1086 5.84071 9.01575 5.65697 8.9635C5.47323 8.91125 5.28011 8.90095 5.09185 8.93334C4.9036 8.96574 4.72503 9.04 4.56932 9.15066C4.41362 9.26132 4.28476 9.40554 4.19226 9.57267L1.27347 14.7614V0H0V16.5551C0.000337136 16.8927 0.134614 17.2165 0.373363 17.4552C0.612112 17.694 0.935828 17.8282 1.27347 17.8286H17.8286V16.5551H1.72619Z" fill="#7367F0"/>
</svg>
