<svg width="72" height="74" viewBox="0 0 72 74" fill="none" xmlns="http://www.w3.org/2000/svg">
<rect opacity="0.1" width="71.379" height="73.869" rx="2.48997" fill="#F88108"/>
<g clip-path="url(#clip0_979_4067)">
<path d="M66.5949 56.3688L55.2259 35.3441C56.3858 32.7116 57.0347 29.8023 57.0347 26.7414C57.0347 14.9449 47.4713 5.38257 35.6758 5.38257C23.8773 5.38257 14.315 14.9459 14.315 26.7414C14.315 29.8761 14.9959 32.8505 16.2082 35.5315L4.78856 56.3591C4.42034 57.0283 4.48154 57.854 4.94197 58.465C5.40338 59.0742 6.18244 59.3607 6.92646 59.1859L16.6782 56.9488L20.0159 66.2449C20.2762 66.9676 20.9358 67.4689 21.7003 67.5252C21.7499 67.5291 21.7974 67.5311 21.8441 67.5311C22.1954 67.5309 22.54 67.4356 22.8414 67.2551C23.1428 67.0746 23.3897 66.8158 23.5557 66.5062L33.4939 47.9907C34.2185 48.0641 34.9464 48.1007 35.6747 48.1004C36.3498 48.1004 37.0161 48.0655 37.6747 48.0033L47.8286 66.5209C48.0083 66.8491 48.279 67.1184 48.6082 67.2964C48.9373 67.4745 49.3109 67.5536 49.684 67.5243C50.4465 67.4631 51.1032 66.9628 51.3615 66.244L54.6992 56.9478L64.451 59.1849C65.1989 59.3655 65.9702 59.0751 66.4316 58.4679C66.895 57.8618 66.9571 57.04 66.5948 56.3688H66.5949ZM22.1975 60.8236L19.7534 54.0141C19.4192 53.0883 18.4499 52.5492 17.4901 52.7775L10.2775 54.4318L18.4985 39.4374C21.2057 43.0947 25.0524 45.8534 29.514 47.196L22.1975 60.8236ZM18.2177 26.7414C18.2177 17.1159 26.0501 9.28457 35.6764 9.28457C45.3019 9.28457 53.1333 17.1159 53.1333 26.7414C53.1333 36.3669 45.3019 44.2001 35.6764 44.2001C26.049 44.2001 18.2177 36.3669 18.2177 26.7414ZM53.8871 52.7774C52.9234 52.5501 51.9579 53.0883 51.6237 54.014L49.1631 60.8729L41.6864 47.2395C46.2665 45.898 50.2065 43.0665 52.9487 39.3023L61.1356 54.4395L53.8871 52.7774Z" fill="#F7A24B"/>
<circle cx="35.6894" cy="26.6408" r="19.6323" fill="#F7A24B"/>
<path opacity="0.5" d="M29.5031 17.7361L29.5033 17.7358C29.8576 17.2996 30.2404 17.2139 31.4461 17.0107C32.8979 16.7728 34.3669 16.6563 35.838 16.6625V16.6625H35.84C37.634 16.6625 39.1097 16.8205 40.2336 17.0104L40.2338 17.0105C41.4397 17.2139 41.823 17.2995 42.1764 17.7354L42.1767 17.7358C42.5285 18.169 42.5345 18.6096 42.4802 19.9585L42.4802 19.9589C42.3887 22.2737 42.0836 24.8176 41.1115 26.7709C40.6292 27.7401 39.9903 28.5479 39.1454 29.1146C38.3038 29.6792 37.229 30.0239 35.84 30.0239C34.451 30.0239 33.3762 29.6792 32.5345 29.1147C31.6897 28.5481 31.0508 27.7404 30.5684 26.7713C29.5964 24.8181 29.2913 22.2742 29.1998 19.9589C29.1465 18.6088 29.1515 18.1681 29.5031 17.7361Z" fill="white" stroke="white" stroke-width="0.943158"/>
<path d="M44.2515 24.8283L42.5294 25.785L42.952 19.9775L43.4233 19.9962C43.4233 19.9962 43.4233 19.9961 43.4233 19.9961C43.4246 19.9631 43.4259 19.9304 43.4271 19.8981L43.8124 20.0264C43.8125 20.0264 43.8125 20.0264 43.8126 20.0264C44.3286 20.1984 44.6778 20.3156 44.9367 20.4361C45.1847 20.5514 45.3051 20.6505 45.3853 20.7619L45.7636 20.4895L45.3853 20.7619C45.4656 20.8734 45.5215 21.0192 45.5525 21.291C45.5849 21.5749 45.5856 21.9432 45.5856 22.4869V22.5615C45.5856 23.0107 45.585 23.3131 45.5615 23.549C45.539 23.7744 45.4983 23.9005 45.4392 24.0011C45.3796 24.1017 45.2885 24.1987 45.1027 24.3276C44.9078 24.4629 44.6438 24.6103 44.2516 24.8283C44.2515 24.8283 44.2515 24.8283 44.2515 24.8283ZM27.8668 20.0264L28.252 19.8981C28.2533 19.9308 28.2546 19.9638 28.256 19.9972L28.2988 21.0738L28.3138 21.0588C28.4218 22.6215 28.6528 24.2812 29.1505 25.7854L27.4277 24.8283C27.4277 24.8283 27.4277 24.8283 27.4277 24.8283C27.0353 24.6102 26.7711 24.4629 26.576 24.3276C26.3895 24.1982 26.299 24.1014 26.2401 24.0012L25.84 24.2365L26.2401 24.0012C26.181 23.9006 26.1403 23.7745 26.1178 23.549C26.0942 23.3131 26.0936 23.0107 26.0936 22.5615V22.4869C26.0936 21.9432 26.0944 21.5749 26.1268 21.291C26.1578 21.0192 26.2136 20.8734 26.2939 20.7619C26.3741 20.6505 26.4945 20.5514 26.7425 20.4361C27.0015 20.3156 27.3507 20.1984 27.8667 20.0264C27.8667 20.0264 27.8668 20.0264 27.8668 20.0264Z" fill="white" stroke="white" stroke-width="0.943158"/>
<path d="M29.4149 36.6259C29.4149 36.5478 29.446 36.4728 29.5013 36.4175C29.5565 36.3623 29.6315 36.3312 29.7097 36.3312H41.9707C42.0489 36.3312 42.1239 36.3623 42.1791 36.4175C42.2344 36.4728 42.2655 36.5478 42.2655 36.6259C42.2655 36.7041 42.2344 36.7791 42.1791 36.8343C42.1239 36.8896 42.0489 36.9207 41.9707 36.9207H29.7097C29.6315 36.9207 29.5565 36.8896 29.5013 36.8343L29.1678 37.1678L29.5013 36.8343C29.446 36.7791 29.4149 36.7041 29.4149 36.6259Z" fill="white" stroke="white" stroke-width="0.943158"/>
<path opacity="0.5" d="M38.0672 33.7218L38.0674 33.7218C38.1947 33.7218 38.318 33.7658 38.4164 33.8465C38.5133 33.9259 38.5802 34.036 38.606 34.1585L38.8147 35.3882H32.866L33.0747 34.1585C33.1005 34.0361 33.1673 33.9261 33.2641 33.8467C33.3624 33.766 33.4855 33.7219 33.6127 33.7218L38.0672 33.7218Z" fill="white" stroke="white" stroke-width="0.943158"/>
<path d="M35.3795 20.5306L35.3794 20.5308L35.2793 20.7106C35.2722 20.7233 35.2651 20.7362 35.2578 20.7494C35.1717 20.9053 35.0699 21.0897 34.902 21.2177M35.3795 20.5306L34.6159 20.8429M35.3795 20.5306C35.5812 20.1681 35.7076 19.9438 35.8148 19.8038C35.824 19.7918 35.8324 19.7814 35.84 19.7722C35.8476 19.7814 35.8559 19.7918 35.8651 19.8038C35.9723 19.9438 36.0987 20.1681 36.3005 20.5306L36.3005 20.5308L36.4006 20.7106C36.4006 20.7106 36.4007 20.7106 36.4007 20.7106C36.4077 20.7233 36.4149 20.7363 36.4221 20.7494C36.5083 20.9054 36.6101 21.0899 36.7782 21.218L36.7782 21.218L36.7804 21.2196C36.9525 21.3492 37.1587 21.3946 37.3281 21.4318C37.3417 21.4348 37.355 21.4377 37.3681 21.4406L37.5605 21.4852L37.5605 21.4852L37.5628 21.4857C37.956 21.5747 38.1958 21.6302 38.3538 21.6924C38.3812 21.7032 38.402 21.7125 38.4176 21.7203C38.4086 21.7389 38.395 21.7639 38.3745 21.7963C38.28 21.9464 38.1152 22.1408 37.848 22.4532L37.848 22.4532L37.7153 22.6083L35.3795 20.5306ZM34.902 21.2177C34.9019 21.2178 34.9018 21.2179 34.9017 21.218L34.6159 20.8429M34.902 21.2177C34.9021 21.2177 34.9023 21.2176 34.9024 21.2175L34.6159 20.8429M34.902 21.2177C34.7299 21.3492 34.5219 21.3947 34.3559 21.4309C34.3409 21.4342 34.3262 21.4374 34.3119 21.4406M34.6159 20.8429C34.53 20.9086 34.4241 20.9323 34.214 20.9793L34.2072 20.9808M34.3119 21.4406L34.3136 21.4402L34.2072 20.9808M34.3119 21.4406L34.1195 21.4852L34.1171 21.4857L34.1171 21.4857C33.724 21.5747 33.4841 21.6302 33.3261 21.6924C33.2987 21.7032 33.2779 21.7125 33.2623 21.7203M34.3119 21.4406C34.3113 21.4408 34.3108 21.4409 34.3102 21.441L34.2072 20.9808M34.2072 20.9808L33.2623 21.7203M33.2623 21.7203C33.2525 21.7 33.2481 21.6873 33.2464 21.6808M33.2623 21.7203L34.0131 21.0258L34.0088 21.0268C33.2576 21.1967 32.8818 21.2818 32.7921 21.5694M33.2623 21.7203C33.2713 21.7389 33.2849 21.7639 33.3054 21.7963C33.3999 21.9464 33.5647 22.1408 33.8319 22.4532L33.832 22.4532L33.9646 22.6083M33.2623 21.7203C33.2418 21.7306 33.2303 21.7381 33.2248 21.7423M33.2464 21.6808C33.2462 21.6773 33.2457 21.6754 33.2455 21.6753C33.2453 21.6752 33.2454 21.6769 33.2464 21.6808ZM33.2464 21.6808C33.2468 21.6866 33.2464 21.6966 33.2424 21.7094L32.7921 21.5694M32.7921 21.5694L33.2422 21.7098C33.237 21.7266 33.2295 21.7371 33.2248 21.7423M32.7921 21.5694C32.7023 21.8581 32.9589 22.158 33.4713 22.757L33.4736 22.7597M33.6064 22.915L33.4736 22.7597M33.6064 22.915L33.607 22.9157C33.7527 23.0859 33.8261 23.1716 33.8588 23.2767L33.4736 22.7597M33.6064 22.915L33.9648 22.6085L33.9646 22.6083M33.6064 22.915L33.9646 22.6083M33.4736 22.7597L33.9646 22.6083M33.9646 22.6083C33.9744 22.6197 33.9843 22.6312 33.9945 22.643C34.1095 22.7763 34.2464 22.9349 34.3091 23.1368L34.3095 23.138C34.3706 23.3367 34.3504 23.5425 34.333 23.7198C34.3314 23.7363 34.3298 23.7525 34.3283 23.7684L34.3281 23.7705L34.3281 23.7705L34.3077 23.9771M33.9646 22.6083L34.3077 23.9771M33.2248 21.7423C33.2215 21.7448 33.2203 21.7461 33.2205 21.7462C33.2208 21.7462 33.2224 21.745 33.2248 21.7423ZM34.3077 23.9771L33.8383 23.9317L34.3077 23.9779L34.3077 23.9774C34.2674 24.3937 34.2431 24.6544 34.251 24.8359C34.2522 24.8637 34.2541 24.8862 34.2562 24.9045C34.268 24.9017 34.2815 24.8981 34.2969 24.8937C34.4594 24.8473 34.6852 24.745 35.0528 24.5753L35.0531 24.5752L35.235 24.4914L35.2363 24.4907C35.2501 24.4844 35.2643 24.4779 35.2788 24.4712C35.4335 24.3996 35.6268 24.3102 35.84 24.3102C36.0532 24.3102 36.2464 24.3996 36.4012 24.4712C36.4157 24.4779 36.4298 24.4844 36.4436 24.4908L36.445 24.4914L36.6267 24.5751C36.6267 24.5751 36.6268 24.5751 36.6268 24.5752C36.9947 24.7444 37.2204 24.8468 37.3833 24.8934C37.3984 24.8978 37.4117 24.9012 37.4234 24.904C37.4255 24.8858 37.4274 24.8633 37.4286 24.8357C37.4366 24.6542 37.4125 24.3934 37.3722 23.9776C37.3722 23.9774 37.3722 23.9772 37.3722 23.9771L37.3518 23.7705L37.3516 23.7684L37.3516 23.7684C37.3501 23.7525 37.3485 23.7362 37.3469 23.7198C37.3295 23.5425 37.3093 23.3367 37.3704 23.138C37.4328 22.9353 37.5698 22.7768 37.6836 22.6451C37.6943 22.6327 37.7049 22.6205 37.7151 22.6085L34.3077 23.9771ZM35.8981 19.7133C35.898 19.7134 35.8968 19.7144 35.8945 19.7157C35.8969 19.7138 35.8981 19.7132 35.8981 19.7133ZM35.7819 19.7133C35.7819 19.7132 35.783 19.7138 35.7855 19.7157C35.7831 19.7144 35.7819 19.7134 35.7819 19.7133ZM38.4335 21.6808C38.4337 21.6773 38.4342 21.6754 38.4344 21.6753C38.4346 21.6752 38.4345 21.6769 38.4335 21.6808ZM38.4594 21.7462C38.4592 21.7462 38.4575 21.745 38.4551 21.7423C38.4584 21.7448 38.4596 21.7461 38.4594 21.7462ZM37.4093 24.972C37.4093 24.9718 37.4098 24.9705 37.411 24.9681C37.41 24.9709 37.4094 24.9721 37.4093 24.972ZM37.4887 24.9148C37.4917 24.9144 37.4933 24.9145 37.4935 24.9146C37.4936 24.9147 37.4921 24.9149 37.4887 24.9148ZM34.2683 24.9677C34.2696 24.9701 34.2701 24.9715 34.27 24.9716C34.27 24.9717 34.2693 24.9706 34.2683 24.9677ZM34.1869 24.9148C34.1871 24.9147 34.1888 24.9146 34.1917 24.915C34.1883 24.9151 34.1868 24.9149 34.1869 24.9148ZM36.1347 30.9624V32.7785H35.5452V30.9624C35.6421 30.9655 35.7401 30.967 35.8391 30.967C35.8394 30.967 35.8397 30.967 35.84 30.967V30.4954L36.1347 30.9624Z" fill="white" stroke="white" stroke-width="0.943158"/>
</g>
<defs>
<clipPath id="clip0_979_4067">
<rect width="62.1688" height="62.1688" fill="white" transform="translate(4.60498 5.37256)"/>
</clipPath>
</defs>
</svg>
