<svg width="18" height="18" viewBox="0 0 18 18" fill="none" xmlns="http://www.w3.org/2000/svg">
<g clip-path="url(#clip0_489_6289)">
<path fill-rule="evenodd" clip-rule="evenodd" d="M15.4544 4.90909V15.2727C15.4544 15.8514 15.2245 16.4063 14.8153 16.8155C14.4062 17.2247 13.8512 17.4545 13.2726 17.4545H11.0907V16.3636H13.2726C13.5619 16.3636 13.8394 16.2487 14.0439 16.0441C14.2485 15.8395 14.3635 15.5621 14.3635 15.2727V4.90909H12.1816C11.7477 4.90909 11.3314 4.73669 11.0246 4.42981C10.7177 4.12293 10.5453 3.70672 10.5453 3.27273V1.09091H4.54528C4.25595 1.09091 3.97847 1.20584 3.77389 1.41043C3.5693 1.61501 3.45437 1.89249 3.45437 2.18182V12H2.36346V2.18182C2.36346 1.60316 2.59333 1.04821 3.0025 0.63904C3.41167 0.22987 3.96662 0 4.54528 0L10.5453 0L15.4544 4.90909ZM2.28491 17.2898V13.6495H3.52419V12.9273H0.181641V13.6495H1.41873V17.2898H2.28491ZM7.40019 12.9273H6.42491L5.5271 14.4971H5.48891L4.58128 12.9273H3.56455L4.90419 15.0905L3.55146 17.2898H4.49182L5.42237 15.7462H5.46055L6.38782 17.2898H7.37728L6.01037 15.1167L7.40019 12.9273ZM9.50564 13.6495V17.2898H8.63946V13.6495H7.40237V12.9273H10.7449V13.6495H9.50455H9.50564Z" fill="#6D6976"/>
</g>
<defs>
<clipPath id="clip0_489_6289">
<rect width="17.4545" height="17.4545" fill="white" transform="translate(0.181641)"/>
</clipPath>
</defs>
</svg>
