<svg width="19" height="20" viewBox="0 0 19 20" fill="none" xmlns="http://www.w3.org/2000/svg">
<path d="M15.4362 3.5886H13.0612V2.40594C13.0612 2.30139 13.0195 2.20111 12.9453 2.12718C12.871 2.05325 12.7703 2.01172 12.6654 2.01172C12.5604 2.01172 12.4597 2.05325 12.3855 2.12718C12.3112 2.20111 12.2695 2.30139 12.2695 2.40594V3.5886H6.72786V2.40594C6.72786 2.30139 6.68616 2.20111 6.61193 2.12718C6.53769 2.05325 6.43701 2.01172 6.33203 2.01172C6.22705 2.01172 6.12637 2.05325 6.05213 2.12718C5.9779 2.20111 5.9362 2.30139 5.9362 2.40594V3.5886H3.5612C3.03648 3.58922 2.53344 3.79709 2.16241 4.16661C1.79138 4.53613 1.58266 5.03712 1.58203 5.5597V15.8094C1.58266 16.332 1.79138 16.833 2.16241 17.2025C2.53344 17.572 3.03648 17.7799 3.5612 17.7805H15.4362C15.961 17.7801 16.4641 17.5723 16.8352 17.2027C17.2063 16.8332 17.4149 16.3321 17.4154 15.8094V5.5597C17.4149 5.03706 17.2063 4.53594 16.8352 4.16638C16.4641 3.79682 15.961 3.58902 15.4362 3.5886ZM16.6237 15.8094C16.6237 16.1231 16.4986 16.4239 16.2759 16.6457C16.0532 16.8675 15.7511 16.9921 15.4362 16.9921H3.5612C3.24625 16.9921 2.94421 16.8675 2.72151 16.6457C2.49881 16.4239 2.3737 16.1231 2.3737 15.8094V9.10768H16.6237V15.8094ZM16.6237 8.31924H2.3737V5.5597C2.3737 4.90687 2.90411 4.37704 3.5612 4.37704H5.9362V5.5597C5.9362 5.66425 5.9779 5.76452 6.05213 5.83845C6.12637 5.91238 6.22705 5.95392 6.33203 5.95392C6.43701 5.95392 6.53769 5.91238 6.61193 5.83845C6.68616 5.76452 6.72786 5.66425 6.72786 5.5597V4.37704H12.2695V5.5597C12.2695 5.66425 12.3112 5.76452 12.3855 5.83845C12.4597 5.91238 12.5604 5.95392 12.6654 5.95392C12.7703 5.95392 12.871 5.91238 12.9453 5.83845C13.0195 5.76452 13.0612 5.66425 13.0612 5.5597V4.37704H15.4362C15.7511 4.37704 16.0532 4.50164 16.2759 4.72343C16.4986 4.94522 16.6237 5.24604 16.6237 5.5597V8.31924Z" fill="#7367F0"/>
</svg>
