<svg width="20" height="20" viewBox="0 0 20 20" fill="none" xmlns="http://www.w3.org/2000/svg">
<path d="M2.83073 16.6667V17.1667H3.33073H8.70573V17.8334H2.16406V16.6667C2.16406 15.4732 2.63817 14.3286 3.48208 13.4847C4.326 12.6408 5.47059 12.1667 6.66406 12.1667H8.66406V12.8334H6.66406C5.6474 12.8334 4.67238 13.2372 3.95349 13.9561C3.2346 14.675 2.83073 15.65 2.83073 16.6667ZM14.6641 15.1379V13.6267H15.3307V14.655V14.8621L15.4772 15.0086L16.302 15.8334L15.8307 16.3046L14.6641 15.1379ZM9.58073 2.83335C8.67457 2.83335 7.80553 3.19332 7.16478 3.83407C6.52403 4.47482 6.16406 5.34386 6.16406 6.25002C6.16406 7.15618 6.52403 8.02522 7.16478 8.66597C7.80553 9.30672 8.67457 9.66669 9.58073 9.66669C10.4869 9.66669 11.3559 9.30672 11.9967 8.66597C12.6374 8.02522 12.9974 7.15618 12.9974 6.25002C12.9974 5.34386 12.6374 4.47482 11.9967 3.83407C11.3559 3.19332 10.4869 2.83335 9.58073 2.83335ZM5.4974 6.25002C5.4974 5.16705 5.9276 4.12844 6.69338 3.36267C7.45915 2.59689 8.49776 2.16669 9.58073 2.16669C10.6637 2.16669 11.7023 2.59689 12.4681 3.36267C13.2339 4.12844 13.6641 5.16705 13.6641 6.25002C13.6641 7.33299 13.2339 8.3716 12.4681 9.13737C11.7023 9.90315 10.6637 10.3334 9.58073 10.3334C8.49776 10.3334 7.45915 9.90315 6.69338 9.13737C5.9276 8.3716 5.4974 7.33299 5.4974 6.25002ZM14.9974 11.5834C14.0912 11.5834 13.2222 11.9433 12.5814 12.5841C11.9407 13.2248 11.5807 14.0939 11.5807 15C11.5807 15.9062 11.9407 16.7752 12.5814 17.416C13.2222 18.0567 14.0912 18.4167 14.9974 18.4167C15.9036 18.4167 16.7726 18.0567 17.4133 17.416C18.0541 16.7752 18.4141 15.9062 18.4141 15C18.4141 14.0939 18.0541 13.2248 17.4133 12.5841C16.7726 11.9433 15.9036 11.5834 14.9974 11.5834ZM10.9141 15C10.9141 14.4638 11.0197 13.9328 11.2249 13.4374C11.4301 12.942 11.7309 12.4918 12.11 12.1127C12.4892 11.7335 12.9394 11.4327 13.4348 11.2275C13.9302 11.0223 14.4612 10.9167 14.9974 10.9167C15.5336 10.9167 16.0646 11.0223 16.56 11.2275C17.0554 11.4327 17.5056 11.7335 17.8847 12.1127C18.2639 12.4918 18.5647 12.942 18.7699 13.4374C18.9751 13.9328 19.0807 14.4638 19.0807 15C19.0807 16.083 18.6505 17.1216 17.8847 17.8874C17.119 18.6531 16.0804 19.0834 14.9974 19.0834C13.9144 19.0834 12.8758 18.6531 12.11 17.8874C11.3443 17.1216 10.9141 16.083 10.9141 15Z" stroke="#7367F0"/>
</svg>
