<svg width="21" height="21" viewBox="0 0 21 21" fill="none" xmlns="http://www.w3.org/2000/svg">
<path d="M19.9828 12.2063C19.9311 12.2451 19.8723 12.2733 19.8097 12.2894C19.747 12.3054 19.6819 12.309 19.6179 12.2998C19.5539 12.2907 19.4923 12.269 19.4367 12.2361C19.3811 12.2032 19.3325 12.1596 19.2937 12.1079C18.883 11.5558 18.3484 11.1078 17.7329 10.8C17.1173 10.4923 16.4382 10.3333 15.75 10.336C15.6195 10.336 15.4943 10.2842 15.402 10.1919C15.3097 10.0996 15.2578 9.97438 15.2578 9.84384C15.2578 9.71331 15.3097 9.58812 15.402 9.49581C15.4943 9.40351 15.6195 9.35166 15.75 9.35166C16.1489 9.35157 16.5398 9.23962 16.8782 9.02853C17.2167 8.81745 17.4891 8.51567 17.6647 8.15749C17.8402 7.79931 17.9118 7.39907 17.8713 7.00225C17.8308 6.60542 17.6798 6.22791 17.4355 5.91259C17.1912 5.59726 16.8634 5.35677 16.4893 5.21842C16.1151 5.08007 15.7097 5.04942 15.319 5.12993C14.9284 5.21044 14.5681 5.3989 14.2792 5.6739C13.9902 5.9489 13.7842 6.29942 13.6845 6.68564C13.6518 6.81204 13.5703 6.92031 13.4579 6.98661C13.3454 7.05291 13.2112 7.07183 13.0848 7.0392C12.9584 7.00656 12.8501 6.92505 12.7838 6.81259C12.7175 6.70014 12.6986 6.56595 12.7312 6.43955C12.855 5.95838 13.0919 5.51375 13.4223 5.14272C13.7527 4.77169 14.167 4.48501 14.6307 4.30658C15.0944 4.12815 15.594 4.06313 16.0879 4.11694C16.5818 4.17075 17.0557 4.34184 17.47 4.61594C17.8844 4.89004 18.2272 5.25921 18.47 5.69269C18.7127 6.12616 18.8484 6.61139 18.8656 7.10791C18.8828 7.60443 18.781 8.09787 18.5688 8.5471C18.3566 8.99633 18.0402 9.38834 17.6457 9.69044C18.6163 10.0526 19.4619 10.6869 20.0813 11.5173C20.12 11.569 20.1482 11.6278 20.1643 11.6904C20.1803 11.7531 20.1839 11.8182 20.1747 11.8822C20.1656 11.9462 20.1439 12.0077 20.111 12.0634C20.0781 12.119 20.0345 12.1676 19.9828 12.2063ZM15.5195 17.4727C15.5519 17.5287 15.5729 17.5905 15.5814 17.6546C15.5899 17.7187 15.5857 17.7838 15.569 17.8463C15.5523 17.9088 15.5235 17.9673 15.4842 18.0187C15.4449 18.07 15.3958 18.113 15.3398 18.1454C15.2652 18.1891 15.1802 18.2121 15.0938 18.2119C15.0073 18.2119 14.9224 18.1892 14.8475 18.146C14.7726 18.1028 14.7104 18.0406 14.6672 17.9658C14.2394 17.2409 13.6299 16.6401 12.899 16.2228C12.168 15.8055 11.3409 15.586 10.4992 15.586C9.65749 15.586 8.83034 15.8055 8.0994 16.2228C7.36846 16.6401 6.759 17.2409 6.33117 17.9658C6.3004 18.0246 6.25805 18.0766 6.20667 18.1186C6.15529 18.1606 6.09594 18.1918 6.03219 18.2103C5.96843 18.2288 5.9016 18.2342 5.8357 18.2262C5.76981 18.2182 5.70621 18.197 5.64874 18.1637C5.59127 18.1305 5.54111 18.086 5.50129 18.0329C5.46146 17.9798 5.43279 17.9192 5.417 17.8547C5.4012 17.7902 5.39862 17.7232 5.40939 17.6577C5.42016 17.5922 5.44408 17.5296 5.47969 17.4736C6.15008 16.3217 7.19973 15.4385 8.44922 14.9749C7.76668 14.5317 7.2457 13.8798 6.96398 13.1163C6.68227 12.3529 6.65491 11.5188 6.88601 10.7385C7.1171 9.95821 7.59426 9.27354 8.24629 8.78661C8.89833 8.29969 9.69032 8.03661 10.5041 8.03661C11.3179 8.03661 12.1099 8.29969 12.7619 8.78661C13.4139 9.27354 13.8911 9.95821 14.1222 10.7385C14.3533 11.5188 14.3259 12.3529 14.0442 13.1163C13.7625 13.8798 13.2415 14.5317 12.559 14.9749C13.805 15.4401 14.8512 16.3228 15.5195 17.4727ZM10.5 14.6017C11.0516 14.6017 11.5909 14.4381 12.0495 14.1316C12.5082 13.8251 12.8657 13.3896 13.0768 12.8799C13.2879 12.3703 13.3431 11.8095 13.2355 11.2685C13.1279 10.7274 12.8622 10.2305 12.4722 9.84043C12.0821 9.45037 11.5851 9.18474 11.0441 9.07712C10.5031 8.96951 9.94231 9.02474 9.43267 9.23584C8.92304 9.44693 8.48745 9.80441 8.18098 10.2631C7.87451 10.7217 7.71094 11.261 7.71094 11.8126C7.71094 12.5523 8.00478 13.2617 8.52783 13.7848C9.05089 14.3078 9.76029 14.6017 10.5 14.6017ZM5.74219 9.84384C5.74219 9.71331 5.69033 9.58812 5.59803 9.49581C5.50573 9.40351 5.38054 9.35166 5.25 9.35166C4.85116 9.35153 4.46034 9.23957 4.12193 9.02849C3.78352 8.81741 3.51108 8.51567 3.33554 8.15754C3.16 7.7994 3.0884 7.39922 3.12887 7.00243C3.16934 6.60565 3.32025 6.22816 3.56448 5.91284C3.80871 5.59751 4.13646 5.35699 4.51052 5.21858C4.88457 5.08017 5.28995 5.04941 5.6806 5.12981C6.07126 5.21021 6.43154 5.39854 6.72054 5.67341C7.00955 5.94828 7.21568 6.29868 7.31555 6.68482C7.33171 6.74741 7.36003 6.8062 7.39891 6.85784C7.43779 6.90948 7.48646 6.95296 7.54215 6.98579C7.59783 7.01862 7.65943 7.04016 7.72344 7.04918C7.78745 7.05821 7.85261 7.05453 7.91519 7.03838C7.97778 7.02222 8.03658 6.99389 8.08822 6.95501C8.13986 6.91613 8.18333 6.86746 8.21616 6.81177C8.24899 6.75609 8.27054 6.69449 8.27956 6.63048C8.28858 6.56647 8.28491 6.50131 8.26875 6.43873C8.14503 5.95756 7.90809 5.51293 7.57769 5.1419C7.24728 4.77087 6.83297 4.48419 6.3693 4.30576C5.90563 4.12733 5.40602 4.06231 4.91212 4.11612C4.41823 4.16993 3.94435 4.34102 3.52998 4.61512C3.11561 4.88922 2.77276 5.25839 2.53001 5.69187C2.28726 6.12534 2.15163 6.61057 2.13444 7.10709C2.11724 7.60361 2.21898 8.09705 2.43117 8.54628C2.64335 8.99551 2.95984 9.38752 3.35426 9.68963C2.3836 10.052 1.538 10.6866 0.91875 11.5173C0.879969 11.569 0.851752 11.6278 0.835711 11.6904C0.81967 11.7531 0.816118 11.8182 0.825259 11.8822C0.8344 11.9462 0.856054 12.0077 0.888985 12.0634C0.921916 12.119 0.96548 12.1676 1.01719 12.2063C1.0689 12.2451 1.12774 12.2733 1.19035 12.2894C1.25296 12.3054 1.31812 12.309 1.38211 12.2998C1.44609 12.2907 1.50765 12.269 1.56327 12.2361C1.61888 12.2032 1.66747 12.1596 1.70625 12.1079C2.11699 11.5558 2.65163 11.1078 3.26715 10.8C3.88266 10.4923 4.56184 10.3333 5.25 10.336C5.38054 10.336 5.50573 10.2842 5.59803 10.1919C5.69033 10.0996 5.74219 9.97438 5.74219 9.84384Z" fill="#7367F0"/>
</svg>
