<svg width="10" height="15" viewBox="0 0 10 15" fill="none" xmlns="http://www.w3.org/2000/svg">
<path d="M3.25012 6.78492C3.53573 6.78486 3.81853 6.72983 4.08237 6.62299C4.3462 6.51614 4.58591 6.35957 4.7878 6.16222C4.98968 5.96486 5.14979 5.73059 5.25898 5.47278C5.36817 5.21497 5.4243 4.93867 5.42417 4.65967C5.4241 4.38068 5.36779 4.10443 5.25843 3.84669C5.14907 3.58896 4.98882 3.35479 4.78682 3.15756C4.58483 2.96033 4.34504 2.80389 4.08115 2.69719C3.81727 2.59048 3.53445 2.53559 3.24885 2.53566C2.96325 2.53572 2.68046 2.59074 2.41662 2.69757C2.15279 2.80439 1.91308 2.96094 1.71117 3.15826C1.50927 3.35559 1.34913 3.58983 1.2399 3.84761C1.13066 4.10539 1.07448 4.38167 1.07454 4.66066C1.07454 4.93971 1.13082 5.21602 1.24017 5.47381C1.34952 5.7316 1.50978 5.96583 1.71182 6.16309C1.91385 6.36036 2.15369 6.51681 2.41764 6.62351C2.68159 6.73021 2.96447 6.78505 3.25012 6.78492ZM4.82792 6.77003C4.37157 7.1007 3.81882 7.27993 3.25063 7.28148C2.68194 7.28015 2.12863 7.10091 1.67181 6.77003C1.29058 7.08037 0.910359 7.52479 0.599272 8.07249C-0.124056 9.34516 -0.203861 10.6506 0.421363 10.9893C0.700935 11.1447 0.993723 11.029 1.29668 10.7435C1.24036 11.0504 1.21212 11.3617 1.2123 11.6735C1.2123 13.1324 1.79177 14.3112 2.50493 14.3112C2.93497 14.3112 3.14795 13.8817 3.25012 13.2247C3.35178 13.8752 3.56527 14.3112 3.99226 14.3112C4.70237 14.3112 5.28591 13.1319 5.28591 11.6735C5.28591 11.3458 5.2544 11.033 5.20102 10.7435C5.50499 11.0285 5.79778 11.1467 6.07786 10.9898C6.70207 10.6521 6.62176 9.34615 5.89843 8.07348C5.58836 7.52479 5.20814 7.08137 4.8269 6.77102L4.82792 6.77003ZM6.9425 1.05319L6.22324 1.75582C6.61466 2.13699 6.92523 2.58987 7.13713 3.08852C7.34904 3.58716 7.45812 4.12175 7.45812 4.66166C7.45812 5.20156 7.34904 5.73615 7.13713 6.2348C6.92523 6.73344 6.61466 7.18633 6.22324 7.56749L6.94148 8.26764C7.42748 7.7946 7.81304 7.23246 8.07604 6.61347C8.33904 5.99448 8.4743 5.33085 8.47404 4.66066C8.47404 3.25343 7.88847 1.97728 6.94199 1.05319H6.9425ZM5.14613 6.51381L5.86386 7.21494C6.53483 6.56098 6.94962 5.65725 6.94962 4.66066C6.94962 3.66408 6.53483 2.76084 5.86488 2.10539L5.14613 2.80802C5.39563 3.05106 5.59359 3.33981 5.72866 3.65772C5.86373 3.97564 5.93325 4.31646 5.93325 4.66066C5.93325 5.00487 5.86373 5.34569 5.72866 5.6636C5.59359 5.98151 5.39563 6.27026 5.14613 6.51331V6.51381ZM8.01911 0L7.30239 0.702128C7.83557 1.22115 8.25854 1.83794 8.54701 2.51709C8.83548 3.19624 8.98378 3.92437 8.98337 4.65967C8.98337 6.20396 8.34036 7.60424 7.30188 8.6187L8.02012 9.32083C8.64818 8.7098 9.14642 7.98354 9.48619 7.18378C9.82597 6.38403 10.0006 5.52656 10 4.66066C10 2.84327 9.24261 1.19471 8.02063 0.000496519L8.01911 0Z" fill="white"/>
</svg>
