<svg width="19" height="19" viewBox="0 0 19 19" fill="none" xmlns="http://www.w3.org/2000/svg">
<path d="M11.8163 3.5625C12.5669 3.5625 13.2868 3.86068 13.8175 4.39145C14.3483 4.92221 14.6465 5.64209 14.6465 6.39271V6.54336L18.0114 4.52477C18.1105 4.46528 18.2236 4.43316 18.3392 4.43168C18.4547 4.4302 18.5686 4.45943 18.6692 4.51636C18.7698 4.5733 18.8535 4.65591 18.9117 4.75576C18.97 4.85561 19.0006 4.96913 19.0006 5.08472V15.101C19.0006 15.2166 18.97 15.3301 18.9117 15.43C18.8535 15.5298 18.7698 15.6125 18.6692 15.6694C18.5686 15.7263 18.4547 15.7555 18.3392 15.7541C18.2236 15.7526 18.1105 15.7205 18.0114 15.661L14.6465 13.6424V13.7948C14.6465 14.5454 14.3483 15.2653 13.8175 15.796C13.2868 16.3268 12.5669 16.625 11.8163 16.625H4.41419C3.66357 16.625 2.9437 16.3268 2.41293 15.796C1.88217 15.2653 1.58398 14.5454 1.58398 13.7948V6.39271C1.58398 5.64209 1.88217 4.92221 2.41293 4.39145C2.9437 3.86068 3.66357 3.5625 4.41419 3.5625H11.8163ZM11.8163 4.86875H4.41419C4.01001 4.86875 3.62239 5.02931 3.33659 5.31511C3.05079 5.6009 2.89023 5.98853 2.89023 6.39271V13.7948C2.89023 14.636 3.57297 15.3187 4.41419 15.3187H11.8163C12.2204 15.3187 12.6081 15.1582 12.8939 14.8724C13.1797 14.5866 13.3402 14.199 13.3402 13.7948V6.39271C13.3402 5.98853 13.1797 5.6009 12.8939 5.31511C12.6081 5.02931 12.2204 4.86875 11.8163 4.86875ZM17.6944 6.23857L14.6465 8.06819V12.1184L17.6944 13.9472V6.23857Z" fill="#6D6976"/>
</svg>
