<svg width="20" height="20" viewBox="0 0 20 20" fill="none" xmlns="http://www.w3.org/2000/svg">
<path d="M10.002 1.6665C9.33891 1.6665 8.70303 1.9299 8.23419 2.39874C7.76534 2.86758 7.50195 3.50346 7.50195 4.1665V9.99984C7.50195 10.6629 7.76534 11.2988 8.23419 11.7676C8.70303 12.2364 9.33891 12.4998 10.002 12.4998C10.665 12.4998 11.3009 12.2364 11.7697 11.7676C12.2386 11.2988 12.502 10.6629 12.502 9.99984V4.1665C12.502 3.50346 12.2386 2.86758 11.7697 2.39874C11.3009 1.9299 10.665 1.6665 10.002 1.6665Z" stroke="#6D6976" stroke-width="1.66667" stroke-linecap="round" stroke-linejoin="round"/>
<path d="M15.8346 8.33325V9.99992C15.8346 11.547 15.2201 13.0307 14.1261 14.1247C13.0321 15.2187 11.5484 15.8333 10.0013 15.8333M10.0013 15.8333C8.45421 15.8333 6.97047 15.2187 5.87651 14.1247C4.78255 13.0307 4.16797 11.547 4.16797 9.99992V8.33325M10.0013 15.8333V18.3333" stroke="#6D6976" stroke-width="1.66667" stroke-linecap="round" stroke-linejoin="round"/>
</svg>
