<svg width="408" height="408" viewBox="0 0 408 408" fill="none" xmlns="http://www.w3.org/2000/svg">
<path d="M362.086 310.231C360.308 303.307 361.322 306.119 360.61 302.55C360.203 300.578 357.075 300.197 356.285 302.306L356.204 302.133C349.285 294.591 341.379 290.851 332.214 287.18C247.026 252.976 112.478 268.464 56.2718 300.061C55.8817 298.725 53.6418 297.794 52.2366 299.764C40.6919 315.887 41.3953 333.331 49.1758 351.222C66.1184 390.179 103.323 375.746 133.051 371.547C155.009 368.773 163.807 376.289 182.325 385.115C194.84 391.11 220.466 395.794 250.205 390.525C262.99 388.254 268.241 386.05 277.575 380.768C283.998 377.162 289.407 374.081 296.623 374.081C309.504 374.081 339.304 389.322 356.701 364.726C369.838 346.234 366.876 328.495 362.086 310.231Z" fill="#C5D3E4"/>
<path d="M353.362 109.871C338.872 96.3026 314.078 99.0884 310.808 77.5705C309.196 64.2101 314.36 39.8974 273.69 28.2849C235.733 17.3905 209.617 27.4787 188.475 30.4775C155.543 34.7281 117.164 10.1428 86.1405 67.2816C73.4533 90.5816 76.5949 99.6278 55.884 114.371C45.1267 122.111 32.4697 137.334 29.4725 166.614C24.4705 215.467 67.734 259.117 49.2165 303.142C49.0549 303.723 49.1373 304.323 49.3732 304.772C49.427 305.968 50.4486 306.943 51.6498 306.943C376.978 306.943 358.769 307.386 359.817 306.054C361.798 306.078 361.217 305.106 365.853 297.663C378.88 276.579 376.067 256.968 372.763 232.703L372.691 232.779C366.927 187.668 376.011 189.489 378.475 170.775C381.408 148.121 369.958 125.429 353.362 109.871Z" fill="#D7EAFF"/>
<path d="M269.628 63.5714C264.221 64.1834 234.433 61.0377 233.714 63.192C232.974 63.471 233.305 64.9064 233.619 76.7482C234.113 94.4227 233.749 93.9274 234.601 93.9356C234.591 93.9356 234.586 93.9413 234.584 93.9503C234.587 93.9503 234.588 93.9511 234.591 93.9511C234.597 93.9543 234.613 94.0343 234.613 94.0367C234.782 94.6283 235.251 94.4904 235.847 94.4195L235.945 94.368C246.346 93.1775 255.688 95.14 266.497 95.2061C267.428 95.2061 268.355 95.1873 269.283 95.1522C269.601 95.1465 269.861 94.9286 269.935 94.6202C269.939 94.5916 269.942 94.5631 269.943 94.5337C269.946 94.5337 269.948 94.5337 269.951 94.5337C269.951 94.5272 269.952 94.5206 269.953 94.5149C271.283 94.5149 269.867 91.2338 270.794 63.9247C270.818 63.3633 270.04 63.0018 269.628 63.5714Z" fill="white"/>
<path d="M274.478 60.858C274.515 59.5214 272.959 58.5063 271.709 59.2415C262.463 59.2243 246.014 57.5369 231.517 58.8098C230.222 58.246 228.842 59.3451 228.928 60.5177C229.797 72.193 229.175 83.7631 229.798 95.7142C229.867 96.9219 230.874 97.7167 231.908 97.5576C236.777 99.3928 243.858 98.1533 249.25 98.3605C250.063 98.3915 250.87 98.4813 251.682 98.5392C257.046 98.8803 258.644 98.5123 271.626 98.3891C272.197 98.3858 272.749 98.1084 273.106 97.6465C276.022 97.1716 273.572 96.0578 274.478 60.858ZM269.953 94.5163C269.872 95.3323 269.102 95.2083 266.498 95.2083C255.762 95.1422 246.267 93.1781 235.945 94.3703L235.847 94.4192C235.267 94.4943 234.781 94.6281 234.616 94.039C234.616 94.0349 234.597 93.9541 234.593 93.9533C233.716 93.8562 234.063 94.4772 233.61 76.3897C233.289 63.6103 233.091 63.4251 233.716 63.1942C234.442 61.0848 264.337 64.1677 269.63 63.5704C270.04 63.0016 270.82 63.3615 270.797 63.9253C269.864 91.0647 271.288 94.5163 269.953 94.5163Z" fill="#A1B0C1"/>
<path d="M271.217 75.8034C271.097 75.7765 270.984 75.743 270.87 75.7014C269.125 74.9042 267.894 72.1208 266.188 72.2383C266.215 70.5117 266.23 68.785 266.215 67.0575C266.206 66.2358 264.983 66.2644 264.991 67.0575C265.008 69.0127 264.991 70.9678 264.955 72.9221C264.408 73.5537 264.044 74.4921 263.78 75.2885C261.911 74.377 260.504 75.1302 259.643 77.0135C259.194 76.7149 258.692 77.0927 258.708 77.517C258.724 77.9887 258.737 78.4603 258.746 78.932C258.749 79.0642 258.802 79.1825 258.875 79.2837C258.759 79.7382 258.65 80.1943 258.545 80.6513C256.676 80.3697 255.848 81.176 255.032 81.7243C255.335 66.3027 255.43 66.5451 254.614 66.5451C253.715 66.5451 254.114 66.3362 253.801 82.1095C249.406 81.8483 248.13 72.4284 244.043 81.1605C243.981 81.1458 243.921 81.1229 243.859 81.1066C243.797 76.7002 243.771 72.293 243.878 67.8874C243.9 67.1155 242.678 67.0453 242.654 67.8874C242.551 72.1534 242.571 76.4211 242.629 80.688C241.386 80.1878 239.931 79.3563 238.477 79.4354C238.509 77.8965 238.696 76.8822 237.88 76.8822C237.552 76.8822 237.264 77.1596 237.268 77.4942C237.282 78.2449 237.271 78.9964 237.251 79.7471C236.274 80.2114 234.436 82.0866 235.429 82.6709C236.057 83.0405 236.301 82.3241 236.725 81.7545C237.508 80.7818 238.142 80.5795 239.037 80.67C239.665 80.772 240.261 80.9997 240.845 81.2461C240.642 81.1507 241.93 81.7325 242.65 82.0009C242.806 92.3225 242.607 92.5322 243.424 92.5322C244.272 92.5322 244.035 92.3788 243.88 82.3608C245.425 82.6929 244.499 82.0213 246.452 79.384C247.154 78.5052 247.42 78.5289 248.084 79.2094C247.992 79.6925 247.969 80.8667 247.975 81.3628C247.983 82.1837 249.207 82.156 249.199 81.3628C249.195 81.0829 249.203 80.8047 249.211 80.5272C250.378 81.9226 251.935 83.2388 253.778 83.3359C253.634 90.3902 253.408 90.7884 254.245 90.7884C255.061 90.7884 254.858 90.3968 255.006 83.1229C256.372 82.5419 256.701 81.4126 258.844 81.9561C259.16 82.0295 259.52 81.8606 259.597 81.5293C260.509 77.6827 261.041 74.9189 263.833 76.7255C264.167 76.9483 264.623 76.7222 264.732 76.3591C264.782 76.1869 264.837 76.0164 264.892 75.845C264.767 80.8577 264.585 85.8696 264.647 90.8855C264.663 91.717 265.886 91.6689 265.871 90.8855C265.798 85.0773 266.054 79.2747 266.169 73.4697C266.729 73.2958 268.168 75.0576 268.583 75.4795C269.466 76.3803 271.329 77.699 271.646 76.5533C271.731 76.2465 271.543 75.8736 271.217 75.8034Z" fill="#E2D5C4"/>
<path d="M238.462 69.9451C238.196 65.923 238.405 65.1323 237.589 65.1323C236.744 65.1323 236.97 65.8708 237.238 69.9451C237.296 70.8084 238.513 70.7032 238.462 69.9451Z" fill="#E2D5C4"/>
<path d="M237.454 74.2357C237.462 75.055 238.686 75.0313 238.678 74.2357C238.671 72.7898 238.864 71.8008 238.048 71.8008C237.231 71.8008 237.446 72.7384 237.454 74.2357Z" fill="#E2D5C4"/>
<path d="M238.474 87.5797C238.509 85.9763 238.499 84.3761 238.442 82.7726C238.432 82.4413 238.174 82.1606 237.83 82.1606C236.916 82.1606 237.352 82.8632 237.25 87.5797C237.228 88.3508 238.449 88.4218 238.474 87.5797Z" fill="#E2D5C4"/>
<path d="M237.319 89.9737C237.273 91.1365 237.104 92.256 237.921 92.256C238.74 92.256 238.486 91.3952 238.543 89.9737C238.573 89.2058 237.352 89.1259 237.319 89.9737Z" fill="#E2D5C4"/>
<path d="M249.475 70.9504C249.526 69.835 249.542 68.7162 249.526 67.5975C249.518 66.7766 248.295 66.8043 248.302 67.5975C248.319 68.7162 248.302 69.835 248.251 70.9504C248.214 71.7159 249.434 71.8015 249.475 70.9504Z" fill="#E2D5C4"/>
<path d="M249.102 76.4788C249.36 76.2274 249.429 74.3098 249.453 73.9475C249.497 73.1805 248.278 73.0907 248.229 73.9475C248.184 74.6485 248.13 75.347 248.06 76.0447C248.01 76.5375 248.704 76.8892 249.102 76.4788Z" fill="#E2D5C4"/>
<path d="M249.334 85.1824C249.421 84.4871 248.215 84.2513 248.11 85.1824C248.008 86.0424 247.833 87.0118 248.633 87.0118C249.399 87.0118 249.22 86.1469 249.334 85.1824Z" fill="#E2D5C4"/>
<path d="M248.304 89.316C248.321 89.9884 248.291 90.6608 248.221 91.3308C248.148 92.0317 249.341 92.2561 249.445 91.3308C249.515 90.6616 249.544 89.9884 249.528 89.316C249.504 88.4747 248.282 88.5425 248.304 89.316Z" fill="#E2D5C4"/>
<path d="M260.005 69.3366C260.03 67.7454 260.254 66.8633 259.438 66.8633C258.622 66.8633 258.803 67.9322 258.781 69.3366C258.773 70.1273 259.997 70.1591 260.005 69.3366Z" fill="#E2D5C4"/>
<path d="M258.801 73.3341C258.785 74.0571 258.671 74.8192 259.397 74.8192C260.118 74.8192 260.009 74.0522 260.025 73.3341C260.04 72.554 258.817 72.4985 258.801 73.3341Z" fill="#E2D5C4"/>
<path d="M258.659 82.6275C258.646 82.9817 258.624 83.3317 258.589 83.6859C258.539 84.1632 259.222 84.537 259.631 84.1159C259.874 83.8793 259.87 82.9858 259.883 82.6275C259.905 81.8597 258.684 81.7822 258.659 82.6275Z" fill="#E2D5C4"/>
<path d="M258.559 85.4247C258.587 86.4904 258.365 87.4582 259.181 87.4582C259.988 87.4582 259.81 86.4235 259.783 85.4247C259.758 84.5801 258.536 84.6552 258.559 85.4247Z" fill="#E2D5C4"/>
<path d="M258.508 89.0495C258.546 89.7129 258.561 90.3755 258.561 91.0389C258.561 91.8443 259.785 91.8476 259.785 91.0389C259.785 90.3755 259.769 89.7129 259.732 89.0495C259.691 88.196 258.472 88.2866 258.508 89.0495Z" fill="#E2D5C4"/>
<path d="M253.302 54.0166C253.371 53.74 253.173 53.5156 252.917 53.5156C252.847 53.5156 252.67 53.5499 252.583 53.5638C251.557 53.6813 250.519 53.5907 249.497 53.727C249.05 53.789 248.985 54.2019 249.206 54.4238C249.086 54.7127 249.298 60.4859 249.683 60.6458C249.735 60.7331 249.818 60.7935 249.914 60.8123C250.818 60.9812 253.178 61.306 252.884 60.4222C252.949 60.3398 253.306 54.0256 253.302 54.0166Z" fill="#E2D5C4"/>
<path d="M142.24 242.446C138.818 274.516 132.323 335.501 132.537 333.456C132.451 334.272 133.257 335.292 134.373 335.292C135.59 335.292 136.207 334.242 136.212 333.426C146.624 235.769 146.285 242.062 145.373 241.149C144.395 240.172 142.452 240.477 142.24 242.446Z" fill="#49362E"/>
<path d="M160.24 241.919C160.24 252.924 160.24 307.039 160.24 315.557C160.24 316.558 161.075 317.393 162.076 317.393C163.076 317.393 163.912 316.558 163.912 315.557C163.912 288.431 163.912 269.251 163.912 241.919C163.912 239.499 160.24 239.496 160.24 241.919Z" fill="#49362E"/>
<path d="M181.293 243.823C181.293 251.255 181.293 298.899 181.293 306.388C181.293 308.808 184.965 308.811 184.965 306.388C184.965 299.128 184.965 249.756 184.965 243.823C184.965 241.403 181.293 241.4 181.293 243.823Z" fill="#49362E"/>
<path d="M217.072 287.981C215.822 286.72 213.803 287.886 213.938 289.279C215.074 301.113 218.299 334.662 218.299 334.662C218.565 337.462 222.167 336.701 221.971 334.662C217.271 285.736 217.784 288.693 217.072 287.981Z" fill="#49362E"/>
<path d="M191.761 315.208C192.488 311.147 187.666 308.548 183.413 308.772C183.628 308.516 185.003 306.925 185.003 306.59C185.003 305.99 184.234 305.77 183.943 306.152C179.789 311.474 175.129 316.477 171.189 321.981C170.763 322.199 170.918 322.611 170.643 324.72L170.678 324.559C170.546 325.376 170.179 327.817 170.034 329.071C169.8 329.257 169.738 329.593 169.892 329.863C171.024 331.86 171.938 333.995 173.002 336.027C173.091 336.198 173.271 336.31 173.484 336.328C175.062 337.263 181.398 337.771 182.664 337.875C183.02 337.875 183.278 337.569 183.285 337.264C184.539 337.112 182.694 332.248 182.584 325.709C186.258 322.042 189.59 318.749 193.145 315.643C193.397 315.42 193.373 314.992 193.145 314.764C192.671 314.29 192.248 314.779 191.761 315.208Z" fill="#FFC9A9"/>
<path d="M254.717 340.867C254.418 340.284 250.245 338.098 248.995 337.392C248.521 336.06 246.867 331.019 246.175 328.09C246.459 327.626 246.011 326.473 245.745 326C245.712 325.805 245.594 325.062 245.578 324.978L245.57 324.979C245.74 323.882 244.388 323.802 244.311 324.614C244.191 324.494 243.349 324.18 242.388 324.18C239.519 324.18 235.868 326.457 234.501 328.496C234.321 327.927 234.126 327.353 233.935 326.783C233.83 326.474 233.541 326.264 233.173 326.35C232.179 326.616 232.563 326.53 239.915 347.762C239.975 347.943 240.104 348.09 240.267 348.165C240.315 349.012 240.974 348.552 244.503 349.001H244.507L244.605 349.005L244.606 348.997C246.061 349.217 251.359 350.195 251.359 350.195C251.469 350.195 251.568 350.169 251.66 350.115C251.798 350.035 251.902 349.899 251.944 349.744C251.985 349.601 251.964 349.43 251.889 349.286C252.457 348.925 254.487 345.382 255.013 341.574C255.06 341.268 254.993 341.023 254.717 340.867Z" fill="#FFC9A9"/>
<path d="M181.966 325.557C182.212 325.783 182.591 325.799 182.834 325.557C183.65 324.741 181.986 323.941 174.638 318.012C173.924 317.421 173.212 318.423 173.771 318.876C176.516 321.092 179.378 323.157 181.966 325.557Z" fill="#49362E"/>
<path d="M184.471 337.395C184.453 336.226 177.489 335.646 172.804 334.472C172.239 333.513 171.392 331.95 170.846 330.9C171 330.845 171.119 330.703 171.162 330.533C171.407 329.49 172.989 321.321 172.746 320.812C172.688 320.485 172.395 320.285 172.105 320.285C171.746 320.285 167.261 323.982 166.936 324.216C166.596 324.459 166.555 324.802 166.711 325.071C166.768 325.17 166.86 325.254 166.975 325.314C168.89 330.538 171.894 335.452 174.741 340.244C174.311 341.713 182.805 342.498 188.553 344.372C188.599 344.389 188.654 344.398 188.721 344.398C188.993 344.398 189.254 344.198 189.328 343.933C189.374 343.756 189.344 343.577 189.244 343.429C189.331 342.836 184.905 337.826 184.471 337.395Z" fill="#49362E"/>
<path d="M237.937 341.513C241.433 340.426 244.981 339.48 248.334 337.991C248.851 337.763 248.683 336.852 248.041 336.852C247.854 336.852 247.215 337.156 247.024 337.236C247.073 337.214 247.12 337.194 247.171 337.172C239.966 340.179 236.834 339.792 237.185 341.083C237.27 341.398 237.618 341.612 237.937 341.513Z" fill="#49362E"/>
<path d="M268.027 349.47C268.028 349.263 267.914 349.063 267.725 348.941C263.315 346.069 258.723 343.232 254.414 340.125C254.037 339.719 253.45 339.921 253.337 340.362C253 341.699 252.525 343.088 251.884 344.607L251.962 344.467C251.217 346.167 249.856 348.899 249.856 348.899C248.179 348.8 246.702 348.678 245.352 348.52C245.828 347.337 240.378 344.067 238.896 342.558C238.839 342.502 238.774 342.457 238.702 342.426C238.229 341.963 237.495 342.437 237.651 343.035C238.139 344.819 238.963 346.554 239.526 348.171C239.594 348.36 239.728 348.51 239.894 348.584C240.689 350.465 262.769 350.281 267.742 350.647C268.379 350.646 268.627 349.775 268.027 349.47Z" fill="#49362E"/>
<path d="M241.687 275.005L236.111 251.671C236.106 251.659 236.101 251.645 236.096 251.631L236.101 251.625C236.305 251.383 236.258 250.935 235.944 250.77C233.172 249.452 227.848 245.695 226.875 245.695C226.267 245.695 226.094 246.523 226.591 246.772C229.241 247.968 231.035 249.425 234.948 251.609L235.106 251.697C234.707 252.424 239.228 269.455 240.018 272.731C240.11 273.091 240.08 272.973 240.158 273.279C240.357 274.103 240.387 274.204 240.534 275.058C240.639 275.592 240.623 276.036 241.185 276.036C241.411 276.036 241.585 275.924 241.692 275.756C241.813 275.523 241.736 275.283 241.687 275.005Z" fill="#6C7548"/>
<path d="M214.858 265.018C214.876 265.029 214.891 265.044 214.907 265.057C214.893 265.046 214.881 265.03 214.868 265.021C214.865 265.021 214.862 265.018 214.858 265.018Z" fill="#6C7548"/>
<path d="M215.126 265.362C215.115 265.268 215.04 265.179 214.959 265.104C215.439 265.606 214.841 266.134 214.393 266.669C214.503 266.944 214.421 267.096 214.291 267.285C216.047 277.152 219.049 285.491 219.486 295.663C219.51 296.462 220.665 296.381 220.633 295.663C220.269 285.132 216.563 274.702 215.126 265.362Z" fill="#6C7548"/>
<path d="M214.959 265.104C214.955 265.1 214.954 265.095 214.95 265.091C214.915 265.056 214.874 265.025 214.959 265.104Z" fill="#6C7548"/>
<path d="M251.223 307.767C249.459 302.005 247.94 296.968 246.579 292.368C244.889 286.639 243.444 281.598 242.161 276.956C243.22 275.873 251.397 266.797 253.923 260.224C254.61 258.459 254.87 256.934 254.717 255.56C254.821 255.444 254.876 255.268 254.864 255.095C254.826 254.551 248.276 249.334 247.851 248.991C245.597 247.176 245.14 246.476 244.549 246.883C236.477 241.671 205.45 234.647 170.148 244.249L170.289 244.353C175.049 247.317 168.833 243.829 188.481 254.034C194.115 255.998 198.614 259.133 203.351 261.336C203.821 261.495 209.367 263.349 209.402 263.845C211.197 264.642 212.802 265.059 213.062 265.594L213.381 265.757C210.679 268.281 208.443 271.398 206.009 274.23C196.197 283.283 188.177 294.719 176.583 304.583C176.458 304.695 176.389 304.854 176.389 305.03C176.357 305.089 176.338 305.177 176.338 305.272C176.338 305.427 176.406 305.639 176.535 305.744C180.975 309.2 197.156 323.366 197.893 323.366C197.964 323.366 198.024 323.357 198.084 323.337C198.181 323.314 198.289 323.251 198.387 323.16C198.775 322.977 206.052 313.83 206.319 313.494C210.89 307.758 214.748 302.825 219.97 297.177C220.348 299.235 227.086 329.728 227.391 330.145C227.376 330.157 227.382 330.207 227.406 330.264C227.636 331.139 228.257 330.526 232.071 330.004C236.977 329.159 246.298 329.602 252.819 325.745C254.072 325.021 255.412 323.922 255.412 323.922C255.589 323.873 255.735 323.762 255.824 323.609C256.127 323.112 255.9 323.034 251.223 307.767ZM214.899 265.05C214.886 265.039 214.873 265.027 214.859 265.018C214.884 265.031 214.877 265.035 214.899 265.05ZM219.485 295.663C219.066 285.571 216.02 277.008 214.29 267.283C214.426 267.099 214.5 266.938 214.394 266.67C214.842 266.131 215.445 265.597 214.957 265.102C215.118 265.248 215.12 265.309 215.141 265.446C216.815 275.66 220.272 285.33 220.636 295.663C220.666 296.38 219.516 296.472 219.485 295.663ZM240.892 275.963C240.614 275.793 240.625 275.562 240.568 275.236C240.478 274.777 240.464 274.631 240.354 274.111C240.299 273.872 240.213 273.507 240.096 273.033C239.483 270.632 234.71 252.41 235.107 251.699C231.026 249.431 229.271 247.982 226.593 246.772C226.126 246.545 226.241 245.694 226.876 245.694C227.532 245.694 231.326 248.089 231.879 248.441C233.114 249.215 234.515 250.091 235.944 250.772C236.223 250.914 236.329 251.343 236.098 251.632C236.138 251.744 236.157 251.791 236.16 251.832C237.526 258.735 241.31 272.821 241.741 275.3C241.856 275.932 241.298 276.18 240.892 275.963Z" fill="#889555"/>
<path d="M81.8067 245.695H73.0298V350.196H81.8067V245.695Z" fill="#8D96A0"/>
<path d="M101.312 212.768H92.5352V317.268H101.312V212.768Z" fill="#8D96A0"/>
<path d="M314.543 211.435H305.766V315.935H314.543V211.435Z" fill="#8D96A0"/>
<path d="M336.268 245.695H327.491V350.196H336.268V245.695Z" fill="#8D96A0"/>
<path d="M339.189 236.861L339.11 236.669C339.141 236.56 339.087 236.416 338.972 236.297C319.496 188.188 320.484 188.413 319.536 189.077C318.72 189.051 84.7787 188.414 89.6682 190.019C81.0643 209.687 87.2406 195.495 69.7031 236.226C69.2788 236.212 69.0797 236.713 69.4053 237.038C69.1311 237.382 68.9785 237.898 69.3759 238.085C69.4567 238.162 69.5954 238.197 69.7513 238.135C70.0581 238.077 70.2523 237.418 70.3845 237.112L70.4881 237.168C181.335 237.181 124.484 237.179 338.312 237.179L338.297 237.278C338.376 237.534 338.617 237.66 338.78 237.66C338.906 237.66 339.119 237.558 339.202 237.394C339.345 237.199 339.262 237.063 339.189 236.861Z" fill="#9CA6B3"/>
<path d="M339.281 237.133H69.3774V247.316H339.281V237.133Z" fill="#AEB7C1"/>
<path d="M169.061 204.773C167.925 207.434 166.938 210.153 165.822 212.82C164.153 216.756 163.522 217.098 164.235 217.519C165.39 218.196 165.893 215.408 170.065 205.515C170.043 205.563 170.024 205.611 170.002 205.662C170.04 205.57 170.078 205.48 170.117 205.391C170.496 204.485 169.318 204.157 169.061 204.773Z" fill="#9A7567"/>
<path d="M170.253 221.407C170.237 221.409 170.219 221.411 170.203 221.414C170.251 221.407 170.253 221.407 170.253 221.407Z" fill="white"/>
<path d="M172.477 220.833C172.472 220.836 172.466 220.837 172.461 220.84C172.468 220.837 172.477 220.833 172.477 220.833Z" fill="white"/>
<path d="M169.565 216.187C169.585 214.216 169.576 213.829 169.598 212.82C169.599 212.713 169.557 212.61 169.478 212.531C169.398 212.45 169.291 212.404 169.181 212.404C169.075 212.404 168.977 212.443 168.901 212.514C166.528 212.427 151.402 211.993 149.642 212.621C149.327 212.615 149.16 212.841 149.184 213.035C149.714 217.909 149.698 225.522 154.812 228.787C156.318 230.003 158.335 230.575 159.208 230.55C160.626 230.477 161.658 230.438 163.544 229.484C166.349 228.742 168.205 225.511 168.911 222.709C177.723 222.783 176.933 215.076 169.565 216.187ZM173.401 220.315C172.926 220.659 172.312 220.905 172.46 220.84C171.712 221.135 170.928 221.314 170.131 221.424C170.29 221.395 169.903 221.466 169.174 221.484C169.441 219.968 169.5 218.663 169.536 217.438C171.024 217.164 173.304 217.198 173.939 218.568C173.988 218.703 174.024 218.839 174.05 218.979C174.086 219.479 173.984 219.835 173.401 220.315Z" fill="white"/>
<path d="M313.64 218.313C313.634 218.316 313.628 218.318 313.623 218.321L313.64 218.313Z" fill="#956E5E"/>
<path d="M313.622 218.32C312.819 218.649 312.285 218.718 311.7 218.741C311.736 218.234 311.341 217.888 310.894 217.872C309.929 217.838 308.965 217.759 308 217.759C307.874 216.024 307.687 214.29 307.373 212.579C307.338 212.388 307.215 212.219 307.028 212.105C306.025 210.852 292.275 211.304 291.45 211.326C266.402 211.985 259.289 210.294 252.482 211.501C251.965 211.31 251.411 211.677 251.385 212.274C250.586 229.309 250.514 229.807 251.33 230.173C251.848 230.982 252.091 230.335 265.424 230.335C300.131 230.335 310.172 232.162 308.501 229.463C308.273 226.119 308.281 222.813 308.103 219.391C310.777 219.406 311.149 219.714 311.546 219.151C315.906 219.07 317.981 214.63 321.381 211.952C321.378 211.954 321.375 211.956 321.372 211.958C321.4 211.937 321.429 211.913 321.403 211.935C322.002 211.478 322.637 211.078 323.328 210.778C323.324 210.781 323.32 210.782 323.316 210.785C324.289 210.374 325.092 210.303 325.046 210.307C325.058 210.305 325.085 210.302 325.074 210.303C326.713 210.112 328.317 210.422 329.685 211.433C329.681 211.43 329.679 211.428 329.676 211.425C329.702 211.446 329.734 211.469 329.708 211.451C331.92 213.182 332.716 216.235 332.064 219.005C331.991 219.278 332.396 219.367 332.456 219.114C332.548 218.725 332.612 218.333 332.653 217.935C332.779 216.773 332.639 215.434 332.159 214.161C331.852 213.332 331.433 212.672 330.964 212.095C329.835 210.724 328.092 209.843 325.957 209.843C324.123 209.843 322.583 210.497 321.127 211.639C318.394 213.772 316.55 217.036 313.64 218.312L313.643 218.311" fill="#956E5E"/>
<path d="M329.684 211.434C329.691 211.441 329.7 211.447 329.708 211.452C329.703 211.448 329.688 211.438 329.684 211.434Z" fill="#956E5E"/>
<path d="M325.062 210.307C325.066 210.307 325.069 210.306 325.073 210.305C325.073 210.305 325.064 210.307 325.062 210.307Z" fill="#956E5E"/>
<path d="M321.381 211.954C321.389 211.948 321.397 211.942 321.404 211.936C321.404 211.936 321.383 211.952 321.381 211.954Z" fill="#956E5E"/>
<path d="M305.508 228.031C305.579 227.94 305.61 227.826 305.601 227.712C305.283 223.373 305.444 218.973 305.234 214.637C305.224 214.415 305.111 214.216 304.931 214.105C304.426 212.544 288.124 213.834 270.831 213.311C269.501 213.27 254.106 212.676 253.867 214.008C253.74 214.127 253.674 214.286 253.688 214.441C254.073 218.66 253.449 222.921 253.484 227.139C253.484 227.276 253.533 227.414 253.623 227.527C253.512 227.844 253.767 228.27 254.222 228.292C255.04 228.331 300.993 229.245 305.146 229.152C305.488 229.146 305.766 228.868 305.766 228.532C305.766 228.34 305.668 228.148 305.508 228.031Z" fill="#49362E"/>
<path d="M340.692 136.225L340.632 136.408C337.321 135.159 319.177 129.799 302.73 125.555C281.9 120.274 282.916 119.719 282.346 120.748C282.251 120.837 282.184 120.945 282.149 121.07C279.312 131.311 270.516 150.698 265.8 168.038C265.436 168.515 265.732 169.217 266.198 169.319C273.819 170.931 281.135 173.536 288.418 176.128C288.44 183.722 288.66 191.71 288.66 200.404C285.702 200.407 282.795 200.432 279.882 200.474C279.574 200.478 279.376 200.79 279.474 201.044C279.487 202.89 279.534 204.446 279.723 206.039C279.681 206.093 279.659 206.17 279.659 206.256C279.659 206.489 279.853 206.693 280.077 206.693C299.276 205.681 306.349 207.235 305.152 205.708C305.172 205.692 305.041 201.172 305.041 201.146C305.432 201.013 305.325 200.343 304.846 200.343C302.408 200.343 300.071 200.343 297.812 200.35C297.065 193.362 296.997 186.184 297.114 179.188C307.955 183.049 321.935 186.449 322.821 186.449C323.186 186.449 323.591 186.131 323.624 185.661C323.631 185.588 323.624 185.502 323.602 185.406C324.262 185.335 324.217 185.004 327.274 177.571C327.679 176.587 336.601 154.514 342.178 137.051C341.62 136.727 341.265 136.574 340.692 136.225Z" fill="#49362E"/>
<path d="M336.375 139.32C335.905 138.103 328.127 136.35 321.674 134.3C316.025 132.484 311.33 131.047 307.324 129.907C294.764 126.322 286.188 125.036 285.372 125.036C284.596 125.036 284.449 125.994 284.201 126.744C273.835 157.136 274.606 155.457 273.115 159.333C272.458 161.094 270.846 164.899 271.475 165.677C271.353 166.039 271.603 166.471 272.03 166.633C281.667 170.425 291.627 173.042 301.314 176.005C309.062 178.389 320.09 182.533 320.09 182.533C321.679 184.096 321.927 178.768 331.165 155.574C331.263 155.326 331.252 155.355 331.289 155.254C337.484 139.603 337.409 139.697 336.375 139.32Z" fill="white"/>
<path d="M300.277 132.597L287.369 128.422L282.475 143.555L295.383 147.729L300.277 132.597Z" fill="#E2D5C4"/>
<path d="M312.023 140.033L303.87 137.396L302.238 142.443L310.391 145.08L312.023 140.033Z" fill="#E2D5C4"/>
<path d="M309.106 149.056L300.954 146.42L300.42 148.07L308.573 150.706L309.106 149.056Z" fill="#E2D5C4"/>
<path d="M323.007 160.282L298.979 152.512L297.346 157.558L321.375 165.329L323.007 160.282Z" fill="#E2D5C4"/>
<path d="M320.088 169.308L296.06 161.538L295.526 163.187L319.555 170.958L320.088 169.308Z" fill="#E2D5C4"/>
<path d="M229.116 217.751C228.941 217.547 227.471 217.138 227.214 217.059C227.084 216.843 226.677 216.772 226.424 216.772C216.982 215.46 216.248 214.311 215.71 215.312C215.535 215.4 215.467 215.497 215.388 215.692C214.613 217.63 210.782 225.911 208.523 229.191C208.413 229.349 208.401 229.561 208.494 229.76C208.423 230.13 208.64 230.461 209.1 230.504C211.494 230.754 223.127 233.048 223.347 233.048C223.584 233.048 223.776 232.912 223.872 232.724C224.688 232.497 228.051 224.196 229.632 218.529C229.732 218.168 229.472 217.79 229.116 217.751Z" fill="#E0D2C0"/>
<path d="M240.042 214.677C235.209 214.011 230.663 212.282 225.64 211.815C225.55 211.815 225.505 211.804 225.394 211.857C225.336 211.835 225.281 211.828 225.222 211.828C224.916 211.828 224.734 212.01 224.621 212.282C224.5 212.576 224.496 212.586 224.496 212.586L224.465 212.68L224.472 212.683C222.466 217.318 219.85 221.696 217.688 226.132C217.633 226.247 217.607 226.365 217.614 226.484C217.587 226.523 217.564 226.575 217.547 226.631C217.451 227.001 217.706 227.349 217.98 227.396C223.056 228.18 231.994 230.951 232.83 230.446C233.087 230.578 233.486 230.482 233.621 230.197C235.846 225.499 237.695 220.53 240.336 216.023C240.411 215.896 240.435 215.748 240.407 215.594C240.643 215.236 240.388 214.722 240.042 214.677Z" fill="white"/>
<path d="M115.068 168.027C117.213 165.446 123.461 156.247 124.781 153.038C125.187 152.084 126.358 148.724 125.293 148.724C124.477 148.724 119.004 155.029 115.666 160.413C117.127 156.99 119.893 148.011 118.557 140.233C118.509 140.028 118.284 139.885 118.119 139.885C117.303 139.885 110.886 150.43 111.117 168.345C111.124 168.566 111.298 168.76 111.523 168.796C111.281 169.248 111.094 169.863 110.936 170.351C109.901 162.178 107.095 154.336 104.446 146.648C104.282 146.13 103.569 146.258 103.563 146.772C103.55 156.251 106.04 163.748 110.063 172.254C110.158 172.482 110.484 172.591 110.774 172.346C110.797 172.475 111.111 172.552 111.344 172.342C111.717 171.985 112.081 171.622 112.438 171.249C111.491 172.378 110.732 173.577 110.107 174.906C107.86 167.242 103.717 158.313 98.2057 152.492C97.996 152.297 97.743 152.328 97.5537 152.505C97.4713 152.597 97.4297 152.701 97.4297 152.813C97.8924 164.191 109.005 176.53 110.034 175.606C110.141 175.727 110.334 175.808 110.503 175.735C113.653 174.688 116.163 172.584 118.589 170.376C119.17 169.859 120.175 168.947 120.762 168.416C123.05 166.32 125.259 164.152 126.753 161.956C127.27 161.215 127.787 160.299 128.057 159.436C129.052 157.005 119.792 163.153 115.068 168.027Z" fill="#7F8E49"/>
<path d="M126.899 167.079C121.128 170.185 113.236 174.374 108.996 179.288C106.966 174.541 99.8957 164.898 94.0384 163.371C93.903 163.33 93.7439 163.367 93.6231 163.478C93.5293 163.571 93.4599 163.749 93.5154 163.895C96.8985 172.721 108.48 181.294 109.101 180.241C114.607 179.044 126.295 173.11 127.519 167.556C127.555 167.398 127.516 167.247 127.411 167.144C127.291 167.018 127.09 166.975 126.899 167.079Z" fill="#7F8E49"/>
<path d="M91.9089 178.333C92.7388 179.305 100.226 170.813 101.218 163.141C101.276 162.67 101.45 160.716 101.038 160.478C100.881 160.388 100.701 160.393 100.525 160.542C96.6498 163.657 92.569 172.034 91.9415 177.039C88.6963 174.299 79.6371 170.753 74.9589 171.416C73.3955 171.659 77.8794 175.006 82.6775 176.714C85.6428 177.774 91.0929 178.719 91.9089 178.333Z" fill="#7F8E49"/>
<path d="M81.3721 165.077C82.5537 166.074 89.6023 171.328 90.0046 169.854C90.0381 169.741 90.0226 169.62 89.9622 169.522C89.9573 169.446 90.0062 169.394 90.0389 169.333C90.2886 169.189 90.2372 168.963 90.2249 168.675C91.3535 164.376 93.1707 159.206 93.1609 154.253C93.1576 153.25 92.8174 149.331 92.0389 149.132C91.8129 149.08 91.6293 149.181 91.5485 149.33C88.6966 154.583 88.9324 160.865 89.2555 166.828C86.8475 156.948 85.3624 150.182 81.222 144.567C80.9666 144.155 80.3807 144.396 80.4133 144.786C81.1812 152.585 84.8042 160.877 88.5105 167.746C88.7423 168.187 89.4971 167.895 89.2775 167.362C89.2996 167.362 89.3208 167.322 89.329 167.302C89.3135 168.085 89.3086 167.802 89.3518 168.587C89.3126 168.753 89.3281 168.691 89.2849 168.862C88.4314 167.727 85.3722 164.233 83.2261 162.225C79.8797 159.084 76.3423 157.378 75.5255 157.378C75.2219 157.378 74.9861 157.755 75.1583 158.034C76.7283 160.676 79.0106 163.087 81.3721 165.077Z" fill="#7F8E49"/>
<path d="M90.479 172.709C83.0542 165.722 72.1753 163.102 79.587 169.152C81.6336 170.819 84.3239 172.053 86.8315 172.943C87.193 173.072 90.2701 174.081 90.6243 174.081C90.8168 174.081 90.9849 173.954 91.0339 173.772C97.2412 164.978 97.6215 154.968 96.3142 154.968C96.1714 154.968 96.0343 155.047 95.947 155.179C92.4945 160.202 91.0208 166.684 90.479 172.709Z" fill="#7F8E49"/>
<path d="M102.803 169.314C102.638 169.273 102.498 169.319 102.39 169.424C98.6958 172.792 93.5591 180.325 93.9728 185.123C89.7476 181.782 81.7328 179.103 76.3554 180.234C75.1428 180.488 77.4031 182.835 83.843 184.215C84.7814 184.417 85.2588 184.518 87.4448 185.12C88.7243 185.474 94.8353 187.213 94.5726 185.908C94.8606 185.876 94.8696 185.572 94.837 185.287C98.2805 182.866 102.552 176.702 103.134 171.704C103.196 171.181 103.318 169.455 102.803 169.314Z" fill="#7F8E49"/>
<path d="M90.395 170.754C89.3399 167.024 89.4182 166.602 88.9205 166.602C88.6488 166.602 88.457 166.874 88.5304 167.12C89.3823 170.048 88.8707 168.506 90.6561 174.515C92.8691 181.973 95.0291 189.459 96.9581 196.997C97.087 197.505 97.8859 197.314 97.7423 196.78C94.8153 185.313 91.3097 173.943 90.395 170.754Z" fill="#A67538"/>
<path d="M111.462 166.604C109.123 179.259 106.282 186.216 105.941 197.119C105.934 197.644 106.749 197.669 106.757 197.119C106.795 194.967 106.981 192.825 107.267 190.693C107.264 190.728 107.257 190.763 107.254 190.801C108.333 182.879 110.506 176.347 112.249 166.821C112.354 166.213 111.545 166.127 111.462 166.604Z" fill="#A67538"/>
<path d="M112.69 192.079C111.356 190.752 108.408 190.233 106.523 193.69C105.147 191.511 102.202 191.562 101.606 194.081C98.0762 189.789 92.3487 190.909 92.7641 197.966C92.8065 198.71 93.4552 199.134 94.0591 198.955C99.8837 204.783 106.483 206.182 112.617 200.521C113.224 200.805 113.986 200.397 114.037 199.582L114.076 198.982C114.208 196.977 114.453 193.82 112.69 192.079Z" fill="#926B5B"/>
<path d="M115.002 206.456C115.149 205.673 115.288 204.955 115.419 204.31C115.574 203.51 115.729 202.8 115.859 202.18C116.724 198.198 117.026 197.627 116.096 197.627C115.908 197.627 115.729 197.717 115.614 197.847C106.614 197.986 99.2128 196.77 90.7509 197.219C90.3592 196.811 89.7962 197.031 89.682 197.48C89.478 197.725 89.4861 198.092 89.7472 198.337C89.8615 199.439 89.9757 200.532 90.0981 201.634C90.1716 202.311 90.245 202.996 90.3266 203.674C90.4245 204.587 90.5306 205.501 90.6367 206.415C88.6375 205.999 83.2437 207.688 84.9655 211.336C86.1242 213.792 90.7591 214.477 91.5751 214.192C91.5832 214.273 91.673 215 91.8117 216.085C91.8852 216.689 91.9668 217.407 92.0728 218.182C92.1544 218.908 92.2524 219.683 92.3584 220.467C92.44 221.136 92.5298 221.821 92.6114 222.491C93.0031 225.453 93.3866 228.105 93.5008 228.227C93.6069 228.333 93.7456 228.398 93.8925 228.407C94.4474 229.092 110.474 228.888 111.33 228.88C111.763 228.872 112.057 228.439 111.91 228.047C111.918 228.031 112.195 225.983 112.522 223.486C112.612 222.841 112.709 222.156 112.799 221.471C112.946 220.393 113.085 219.308 113.224 218.321C113.321 217.57 113.411 216.885 113.485 216.305C113.64 215.212 113.729 214.502 113.729 214.494C122.077 215.759 122.689 205.763 115.002 206.456ZM86.0018 209.443C86.6628 208.088 88.3356 207.917 89.1516 207.721C89.1516 207.721 89.6983 207.639 90.7836 207.656C90.8325 208.113 90.8896 208.57 90.9468 209.027C91.0202 209.704 91.1018 210.381 91.1916 211.058C91.265 211.703 91.3384 212.348 91.42 213C87.0463 212.764 85.4143 210.92 86.0018 209.443ZM113.901 213.278C113.991 212.666 114.089 212.07 114.178 211.491C114.284 210.789 114.39 210.12 114.497 209.467C114.594 208.863 114.692 208.284 114.79 207.713C121.082 207.084 120.453 214.061 113.901 213.278Z" fill="#D38E37"/>
<path d="M115.859 202.18C115.728 202.801 115.573 203.511 115.418 204.31C109.69 204.465 97.6701 203.486 90.3261 203.674C90.2445 202.996 90.1711 202.311 90.0977 201.634C98.682 201.307 107.258 202.58 115.859 202.18Z" fill="#A06B29"/>
<path d="M114.497 209.467C114.39 210.12 114.284 210.789 114.178 211.491C109.935 211.858 100.453 210.74 91.1916 211.058C91.1018 210.381 91.0202 209.704 90.9468 209.026C98.7885 208.741 106.638 209.549 114.497 209.467Z" fill="#A06B29"/>
<path d="M113.484 216.305C113.411 216.885 113.321 217.57 113.223 218.321C101.995 217.799 95.6141 218.092 92.0726 218.182C91.9666 217.407 91.885 216.689 91.8115 216.085C99.025 216.003 106.263 215.995 113.484 216.305Z" fill="#A06B29"/>
<path d="M112.799 221.471C112.709 222.156 112.612 222.841 112.522 223.486C105.896 222.972 99.2536 222.221 92.6114 222.491C92.5298 221.821 92.44 221.136 92.3584 220.467C99.1802 220.165 106.002 220.948 112.799 221.471Z" fill="#A06B29"/>
<path d="M207.646 192.139C202.315 192.291 184.506 195.726 176.483 197.627C176.247 197.682 176.05 197.691 175.935 197.887C175.768 198.17 175.964 198.514 176.298 198.514C176.246 198.533 176.207 198.576 176.18 198.626C176.069 198.815 176.125 199.091 176.327 199.194C177.638 199.866 178.978 200.242 180.335 200.614C180.377 200.645 180.43 200.672 180.5 200.696C197.849 206.975 197.831 207.432 198.023 206.616C198.023 206.616 198.957 205.344 199.227 204.994L199.216 205.005C202.29 201.052 205.635 198.062 207.041 192.986C207.525 192.97 208.067 193.035 208.067 192.551C208.067 192.255 207.726 192.058 207.646 192.139Z" fill="#56423A"/>
<path d="M199.358 91.3071C199.316 91.17 199.205 91.0582 199.065 91.0198C199.011 90.9211 198.912 90.8762 198.836 90.8477C195.228 89.5225 191.074 85.1569 188.722 82.136C188.658 82.0561 188.527 82.012 188.429 82.012C188.288 81.9484 188.193 81.9067 188.091 81.9067C187.801 81.9067 186.424 83.2768 186.213 83.4751C180.727 88.6134 176.666 92.5482 172.313 94.4372C172.309 94.4372 172.309 94.4405 172.309 94.4405L172.239 94.4788L172.236 94.4691C170.612 95.1357 170.279 95.0484 169.463 95.2663V95.2728C169.248 95.2769 168.778 95.2777 168.605 95.4066C161.57 92.2936 160.982 98.505 164.283 101.884C165.98 103.607 166.732 104.144 169.071 108.069C170.76 110.116 172.427 112.14 173.982 114.291C174.803 115.287 176.065 116.246 176.074 116.97C176.131 117.005 176.201 117.034 176.291 117.034C176.264 119.378 176.36 121.688 176.376 124.234C176.376 124.234 173.643 125.414 172.159 125.848C171.984 125.901 171.856 126.065 171.853 126.242C171.031 127.449 175.079 135.472 176.982 140.701C179.2 146.639 182.04 151.867 182.856 151.867C183.769 151.867 193.17 127.87 192.629 127.126C192.671 126.973 192.616 126.757 192.438 126.673C192.216 126.568 192.021 126.498 191.826 126.453C191.795 126.443 191.76 126.437 191.721 126.437C191.664 126.437 191.609 126.45 191.552 126.475C190.704 126.138 188.901 125.543 187.711 124.502C187.813 122.814 187.742 121.209 187.795 119.279C188.271 119.178 187.722 119.331 188.326 119.154C188.339 119.154 188.352 119.156 188.365 119.156C188.363 119.134 188.365 119.149 188.365 119.142C188.744 119.027 188.971 118.937 189.253 118.814C189.266 118.815 189.28 118.814 189.292 118.818C189.587 118.669 191.425 117.719 191.579 117.426C199.026 112.247 202.697 103.116 199.358 91.3071Z" fill="#FFC19C"/>
<path d="M223.84 187.794C223.832 187.843 223.808 187.892 223.775 187.933C223.767 188.162 223.595 188.341 223.359 188.349C216.423 188.651 211.233 189.002 207.153 189.337C206.761 189.369 206.378 189.402 206.011 189.434C205.211 189.508 204.452 189.581 203.742 189.647C202.257 189.794 200.943 189.932 199.752 190.071C198.65 190.185 197.655 190.308 196.716 190.414C196.3 190.463 195.9 190.512 195.501 190.561C194.84 190.634 194.203 190.707 193.575 190.773C192.237 190.911 190.931 191.026 189.511 191.107C188.091 191.181 186.549 191.23 184.754 191.23C184.223 191.23 183.726 191.222 183.252 191.205C182.836 191.205 182.445 191.189 182.069 191.173C181.408 191.156 180.772 191.124 180.135 191.091C178.903 191.034 177.655 190.96 176.112 190.903H176.023C174.293 190.838 171.747 190.838 169.07 190.814C167.708 190.805 166.32 190.789 164.99 190.765C160.641 190.675 156.92 190.43 156.961 189.72C156.553 189.108 156.153 179.895 155.908 172.821C155.753 168.61 155.655 165.15 155.647 164.71C154.741 166.758 153.264 169.418 152.016 172.111C149.878 176.738 148.417 181.462 151.739 183.363C151.812 183.306 151.894 183.282 151.983 183.282C152.024 183.282 152.057 183.29 152.089 183.298C152.302 183.355 152.448 183.592 152.383 183.812C151.649 186.187 150.661 188.635 149.364 191.311C149.315 191.409 149.021 191.997 148.621 192.796C148.328 193.376 147.977 194.069 147.61 194.771C147.291 195.383 146.965 196.003 146.663 196.566C146.01 197.75 145.463 198.663 145.3 198.68C145.055 198.916 143.375 198.655 142.534 198.517C142.346 198.476 142.199 198.451 142.126 198.435C140.853 198.174 139.694 197.831 138.65 197.39C138.226 197.227 137.826 197.04 137.442 196.844C137.034 196.632 136.643 196.411 136.267 196.175C134.447 195.016 133.06 193.539 132.048 191.817C128.695 186.17 129.307 177.847 131.64 169.369C131.673 169.238 131.714 169.092 131.755 168.945C132.522 166.309 134.203 161.503 136.088 156.476C136.3 155.905 136.52 155.326 136.74 154.754C137.116 153.759 137.491 152.763 137.875 151.784C138.878 149.206 139.866 146.725 140.747 144.628C141.865 141.96 142.803 139.903 143.35 139.038C143.799 138.328 144.264 137.667 144.754 137.064C145.3 136.378 145.871 135.758 146.467 135.219C146.557 135.138 146.639 135.056 146.728 134.983C147.014 134.73 147.332 134.485 147.675 134.24C148.638 133.555 149.821 132.902 151.143 132.282C152.367 131.711 153.705 131.164 155.109 130.658C155.541 130.495 155.982 130.34 156.431 130.185C156.863 130.038 157.312 129.891 157.752 129.752C159.474 129.206 161.229 128.708 162.926 128.267C164.346 127.9 165.717 127.574 166.998 127.288C167.463 127.182 167.903 127.084 168.336 126.994C168.752 126.904 169.16 126.823 169.544 126.749C170.213 126.611 170.841 126.496 171.404 126.398C171.38 126.268 171.396 126.17 171.445 126.08C171.502 125.982 171.592 125.917 171.698 125.884C171.731 125.876 171.771 125.868 171.804 125.868C171.975 125.868 172.171 125.974 172.212 126.178L172.269 126.341C172.498 126.48 172.53 126.79 172.367 126.97C172.718 128.602 173.224 130.283 173.828 131.972C175.15 135.627 176.945 139.308 178.65 142.596C179.148 143.543 179.638 144.465 180.103 145.338C180.551 146.178 180.984 146.97 181.376 147.721C181.376 147.721 181.376 147.721 181.384 147.729C181.971 148.847 182.494 149.842 182.91 150.707C184.232 146.66 186.1 142.8 187.895 138.924V138.916C188.491 137.618 189.087 136.313 189.642 134.999L189.65 135.007C189.813 134.526 190.825 131.825 191.78 129.361V129.352C192.286 128.071 192.775 126.847 193.126 126.031C193.248 125.729 193.363 125.485 193.444 125.313C193.599 125.011 194.105 125.052 194.195 125.403C195.076 125.582 195.958 125.795 196.839 126.048C198.226 126.439 199.597 126.913 200.943 127.467C201.376 127.639 201.808 127.818 202.233 128.006C202.673 128.194 203.106 128.398 203.538 128.602C204.542 129.075 205.521 129.589 206.459 130.119C207.063 130.462 207.635 130.789 208.173 131.123C209.83 132.119 211.217 133.098 212.416 134.281C212.963 134.828 213.477 135.415 213.95 136.068C213.95 136.076 213.95 136.076 213.95 136.076C214.456 136.754 214.93 137.504 215.362 138.361V138.369C216.602 140.736 217.631 143.877 218.667 148.316C218.773 148.781 222.045 161.682 221.776 162.082C223.359 169.41 225.268 180.303 223.84 187.794Z" fill="#D08628"/>
<path d="M169.07 190.813V191.083C169.07 192.184 168.148 193.123 167.03 193.123C165.921 193.123 164.99 192.184 164.99 191.083V190.764C164.974 169.916 163.056 149.116 162.926 128.267C164.346 127.9 165.717 127.573 166.998 127.288C167.079 148.479 169.054 169.622 169.07 190.813Z" fill="#FFAB42"/>
<path d="M180.193 184.065C180.177 187.574 180.193 189.712 180.136 191.091C180.062 192.853 179.891 193.343 179.434 193.8C178.047 195.171 175.844 193.947 175.95 192.356C175.974 191.94 175.999 191.45 176.023 190.903C176.195 186.513 176.113 178.435 176.056 175.154C175.795 160.744 174.881 146.619 173.828 131.972C175.15 135.627 176.945 139.308 178.651 142.596C179.361 153.302 179.948 164.31 180.136 175.154C180.185 178.125 180.209 181.095 180.193 184.065Z" fill="#FFAB42"/>
<path d="M193.575 190.773C192.237 190.911 190.931 191.026 189.511 191.107C188.312 171.083 188.181 155.456 187.896 138.924V138.916C188.491 137.619 189.087 136.313 189.642 134.999L189.65 135.007C189.813 134.526 190.825 131.825 191.78 129.361C192.286 150.707 192.098 166.056 193.575 190.773Z" fill="#FFAB42"/>
<path d="M203.742 189.647C202.257 189.794 200.943 189.932 199.752 190.071C198.536 178.794 197.173 147.296 196.839 126.048C198.226 126.439 199.597 126.913 200.943 127.467C201.27 148.21 202.208 168.953 203.742 189.647Z" fill="#FFAB42"/>
<path d="M214.293 179.675C214.073 182.686 210.034 182.025 210.213 179.675C211.405 163.453 208.867 147.312 208.173 131.123C209.83 132.119 211.217 133.098 212.417 134.281C213.265 149.41 215.403 164.506 214.293 179.675Z" fill="#FFAB42"/>
<path d="M156.088 171.98C156.096 172.274 156.031 172.559 155.909 172.82C155.753 168.61 155.656 165.15 155.647 164.709C154.742 166.758 153.265 169.418 152.016 172.111C152.008 172.07 152.008 172.021 152.008 171.98C151.665 158.753 152.024 145.493 151.143 132.282C152.367 131.71 153.705 131.164 155.109 130.658C156.129 144.407 155.729 158.214 156.088 171.98Z" fill="#FFAB42"/>
<path d="M146.663 196.566C146.01 197.749 145.464 198.663 145.3 198.68C145.056 198.916 143.375 198.655 142.534 198.516C142.665 186.66 141.114 167.737 140.747 144.628C141.865 141.959 142.803 139.903 143.35 139.038C143.799 138.328 144.264 137.667 144.754 137.063C144.819 152.861 145.561 168.431 146.28 184.522C146.41 187.484 146.581 190.454 146.639 193.416C146.663 194.469 146.671 195.514 146.663 196.566Z" fill="#FFAB42"/>
<path d="M136.267 196.174C134.447 195.016 133.06 193.539 132.048 191.817C131.804 184.196 131.714 176.566 131.755 168.945C132.522 166.309 134.203 161.503 136.088 156.476C135.99 162.286 135.345 173.775 136.267 196.174Z" fill="#FFAB42"/>
<path d="M138.65 197.39C138.226 197.227 137.826 197.04 137.442 196.844C137.899 182.817 137.165 168.855 136.741 154.754C137.116 153.759 137.491 152.763 137.875 151.784C138.283 166.929 139.172 182.213 138.65 197.39Z" fill="#FFAB42"/>
<path d="M148.622 192.796C148.328 193.376 147.977 194.069 147.61 194.771C145.423 175.252 146.492 155.105 146.467 135.219C146.557 135.138 146.639 135.056 146.729 134.983C147.014 134.73 147.332 134.485 147.675 134.24C147.74 153.743 146.696 173.604 148.622 192.796Z" fill="#FFAB42"/>
<path d="M159.066 188.039C159.034 188.888 157.818 188.806 157.842 188.039C158.25 176.199 156.839 165.395 156.961 153.106C157.043 145.411 157.41 137.725 156.431 130.185C156.863 130.038 157.312 129.891 157.753 129.752C158.626 135.685 157.851 152.217 158.797 171.915C159.05 177.284 159.254 182.662 159.066 188.039Z" fill="#FFAB42"/>
<path d="M172.066 190.087C172.09 190.854 170.874 190.936 170.842 190.087C170.67 184.244 169.103 147.231 168.336 126.994C168.753 126.904 169.161 126.822 169.544 126.749C169.96 138.034 171.405 172.257 172.066 190.087Z" fill="#FFAB42"/>
<path d="M183.277 191.025C183.277 191.091 183.269 191.148 183.253 191.205C183.098 191.784 182.192 191.76 182.07 191.172C182.061 191.123 182.053 191.074 182.053 191.025C182.119 175.685 180.332 160.572 180.103 145.338C180.552 146.178 180.984 146.97 181.376 147.72C181.376 147.72 181.376 147.72 181.384 147.729C181.449 150.544 181.588 154.159 181.849 158.818C182.453 169.548 183.326 180.271 183.277 191.025Z" fill="#FFAB42"/>
<path d="M196.717 190.414C196.301 190.462 195.901 190.511 195.501 190.56C194.53 179.242 193.877 168.594 193.494 158.736C193.061 147.933 192.914 137.112 193.069 126.3C193.069 126.202 193.094 126.113 193.126 126.031C193.371 125.493 194.31 125.615 194.293 126.3C194.048 146.301 194.685 166.717 196.717 190.414Z" fill="#FFAB42"/>
<path d="M207.161 189.239C207.161 189.271 207.161 189.304 207.153 189.336C207.112 189.777 206.5 190.063 206.108 189.679C206.076 189.646 206.043 189.565 206.011 189.434C205.219 186.448 203.873 158.565 203.824 157.521C203.024 140.123 202.453 131.898 202.232 128.006C202.673 128.194 203.106 128.398 203.538 128.602C204.55 139.055 204.974 167.623 207.161 189.239Z" fill="#FFAB42"/>
<path d="M217.965 167.288C217.998 167.794 217.321 168.129 216.921 167.729C216.799 167.606 216.75 167.46 216.741 167.288C215.542 151.303 214.432 141.6 213.951 136.076C214.457 136.753 214.93 137.504 215.362 138.361V138.369C216.023 148.031 217.239 157.578 217.965 167.288Z" fill="#FFAB42"/>
<path d="M192.839 123.49C192.424 123.49 192.073 123.949 192.223 124.324C194.384 130.385 192.996 139.399 191.47 145.356C190.219 150.209 187.766 157.126 183.772 160.123C180.732 156.02 178.084 151.344 175.915 146.229L175.903 146.401C174.015 141.72 172.83 137.588 172.295 133.764L172.249 133.672C171.951 131.118 171.938 128.898 172.212 126.888L172.114 127.019C172.348 125.932 172.566 125.039 172.795 124.294C172.846 124.131 172.825 123.959 172.737 123.809C172.468 123.302 171.719 123.355 171.54 123.938C168.125 134.933 175.954 151.725 182.739 160.98C181.923 161.665 181.175 163.681 182.31 164.803C183.709 166.137 186.769 164.943 184.774 160.953C187.724 158.792 189.872 154.244 191.146 150.807C191.701 149.312 192.201 147.711 192.673 145.914C196.014 133.208 194.378 123.49 192.839 123.49Z" fill="#573C31"/>
<path d="M173.982 126.051C173.982 125.244 172.758 125.244 172.758 126.051C172.758 126.858 173.982 126.858 173.982 126.051Z" fill="#573C31"/>
<path d="M173.968 128.585C173.968 127.778 172.744 127.778 172.744 128.585C172.744 129.393 173.968 129.393 173.968 128.585Z" fill="#573C31"/>
<path d="M172.706 130.082C172.706 130.368 172.912 130.6 173.18 130.665C172.809 131.557 174.356 131.889 174.356 130.896C174.356 130.61 174.15 130.377 173.882 130.312C174.262 129.399 172.706 129.119 172.706 130.082Z" fill="#573C31"/>
<path d="M174.014 132.717C174.103 132.291 173.776 131.986 173.427 131.986C172.772 131.986 172.569 132.896 173.19 133.161C173.182 133.201 173.166 133.238 173.166 133.281C173.166 134.088 174.39 134.088 174.39 133.281C174.39 133.03 174.234 132.811 174.014 132.717Z" fill="#573C31"/>
<path d="M174.09 135.754C173.979 135.865 173.909 136.018 173.909 136.185C173.909 136.992 175.133 136.992 175.133 136.185C175.133 135.858 174.869 135.592 174.546 135.578C174.937 135.186 174.646 134.535 174.114 134.535C173.327 134.535 173.294 135.721 174.09 135.754Z" fill="#573C31"/>
<path d="M174.019 138.439C174.019 139.246 175.243 139.246 175.243 138.439C175.243 137.631 174.019 137.631 174.019 138.439Z" fill="#573C31"/>
<path d="M175.185 140.384C175.992 140.384 175.992 139.16 175.185 139.16C174.378 139.16 174.378 140.384 175.185 140.384Z" fill="#573C31"/>
<path d="M175.967 141.326C176.774 141.326 176.774 140.102 175.967 140.102C175.16 140.102 175.16 141.326 175.967 141.326Z" fill="#573C31"/>
<path d="M176.37 143.288C177.177 143.288 177.177 142.064 176.37 142.064C175.563 142.064 175.563 143.288 176.37 143.288Z" fill="#573C31"/>
<path d="M177.038 144.859C177.845 144.859 177.845 143.635 177.038 143.635C176.231 143.635 176.231 144.859 177.038 144.859Z" fill="#573C31"/>
<path d="M177.707 146.966C178.514 146.966 178.514 145.742 177.707 145.742C176.9 145.742 176.9 146.966 177.707 146.966Z" fill="#573C31"/>
<path d="M178.574 148.169C179.381 148.169 179.381 146.945 178.574 146.945C177.766 146.945 177.766 148.169 178.574 148.169Z" fill="#573C31"/>
<path d="M178.981 149.537C179.788 149.537 179.788 148.313 178.981 148.313C178.174 148.313 178.174 149.537 178.981 149.537Z" fill="#573C31"/>
<path d="M180.028 151.042C179.646 151.958 181.205 152.237 181.205 151.274C181.205 150.85 180.769 150.539 180.361 150.709C180.532 150.301 180.221 149.866 179.796 149.866C178.823 149.867 179.126 151.419 180.028 151.042Z" fill="#573C31"/>
<path d="M182.466 152.085C182.466 151.277 181.242 151.277 181.242 152.085C181.242 152.892 182.466 152.892 182.466 152.085Z" fill="#573C31"/>
<path d="M183.689 152.603C183.689 151.796 182.465 151.796 182.465 152.603C182.465 153.411 183.689 153.411 183.689 152.603Z" fill="#573C31"/>
<path d="M184.939 153.204C185.852 153.585 186.136 152.027 185.171 152.027C184.965 152.027 184.789 152.139 184.678 152.299C184.27 152.129 183.834 152.439 183.834 152.864C183.834 153.446 184.581 153.718 184.939 153.204Z" fill="#573C31"/>
<path d="M186.969 151.921C186.969 151.114 185.745 151.114 185.745 151.921C185.745 152.728 186.969 152.728 186.969 151.921Z" fill="#573C31"/>
<path d="M187.892 150.624C187.892 149.817 186.668 149.817 186.668 150.624C186.668 151.431 187.892 151.431 187.892 150.624Z" fill="#573C31"/>
<path d="M188.969 149.295C188.969 148.96 188.691 148.683 188.357 148.683C188.022 148.683 187.745 148.96 187.745 149.295C187.745 150.102 188.969 150.102 188.969 149.295Z" fill="#573C31"/>
<path d="M189.765 147.851C189.765 147.044 188.541 147.044 188.541 147.851C188.541 148.659 189.765 148.659 189.765 147.851Z" fill="#573C31"/>
<path d="M190.115 145.484C190.115 144.677 188.891 144.677 188.891 145.484C188.891 146.291 190.115 146.291 190.115 145.484Z" fill="#573C31"/>
<path d="M190.988 144.062C190.988 143.255 189.764 143.255 189.764 144.062C189.764 144.869 190.988 144.869 190.988 144.062Z" fill="#573C31"/>
<path d="M191.338 142.324C191.338 141.517 190.114 141.517 190.114 142.324C190.114 143.131 191.338 143.131 191.338 142.324Z" fill="#573C31"/>
<path d="M191.817 141.158C191.817 140.351 190.593 140.351 190.593 141.158C190.593 141.965 191.817 141.965 191.817 141.158Z" fill="#573C31"/>
<path d="M192.153 139.458C192.153 139.124 191.876 138.846 191.541 138.846C191.207 138.846 190.929 139.124 190.929 139.458C190.929 140.266 192.153 140.266 192.153 139.458Z" fill="#573C31"/>
<path d="M191.707 138.127C192.041 138.127 192.319 137.849 192.319 137.515C192.319 137.18 192.041 136.903 191.707 136.903C190.9 136.903 190.9 138.127 191.707 138.127Z" fill="#573C31"/>
<path d="M192.243 136.463C193.05 136.463 193.05 135.239 192.243 135.239C191.435 135.239 191.435 136.463 192.243 136.463Z" fill="#573C31"/>
<path d="M192.446 134.891C193.253 134.891 193.253 133.667 192.446 133.667C191.639 133.667 191.639 134.891 192.446 134.891Z" fill="#573C31"/>
<path d="M193.097 132.3C193.097 131.493 191.873 131.493 191.873 132.3C191.873 133.107 193.097 133.107 193.097 132.3Z" fill="#573C31"/>
<path d="M208.935 97.0835C206.423 86.008 205.546 84.7391 201.479 79.0426C199.292 75.9957 194.166 68.0666 188.403 70.8867C185.562 68.0715 180.012 70.211 176.456 72.047C153.357 83.9027 160.883 101.818 158.57 107.55C158.12 108.581 157.472 109.547 156.78 110.442C155.878 111.598 154.952 112.61 153.918 113.779C152.181 115.763 151.031 117.199 150.324 118.942C149.666 120.57 149.612 122.739 150.952 123.882C152.304 125.06 151.528 125.755 151.717 127.724C151.814 128.687 152.043 129.399 152.352 130.129C152.464 130.391 152.595 130.646 152.735 130.895C152.604 131.165 152.9 131.531 153.254 131.435C160.139 129.923 165.467 128.269 169.37 127.067C169.829 126.92 169.654 126.976 170.192 126.803C171.877 126.268 177.527 124.902 176.91 123.808C177.017 123.757 177.086 123.627 177.079 123.496C177.039 122.659 176.918 116.608 176.473 116.311C173.982 114.902 165.1 101.802 164.352 101.053C161.455 97.1097 162.969 94.7025 166.035 95.0427C166.26 95.0746 169.13 95.7624 169.316 95.6825C175.771 95.1937 185.969 84.4396 188.418 82.278C190.899 87.7265 197.446 90.5857 199.147 91.6531C199.21 91.7608 199.62 94.7139 199.637 94.8379C200.796 103.465 199.901 110.53 192.532 116.295C191.087 117.395 189.506 118.31 187.738 118.798C187.505 118.861 187.407 119.076 187.407 119.329C186.074 135.483 190.991 131.192 194.189 135.453C194.578 135.972 194.8 136.284 195.276 136.708C196.068 137.394 197.309 138.074 198.393 137.963C199.094 137.883 199.619 137.542 200.116 137.081C200.963 136.265 201.674 134.927 202.72 134.088C203.751 133.337 204.557 133.638 205.768 133.249C207.413 132.735 207.888 131.277 208.203 130.367C208.486 129.551 208.665 129.035 210.043 127.183C214.414 121.375 214.288 120.593 208.935 97.0835Z" fill="#4F3327"/>
<path d="M201.202 201.855C200.057 199.694 198.539 197.59 197.442 195.271C197.397 195.175 197.307 195.106 197.188 195.078C197.088 194.833 197.024 194.641 196.727 194.641C196.618 194.388 195.379 193.796 195.134 193.667C195.074 193.573 191.963 192.179 191.854 192.127C191.132 191.771 190.521 191.415 189.981 191.035C189.864 190.95 189.711 190.957 189.583 191.025C185.716 189.238 188.005 190.022 185.248 189.357C178.035 187.648 153.257 183.376 152.441 183.616C152.002 183.616 152.008 183.885 151.976 184.226C151.866 184.364 150.834 186.92 150.908 186.809C150.354 188.082 146.731 196.15 145.341 198.286C145.286 198.372 145.27 198.478 145.295 198.585C145.341 198.777 145.505 198.912 145.697 198.912C145.725 198.912 145.753 198.91 145.78 198.904C149.375 199.884 150.782 199.563 166.348 199.563C172.796 199.563 176.22 199.229 178.754 198.905C180.178 198.723 181.651 198.535 183.112 198.519C183.165 198.519 183.213 198.509 183.255 198.49C184.255 198.818 185.471 198.728 186.518 198.755C188.892 201.895 192.988 204.46 193.518 204.46C195.377 205.759 195.742 206.346 196.166 205.921C196.291 206.025 196.531 206.027 196.686 205.873C197.338 205.245 197.638 205.298 198.333 205.298C198.602 205.298 198.829 205.025 198.715 204.72C199.531 204.241 200.285 203.417 201.396 202.795C201.473 202.752 201.534 202.681 201.568 202.597C201.995 202.281 201.62 201.681 201.202 201.855Z" fill="#FFC5A3"/>
<path d="M178.128 102.318C178.124 102.314 178.121 102.309 178.118 102.305C178.121 102.311 178.122 102.311 178.128 102.318Z" fill="#5B4136"/>
<path d="M182.161 101.08C181.482 103.593 179.344 103.805 178.129 102.319C178.138 102.331 178.147 102.343 178.155 102.356C178.144 102.341 178.102 102.286 178.091 102.272C178.1 102.283 178.11 102.295 178.119 102.306C177.776 101.829 177.612 101.406 177.492 100.871C177.442 100.654 177.197 100.529 176.989 100.587C175.805 100.912 178.564 105.886 181.677 103.424C182.34 102.889 182.739 102.111 182.946 101.297C183.088 100.76 182.289 100.571 182.161 101.08Z" fill="#5B4136"/>
<path d="M197.866 101.522C197.658 102.229 197.342 102.744 196.679 103.06C195.61 103.48 194.389 102.962 194.003 101.448C193.867 100.932 193.074 101.129 193.216 101.665C193.385 102.326 193.716 102.934 194.239 103.381C194.767 103.815 195.268 103.98 195.877 104.021C197.039 104.086 198.24 103.288 198.65 101.739C198.797 101.221 198.006 101.001 197.866 101.522Z" fill="#5B4136"/>
<path d="M176.733 94.9711C176.453 94.9899 176.214 95.0666 176.01 95.2706C175.819 95.4583 175.713 95.7202 175.713 95.9911C175.713 97.6949 177.614 96.586 181.068 96.9858C181.884 97.1074 182.89 97.4999 183.185 96.4375C183.707 94.5036 178.786 94.821 176.733 94.9711Z" fill="#5B4136"/>
<path d="M198.91 95.9869C197.369 95.5952 195.764 95.4573 194.141 95.5218C192.717 95.5708 192.878 97.605 194.141 97.5618C196 97.4867 197.254 97.6687 198.368 97.9535C199.721 98.2978 200.172 96.3076 198.91 95.9869Z" fill="#5B4136"/>
<path d="M188.55 110.781C188.548 110.781 187.781 110.958 187.459 111.007C185.989 111.174 184.592 110.871 183.555 109.833C183.159 109.436 182.472 109.721 182.483 110.288C182.483 111.104 185.271 113.036 188.719 112.014C189.417 111.82 189.273 110.781 188.55 110.781Z" fill="#C07E67"/>
<path d="M189.813 97.5552C189.832 97.3349 189.613 97.1472 189.405 97.1472C189.2 97.1472 189.02 97.2851 188.997 97.5552C188.709 100.713 189.345 104.202 188.824 107.087C188.044 107.918 187.225 107.705 186.516 106.834C186.52 106.84 186.525 106.847 186.529 106.853C186.383 106.664 186.322 106.504 186.075 106.504C185.732 106.504 185.561 106.893 185.719 107.118C186.965 108.885 188.636 108.667 189.503 107.562C189.534 107.53 189.588 107.434 189.599 107.374C189.633 107.251 189.617 107.291 189.615 107.253C190.195 103.781 189.506 100.938 189.813 97.5552Z" fill="#C3967D"/>
<path d="M165.246 97.6482C165.65 97.2313 166.124 97.1497 166.699 97.2068C167.023 97.2508 167.308 97.3373 167.414 96.9595C167.63 96.1615 165.807 96.2847 165.081 96.7302C163.615 97.5944 163.715 100.247 164.558 100.011C165.008 99.8882 164.743 99.5275 164.795 98.7115C165.186 99.5756 165.719 100.483 167.025 101.638C167.461 102.024 167.982 101.398 167.602 101.062C166.517 100.104 165.677 99.0346 165.246 97.6482Z" fill="#C3967D"/>
<path d="M184.539 82.0372C181.93 84.2959 179.736 86.3179 177.007 88.4411C177.009 88.4395 177.011 88.4387 177.012 88.437C174.479 90.3808 172.027 91.9426 169.144 93.169C168.673 93.3575 168.722 93.7794 169.001 93.9336C169.451 94.2111 173.198 92.0332 173.651 91.7565C177.741 89.2718 181.535 85.7157 185.117 82.6149C185.283 82.4713 185.264 82.1881 185.117 82.038C184.953 81.8731 184.708 81.8911 184.539 82.0372Z" fill="#936D5C"/>
<path d="M177.013 88.4372C177.019 88.4323 177.025 88.4283 177.031 88.4234C177.089 88.3777 177.058 88.3981 177.013 88.4372Z" fill="#936D5C"/>
<path d="M185.27 78.5129C184.04 78.9356 183.799 78.9797 182.401 79.6064C175.981 82.4958 170.334 88.4461 165.695 93.2075C165.312 93.5983 165.904 94.1605 166.272 93.7844C169.563 90.4086 172.72 87.1258 176.408 84.2567C176.406 84.2584 176.405 84.2592 176.403 84.2608C180.167 81.3738 182.677 80.2681 185.486 79.3004C185.697 79.2269 185.83 79.0229 185.77 78.8002C185.713 78.5913 185.48 78.4436 185.27 78.5129Z" fill="#936D5C"/>
<path d="M176.405 84.261C176.401 84.2635 176.397 84.2668 176.393 84.2693C176.337 84.3134 176.361 84.2976 176.405 84.261Z" fill="#936D5C"/>
<path d="M164.205 93.9141C165.052 91.9737 166.236 90.2234 167.522 88.5481C169.751 85.6652 171.653 83.8284 170.44 83.8284C170.342 83.8284 170.214 83.8667 170.151 83.9467C168.719 85.7957 162.376 93.334 163.648 94.061C163.858 94.1875 164.135 94.0839 164.205 93.9141Z" fill="#936D5C"/>
<path d="M163.86 85.679C163.199 85.8683 161.025 89.7019 160.995 94.6264C160.995 95.1634 161.811 95.1658 161.811 94.6264C161.84 91.0254 162.946 88.6468 162.946 88.6468C162.955 88.6264 162.964 88.606 162.973 88.5856C163.26 87.901 163.755 87.0197 164.319 86.2788C164.52 86.0274 164.239 85.5754 163.86 85.679Z" fill="#936D5C"/>
<path d="M162.978 88.5742C162.976 88.5784 162.974 88.5817 162.973 88.5859C162.953 88.6308 162.96 88.6167 162.978 88.5742Z" fill="#936D5C"/>
<path d="M201.55 89.4955C198.834 89.0908 195.784 86.606 194.06 84.411C194.064 84.4151 194.067 84.4191 194.069 84.424C193.997 84.3294 194.068 84.4216 194.006 84.3408C194.01 84.3465 194.015 84.3514 194.019 84.3571C193.808 84.0748 193.608 83.7851 193.425 83.4865C193.346 83.36 193.208 83.2849 193.068 83.2849C191.256 83.2849 196.875 89.6048 201.334 90.2821C201.976 90.3719 202.007 89.5542 201.55 89.4955Z" fill="#936D5C"/>
<path d="M194.06 84.411C194.047 84.3931 194.033 84.3743 194.02 84.3572C194.044 84.3906 194.042 84.3882 194.06 84.411Z" fill="#936D5C"/>
<path d="M201.496 93.396C201.995 100.117 202.5 106.224 200.402 112.346C200.234 112.829 201.002 113.115 201.186 112.563C201.71 111.046 202.082 109.49 202.331 107.906C203.101 103.023 202.655 98.0251 202.312 93.3968C202.27 92.8109 201.46 92.8925 201.496 93.396Z" fill="#936D5C"/>
<path d="M204.704 92.0722C202.535 89.9033 206.777 103.505 205.225 115.508C204.944 117.579 204.486 119.622 203.805 121.604C203.647 122.08 204.407 122.37 204.593 121.821C205.405 119.469 205.864 117.157 206.136 114.735C206.41 112.3 206.438 109.839 206.346 107.391C206.267 105.325 205.121 92.4892 204.704 92.0722Z" fill="#936D5C"/>
<path d="M208.371 114.696C208.317 116.867 207.963 119.009 207.702 121.16C207.662 121.469 208.113 121.731 208.397 121.448C208.699 121.146 209.177 115.141 209.188 114.697C209.202 114.182 208.388 114.131 208.371 114.696Z" fill="#936D5C"/>
<path d="M197.431 116.704C195.848 120.669 194.026 124.602 195.511 128.613C195.95 129.798 196.486 130.776 196.707 132.094C196.766 132.57 196.683 133.104 197.162 133.104C198.551 133.104 196.105 128.435 195.826 126.677C195.436 123.422 196.982 120.022 198.217 116.921C198.256 116.823 198.224 116.692 198.176 116.606C198.022 116.341 197.595 116.288 197.431 116.704Z" fill="#936D5C"/>
<path d="M198.938 126.611C199.187 127.398 199.387 128.197 199.512 129.014C199.639 129.959 199.467 130.593 200.019 130.593C200.236 130.593 200.434 130.405 200.427 130.185C200.382 128.891 200.114 127.625 199.726 126.394C199.553 125.847 198.784 126.122 198.938 126.611Z" fill="#936D5C"/>
<path d="M191.293 121.761C191.315 121.59 191.138 121.353 190.885 121.353C190.681 121.353 190.509 121.483 190.477 121.761C190.318 123.025 190.226 127.266 191.262 126.973C191.475 126.916 191.603 126.686 191.546 126.473C191.129 124.934 191.098 123.3 191.293 121.761Z" fill="#936D5C"/>
<path d="M172.592 116.82C172.426 119.164 172.01 121.447 171.362 123.686C171.218 124.193 172 124.43 172.149 123.903C172.818 121.592 173.239 119.217 173.408 116.82C173.444 116.314 172.635 116.238 172.592 116.82Z" fill="#936D5C"/>
<path d="M169.134 110.583C168.654 115.595 168.451 120.481 166.711 125.134C166.543 125.595 167.287 125.916 167.498 125.354C169.261 120.63 169.472 115.549 169.95 110.583C169.991 110.101 169.186 109.973 169.134 110.583Z" fill="#936D5C"/>
<path d="M159.91 109.782C159.885 109.836 159.874 109.865 159.903 109.798C159.906 109.793 159.908 109.788 159.91 109.782Z" fill="#936D5C"/>
<path d="M160.867 101.964C161.239 105.089 160.896 107.388 159.91 109.782C159.911 109.779 159.912 109.776 159.914 109.773C158.013 114.263 155.869 115.516 154.715 119.865C154.364 121.191 154.145 122.548 153.854 123.891C153.73 124.453 154.532 124.606 154.642 124.108C155.359 120.78 155.525 118.738 157.246 116.085C160.418 111.176 162.396 107.933 161.683 101.964C161.591 101.318 160.811 101.514 160.867 101.964Z" fill="#936D5C"/>
<path d="M160.328 117.57C159.049 121.342 158.038 124.333 157.708 128.258C157.671 128.77 158.49 128.838 158.524 128.258C158.873 124.386 159.858 121.489 161.115 117.787C161.279 117.298 160.511 117.022 160.328 117.57Z" fill="#936D5C"/>
<path d="M163.998 117.732C163.822 117.909 163.599 120.561 163.58 120.802C163.544 121.306 164.355 121.387 164.396 120.802C164.466 119.871 164.587 118.947 164.696 118.023C164.727 117.695 164.27 117.461 163.998 117.732Z" fill="#936D5C"/>
<path d="M198.855 81.9247C199.125 82.3882 199.831 81.9785 199.56 81.5134C197.805 78.4803 195.158 76.4216 192.751 74.5105C192.531 74.3375 192.317 74.3685 192.174 74.5105C191.998 74.6859 192.025 74.9691 192.174 75.0874C194.82 77.1878 197.23 79.1217 198.855 81.9247Z" fill="#936D5C"/>
<path d="M195.094 80.4011C194.71 80.4011 194.552 80.8858 194.804 81.0988C195.581 81.7492 196.366 82.3865 197.026 83.1608C197.346 83.5452 197.988 83.0352 197.603 82.5839C197.351 82.291 195.478 80.4011 195.094 80.4011Z" fill="#936D5C"/>
<path d="M174.18 77.0181C174.176 77.0213 174.172 77.0238 174.168 77.027C174.184 77.014 174.24 76.9716 174.251 76.9634C174.249 76.9658 174.246 76.9683 174.243 76.9699C176.543 75.222 179.255 73.6096 182.073 73.4538C182.639 73.4211 182.589 72.637 182.093 72.637C178.929 72.637 175.288 75.045 172.833 77.0589C172.658 77.1992 172.686 77.4889 172.833 77.6358C173.187 78.0062 173.741 77.3608 174.18 77.0181Z" fill="#936D5C"/>
<path d="M174.18 77.0181C174.201 77.0034 174.223 76.9871 174.242 76.97C174.193 77.0075 174.228 76.9806 174.18 77.0181Z" fill="#936D5C"/>
<path d="M204.744 166.369C204.063 154.253 204.565 154.15 203.631 154.15C202.775 154.15 202.822 154.116 203.616 168.713C204.372 182.786 203.656 183.192 204.711 183.192C205.527 183.192 205.688 183.28 204.744 166.369Z" fill="#936731"/>
<path d="M213.369 163.339C213.331 163.291 213.28 163.253 213.225 163.227C213.188 163.23 212.875 163.261 212.839 163.254C212.805 163.273 206.865 178.32 206.851 178.356C202.953 188.476 200.814 196.904 197.151 205.938C197.138 205.973 197.133 206.011 197.135 206.065C196.273 207.172 202.285 207.318 203.312 207.318C208.109 207.318 210.773 206.645 218.246 206.492C234.31 206.132 229.706 207.314 252.008 205.007C252.116 204.764 252.228 204.525 252.342 204.286C252.324 204.27 252.304 204.254 252.282 204.241C253.203 200.095 261.601 171.446 263.355 164.863C264.654 162.823 217.325 163.329 213.369 163.339Z" fill="#3C271F"/>
<path d="M235.222 180.157H235.223C235.042 178.773 234.941 177.633 234.907 176.572C234.898 176.254 234.572 176.061 234.306 176.201C234.145 176.191 233.955 176.306 233.894 176.502C233.318 178.329 232.505 179.902 231.236 182.248C231.033 182.625 229.023 186.32 229.173 186.72C229.172 187.317 229.626 187.101 232.65 187.395C235.108 187.634 235.798 187.641 235.798 187.641C236.025 187.641 236.214 187.447 236.214 187.225C236.373 186.965 235.263 180.459 235.222 180.157Z" fill="#936D5C"/>
</svg>
