<svg width="20" height="20" viewBox="0 0 20 20" fill="none" xmlns="http://www.w3.org/2000/svg">
<circle cx="9.74116" cy="9.74116" r="9.74116" fill="#EEC6A8"/>
<path d="M12.4249 8.43696C12.2597 8.24884 12.0899 8.06072 11.911 7.88178L11.7779 7.7579L11.8422 7.70284C12.0666 7.51023 12.2264 7.25343 12.3003 6.96709C12.3741 6.68075 12.3584 6.37865 12.2551 6.10155C12.1055 5.78908 11.8686 5.52661 11.573 5.34586C11.2775 5.16511 10.9359 5.0738 10.5896 5.08296V6.00061C10.7528 5.99834 10.9137 6.03966 11.0557 6.12031C11.1976 6.20097 11.3155 6.31803 11.3971 6.45943C11.4751 6.64296 11.3971 6.84484 11.1815 7.06049C11.1494 7.0972 11.1126 7.12014 11.0805 7.15226C9.70406 6.04649 8.19453 5.42249 7.45583 6.1612C7.37845 6.2403 7.31487 6.3318 7.26771 6.4319V6.47779L7.18512 6.72096L5.16172 12.7315C5.08518 12.958 5.06371 13.1995 5.09908 13.436C5.13446 13.6724 5.22566 13.897 5.36513 14.0912C5.50461 14.2854 5.68834 14.4436 5.90111 14.5526C6.11388 14.6617 6.34957 14.7184 6.58865 14.7182C6.74476 14.7167 6.89964 14.6904 7.04748 14.6402L13.3425 12.5526C13.4199 12.5238 13.488 12.4747 13.5398 12.4104L13.6362 12.3278C14.2923 11.6671 13.8702 10.3961 12.9892 9.1619C13.5123 8.85662 14.1146 8.71444 14.719 8.75355V7.8359C13.9102 7.7914 13.1079 8.00162 12.4249 8.43696ZM6.78136 13.7685C6.67721 13.8029 6.56553 13.8078 6.45878 13.7825C6.35204 13.7572 6.25443 13.7027 6.17686 13.6251C6.09929 13.5475 6.0448 13.4499 6.01948 13.3432C5.99416 13.2364 5.99901 13.1247 6.03348 13.0206L6.65748 11.1394C7.1028 11.9887 7.78708 12.6889 8.62583 13.1537L6.78136 13.7685ZM9.99312 12.6994C9.29971 12.5158 8.66716 12.1521 8.15954 11.6453C7.65192 11.1385 7.28727 10.5065 7.10254 9.81343L7.56136 8.43696L7.58889 8.47825C7.63936 8.57919 7.70359 8.68472 7.76783 8.79025C7.83206 8.89578 7.84124 8.92331 7.88712 8.99213C7.933 9.06096 8.03853 9.21237 8.12112 9.32707C8.20371 9.44178 8.2083 9.45554 8.25877 9.51978C8.30924 9.58401 8.45606 9.77213 8.56159 9.89601L8.69465 10.0566C8.85065 10.2355 9.01583 10.4099 9.19018 10.5888C9.36453 10.7678 9.50218 10.8825 9.649 11.0477L9.80041 11.1761L10.1583 11.4652L10.3281 11.5937C10.4565 11.6854 10.5804 11.7772 10.7089 11.8598L10.8511 11.9515C11.0163 12.0525 11.1815 12.1488 11.3421 12.2314H11.365L9.99312 12.6994ZM12.9801 11.6762H12.9525C12.6359 11.8506 11.3191 11.4147 9.83712 9.92813C9.68112 9.77213 9.5343 9.62072 9.40124 9.46931L9.26818 9.30872L9.025 9.01507L8.89194 8.83155C8.8323 8.74437 8.76806 8.66178 8.713 8.57919L8.59371 8.38649L8.46065 8.17084C8.42394 8.10661 8.39642 8.04696 8.3643 7.98731C8.33218 7.92767 8.29547 7.86802 8.26795 7.80378C8.24334 7.75002 8.22189 7.69487 8.20371 7.63861C8.18077 7.57896 8.15324 7.51931 8.13489 7.46425C8.11653 7.4092 8.11195 7.37708 8.09818 7.32202C8.08442 7.26696 8.07524 7.22108 8.06606 7.1752C8.06377 7.13546 8.06377 7.09563 8.06606 7.0559C8.06164 7.01933 8.06164 6.98236 8.06606 6.94578L8.11653 6.80355C8.28171 6.63837 9.13971 6.80355 10.2868 7.67531C10.0923 7.76307 9.88446 7.81736 9.67194 7.8359V8.75355C10.1593 8.72551 10.6322 8.57735 11.0484 8.32225L11.2686 8.53331C11.4614 8.72602 11.6403 8.92331 11.8101 9.1206C11.5474 9.59554 11.4506 10.1445 11.5348 10.6806L12.4524 10.5017C12.4254 10.3314 12.4254 10.158 12.4524 9.98778C12.5924 10.2001 12.7167 10.4225 12.8241 10.6531C13.081 11.2587 13.0626 11.5982 12.9801 11.6762Z" fill="#E89636"/>
</svg>
