<svg width="24" height="24" viewBox="0 0 24 24" fill="none" xmlns="http://www.w3.org/2000/svg">
<path fill-rule="evenodd" clip-rule="evenodd" d="M7.24991 6.63105V5.46105C7.25005 5.04207 7.4005 4.63705 7.67392 4.31959C7.94734 4.00213 8.32558 3.79329 8.73991 3.73105L9.95991 3.54805C11.3123 3.34515 12.6875 3.34515 14.0399 3.54805L15.2599 3.73105C15.6742 3.79329 16.0525 4.00213 16.3259 4.31959C16.5993 4.63705 16.7498 5.04207 16.7499 5.46105V6.63105L18.4639 6.76905C19.1016 6.82056 19.7036 7.08441 20.1737 7.51841C20.6438 7.9524 20.9547 8.53148 21.0569 9.16305C21.5221 12.0357 21.5221 14.9644 21.0569 17.837C20.9547 18.4686 20.6438 19.0477 20.1737 19.4817C19.7036 19.9157 19.1016 20.1795 18.4639 20.231L16.5919 20.381C13.5355 20.6277 10.4643 20.6277 7.40791 20.381L5.53591 20.231C4.89821 20.1795 4.29619 19.9157 3.82612 19.4817C3.35605 19.0477 3.04507 18.4686 2.94291 17.837C2.47769 14.9644 2.47769 12.0357 2.94291 9.16305C3.04528 8.53166 3.35634 7.95281 3.8264 7.51902C4.29645 7.08522 4.89835 6.82152 5.53591 6.77005L7.24991 6.63105ZM10.1829 5.03105C11.3875 4.85037 12.6123 4.85037 13.8169 5.03105L15.0369 5.21405C15.0961 5.2229 15.1501 5.2527 15.1892 5.29803C15.2283 5.34335 15.2498 5.4012 15.2499 5.46105V6.52605C13.085 6.40258 10.9148 6.40258 8.74991 6.52605V5.46005C8.74997 5.4002 8.77149 5.34235 8.81058 5.29703C8.84967 5.2517 8.90372 5.2219 8.96291 5.21305L10.1829 5.03105ZM7.52891 8.11305C10.5049 7.87305 13.4949 7.87305 16.4709 8.11305L18.3429 8.26505C18.6463 8.28932 18.9327 8.41463 19.1564 8.62095C19.3801 8.82726 19.5282 9.10264 19.5769 9.40305C19.6389 9.78805 19.6919 10.173 19.7369 10.561C17.3299 11.746 14.6828 12.3623 11.9999 12.3623C9.317 12.3623 6.66993 11.746 4.26291 10.561C4.30691 10.174 4.36091 9.78805 4.42291 9.40305C4.47161 9.10264 4.61967 8.82726 4.84338 8.62095C5.0671 8.41463 5.35355 8.28932 5.65691 8.26505L7.52891 8.11305ZM4.12891 12.157C6.60076 13.2808 9.28459 13.8623 11.9999 13.8623C14.7152 13.8623 17.3991 13.2808 19.8709 12.157C19.9665 13.9757 19.8679 15.7993 19.5769 17.597C19.5284 17.8976 19.3804 18.1732 19.1567 18.3798C18.933 18.5863 18.6464 18.7117 18.3429 18.736L16.4709 18.886C13.4949 19.126 10.5049 19.126 7.52891 18.886L5.65691 18.736C5.35341 18.7117 5.06685 18.5863 4.84311 18.3798C4.61938 18.1732 4.47141 17.8976 4.42291 17.597C4.13191 15.797 4.03291 13.973 4.12891 12.157Z" fill="#6D6976"/>
</svg>
