<svg width="24" height="24" viewBox="0 0 24 24" fill="none" xmlns="http://www.w3.org/2000/svg">
<path d="M12.28 10.8734C11.5302 10.8655 10.7995 10.6359 10.1799 10.2136C9.56024 9.79126 9.07942 9.19506 8.79793 8.50005C8.51644 7.80503 8.44687 7.04227 8.59798 6.30779C8.74909 5.57332 9.11412 4.89997 9.64712 4.37252C10.1801 3.84508 10.8573 3.48712 11.5933 3.34371C12.3293 3.20029 13.0913 3.27785 13.7833 3.5666C14.4753 3.85535 15.0665 4.34239 15.4823 4.9664C15.8981 5.59041 16.12 6.32349 16.12 7.07335C16.113 8.08593 15.7049 9.05444 14.9851 9.7667C14.2653 10.479 13.2926 10.8769 12.28 10.8734ZM12.28 4.60668C11.7939 4.61457 11.321 4.76591 10.9207 5.0417C10.5203 5.31749 10.2104 5.70542 10.0298 6.15679C9.84926 6.60815 9.80608 7.1028 9.90573 7.57863C10.0054 8.05445 10.2434 8.49022 10.5899 8.83119C10.9364 9.17217 11.376 9.40316 11.8533 9.49514C12.3307 9.58712 12.8246 9.53599 13.273 9.34818C13.7214 9.16036 14.1043 8.84424 14.3736 8.43951C14.6429 8.03478 14.7866 7.55949 14.7867 7.07335C14.7796 6.41439 14.512 5.78502 14.0423 5.32281C13.5726 4.86059 12.939 4.60312 12.28 4.60668Z" fill="#6D6976"/>
<path d="M12.28 10.8734C11.5301 10.8655 10.7994 10.6359 10.1798 10.2136C9.56017 9.79126 9.07935 9.19506 8.79786 8.50005C8.51637 7.80503 8.4468 7.04227 8.59791 6.30779C8.74902 5.57332 9.11405 4.89997 9.64705 4.37252C10.18 3.84508 10.8572 3.48712 11.5932 3.34371C12.3292 3.20029 13.0912 3.27785 13.7832 3.5666C14.4753 3.85535 15.0664 4.34239 15.4822 4.9664C15.898 5.59041 16.1199 6.32349 16.1199 7.07335C16.1129 8.08593 15.7048 9.05444 14.985 9.7667C14.2653 10.479 13.2925 10.8769 12.28 10.8734ZM12.28 4.60668C11.7939 4.61457 11.321 4.76591 10.9206 5.0417C10.5203 5.31749 10.2103 5.70542 10.0298 6.15679C9.84919 6.60815 9.80601 7.1028 9.90566 7.57863C10.0053 8.05445 10.2433 8.49022 10.5898 8.83119C10.9363 9.17217 11.3759 9.40316 11.8532 9.49514C12.3306 9.58712 12.8245 9.53599 13.2729 9.34818C13.7213 9.16036 14.1042 8.84424 14.3735 8.43951C14.6428 8.03478 14.7866 7.55949 14.7866 7.07335C14.7796 6.41439 14.512 5.78502 14.0422 5.32281C13.5725 4.86059 12.9389 4.60312 12.28 4.60668ZM14.6066 11.7667C11.6496 11.2521 8.60552 11.7205 5.93995 13.1C5.75073 13.2051 5.59405 13.3602 5.48706 13.5483C5.38006 13.7364 5.32686 13.9504 5.33328 14.1667V16.54C5.33328 16.7168 5.40352 16.8864 5.52855 17.0114C5.65357 17.1364 5.82314 17.2067 5.99995 17.2067C6.17676 17.2067 6.34633 17.1364 6.47135 17.0114C6.59638 16.8864 6.66662 16.7168 6.66662 16.54V14.2534C9.1384 13.0131 11.9493 12.6196 14.6666 13.1334L14.6066 11.7667Z" fill="#6D6976"/>
<path d="M21.9998 14.6666H17.5332V13.68C17.5332 13.5032 17.4629 13.3336 17.3379 13.2086C17.2129 13.0835 17.0433 13.0133 16.8665 13.0133C16.6897 13.0133 16.5201 13.0835 16.3951 13.2086C16.2701 13.3336 16.1998 13.5032 16.1998 13.68V14.6666H11.3332C11.1564 14.6666 10.9868 14.7369 10.8618 14.8619C10.7367 14.9869 10.6665 15.1565 10.6665 15.3333V22C10.6665 22.1768 10.7367 22.3464 10.8618 22.4714C10.9868 22.5964 11.1564 22.6666 11.3332 22.6666H21.9998C22.1766 22.6666 22.3462 22.5964 22.4712 22.4714C22.5963 22.3464 22.6665 22.1768 22.6665 22V15.3333C22.6665 15.1565 22.5963 14.9869 22.4712 14.8619C22.3462 14.7369 22.1766 14.6666 21.9998 14.6666ZM21.3332 21.3333H11.9998V16H16.1998V16.2733C16.1998 16.4501 16.2701 16.6197 16.3951 16.7447C16.5201 16.8697 16.6897 16.94 16.8665 16.94C17.0433 16.94 17.2129 16.8697 17.3379 16.7447C17.4629 16.6197 17.5332 16.4501 17.5332 16.2733V16H21.3332V21.3333Z" fill="#6D6976"/>
<path d="M14.5399 18.28H18.5133V19.2133H14.5399V18.28ZM7.22659 8.16C5.38088 8.19088 3.56718 8.64715 1.92659 9.49333C1.74816 9.58758 1.5987 9.72854 1.4942 9.90116C1.38969 10.0738 1.33406 10.2715 1.33325 10.4733V12.54C1.33325 12.7168 1.40349 12.8864 1.52851 13.0114C1.65354 13.1364 1.82311 13.2067 1.99992 13.2067C2.17673 13.2067 2.3463 13.1364 2.47132 13.0114C2.59635 12.8864 2.66659 12.7168 2.66659 12.54V10.6067C4.23412 9.82641 5.96963 9.44405 7.71992 9.49333C7.49092 9.07551 7.32469 8.62625 7.22659 8.16ZM22.0733 9.48666C20.6018 8.7148 18.9847 8.26056 17.3266 8.15333C17.2289 8.61876 17.0651 9.06777 16.8399 9.48666C18.402 9.52405 19.9364 9.90652 21.3333 10.6067V12.54C21.3333 12.7168 21.4035 12.8864 21.5285 13.0114C21.6535 13.1364 21.8231 13.2067 21.9999 13.2067C22.1767 13.2067 22.3463 13.1364 22.4713 13.0114C22.5963 12.8864 22.6666 12.7168 22.6666 12.54V10.4733C22.667 10.2704 22.6119 10.0712 22.5074 9.89735C22.4028 9.72345 22.2527 9.58144 22.0733 9.48666ZM7.10659 7.07333V6.62666C6.58433 6.55677 6.10915 6.28815 5.77997 5.87673C5.45078 5.4653 5.29295 4.94277 5.33934 4.4179C5.38573 3.89304 5.63276 3.40628 6.029 3.05897C6.42524 2.71165 6.94017 2.53054 7.46659 2.55333C8.01413 2.55234 8.54041 2.76524 8.93325 3.14666C9.27985 2.86078 9.66053 2.61894 10.0666 2.42666C9.61299 1.9051 9.01201 1.53322 8.34284 1.36004C7.67368 1.18686 6.96774 1.22051 6.31808 1.45656C5.66842 1.6926 5.10553 2.11996 4.70361 2.6823C4.30168 3.24464 4.07958 3.91557 4.06659 4.60666C4.08058 5.4525 4.40938 6.26274 4.98879 6.87913C5.56819 7.49551 6.35656 7.87376 7.19992 7.94C7.14337 7.65442 7.11213 7.3644 7.10659 7.07333ZM16.5133 1.22C16.0551 1.2201 15.6016 1.31153 15.1792 1.48896C14.7568 1.66639 14.374 1.92624 14.0533 2.25333C14.5039 2.41664 14.9301 2.64095 15.3199 2.92C15.6312 2.70395 15.9952 2.57642 16.3732 2.551C16.7512 2.52559 17.129 2.60324 17.4664 2.77568C17.8037 2.94812 18.088 3.20888 18.2888 3.53016C18.4896 3.85144 18.5994 4.2212 18.6066 4.6C18.6024 4.98909 18.4881 5.36904 18.2769 5.69585C18.0657 6.02266 17.7663 6.28298 17.4133 6.44666C17.4401 6.65224 17.4534 6.85935 17.4533 7.06666C17.4515 7.33464 17.4292 7.60209 17.3866 7.86666C18.1128 7.67995 18.757 7.25838 19.2188 6.66757C19.6806 6.07676 19.9341 5.34985 19.9399 4.6C19.9311 3.6982 19.5658 2.83653 18.9237 2.20322C18.2817 1.56991 17.4151 1.21643 16.5133 1.22Z" fill="#6D6976"/>
</svg>
