<svg width="15" height="15" viewBox="0 0 15 15" fill="none" xmlns="http://www.w3.org/2000/svg">
<path d="M6.25 1.40625C5.99112 1.40625 5.78125 1.61612 5.78125 1.875V2.34375H3.125C2.86612 2.34375 2.65625 2.55362 2.65625 2.8125C2.65625 3.07138 2.86612 3.28125 3.125 3.28125H11.875C12.1339 3.28125 12.3438 3.07138 12.3438 2.8125C12.3438 2.55362 12.1339 2.34375 11.875 2.34375H9.21875V1.875C9.21875 1.61612 9.00888 1.40625 8.75 1.40625H6.25Z" fill="#F06767"/>
<path d="M6.25 6.65625C6.50888 6.65625 6.71875 6.86611 6.71875 7.125L6.71875 11.5C6.71875 11.7589 6.50888 11.9687 6.25 11.9687C5.99112 11.9687 5.78125 11.7589 5.78125 11.5L5.78125 7.125C5.78125 6.86611 5.99112 6.65625 6.25 6.65625Z" fill="#F06767"/>
<path d="M9.21875 7.125C9.21875 6.86611 9.00888 6.65625 8.75 6.65625C8.49112 6.65625 8.28125 6.86611 8.28125 7.125V11.5C8.28125 11.7589 8.49112 11.9687 8.75 11.9687C9.00888 11.9687 9.21875 11.7589 9.21875 11.5V7.125Z" fill="#F06767"/>
<path fill-rule="evenodd" clip-rule="evenodd" d="M3.74464 4.94824C3.77102 4.71084 3.97167 4.53125 4.21052 4.53125H10.7895C11.0283 4.53125 11.229 4.71084 11.2554 4.94824L11.3804 6.07408C11.6072 8.1149 11.6072 10.1746 11.3804 12.2154L11.3681 12.3262C11.2781 13.1363 10.6503 13.7823 9.84307 13.8953C8.2886 14.1129 6.71139 14.1129 5.15692 13.8953C4.34971 13.7823 3.72187 13.1363 3.63186 12.3262L3.61955 12.2154C3.39279 10.1746 3.39279 8.1149 3.61955 6.07408L3.74464 4.94824ZM4.63007 5.46875L4.55131 6.17761C4.3322 8.14962 4.3322 10.1398 4.55131 12.1119L4.56363 12.2227C4.60632 12.6069 4.90408 12.9132 5.28691 12.9668C6.75514 13.1724 8.24485 13.1724 9.71309 12.9668C10.0959 12.9132 10.3937 12.6069 10.4364 12.2227L10.4487 12.1119C10.6678 10.1398 10.6678 8.14962 10.4487 6.17761L10.3699 5.46875H4.63007Z" fill="#F06767"/>
</svg>
