<svg width="19" height="19" viewBox="0 0 19 19" fill="none" xmlns="http://www.w3.org/2000/svg">
<path fill-rule="evenodd" clip-rule="evenodd" d="M2.24026 7.02928C1.98858 9.36769 1.9998 12.0646 2.35001 14.3936C2.54379 15.6822 3.59551 16.6701 4.89375 16.783L6.25053 16.9009C9.07959 17.1468 11.9247 17.1468 14.7537 16.9009L16.1105 16.783C17.4088 16.6701 18.4605 15.6822 18.6543 14.3936C19.0045 12.0646 19.0157 9.36784 18.764 7.02942C18.7315 6.75832 18.6949 6.48758 18.6543 6.2173C18.4605 4.92866 17.4088 3.94075 16.1105 3.8279L14.7537 3.70996C11.9247 3.46403 9.0796 3.46403 6.25052 3.70996L4.89375 3.8279C3.59551 3.94075 2.54379 4.92866 2.35001 6.2173C2.30938 6.48754 2.27279 6.75822 2.24026 7.02928ZM6.36723 5.05248C9.11864 4.8133 11.8856 4.8133 14.637 5.05248L15.9938 5.17042C16.6715 5.22933 17.2205 5.74502 17.3217 6.4177C17.3322 6.48755 17.3424 6.55744 17.3523 6.62736L12.3564 9.40289C11.2032 10.0435 9.80101 10.0435 8.64784 9.40289L3.65195 6.62739C3.66189 6.55746 3.67211 6.48756 3.68262 6.4177C3.78377 5.74502 4.33277 5.22933 5.01045 5.17042L6.36723 5.05248ZM17.5172 8.07733C17.6915 10.1147 17.6263 12.1673 17.3216 14.1932C17.2205 14.8658 16.6715 15.3815 15.9938 15.4404L14.637 15.5584C11.8856 15.7976 9.11864 15.7976 6.36723 15.5584L5.01045 15.4404C4.33277 15.3815 3.78377 14.8658 3.68262 14.1932C3.37798 12.1674 3.31279 10.1147 3.48705 8.07736L7.99339 10.5809C9.55357 11.4476 11.4506 11.4476 13.0108 10.5809L17.5172 8.07733Z" fill="#6D6976"/>
</svg>
