<svg width="20" height="21" viewBox="0 0 20 21" fill="none" xmlns="http://www.w3.org/2000/svg">
<path d="M12.3237 9.74164C12.7499 9.74164 13.1587 9.91109 13.4601 10.2127C13.7615 10.5144 13.9308 10.9235 13.9308 11.35V15.8171C13.9308 16.86 13.5169 17.8602 12.78 18.5977C12.0431 19.3351 11.0437 19.7494 10.0015 19.7494C8.95944 19.7494 7.96001 19.3351 7.22313 18.5977C6.48624 17.8602 6.07226 16.86 6.07226 15.8171V11.35C6.07226 10.9235 6.24159 10.5144 6.54299 10.2127C6.84438 9.91109 7.25317 9.74164 7.67941 9.74164H12.3237ZM12.3237 10.8139H7.67941C7.53733 10.8139 7.40107 10.8704 7.3006 10.9709C7.20013 11.0715 7.14369 11.2078 7.14369 11.35V15.8171C7.14369 16.5756 7.44479 17.3031 7.98074 17.8395C8.51669 18.3759 9.2436 18.6772 10.0015 18.6772C10.7595 18.6772 11.4864 18.3759 12.0224 17.8395C12.5583 17.3031 12.8594 16.5756 12.8594 15.8171V11.35C12.8594 11.2078 12.803 11.0715 12.7025 10.9709C12.602 10.8704 12.4658 10.8139 12.3237 10.8139ZM3.03512 9.74164H6.00369C5.71692 10.0404 5.51541 10.4107 5.42012 10.8139H3.03512C2.89304 10.8139 2.75678 10.8704 2.65631 10.9709C2.55585 11.0715 2.49941 11.2078 2.49941 11.35V15.1023C2.49931 15.4609 2.58908 15.8139 2.7605 16.1289C2.93192 16.4439 3.17952 16.7108 3.48065 16.9053C3.78178 17.0998 4.12683 17.2156 4.48425 17.2422C4.84166 17.2687 5.20002 17.2052 5.52655 17.0573C5.62155 17.4076 5.75798 17.7407 5.92941 18.0524C5.44003 18.2662 4.90513 18.3547 4.37303 18.3098C3.84092 18.265 3.32836 18.0882 2.88164 17.7954C2.43492 17.5026 2.06809 17.1031 1.8143 16.6329C1.56051 16.1627 1.42774 15.6367 1.42798 15.1023V11.35C1.42798 10.9235 1.5973 10.5144 1.8987 10.2127C2.2001 9.91109 2.60888 9.74164 3.03512 9.74164ZM16.9637 9.74164C17.3899 9.74164 17.7987 9.91109 18.1001 10.2127C18.4015 10.5144 18.5708 10.9235 18.5708 11.35V15.103C18.571 15.6371 18.4384 16.1628 18.1848 16.6328C17.9312 17.1027 17.5647 17.5021 17.1183 17.7948C16.6719 18.0876 16.1597 18.2645 15.6279 18.3096C15.0961 18.3547 14.5615 18.2665 14.0723 18.0531L14.1123 17.9802C14.2651 17.69 14.3887 17.3819 14.4773 17.0588C14.8036 17.2057 15.1615 17.2686 15.5184 17.2415C15.8752 17.2145 16.2196 17.0984 16.5201 16.9039C16.8207 16.7094 17.0677 16.4427 17.2388 16.1282C17.4098 15.8136 17.4994 15.4611 17.4994 15.103V11.35C17.4994 11.208 17.4431 11.0717 17.3428 10.9712C17.2424 10.8707 17.1064 10.8141 16.9644 10.8139H14.5837C14.4882 10.4106 14.2865 10.0403 13.9994 9.74164H16.9637ZM9.99941 4.02289C10.3277 4.02289 10.6528 4.0876 10.9561 4.21334C11.2594 4.33907 11.535 4.52337 11.7672 4.75569C11.9993 4.98802 12.1835 5.26383 12.3091 5.56739C12.4347 5.87094 12.4994 6.19628 12.4994 6.52484C12.4994 6.8534 12.4347 7.17875 12.3091 7.4823C12.1835 7.78585 11.9993 8.06166 11.7672 8.29399C11.535 8.52632 11.2594 8.71061 10.9561 8.83634C10.6528 8.96208 10.3277 9.02679 9.99941 9.02679C9.33637 9.02679 8.70048 8.7632 8.23164 8.29399C7.7628 7.82478 7.49941 7.1884 7.49941 6.52484C7.49941 5.86128 7.7628 5.2249 8.23164 4.75569C8.70048 4.28649 9.33637 4.02289 9.99941 4.02289ZM15.7158 4.73773C15.9972 4.73773 16.2759 4.7932 16.5359 4.90097C16.7959 5.00875 17.0321 5.16671 17.2311 5.36585C17.43 5.56499 17.5879 5.8014 17.6956 6.06159C17.8033 6.32177 17.8587 6.60064 17.8587 6.88226C17.8587 7.16389 17.8033 7.44275 17.6956 7.70294C17.5879 7.96313 17.43 8.19954 17.2311 8.39868C17.0321 8.59781 16.7959 8.75578 16.5359 8.86355C16.2759 8.97132 15.9972 9.02679 15.7158 9.02679C15.1475 9.02679 14.6025 8.80085 14.2006 8.39868C13.7987 7.9965 13.573 7.45103 13.573 6.88226C13.573 6.3135 13.7987 5.76803 14.2006 5.36585C14.6025 4.96367 15.1475 4.73773 15.7158 4.73773ZM4.28298 4.73773C4.56438 4.73773 4.84303 4.7932 5.10301 4.90097C5.363 5.00875 5.59922 5.16671 5.79821 5.36585C5.99719 5.56499 6.15503 5.8014 6.26272 6.06159C6.37041 6.32177 6.42584 6.60064 6.42584 6.88226C6.42584 7.16389 6.37041 7.44275 6.26272 7.70294C6.15503 7.96313 5.99719 8.19954 5.79821 8.39868C5.59922 8.59781 5.363 8.75578 5.10301 8.86355C4.84303 8.97132 4.56438 9.02679 4.28298 9.02679C3.71466 9.02679 3.16961 8.80085 2.76775 8.39868C2.36589 7.9965 2.14012 7.45103 2.14012 6.88226C2.14012 6.3135 2.36589 5.76803 2.76775 5.36585C3.16961 4.96367 3.71466 4.73773 4.28298 4.73773ZM9.99941 5.09515C9.62053 5.09515 9.25716 5.24578 8.98925 5.5139C8.72135 5.78202 8.57084 6.14566 8.57084 6.52484C8.57084 6.90402 8.72135 7.26766 8.98925 7.53578C9.25716 7.8039 9.62053 7.95453 9.99941 7.95453C10.3783 7.95453 10.7416 7.8039 11.0096 7.53578C11.2775 7.26766 11.428 6.90402 11.428 6.52484C11.428 6.14566 11.2775 5.78202 11.0096 5.5139C10.7416 5.24578 10.3783 5.09515 9.99941 5.09515ZM15.7158 5.81C15.5751 5.81 15.4358 5.83773 15.3058 5.89162C15.1758 5.94551 15.0577 6.02449 14.9582 6.12406C14.8587 6.22363 14.7798 6.34183 14.726 6.47192C14.6721 6.60202 14.6444 6.74145 14.6444 6.88226C14.6444 7.02307 14.6721 7.16251 14.726 7.2926C14.7798 7.42269 14.8587 7.5409 14.9582 7.64047C15.0577 7.74004 15.1758 7.81902 15.3058 7.87291C15.4358 7.92679 15.5751 7.95453 15.7158 7.95453C16 7.95453 16.2725 7.84156 16.4734 7.64047C16.6744 7.43938 16.7873 7.16665 16.7873 6.88226C16.7873 6.59788 16.6744 6.32515 16.4734 6.12406C16.2725 5.92297 16 5.81 15.7158 5.81ZM4.28298 5.81C4.14228 5.81 4.00295 5.83773 3.87296 5.89162C3.74297 5.94551 3.62486 6.02449 3.52536 6.12406C3.42587 6.22363 3.34695 6.34183 3.29311 6.47192C3.23926 6.60202 3.21155 6.74145 3.21155 6.88226C3.21155 7.02307 3.23926 7.16251 3.29311 7.2926C3.34695 7.42269 3.42587 7.5409 3.52536 7.64047C3.62486 7.74004 3.74297 7.81902 3.87296 7.87291C4.00295 7.92679 4.14228 7.95453 4.28298 7.95453C4.56714 7.95453 4.83966 7.84156 5.04059 7.64047C5.24152 7.43938 5.35441 7.16665 5.35441 6.88226C5.35441 6.59788 5.24152 6.32515 5.04059 6.12406C4.83966 5.92297 4.56714 5.81 4.28298 5.81Z" fill="#6D6976"/>
</svg>
