<svg width="19" height="20" viewBox="0 0 19 20" fill="none" xmlns="http://www.w3.org/2000/svg">
<path d="M13.9187 11.4691C14.1531 11.4691 14.3778 11.3738 14.5436 11.2041C14.7093 11.0345 14.8024 10.8043 14.8024 10.5644C14.8024 10.3244 14.7093 10.0943 14.5436 9.92461C14.3778 9.75493 14.1531 9.65961 13.9187 9.65961C13.6843 9.65961 13.4595 9.75493 13.2938 9.92461C13.1281 10.0943 13.035 10.3244 13.035 10.5644C13.035 10.8043 13.1281 11.0345 13.2938 11.2041C13.4595 11.3738 13.6843 11.4691 13.9187 11.4691ZM13.9187 15.0882C14.1531 15.0882 14.3778 14.9929 14.5436 14.8232C14.7093 14.6535 14.8024 14.4234 14.8024 14.1834C14.8024 13.9435 14.7093 13.7133 14.5436 13.5437C14.3778 13.374 14.1531 13.2787 13.9187 13.2787C13.6843 13.2787 13.4595 13.374 13.2938 13.5437C13.1281 13.7133 13.035 13.9435 13.035 14.1834C13.035 14.4234 13.1281 14.6535 13.2938 14.8232C13.4595 14.9929 13.6843 15.0882 13.9187 15.0882ZM10.3838 10.5644C10.3838 10.8043 10.2907 11.0345 10.125 11.2041C9.95923 11.3738 9.73446 11.4691 9.50008 11.4691C9.2657 11.4691 9.04092 11.3738 8.87519 11.2041C8.70946 11.0345 8.61636 10.8043 8.61636 10.5644C8.61636 10.3244 8.70946 10.0943 8.87519 9.92461C9.04092 9.75493 9.2657 9.65961 9.50008 9.65961C9.73446 9.65961 9.95923 9.75493 10.125 9.92461C10.2907 10.0943 10.3838 10.3244 10.3838 10.5644ZM10.3838 14.1834C10.3838 14.4234 10.2907 14.6535 10.125 14.8232C9.95923 14.9929 9.73446 15.0882 9.50008 15.0882C9.2657 15.0882 9.04092 14.9929 8.87519 14.8232C8.70946 14.6535 8.61636 14.4234 8.61636 14.1834C8.61636 13.9435 8.70946 13.7133 8.87519 13.5437C9.04092 13.374 9.2657 13.2787 9.50008 13.2787C9.73446 13.2787 9.95923 13.374 10.125 13.5437C10.2907 13.7133 10.3838 13.9435 10.3838 14.1834ZM5.08147 11.4691C5.31585 11.4691 5.54063 11.3738 5.70636 11.2041C5.87209 11.0345 5.9652 10.8043 5.9652 10.5644C5.9652 10.3244 5.87209 10.0943 5.70636 9.92461C5.54063 9.75493 5.31585 9.65961 5.08147 9.65961C4.8471 9.65961 4.62232 9.75493 4.45659 9.92461C4.29086 10.0943 4.19775 10.3244 4.19775 10.5644C4.19775 10.8043 4.29086 11.0345 4.45659 11.2041C4.62232 11.3738 4.8471 11.4691 5.08147 11.4691ZM5.08147 15.0882C5.31585 15.0882 5.54063 14.9929 5.70636 14.8232C5.87209 14.6535 5.9652 14.4234 5.9652 14.1834C5.9652 13.9435 5.87209 13.7133 5.70636 13.5437C5.54063 13.374 5.31585 13.2787 5.08147 13.2787C4.8471 13.2787 4.62232 13.374 4.45659 13.5437C4.29086 13.7133 4.19775 13.9435 4.19775 14.1834C4.19775 14.4234 4.29086 14.6535 4.45659 14.8232C4.62232 14.9929 4.8471 15.0882 5.08147 15.0882Z" fill="#6D6976"/>
<path fill-rule="evenodd" clip-rule="evenodd" d="M5.0814 0.385742C5.25718 0.385742 5.42576 0.457234 5.55006 0.584491C5.67436 0.711748 5.74419 0.884345 5.74419 1.06431V1.75465C6.32921 1.74289 6.97344 1.74289 7.68219 1.74289H11.3169C12.0266 1.74289 12.6708 1.74289 13.2558 1.75465V1.06431C13.2558 0.884345 13.3256 0.711748 13.4499 0.584491C13.5742 0.457234 13.7428 0.385742 13.9186 0.385742C14.0944 0.385742 14.263 0.457234 14.3873 0.584491C14.5116 0.711748 14.5814 0.884345 14.5814 1.06431V1.81255C14.8112 1.83065 15.0286 1.85327 15.2345 1.88131C16.2702 2.02427 17.1088 2.32465 17.7707 3.00141C18.4318 3.67908 18.7252 4.53769 18.8648 5.59808C19 6.6295 19 7.94593 19 9.60889V11.5197C19 13.1827 19 14.5 18.8648 15.5306C18.7252 16.5909 18.4318 17.4496 17.7707 18.1272C17.1088 18.804 16.2702 19.1044 15.2345 19.2473C14.227 19.3857 12.9412 19.3857 11.3169 19.3857H7.68307C6.05879 19.3857 4.77209 19.3857 3.76554 19.2473C2.72981 19.1044 1.89116 18.804 1.22926 18.1272C0.568233 17.4496 0.274837 16.5909 0.135209 15.5306C0 14.4991 0 13.1827 0 11.5197V9.60889C0 7.94593 0 6.6286 0.135209 5.59808C0.274837 4.53769 0.568233 3.67908 1.22926 3.00141C1.89116 2.32465 2.72981 2.02427 3.76554 1.88131C3.97144 1.85327 4.18972 1.83065 4.4186 1.81255V1.06431C4.4186 0.884345 4.48843 0.711748 4.61273 0.584491C4.73703 0.457234 4.90561 0.385742 5.0814 0.385742ZM3.9414 3.22669C3.05326 3.34884 2.5407 3.57865 2.16688 3.96136C1.79307 4.34408 1.5686 4.86884 1.4493 5.77903C1.42898 5.93284 1.41219 6.09569 1.39805 6.26669H17.602C17.5878 6.09479 17.571 5.93284 17.5507 5.77812C17.4314 4.86884 17.2069 4.34408 16.8331 3.96136C16.4593 3.57865 15.9467 3.34884 15.0577 3.22669C14.1501 3.10184 12.9527 3.10003 11.2674 3.10003H7.73256C6.0473 3.10003 4.85074 3.10184 3.9414 3.22669ZM1.32558 9.65955C1.32558 8.88689 1.32558 8.21465 1.33707 7.62384H17.6629C17.6744 8.21465 17.6744 8.88689 17.6744 9.65955V11.4691C17.6744 13.1945 17.6727 14.4204 17.5507 15.3505C17.4314 16.2598 17.2069 16.7846 16.8331 17.1673C16.4593 17.55 15.9467 17.7798 15.0577 17.9019C14.1501 18.0268 12.9527 18.0286 11.2674 18.0286H7.73256C6.0473 18.0286 4.85074 18.0268 3.9414 17.9019C3.05326 17.7798 2.5407 17.55 2.16688 17.1673C1.79307 16.7846 1.5686 16.2598 1.4493 15.3496C1.32735 14.4204 1.32558 13.1945 1.32558 11.4691V9.65955Z" fill="#6D6976"/>
</svg>
