<svg width="24" height="24" viewBox="0 0 24 24" fill="none" xmlns="http://www.w3.org/2000/svg">
<path d="M2.00049 11.0005L4.80749 7.84349C5.18277 7.42117 5.64325 7.08314 6.15861 6.85166C6.67397 6.62018 7.23253 6.50049 7.79749 6.50049H8.00049M2.00049 19.5005H7.50049L11.5005 16.5005C11.5005 16.5005 12.3105 15.9535 13.5005 15.0005C16.0005 13.0005 13.5005 9.83449 11.0005 11.5005C8.96449 12.8575 7.00049 14.0005 7.00049 14.0005" stroke="#6D6976" stroke-width="1.1" stroke-linecap="round" stroke-linejoin="round"/>
<path d="M8.00049 13.5005V7.00049C8.00049 6.47006 8.2112 5.96135 8.58627 5.58627C8.96135 5.2112 9.47006 5.00049 10.0005 5.00049H20.0005C20.5309 5.00049 21.0396 5.2112 21.4147 5.58627C21.7898 5.96135 22.0005 6.47006 22.0005 7.00049V13.0005C22.0005 13.5309 21.7898 14.0396 21.4147 14.4147C21.0396 14.7898 20.5309 15.0005 20.0005 15.0005H13.5005" stroke="#6D6976" stroke-width="1.1"/>
<path d="M19.5005 10.0105L19.5105 9.99949M10.5005 10.0105L10.5105 9.99949M15.0005 12.0005C14.4701 12.0005 13.9613 11.7898 13.5863 11.4147C13.2112 11.0396 13.0005 10.5309 13.0005 10.0005C13.0005 9.47006 13.2112 8.96135 13.5863 8.58628C13.9613 8.2112 14.4701 8.00049 15.0005 8.00049C15.5309 8.00049 16.0396 8.2112 16.4147 8.58628C16.7898 8.96135 17.0005 9.47006 17.0005 10.0005C17.0005 10.5309 16.7898 11.0396 16.4147 11.4147C16.0396 11.7898 15.5309 12.0005 15.0005 12.0005Z" stroke="#6D6976" stroke-width="1.1" stroke-linecap="round" stroke-linejoin="round"/>
</svg>
