<svg width="73" height="73" viewBox="0 0 73 73" fill="none" xmlns="http://www.w3.org/2000/svg">
<path d="M54.7539 18.25C54.7539 23.0902 52.8311 27.7322 49.4086 31.1547C45.9861 34.5773 41.3441 36.5 36.5039 36.5C31.6637 36.5 27.0217 34.5773 23.5992 31.1547C20.1767 27.7322 18.2539 23.0902 18.2539 18.25V2.60718H54.7539V18.25Z" stroke="#C9C9C9" stroke-width="5.21429" stroke-linecap="round" stroke-linejoin="round"/>
<path d="M7.82422 2.60718H65.1814M7.82422 70.3929H65.1814M54.7528 54.75C54.7528 49.9098 52.83 45.2679 49.4075 41.8453C45.9849 38.4228 41.343 36.5 36.5028 36.5C31.6626 36.5 27.0206 38.4228 23.5981 41.8453C20.1756 45.2679 18.2528 49.9098 18.2528 54.75V70.3929H54.7528V54.75Z" stroke="#C9C9C9" stroke-width="5.21429" stroke-linecap="round" stroke-linejoin="round"/>
</svg>
