<svg width="264" height="69" viewBox="0 0 264 69" fill="none" xmlns="http://www.w3.org/2000/svg">
<path d="M0.0105362 0.17865C0.0796972 0.121016 0.145016 0.0659488 0.214817 0.00831462C0.182798 0.0025512 0.153982 -1.06245e-05 0.129647 -1.06245e-05C0.0175809 -1.06245e-05 -0.0208424 0.0582586 0.0105362 0.17865Z" fill="url(#paint0_linear_2149_6499)"/>
<path d="M263.785 0.00843669C263.855 0.0660708 263.921 0.121138 263.99 0.178772C264.021 0.0583807 263.98 0.000111446 263.87 0.000111446C263.845 0.000111446 263.817 0.00267327 263.785 0.00843669Z" fill="url(#paint1_linear_2149_6499)"/>
<path d="M44.0495 4.28156C44.0495 4.33599 44.0322 4.39428 44.0252 4.44936C44.0354 7.17609 44.07 9.90729 44.0393 12.634C44.0322 13.2526 44.2231 13.5299 44.9858 13.6484C55.5738 15.2987 64.1747 22.5362 65.9082 31.7218C67.0424 37.7427 65.4785 43.2755 61.1438 48.2423C60.6405 48.8148 60.36 48.7162 59.9085 48.3C58.768 47.2485 57.6025 46.2168 56.4857 45.1512C56.0246 44.7062 55.5213 44.5326 54.8073 44.5384C51.0892 44.5614 47.3686 44.5409 43.6506 44.5352H38.2266C40.172 46.2315 41.9299 47.7601 43.6852 49.2887C45.8663 51.117 48.0378 52.9581 50.2362 54.7755C50.753 55.2 50.7569 55.4165 50.032 55.6336C48.367 56.1331 46.7161 56.6793 44.955 56.8906C44.2295 56.9771 44.0393 57.2281 44.0457 57.8294C44.0803 60.528 44.0425 63.2234 44.0322 65.9226C44.1712 66.5866 43.6922 67.494 44.2577 67.8667C44.809 68.2273 45.808 67.7969 46.6053 67.6849C49.4595 67.2859 52.2028 66.5521 54.9181 65.7375C56.6176 64.9742 58.428 64.3882 60.0545 63.507C60.3875 63.3245 60.6027 63.4052 60.8448 63.6133C61.7439 64.385 62.6487 65.1477 63.5536 65.9136C64.5839 66.7403 65.645 67.5427 66.637 68.4008C67.1083 68.8087 67.5976 68.9477 68.2565 68.9477C73.4135 68.9477 78.5673 68.9765 83.7242 68.988C84.0463 68.988 84.3896 69.0745 84.9653 68.7799C83.7793 67.8642 82.6657 67.0029 81.5495 66.139C77.9256 63.1683 74.3145 60.1841 70.6599 57.2371C70.0355 56.7344 69.9593 56.4072 70.542 55.8443C73.4686 53.0157 75.4627 49.7158 76.9958 46.2603C79.6834 40.2043 80.0203 33.9638 78.2304 27.6996C76.1396 20.3807 71.5647 14.3163 64.5141 9.56854C61.4659 7.51484 58.0636 5.96895 54.5159 4.62543C51.8628 3.8192 49.1508 3.19484 46.3767 2.75874C45.6908 2.64924 45.2125 2.57367 44.8775 2.57367C44.1078 2.57367 44.0924 2.97327 44.0495 4.28156Z" fill="url(#paint2_linear_2149_6499)"/>
<path d="M36.8434 2.35394C36.4413 2.41222 36.025 2.40646 35.6229 2.46409C26.2311 3.81593 18.1821 7.24902 11.7694 13.1981C4.93333 19.543 1.81276 27.0521 1.62513 35.4891C1.61169 39.8808 2.61708 44.108 4.71176 48.1065C8.73463 55.7718 15.2204 61.5218 24.3234 65.1617C28.2047 66.7133 32.2865 67.6906 36.5521 68.1267C37.9948 68.274 38.3663 67.9967 38.3733 66.812C38.3835 65.1905 38.3797 63.5672 38.3733 61.9464C38.3663 60.8372 38.1402 60.6028 36.8159 60.4498C32.1789 59.9176 27.8608 58.6382 23.9705 56.4743C13.6764 50.7442 8.15892 40.7652 10.8607 30.051C11.8597 26.0902 13.8397 22.5041 16.8988 19.349C21.1362 14.9746 26.5711 12.1345 33.0492 10.6552C35.9975 9.98215 35.9802 10.002 35.9661 12.4438C35.9629 13.0272 35.685 13.2122 35.0645 13.3397C22.1006 15.9774 12.7056 26.4918 14.5365 37.9821C15.3414 43.0417 17.8626 47.413 22.066 51.0535C25.9749 54.4367 30.7848 56.5691 36.3683 57.4246C37.4781 57.595 38.1511 57.358 38.3208 56.6709C38.4802 56.0235 38.071 55.6854 36.878 55.4798C30.6875 54.4226 25.6003 51.8367 21.7612 47.6697C17.7832 43.3536 16.1252 38.4246 16.8572 33.0096C17.2664 29.9876 18.3448 27.1277 20.3601 24.5297C24.3477 19.3893 29.8518 16.1362 37.1066 15.0066C37.9391 14.8766 38.3695 14.5096 38.3663 13.793C38.3624 12.2561 38.3867 10.7192 38.356 9.1817C38.3381 8.32679 37.7662 7.94831 36.7423 8.07831C32.1828 8.6617 27.8576 9.79388 23.8661 11.7848C11.4056 18.0055 5.20101 29.898 8.73463 41.6291C11.9986 52.4521 20.5157 59.089 33.3719 61.9726C34.2115 62.1603 35.4109 61.9176 35.824 62.5355C36.2056 63.1048 35.9347 63.9776 35.9379 64.7173C35.945 66.1159 35.9379 66.1274 34.2461 65.8322C24.6878 64.1653 16.9923 60.0681 11.1136 53.5644C8.34592 50.499 6.4632 47.0492 5.25289 43.4112C3.96252 39.5369 3.72686 35.5205 4.29552 31.4931C4.87506 27.405 6.32808 23.5383 8.78394 19.9823C10.8293 17.0142 13.3998 14.3624 16.5069 12.0858C21.126 8.70204 26.3451 6.27179 32.3448 5.07043C33.9336 4.75217 35.5537 4.53828 37.1591 4.27829C37.9603 4.14893 38.3797 3.71539 38.2926 3.07117C38.2177 2.51788 37.8059 2.32193 37.261 2.32193C37.1284 2.32193 36.9882 2.33345 36.8434 2.35394Z" fill="url(#paint3_linear_2149_6499)"/>
<path d="M220.997 52.0848C220.995 52.7418 221.333 52.7655 221.911 52.7591C223.668 52.7367 225.429 52.6989 227.182 52.77C228.222 52.8129 228.572 52.6067 228.558 51.6308C228.489 47.0092 228.522 42.3863 228.538 37.7646C228.539 37.4406 228.339 37.0634 228.756 36.7343C236.957 42.6309 245.147 48.5198 253.371 54.4324C253.531 54.3025 253.594 54.2749 253.594 54.2474C253.605 44.5655 253.605 34.8829 253.633 25.2004C253.635 24.5523 253.279 24.5165 252.702 24.5223C250.852 24.5408 249 24.578 247.154 24.5094C246.203 24.4736 246.023 24.7656 246.028 25.518C246.065 30.1794 246.052 34.8413 246.036 39.5033C246.035 39.8241 246.232 40.2032 245.815 40.5119C237.601 34.6044 229.403 28.7078 221.014 22.6741C221.014 32.6557 221.022 42.3703 220.997 52.0848ZM89.2917 24.5101C87.6331 24.5856 85.9624 24.5844 84.3031 24.5094C83.3285 24.4652 83.0832 24.7028 83.0941 25.5449C83.1485 29.8854 83.1197 34.2259 83.1197 38.567C83.1197 42.9869 83.1248 47.4075 83.112 51.8274C83.1107 52.3781 83.0493 52.7726 83.9951 52.77C94.254 52.738 104.514 52.7418 114.772 52.7662C115.598 52.7681 115.759 52.526 115.736 51.8818C115.686 50.3692 115.655 48.8522 115.745 47.3434C115.798 46.4565 115.522 46.217 114.466 46.2228C111.098 46.2433 107.73 46.2433 104.362 46.2426C100.29 46.2426 96.2174 46.2426 92.1459 46.2779C90.8094 46.29 90.5955 45.9186 90.6045 44.8863C90.6563 38.4755 90.6025 32.064 90.6595 25.6532C90.6679 24.7669 90.3938 24.5043 89.535 24.5043C89.4582 24.5043 89.3775 24.5062 89.2917 24.5101ZM150.801 25.3048C150.854 26.8571 150.897 28.4151 150.789 29.9629C150.723 30.9036 151.099 31.0516 152.091 31.0464C159.024 31.008 165.958 31.0202 172.891 31.0298C174.994 31.0317 175.788 31.6183 175.834 33.1347C175.885 34.8272 175.092 35.4804 172.896 35.4836C165.916 35.4926 158.937 35.4913 151.958 35.481C151.27 35.4804 150.781 35.426 150.791 36.3052C150.846 41.5224 150.829 46.7408 150.804 51.958C150.801 52.5593 150.95 52.7867 151.707 52.7662C153.554 52.7175 155.407 52.6951 157.252 52.7726C158.232 52.8136 158.357 52.4831 158.348 51.7601C158.305 48.8131 158.356 45.8654 158.311 42.9184C158.301 42.2134 158.458 41.9297 159.36 41.9726C160.834 42.0437 162.319 42.0289 163.796 41.9758C164.566 41.9482 165.058 42.1877 165.558 42.6712C168.816 45.8232 172.106 48.9501 175.394 52.079C175.691 52.3615 175.898 52.754 176.463 52.7534C179.624 52.7457 182.785 52.7495 186.2 52.7495C182.368 49.0923 178.728 45.6183 174.938 41.9995C175.59 41.8919 176.043 41.8221 176.493 41.7414C180 41.11 182.212 39.3304 183.029 36.2937C183.398 34.9201 183.438 33.533 183.337 32.1383C182.981 27.2912 179.825 24.6042 174.188 24.5523C169.62 24.5114 165.051 24.5158 160.483 24.5203C157.563 24.5229 154.644 24.5255 151.725 24.5165C151.72 24.5165 151.715 24.5165 151.71 24.5165C151.004 24.5165 150.779 24.6753 150.801 25.3048ZM126.939 58.472C126.443 60.6941 125.853 62.9002 125.33 65.1172C125.113 66.0361 125.642 66.4575 126.748 66.4524C127.059 66.4075 127.43 66.38 127.783 66.2948C128.106 66.2167 128.139 65.9586 128.129 65.7102C128.122 65.5309 128.219 65.2472 127.859 65.2862C126.375 65.4482 126.963 64.5504 127.07 64.0496C127.452 62.2527 127.934 60.4725 128.353 58.6807C128.411 58.431 128.763 57.9994 128.087 57.9673C127.926 57.9597 127.754 57.9327 127.593 57.9327C127.299 57.9327 127.039 58.0211 126.939 58.472ZM169.331 58.8799C169.223 59.3172 169.52 59.3121 169.812 59.3076C169.887 59.3064 169.961 59.3057 170.028 59.3115C170.899 59.3922 170.795 58.7979 170.888 58.3663C170.978 57.9379 170.701 57.9513 170.436 57.9648C170.348 57.9693 170.261 57.9737 170.19 57.9616C170.095 57.9468 170.011 57.9398 169.937 57.9398C169.265 57.9398 169.423 58.5078 169.331 58.8799ZM103.858 58.6525C103.303 61.1865 102.634 63.7019 101.996 66.2686C103.075 66.5465 103.61 66.3646 103.703 65.4194C103.777 64.674 104.064 63.9453 104.236 63.2056C104.403 62.4916 104.888 61.9838 105.598 61.6348C106.034 61.4209 106.511 61.1782 107.01 61.5022C107.468 61.7994 107.528 62.2156 107.409 62.6799C107.163 63.6507 106.914 64.6215 106.723 65.6006C106.672 65.86 106.239 66.3665 107.048 66.3633C107.129 66.3633 107.215 66.3717 107.303 66.38C107.653 66.4127 108.022 66.446 108.115 65.9311C108.362 64.5594 108.927 63.2319 108.972 61.8333C109.016 60.4706 108.218 60.0191 106.66 60.3041C106.08 60.411 105.514 61.198 105.028 60.6569C104.763 60.3598 105.165 59.6176 105.266 59.0758C105.281 58.9977 105.326 58.9125 105.305 58.8414C105.215 58.5392 105.876 58.0224 104.964 57.9513C104.875 57.9443 104.792 57.9398 104.714 57.9398C104.253 57.9398 103.983 58.0865 103.858 58.6525ZM85.231 59.1373C85.1497 59.6522 85.2394 60.3572 84.2039 60.4424C83.8638 60.4706 83.819 61.1699 84.0457 61.2128C85.1318 61.4164 84.5036 62.0139 84.4415 62.4013C84.3051 63.2639 84.0316 64.1092 83.8382 64.966C83.5994 66.0207 84.0367 66.476 85.4033 66.4645C85.6972 66.4011 86.1461 66.3198 86.5842 66.2058C86.9799 66.1033 86.9677 65.8094 86.9588 65.5244C86.9511 65.2958 86.8582 65.1217 86.5598 65.185C85.0594 65.5046 85.3412 64.7413 85.557 63.9901C85.6902 63.5284 85.7907 63.059 85.8906 62.5909C86.0366 61.9063 86.02 61.1327 87.2796 61.2909C87.6722 61.3402 87.7253 60.9483 87.7919 60.6845C87.8572 60.4277 87.6702 60.3175 87.4013 60.347C86.2473 60.4744 86.588 59.8853 86.6661 59.3249C86.7078 59.0259 87.2393 58.5193 86.4209 58.3733C86.2921 58.3503 86.1743 58.3387 86.0674 58.3387C85.5903 58.3387 85.3213 58.5757 85.231 59.1373ZM113.199 60.7786C113 60.8708 112.824 60.9989 112.625 61.1174C112.345 60.8651 112.756 60.2919 111.941 60.3124C111.206 60.3316 111.148 60.6652 111.041 61.1161C110.635 62.824 110.204 64.5274 109.771 66.2788C110.864 66.5452 111.386 66.3435 111.476 65.406C111.547 64.6606 111.83 63.9305 112.01 63.1915C112.183 62.4801 112.68 61.9736 113.392 61.6335C113.828 61.426 114.318 61.1852 114.815 61.4965C115.289 61.7949 115.287 62.2348 115.176 62.6869C114.938 63.6597 114.684 64.6298 114.487 65.609C114.433 65.8773 114.027 66.3627 114.833 66.3723C115.325 66.3781 115.815 66.4844 115.922 65.8017C116.077 64.82 116.435 63.8633 116.618 62.8842C116.774 62.0485 117.244 61.07 116.187 60.4616C115.845 60.2644 115.501 60.1862 115.16 60.1862C114.49 60.1862 113.828 60.4866 113.199 60.7786ZM213.292 61.0905C213.092 60.8298 213.453 60.2688 212.636 60.3175C212.028 60.3547 211.882 60.566 211.78 61.0155C211.428 62.5742 211.023 64.1233 210.651 65.6781C210.588 65.9388 210.227 66.3371 210.918 66.364C211.39 66.3832 211.958 66.533 212.094 65.8671C212.268 65.0077 212.52 64.1598 212.7 63.3011C212.812 62.7702 213.065 62.3098 213.516 61.9537C213.995 61.5746 214.562 61.166 215.239 61.4388C215.984 61.7379 215.779 62.3891 215.666 62.9239C215.468 63.8601 215.23 64.7919 214.959 65.7146C214.797 66.2654 215.01 66.3717 215.623 66.3928C216.598 66.4274 216.4 65.7652 216.552 65.3407C216.99 64.1201 216.739 62.6748 218.132 61.7725C218.578 61.4843 219.082 61.1718 219.643 61.4619C220.193 61.7449 220.175 62.2528 220.056 62.7426C219.82 63.7141 219.563 64.6824 219.364 65.6583C219.316 65.8972 218.975 66.355 219.656 66.3595C220.05 66.3608 220.617 66.6003 220.754 65.9657C221.057 64.562 221.484 63.1723 221.671 61.7584C221.827 60.5717 220.949 60.0748 219.551 60.29C218.691 60.4219 218.145 60.9566 217.478 61.3389C216.94 60.5775 216.427 60.2035 215.735 60.2035C215.114 60.2035 214.349 60.5026 213.292 61.0905ZM99.5057 60.2067C97.3041 60.2343 95.3734 61.9057 95.3189 63.8037C95.285 64.8258 95.6148 65.7166 96.7348 66.2032C98.0168 66.7585 99.2509 66.5055 100.379 65.8318C100.727 65.6244 101.379 65.3439 101.105 64.9872C100.772 64.5549 100.141 64.4954 99.5653 64.968C99.0882 65.3586 98.4619 65.5693 97.7831 65.2837C97.0742 64.9846 96.8437 64.4435 96.8507 63.805C96.861 62.8182 97.3035 62.0273 98.337 61.5496C98.9883 61.2486 99.7465 61.1353 100.238 61.6758C100.843 62.3424 101.624 62.0273 101.872 61.7155C102.288 61.1936 101.552 60.851 101.087 60.5628C100.641 60.2868 100.104 60.2067 99.5736 60.2067C99.5512 60.2067 99.5288 60.2067 99.5057 60.2067ZM200.009 60.2272C198.379 60.395 197.173 61.0937 196.446 62.3815C195.605 63.8755 196.009 65.511 197.393 66.186C198.836 66.8891 200.877 66.3518 201.918 64.9891C201.345 64.6183 200.838 64.5127 200.218 65.0064C199.692 65.4252 199.01 65.5898 198.312 65.1915C197.4 64.6715 197.292 63.2895 198.089 62.2854C198.868 61.3037 200.146 60.9886 201.005 61.7308C201.708 62.3379 202.374 61.9582 202.65 61.6687C202.971 61.3325 202.371 60.9028 201.973 60.6505C201.5 60.3502 200.954 60.208 200.38 60.208C200.257 60.208 200.134 60.2144 200.009 60.2272ZM243.553 60.2554C242.91 60.3463 242.312 60.5429 241.77 60.8676C241.616 60.9598 241.235 61.33 241.255 60.851C241.276 60.338 241.004 60.3406 240.688 60.3438C240.621 60.3438 240.551 60.3444 240.483 60.3399C239.851 60.3002 239.888 60.7171 239.806 61.052C239.443 62.5287 239.063 64.0036 238.742 65.4873C238.681 65.7672 238.067 66.2705 238.988 66.3704C239.577 66.4338 240.056 66.3966 240.159 65.7095C240.282 64.8847 240.554 64.0778 240.734 63.2581C240.89 62.5403 241.364 62.0241 242.064 61.6662C242.493 61.4459 242.984 61.1987 243.489 61.4619C244.055 61.7558 244.027 62.2451 243.906 62.7381C243.666 63.7102 243.418 64.6817 243.216 65.6596C243.167 65.9016 242.809 66.3531 243.494 66.3576C243.886 66.3608 244.463 66.6137 244.609 65.9849C244.934 64.5818 245.27 63.1807 245.548 62.0024C245.58 60.7984 245.024 60.2215 244.008 60.2215C243.865 60.2215 243.713 60.2324 243.553 60.2554ZM190.002 60.2561C189.359 60.347 188.762 60.5429 188.219 60.8683C188.064 60.9611 187.685 61.3287 187.706 60.8497C187.728 60.3355 187.455 60.3393 187.139 60.3431C187.071 60.3438 187.001 60.3444 186.932 60.3399C186.3 60.3002 186.339 60.719 186.257 61.0533C185.894 62.5307 185.514 64.0048 185.192 65.4892C185.132 65.7691 184.519 66.2724 185.441 66.371C186.032 66.4338 186.508 66.3941 186.61 65.7076C186.733 64.8828 187.004 64.0753 187.186 63.2562C187.355 62.4935 187.872 61.9601 188.638 61.6072C189.078 61.4042 189.578 61.1827 190.056 61.5272C190.449 61.8102 190.482 62.2066 190.381 62.6222C190.133 63.634 189.877 64.6439 189.667 65.6615C189.617 65.9042 189.261 66.355 189.947 66.3576C190.338 66.3595 190.915 66.6131 191.061 65.9836C191.385 64.5805 191.72 63.1794 191.999 62.0024C192.031 60.7984 191.474 60.2215 190.459 60.2215C190.316 60.2215 190.164 60.233 190.002 60.2561ZM166.942 60.4405C166.489 60.6095 166.093 60.8907 165.455 61.2454C165.523 60.7415 165.699 60.3079 164.922 60.322C164.313 60.3335 164.161 60.5545 164.059 61.0098C163.708 62.5685 163.302 64.1175 162.93 65.673C162.869 65.9311 162.497 66.3377 163.189 66.3601C163.599 66.3729 164.159 66.5734 164.318 65.9804C164.411 65.6327 164.518 65.2862 164.588 64.9347C164.901 63.3606 165.024 61.6982 167.492 61.4145C167.946 61.3626 168.006 60.8029 167.894 60.5167C167.825 60.3399 167.691 60.2817 167.537 60.2817C167.338 60.2817 167.107 60.379 166.942 60.4405ZM150.065 61.0053C149.676 62.4007 148.858 63.643 147.661 65.1024C147.394 63.4989 147.126 62.2195 146.987 60.9291C146.912 60.2343 146.427 60.3412 145.935 60.3438C145.167 60.3476 145.48 60.817 145.534 61.1103C145.772 62.4058 146.052 63.6942 146.31 64.9865C146.7 66.9333 146.692 66.9736 144.622 67.9099C144.239 68.0828 144.211 68.2537 144.276 68.5598C144.371 69.0017 144.679 69.0119 145.088 68.9325C145.896 68.7756 146.542 68.3799 147.001 67.8221C148.679 65.7806 150.268 63.6866 151.359 61.3537C151.488 61.0783 152.101 60.6038 151.376 60.3771C151.219 60.3278 151.061 60.2983 150.911 60.2983C150.538 60.2983 150.212 60.4815 150.065 61.0053ZM176.182 61.0559C175.703 62.473 174.841 63.7429 173.654 65.203C173.436 63.5988 173.199 62.279 173.101 60.9515C173.055 60.3387 172.697 60.3393 172.262 60.3399C172.205 60.3399 172.147 60.3399 172.087 60.338C171.331 60.3207 171.583 60.7658 171.633 61.0757C171.866 62.53 172.102 63.985 172.393 65.4316C172.459 65.7582 172.175 66.3115 172.91 66.3659C173.55 66.4127 174.136 66.4235 174.589 65.8402C175.692 64.4198 176.801 63.0065 177.453 61.3793C177.577 61.0693 178.148 60.6147 177.479 60.3784C177.331 60.3265 177.191 60.3002 177.062 60.3002C176.658 60.3002 176.351 60.5551 176.182 61.0559ZM251.315 61.0885C250.881 62.4634 250.088 63.6904 248.947 65.1012C248.681 63.5649 248.401 62.3283 248.281 61.0809C248.217 60.4129 247.891 60.3079 247.244 60.3348C246.365 60.372 246.77 60.8887 246.824 61.1961C247.05 62.4916 247.342 63.7788 247.598 65.0717C247.962 66.9077 247.88 67.0831 245.928 67.8958C245.451 68.0943 245.487 68.3088 245.576 68.6431C245.683 69.0395 245.989 68.9947 246.322 68.9377C247.134 68.7974 247.786 68.4042 248.247 67.8471C249.933 65.8094 251.52 63.7141 252.617 61.3844C252.746 61.1129 253.431 60.6038 252.554 60.3579C252.416 60.3194 252.291 60.3009 252.179 60.3009C251.723 60.3009 251.468 60.6051 251.315 61.0885ZM168.789 60.9201C168.464 62.5134 168.026 64.09 167.647 65.6756C167.584 65.9336 167.217 66.3326 167.905 66.3621C168.37 66.3826 168.934 66.542 169.085 65.8805C169.456 64.2527 169.864 62.6319 170.266 60.9739C170.248 60.7357 170.554 60.3367 169.876 60.3406C169.826 60.3412 169.777 60.3406 169.728 60.3406C169.692 60.3399 169.656 60.3399 169.621 60.3399C169.227 60.3399 168.899 60.3809 168.789 60.9201Z" fill="url(#paint4_linear_2149_6499)"/>
<path d="M150.797 25.3046C150.85 26.8569 150.893 28.4149 150.785 29.9627C150.719 30.9035 151.094 31.0514 152.087 31.0463C159.02 31.0079 165.954 31.02 172.887 31.0296C174.99 31.0315 175.784 31.6181 175.83 33.1345C175.881 34.8271 175.088 35.4803 172.892 35.4835C165.912 35.4924 158.933 35.4911 151.954 35.4809C151.265 35.4803 150.777 35.4258 150.786 36.3051C150.842 41.5222 150.825 46.7407 150.8 51.9579C150.797 52.5592 150.946 52.7865 151.703 52.766C153.55 52.7174 155.403 52.6949 157.248 52.7724C158.228 52.8134 158.353 52.483 158.344 51.76C158.301 48.813 158.352 45.8653 158.307 42.9183C158.297 42.2132 158.454 41.9295 159.356 41.9724C160.83 42.0435 162.315 42.0288 163.792 41.9756C164.562 41.9481 165.054 42.1876 165.554 42.6711C168.812 45.823 172.102 48.95 175.39 52.0789C175.687 52.3613 175.894 52.7539 176.459 52.7532C179.62 52.7455 182.781 52.7494 186.196 52.7494C182.364 49.0922 178.724 45.6181 174.934 41.9993C175.586 41.8917 176.039 41.8219 176.489 41.7412C179.996 41.1098 182.208 39.3302 183.025 36.2935C183.394 34.9199 183.434 33.5329 183.332 32.1381C182.977 27.2911 179.821 24.6041 174.184 24.5522C169.616 24.5112 165.047 24.5157 160.479 24.5195C157.559 24.5227 154.64 24.5253 151.721 24.5163C151.716 24.5163 151.711 24.5163 151.706 24.5163C151 24.5163 150.775 24.6751 150.797 25.3046Z" fill="url(#paint5_linear_2149_6499)"/>
<path d="M126.163 24.6567C120.336 25.1049 117.003 27.6998 116.213 32.1562C115.513 36.106 115.58 40.1257 116.075 44.0723C116.751 49.4598 119.802 52.0098 126.051 52.6099C130.086 52.9979 134.198 52.9864 138.235 52.6163C144.296 52.0611 147.46 49.3817 148.269 44.4726C148.587 42.5399 148.496 40.5771 148.345 38.6253C148.345 36.8738 148.454 35.116 148.324 33.371C147.962 28.5258 144.604 25.3816 139.032 24.7515C136.849 24.5043 134.651 24.3992 132.454 24.3992C130.351 24.3992 128.25 24.4959 126.163 24.6567ZM127.523 46.1632C124.882 45.9883 123.533 44.7127 123.431 42.4182C123.321 39.9163 123.324 37.4053 123.427 34.9027C123.527 32.4795 125.021 31.1777 127.878 31.0688C130.734 30.9599 133.604 30.9586 136.46 31.0701C139.374 31.1834 140.789 32.5289 140.884 35.0321C140.93 36.2635 140.892 37.4976 140.892 38.7309C140.888 38.7309 140.886 38.7309 140.882 38.7309C140.882 39.9643 140.93 41.1983 140.871 42.4291C140.765 44.6493 139.502 45.9435 136.927 46.1472C135.381 46.2695 133.827 46.3252 132.273 46.3252C130.687 46.3252 129.101 46.2675 127.523 46.1632Z" fill="url(#paint6_linear_2149_6499)"/>
<path d="M196.115 24.6501C189.838 25.122 186.708 27.77 185.961 33.1703C185.457 36.8006 185.452 40.5071 185.966 44.1387C186.723 49.4904 189.776 52.0871 196.022 52.6135C200.239 52.9683 204.527 53.0125 208.752 52.5367C214.194 51.9238 217.043 49.5147 218.067 44.8739C218.519 42.8285 218.341 40.7453 218.234 38.6769C218.234 36.8858 218.352 35.0876 218.211 33.3041C217.831 28.5141 214.461 25.3782 208.984 24.7557C206.786 24.5053 204.573 24.3997 202.362 24.4003C200.274 24.4003 198.187 24.4944 196.115 24.6501ZM197.48 46.1662C194.779 46.033 193.411 44.7048 193.318 42.3553C193.219 39.8924 193.221 37.4224 193.314 34.9589C193.406 32.4838 194.925 31.1634 197.843 31.0622C200.654 30.9642 203.477 30.9616 206.288 31.0628C209.262 31.1704 210.688 32.5184 210.779 35.0953C210.821 36.287 210.786 37.4813 210.786 38.6744C210.783 38.6744 210.781 38.6744 210.778 38.6744C210.778 39.9071 210.823 41.1417 210.768 42.3732C210.667 44.6568 209.386 46.0035 206.747 46.1482C205.166 46.236 203.578 46.2782 201.989 46.2782C200.484 46.2782 198.978 46.2398 197.48 46.1662Z" fill="url(#paint7_linear_2149_6499)"/>
<path d="M220.996 52.0845C220.994 52.7415 221.332 52.7652 221.911 52.7588C223.668 52.7364 225.428 52.6986 227.182 52.7697C228.221 52.8126 228.572 52.6064 228.557 51.6305C228.489 47.0089 228.521 42.3859 228.537 37.7643C228.538 37.4403 228.339 37.0631 228.756 36.7339C236.956 42.6306 245.147 48.5195 253.37 54.4321C253.531 54.3021 253.593 54.2746 253.593 54.2471C253.604 44.5652 253.605 34.8826 253.632 25.2001C253.635 24.552 253.279 24.5162 252.701 24.5219C250.852 24.5405 248.999 24.5776 247.153 24.5091C246.202 24.4732 246.022 24.7653 246.028 25.5177C246.065 30.179 246.052 34.841 246.036 39.503C246.034 39.8238 246.232 40.2029 245.815 40.5116C237.601 34.6041 229.402 28.7074 221.014 22.6738C221.014 32.6554 221.021 42.3699 220.996 52.0845Z" fill="url(#paint8_linear_2149_6499)"/>
<path d="M89.2917 24.51C87.6331 24.5856 85.9624 24.5843 84.3031 24.5094C83.3285 24.4652 83.0832 24.7028 83.0941 25.5449C83.1485 29.8853 83.1197 34.2258 83.1197 38.567C83.1197 42.9869 83.1248 47.4074 83.112 51.8273C83.1107 52.378 83.0493 52.7725 83.9951 52.7699C94.254 52.7379 104.514 52.7418 114.772 52.7661C115.598 52.768 115.759 52.526 115.736 51.8817C115.686 50.3692 115.655 48.8521 115.745 47.3434C115.798 46.4564 115.522 46.2169 114.466 46.2227C111.098 46.2432 107.73 46.2432 104.362 46.2432C100.29 46.2425 96.2174 46.2426 92.1459 46.2778C90.8094 46.2899 90.5955 45.9185 90.6045 44.8862C90.6563 38.4754 90.6025 32.0639 90.6595 25.6531C90.6679 24.7668 90.3938 24.5042 89.535 24.5042C89.4588 24.5042 89.3775 24.5062 89.2917 24.51Z" fill="url(#paint9_linear_2149_6499)"/>
<path d="M213.299 61.0903C213.1 60.8296 213.46 60.2686 212.643 60.3173C212.035 60.3545 211.889 60.5658 211.787 61.0153C211.435 62.574 211.03 64.1231 210.658 65.6779C210.596 65.9386 210.234 66.3369 210.925 66.3638C211.397 66.383 211.965 66.5328 212.101 65.8669C212.275 65.0075 212.527 64.1596 212.708 63.3009C212.819 62.77 213.073 62.3096 213.523 61.9535C214.002 61.5744 214.569 61.1658 215.246 61.4386C215.991 61.7377 215.786 62.3889 215.673 62.9237C215.475 63.8599 215.237 64.7917 214.966 65.7144C214.804 66.2652 215.017 66.3715 215.63 66.3926C216.605 66.4272 216.407 65.765 216.56 65.3405C216.998 64.1199 216.747 62.6746 218.139 61.7723C218.585 61.4841 219.09 61.1716 219.651 61.4617C220.2 61.7447 220.182 62.2526 220.063 62.7424C219.827 63.7139 219.57 64.6822 219.371 65.6581C219.323 65.897 218.982 66.3548 219.663 66.3593C220.057 66.3606 220.624 66.6001 220.761 65.9655C221.064 64.5618 221.491 63.1721 221.678 61.7582C221.834 60.5715 220.956 60.0746 219.558 60.2898C218.698 60.4217 218.152 60.9564 217.485 61.3387C216.947 60.5767 216.435 60.2033 215.742 60.2033C215.122 60.2033 214.357 60.5024 213.299 61.0903Z" fill="url(#paint10_linear_2149_6499)"/>
<path d="M139.384 60.5338C137.956 61.1416 137.132 62.1758 136.952 63.5219C136.644 65.8138 138.241 66.8659 140.756 66.0757C141 65.9982 141.243 65.7766 141.484 66.0379C141.696 66.2652 141.482 66.4945 141.386 66.6975C140.775 68.0026 138.812 68.4047 137.486 67.4121C136.974 67.0292 136.741 67.1528 136.378 67.4378C135.844 67.8553 136.393 68.0698 136.637 68.2799C136.887 68.4963 137.221 68.6711 137.556 68.7755C139.799 69.4761 142.444 68.3068 143.014 66.3145C143.488 64.6579 143.864 62.9801 144.24 61.3042C144.309 60.9994 144.833 60.5281 144.052 60.3539C143.363 60.2002 143.021 60.5204 142.968 61.3177C142.282 60.5479 141.554 60.2168 140.782 60.2168C140.331 60.2168 139.865 60.3296 139.384 60.5338ZM140.028 65.4065C139.055 65.3982 138.387 64.6553 138.447 63.6493C138.52 62.4185 139.728 61.2735 140.929 61.3426C141.925 61.3996 142.432 61.9459 142.425 62.7598C142.414 64.1763 141.262 65.4065 140.044 65.4065C140.039 65.4065 140.033 65.4065 140.028 65.4065ZM141.424 65.7311C141.419 65.7119 141.479 65.6806 141.51 65.6556C141.539 65.7055 141.578 65.7568 141.59 65.8125C141.595 65.8336 141.536 65.8644 141.506 65.89C141.476 65.8375 141.437 65.7869 141.424 65.7311Z" fill="url(#paint11_linear_2149_6499)"/>
<path d="M161.19 58.6022C161.07 59.425 160.796 60.2313 160.556 61.1765C158.976 59.9412 157.494 59.9527 156.079 61.1521C155.152 61.9385 154.663 62.8933 154.688 64.0403C154.736 66.1189 156.725 67.1083 158.798 66.0728C159.154 65.8954 159.562 65.2134 159.848 66.1753C159.941 66.4871 160.485 66.4628 160.844 66.3879C161.38 66.2765 161.442 65.8064 161.318 65.5208C160.994 64.7754 161.361 64.1177 161.512 63.4383C161.853 61.9168 162.265 60.4067 162.611 58.8852C162.682 58.574 163.157 58.0866 162.354 57.9637C162.218 57.9432 162.085 57.9285 161.961 57.9285C161.572 57.9285 161.268 58.0706 161.19 58.6022ZM156.209 63.8033C156.206 62.5558 157.454 61.2821 158.668 61.3347C159.667 61.3782 160.097 61.9379 160.212 62.6052C160.184 64.137 159.081 65.3838 157.843 65.4087C157.831 65.4087 157.82 65.4087 157.809 65.4087C156.921 65.4087 156.213 64.7005 156.209 63.8033Z" fill="url(#paint12_linear_2149_6499)"/>
<path d="M225.787 60.6931C225.584 60.793 225.453 61.1324 225.081 60.7174C224.537 60.1104 223.941 60.0342 223.707 61.0005C223.083 63.5646 222.443 66.1242 221.809 68.6889C222.884 69.0289 223.399 68.7651 223.524 67.8109C223.62 67.079 223.878 66.3624 224.073 65.6042C225.564 66.6243 226.638 66.7549 227.877 66.0447C229.095 65.3455 229.823 64.3657 229.927 63.0836C230.009 62.0859 229.827 61.1465 228.78 60.5484C228.362 60.3095 227.945 60.2096 227.53 60.2096C226.942 60.2096 226.359 60.4094 225.787 60.6931ZM225.917 65.3986C224.937 65.3179 224.439 64.7461 224.452 63.9417C224.476 62.4714 225.584 61.3232 227.065 61.3386C228.022 61.4276 228.411 62.0962 228.428 62.9709C228.45 64.1415 227.19 65.4037 226.042 65.4037C226 65.4037 225.958 65.4025 225.917 65.3986Z" fill="url(#paint13_linear_2149_6499)"/>
<path d="M103.851 58.6526C103.295 61.1866 102.627 63.702 101.988 66.2686C103.068 66.5466 103.603 66.3647 103.696 65.4195C103.77 64.6741 104.057 63.9453 104.229 63.2057C104.395 62.4917 104.881 61.9839 105.59 61.6349C106.027 61.421 106.504 61.1783 107.003 61.5023C107.46 61.7994 107.521 62.2157 107.402 62.68C107.156 63.6508 106.907 64.6216 106.716 65.6007C106.665 65.8601 106.232 66.3666 107.041 66.3634C107.122 66.3634 107.208 66.3717 107.296 66.3801C107.646 66.4127 108.015 66.446 108.108 65.9312C108.354 64.5595 108.92 63.232 108.965 61.8334C109.009 60.4706 108.211 60.0192 106.653 60.3041C106.073 60.4111 105.507 61.1981 105.021 60.657C104.755 60.3599 105.158 59.6177 105.259 59.0759C105.273 58.9978 105.319 58.9126 105.298 58.8415C105.207 58.5393 105.869 58.0225 104.957 57.9514C104.868 57.9444 104.785 57.9399 104.707 57.9399C104.246 57.9399 103.976 58.0865 103.851 58.6526Z" fill="url(#paint14_linear_2149_6499)"/>
<path d="M233.258 60.4556C231.452 61.1094 230.304 63.1843 230.799 64.8275C231.158 66.0147 232.319 66.6276 233.735 66.4265C234.453 66.3247 234.985 65.9578 235.634 65.5626C235.683 66.2312 236.086 66.497 236.801 66.4067C237.301 66.3433 237.403 65.984 237.345 65.6978C237.016 64.0731 237.821 62.6002 238.156 61.071C238.33 60.275 237.886 60.3532 237.287 60.3314C236.581 60.3058 236.823 60.9365 236.428 61.1376C235.892 60.4979 235.24 60.2129 234.512 60.2129C234.114 60.2129 233.694 60.2974 233.258 60.4556ZM233.858 65.3981C232.698 65.3699 232.329 64.6661 232.235 63.9111C232.238 62.5452 233.492 61.2695 234.704 61.3361C235.686 61.3912 236.216 61.9195 236.221 62.7411C236.23 64.1352 235.118 65.3987 233.901 65.3981C233.887 65.3981 233.872 65.3981 233.858 65.3981Z" fill="url(#paint15_linear_2149_6499)"/>
<path d="M113.213 60.7787C113.014 60.8709 112.838 60.999 112.639 61.1174C112.359 60.8651 112.77 60.292 111.955 60.3125C111.22 60.3317 111.163 60.6653 111.055 61.1162C110.649 62.824 110.218 64.5275 109.785 66.2789C110.878 66.5453 111.4 66.3436 111.49 65.4061C111.562 64.6607 111.845 63.9306 112.025 63.1916C112.197 62.4802 112.694 61.9736 113.407 61.6336C113.843 61.4261 114.332 61.1853 114.829 61.4965C115.303 61.795 115.301 62.2349 115.191 62.687C114.952 63.6597 114.698 64.6299 114.501 65.6091C114.447 65.8774 114.041 66.3628 114.847 66.3724C115.339 66.3782 115.829 66.4845 115.937 65.8018C116.091 64.8201 116.45 63.8634 116.632 62.8843C116.788 62.0486 117.258 61.07 116.201 60.4617C115.859 60.2644 115.515 60.1863 115.174 60.1863C114.504 60.1863 113.842 60.4867 113.213 60.7787Z" fill="url(#paint16_linear_2149_6499)"/>
<path d="M190.007 60.2559C189.364 60.3469 188.766 60.5428 188.224 60.8681C188.069 60.961 187.69 61.3286 187.71 60.8496C187.733 60.3353 187.459 60.3392 187.144 60.343C187.076 60.3437 187.005 60.3443 186.936 60.3398C186.304 60.3001 186.343 60.7189 186.261 61.0532C185.898 62.5306 185.518 64.0047 185.197 65.4891C185.137 65.769 184.523 66.2723 185.445 66.3709C186.036 66.4337 186.512 66.394 186.615 65.7075C186.738 64.8827 187.009 64.0752 187.19 63.2561C187.36 62.4934 187.877 61.96 188.642 61.6071C189.083 61.4041 189.582 61.1826 190.061 61.5271C190.454 61.8101 190.486 62.2065 190.385 62.6221C190.138 63.6339 189.882 64.6438 189.671 65.6614C189.621 65.9041 189.265 66.3549 189.951 66.3575C190.343 66.3594 190.919 66.613 191.065 65.9835C191.39 64.5804 191.725 63.1793 192.004 62.0022C192.036 60.7983 191.479 60.2213 190.464 60.2213C190.321 60.2213 190.168 60.2329 190.007 60.2559Z" fill="url(#paint17_linear_2149_6499)"/>
<path d="M243.552 60.2552C242.909 60.3461 242.311 60.5427 241.769 60.8674C241.615 60.9596 241.234 61.3297 241.254 60.8507C241.275 60.3378 241.003 60.3403 240.687 60.3435C240.619 60.3435 240.55 60.3442 240.482 60.3397C239.85 60.3 239.887 60.7169 239.805 61.0518C239.442 62.5285 239.062 64.0033 238.741 65.4871C238.68 65.7669 238.066 66.2703 238.987 66.3702C239.576 66.4336 240.055 66.3964 240.158 65.7093C240.281 64.8845 240.553 64.0776 240.733 63.2579C240.889 62.54 241.363 62.0239 242.063 61.6659C242.492 61.4456 242.983 61.1985 243.488 61.4616C244.054 61.7556 244.026 62.2448 243.905 62.7379C243.665 63.71 243.417 64.6815 243.215 65.6593C243.166 65.9014 242.808 66.3529 243.493 66.3573C243.885 66.3605 244.462 66.6135 244.608 65.9846C244.933 64.5816 245.269 63.1804 245.547 62.0021C245.579 60.7982 245.023 60.2212 244.007 60.2212C243.864 60.2212 243.712 60.2321 243.552 60.2552Z" fill="url(#paint18_linear_2149_6499)"/>
<path d="M251.309 61.0885C250.875 62.4634 250.082 63.6904 248.94 65.1012C248.675 63.5649 248.395 62.3283 248.275 61.0809C248.211 60.4129 247.884 60.3079 247.238 60.3348C246.358 60.372 246.764 60.8887 246.818 61.1961C247.044 62.4916 247.336 63.7788 247.592 65.0717C247.955 66.9077 247.874 67.0831 245.922 67.8958C245.445 68.0943 245.481 68.3088 245.57 68.6431C245.677 69.0395 245.983 68.9947 246.315 68.9377C247.127 68.7974 247.779 68.4042 248.24 67.8471C249.927 65.8094 251.514 63.7141 252.611 61.3844C252.74 61.1129 253.424 60.6038 252.548 60.3579C252.409 60.3194 252.284 60.3009 252.172 60.3009C251.716 60.3009 251.462 60.6051 251.309 61.0885Z" fill="url(#paint19_linear_2149_6499)"/>
<path d="M150.078 61.0051C149.689 62.4005 148.871 63.6428 147.674 65.1022C147.407 63.4987 147.139 62.2192 147 60.9289C146.925 60.2341 146.44 60.341 145.947 60.3436C145.18 60.3474 145.493 60.8168 145.547 61.1101C145.785 62.4056 146.065 63.694 146.323 64.9863C146.713 66.9331 146.705 66.9734 144.635 67.9097C144.252 68.0826 144.224 68.2535 144.289 68.5596C144.384 69.0015 144.692 69.0117 145.101 68.9323C145.909 68.7754 146.555 68.3797 147.014 67.8219C148.692 65.7804 150.281 63.6863 151.372 61.3534C151.501 61.0781 152.114 60.6036 151.389 60.3769C151.232 60.3276 151.074 60.2981 150.924 60.2981C150.55 60.2981 150.225 60.4812 150.078 61.0051Z" fill="url(#paint20_linear_2149_6499)"/>
<path d="M88.7036 61.694C87.4606 63.0785 87.5106 65.0342 88.7612 65.9423C90.0721 66.8951 92.3064 66.5711 93.7101 65.2212C93.7671 65.1661 93.7914 65.0861 93.8305 65.0163C93.2913 64.5942 92.8347 64.6192 92.2833 65.0752C91.7243 65.5388 90.9834 65.6688 90.22 65.4229C89.4913 65.1879 89.2806 64.5968 89.335 64.0615C89.3792 63.6228 89.7244 63.6926 90.0567 63.7611C90.1983 63.7912 90.3385 63.8207 90.4518 63.8104C91.2767 63.7368 92.1104 63.7701 92.9154 63.5376C93.9502 63.2386 94.5829 62.6904 94.4792 61.6952C94.3774 60.7135 93.5641 60.3517 92.5824 60.2563C92.3948 60.2377 92.211 60.2288 92.0317 60.2288C90.6869 60.2288 89.5611 60.7385 88.7036 61.694ZM89.5265 62.9081C89.9908 61.758 90.7752 61.1477 92.0791 61.1605C92.535 61.165 92.9999 61.2957 93.1075 61.7779C93.2234 62.2978 92.8878 62.6142 92.3666 62.7538C91.8018 62.9049 91.2267 62.992 90.6043 62.992C90.261 62.992 89.9037 62.9658 89.5265 62.9081Z" fill="url(#paint21_linear_2149_6499)"/>
<path d="M179.05 61.2375C177.452 62.4702 177.211 64.766 178.52 65.8527C179.861 66.9638 182.263 66.5827 183.712 65.0305C183.112 64.4989 182.653 64.7474 182.064 65.1329C180.947 65.861 179.729 65.6017 179.329 64.6558C179.083 64.0725 179.028 63.6863 180.033 63.7721C181.09 63.8611 182.17 63.8073 183.162 63.4199C183.993 63.0965 184.448 62.5355 184.363 61.7101C184.28 60.9205 183.717 60.5081 182.883 60.3269C182.537 60.2519 182.203 60.2161 181.878 60.2161C180.823 60.2161 179.882 60.5965 179.05 61.2375ZM179.526 62.6149C179.583 61.949 180.837 61.1357 181.78 61.153C182.409 61.1645 183.136 61.3156 182.977 61.9701C182.677 63.1971 181.342 62.7923 180.44 63.0216C180.325 62.9512 180.164 62.9704 180.009 62.9896C179.937 62.9985 179.866 63.0081 179.802 63.0081C179.626 63.0081 179.498 62.9396 179.526 62.6149Z" fill="url(#paint22_linear_2149_6499)"/>
<path d="M117.493 63.8712C117.46 65.4324 118.492 66.4455 120.153 66.4827C122.375 66.5332 124.419 64.8427 124.488 62.8978C124.544 61.3315 123.414 60.2236 121.733 60.1954C121.71 60.1954 121.687 60.1948 121.664 60.1948C119.515 60.1954 117.535 61.9321 117.493 63.8712ZM120.514 65.3998C119.306 65.3562 119.056 64.5999 119.004 63.8885C119.026 62.5142 120.161 61.3545 121.378 61.3449C122.612 61.3346 122.932 62.0832 122.977 62.9298C123.042 64.128 121.78 65.4011 120.575 65.4011C120.555 65.4011 120.534 65.4004 120.514 65.3998Z" fill="url(#paint23_linear_2149_6499)"/>
<path d="M129.15 63.8305C129.101 65.3975 130.113 66.424 131.762 66.4817C133.982 66.5591 136.048 64.8871 136.141 62.9378C136.215 61.3638 135.12 60.2533 133.436 60.197C133.393 60.1957 133.35 60.1951 133.307 60.1951C131.201 60.1951 129.211 61.919 129.15 63.8305ZM132.18 65.3994C130.971 65.3636 130.716 64.6092 130.661 63.8997C130.677 62.5248 131.808 61.3618 133.024 61.3445C134.26 61.3272 134.584 62.0733 134.634 62.9199C134.705 64.12 133.442 65.4001 132.231 65.4001C132.214 65.4001 132.198 65.4001 132.18 65.3994Z" fill="url(#paint24_linear_2149_6499)"/>
<path d="M202.978 63.8427C202.933 65.4071 203.951 66.4298 205.604 66.4817C207.821 66.5515 209.883 64.8724 209.97 62.9263C210.039 61.3541 208.933 60.2431 207.25 60.1944C207.213 60.1938 207.176 60.1931 207.14 60.1931C205.021 60.1931 203.032 61.9228 202.978 63.8427ZM205.944 65.4014C204.834 65.3296 204.519 64.6419 204.494 63.8132C204.455 62.5446 205.657 61.3305 207.158 61.3401C208.113 61.4041 208.442 62.1207 208.46 62.975C208.484 64.1699 207.231 65.4045 206.051 65.4045C206.015 65.4045 205.98 65.4033 205.944 65.4014Z" fill="url(#paint25_linear_2149_6499)"/>
<path d="M99.4899 60.2063C97.2883 60.2339 95.3575 61.9053 95.3031 63.8033C95.2692 64.8254 95.599 65.7162 96.719 66.2028C98.001 66.7581 99.235 66.5051 100.363 65.8314C100.711 65.6239 101.364 65.3435 101.09 64.9868C100.757 64.5545 100.125 64.495 99.5495 64.9676C99.0724 65.3582 98.4461 65.5689 97.7673 65.2833C97.0584 64.9842 96.8279 64.4431 96.8349 63.8046C96.8451 62.8178 97.2876 62.0269 98.3212 61.5492C98.9725 61.2482 99.7307 61.1349 100.222 61.6754C100.827 62.342 101.608 62.0269 101.856 61.7151C102.272 61.1932 101.536 60.8506 101.071 60.5624C100.625 60.2864 100.089 60.2063 99.5578 60.2063C99.5354 60.2063 99.513 60.2063 99.4899 60.2063Z" fill="url(#paint26_linear_2149_6499)"/>
<path d="M200.007 60.2271C198.378 60.3949 197.171 61.0936 196.445 62.3814C195.604 63.8754 196.008 65.5109 197.392 66.1859C198.835 66.889 200.876 66.3517 201.916 64.989C201.344 64.6182 200.837 64.5126 200.217 65.0063C199.691 65.4251 199.009 65.5897 198.311 65.1914C197.399 64.6714 197.291 63.2895 198.088 62.2853C198.866 61.3036 200.145 60.9885 201.003 61.7307C201.706 62.3378 202.373 61.9581 202.649 61.6686C202.97 61.3324 202.37 60.9028 201.972 60.6504C201.499 60.3501 200.953 60.2079 200.378 60.2079C200.256 60.2079 200.132 60.2143 200.007 60.2271Z" fill="url(#paint27_linear_2149_6499)"/>
<path d="M176.161 61.0558C175.682 62.473 174.82 63.7429 173.633 65.2029C173.415 63.5988 173.177 62.279 173.079 60.9514C173.034 60.3386 172.675 60.3392 172.241 60.3392C172.184 60.3392 172.125 60.3399 172.066 60.338C171.309 60.3207 171.562 60.7657 171.612 61.0757C171.845 62.53 172.08 63.9849 172.372 65.4315C172.438 65.7581 172.153 66.3114 172.889 66.3658C173.528 66.4126 174.115 66.4235 174.568 65.8401C175.671 64.4197 176.78 63.0064 177.431 61.3792C177.556 61.0693 178.127 60.6146 177.458 60.3783C177.31 60.3264 177.17 60.3002 177.041 60.3002C176.637 60.3002 176.33 60.555 176.161 61.0558Z" fill="url(#paint28_linear_2149_6499)"/>
<path d="M85.2204 59.1372C85.1391 59.652 85.2287 60.3571 84.1932 60.4423C83.8532 60.4704 83.8084 61.1697 84.0351 61.2126C85.1211 61.4163 84.4929 62.0138 84.4308 62.4012C84.2944 63.2638 84.021 64.1091 83.8276 64.9659C83.5887 66.0206 84.0261 66.4759 85.3927 66.4644C85.6866 66.401 86.1355 66.3197 86.5735 66.2057C86.9693 66.1032 86.9571 65.8093 86.9481 65.5243C86.9405 65.2957 86.8476 65.1215 86.5492 65.1849C85.0488 65.5045 85.3305 64.7411 85.5463 63.99C85.6795 63.5283 85.7801 63.0589 85.88 62.5907C86.026 61.9062 86.0093 61.1326 87.269 61.2908C87.6615 61.3401 87.7147 60.9482 87.7813 60.6843C87.8466 60.4275 87.6596 60.3174 87.3906 60.3469C86.2367 60.4743 86.5774 59.8851 86.6555 59.3248C86.6971 59.0257 87.2286 58.5192 86.4102 58.3732C86.2815 58.3502 86.1637 58.3386 86.0567 58.3386C85.5797 58.3386 85.3107 58.5756 85.2204 59.1372Z" fill="url(#paint29_linear_2149_6499)"/>
<path d="M126.946 58.4716C126.45 60.6937 125.86 62.8998 125.337 65.1168C125.12 66.0357 125.648 66.4571 126.755 66.452C127.066 66.4072 127.437 66.3796 127.79 66.2944C128.112 66.2163 128.146 65.9583 128.136 65.7098C128.129 65.5305 128.226 65.2468 127.865 65.2858C126.381 65.4479 126.97 64.55 127.076 64.0493C127.459 62.2524 127.941 60.4721 128.36 58.6803C128.418 58.4306 128.769 57.999 128.093 57.967C127.932 57.9593 127.761 57.9324 127.6 57.9324C127.306 57.9324 127.046 58.0207 126.946 58.4716Z" fill="url(#paint30_linear_2149_6499)"/>
<path d="M166.917 60.4402C166.464 60.6092 166.067 60.8903 165.429 61.2451C165.497 60.7411 165.674 60.3076 164.896 60.3217C164.287 60.3332 164.135 60.5541 164.033 61.0095C163.683 62.5681 163.276 64.1172 162.905 65.6727C162.843 65.9308 162.472 66.3374 163.163 66.3598C163.574 66.3726 164.133 66.5731 164.292 65.9801C164.386 65.6324 164.493 65.2859 164.563 64.9343C164.875 63.3603 164.998 61.6979 167.467 61.4142C167.921 61.3623 167.981 60.8026 167.869 60.5164C167.8 60.3396 167.665 60.2813 167.511 60.2813C167.312 60.2813 167.081 60.3787 166.917 60.4402Z" fill="url(#paint31_linear_2149_6499)"/>
<path d="M168.796 60.9201C168.471 62.5133 168.033 64.0899 167.654 65.6755C167.591 65.9336 167.224 66.3325 167.912 66.362C168.377 66.3825 168.941 66.5419 169.092 65.8804C169.463 64.2526 169.871 62.6318 170.273 60.9739C170.255 60.7356 170.561 60.3367 169.883 60.3405C169.833 60.3412 169.784 60.3405 169.735 60.3405C169.699 60.3399 169.663 60.3399 169.628 60.3399C169.233 60.3399 168.906 60.3809 168.796 60.9201Z" fill="url(#paint32_linear_2149_6499)"/>
<path d="M169.32 58.8797C169.211 59.3171 169.509 59.3126 169.801 59.3075C169.875 59.3062 169.95 59.3056 170.017 59.3114C170.888 59.3921 170.784 58.7978 170.876 58.3662C170.967 57.9377 170.69 57.9512 170.425 57.9646C170.337 57.9691 170.25 57.9736 170.179 57.9614C170.084 57.9467 170 57.9397 169.925 57.9397C169.254 57.9397 169.412 58.5077 169.32 58.8797Z" fill="url(#paint33_linear_2149_6499)"/>
<path d="M141.45 65.7313C141.462 65.787 141.501 65.8376 141.531 65.8901C141.561 65.8645 141.62 65.8338 141.615 65.8126C141.603 65.7569 141.564 65.7057 141.535 65.6545C141.505 65.6807 141.444 65.7121 141.45 65.7313Z" fill="url(#paint34_linear_2149_6499)"/>
<defs>
<linearGradient id="paint0_linear_2149_6499" x1="96.4475" y1="81.0255" x2="-33.5773" y2="-28.2164" gradientUnits="userSpaceOnUse">
<stop stop-color="#06718A"/>
<stop offset="0.0834" stop-color="#08768E"/>
<stop offset="0.1776" stop-color="#0F8398"/>
<stop offset="0.277" stop-color="#1199AA"/>
<stop offset="0.3794" stop-color="#13B7C3"/>
<stop offset="0.3816" stop-color="#16B8C4"/>
<stop offset="0.3851" stop-color="#17AEBC"/>
<stop offset="0.3953" stop-color="#0B93A7"/>
<stop offset="0.4071" stop-color="#0E7D96"/>
<stop offset="0.4208" stop-color="#0A6D89"/>
<stop offset="0.4378" stop-color="#0B6280"/>
<stop offset="0.4617" stop-color="#055B7A"/>
<stop offset="0.5279" stop-color="#065978"/>
<stop offset="0.5382" stop-color="#297475"/>
<stop offset="0.5511" stop-color="#508F73"/>
<stop offset="0.565" stop-color="#71A771"/>
<stop offset="0.5797" stop-color="#8CBB6F"/>
<stop offset="0.5956" stop-color="#A1CA6D"/>
<stop offset="0.6133" stop-color="#B0D46C"/>
<stop offset="0.6343" stop-color="#B9D76D"/>
<stop offset="0.6665" stop-color="#BCD86E"/>
<stop offset="0.691" stop-color="#B5D559"/>
<stop offset="0.721" stop-color="#B2D34C"/>
<stop offset="0.7595" stop-color="#B1D244"/>
<stop offset="0.8346" stop-color="#AFD243"/>
<stop offset="0.8525" stop-color="#BCD747"/>
<stop offset="0.8812" stop-color="#C8DB4B"/>
<stop offset="0.919" stop-color="#D1DE4C"/>
<stop offset="1" stop-color="#D2DF4E"/>
</linearGradient>
<linearGradient id="paint1_linear_2149_6499" x1="207.798" y1="-47.0939" x2="90.7173" y2="-145.462" gradientUnits="userSpaceOnUse">
<stop stop-color="#06718A"/>
<stop offset="0.0834" stop-color="#08768E"/>
<stop offset="0.1776" stop-color="#0F8398"/>
<stop offset="0.277" stop-color="#1199AA"/>
<stop offset="0.3794" stop-color="#13B7C3"/>
<stop offset="0.3816" stop-color="#16B8C4"/>
<stop offset="0.3851" stop-color="#17AEBC"/>
<stop offset="0.3953" stop-color="#0B93A7"/>
<stop offset="0.4071" stop-color="#0E7D96"/>
<stop offset="0.4208" stop-color="#0A6D89"/>
<stop offset="0.4378" stop-color="#0B6280"/>
<stop offset="0.4617" stop-color="#055B7A"/>
<stop offset="0.5279" stop-color="#065978"/>
<stop offset="0.5382" stop-color="#297475"/>
<stop offset="0.5511" stop-color="#508F73"/>
<stop offset="0.565" stop-color="#71A771"/>
<stop offset="0.5797" stop-color="#8CBB6F"/>
<stop offset="0.5956" stop-color="#A1CA6D"/>
<stop offset="0.6133" stop-color="#B0D46C"/>
<stop offset="0.6343" stop-color="#B9D76D"/>
<stop offset="0.6665" stop-color="#BCD86E"/>
<stop offset="0.691" stop-color="#B5D559"/>
<stop offset="0.721" stop-color="#B2D34C"/>
<stop offset="0.7595" stop-color="#B1D244"/>
<stop offset="0.8346" stop-color="#AFD243"/>
<stop offset="0.8525" stop-color="#BCD747"/>
<stop offset="0.8812" stop-color="#C8DB4B"/>
<stop offset="0.919" stop-color="#D1DE4C"/>
<stop offset="1" stop-color="#D2DF4E"/>
</linearGradient>
<linearGradient id="paint2_linear_2149_6499" x1="90.3617" y1="68.7923" x2="-23.2472" y2="-26.6546" gradientUnits="userSpaceOnUse">
<stop stop-color="#06718A"/>
<stop offset="0.0834" stop-color="#08768E"/>
<stop offset="0.1776" stop-color="#0F8398"/>
<stop offset="0.277" stop-color="#1199AA"/>
<stop offset="0.3794" stop-color="#13B7C3"/>
<stop offset="0.3816" stop-color="#16B8C4"/>
<stop offset="0.3851" stop-color="#17AEBC"/>
<stop offset="0.3953" stop-color="#0B93A7"/>
<stop offset="0.4071" stop-color="#0E7D96"/>
<stop offset="0.4208" stop-color="#0A6D89"/>
<stop offset="0.4378" stop-color="#0B6280"/>
<stop offset="0.4617" stop-color="#055B7A"/>
<stop offset="0.5279" stop-color="#065978"/>
<stop offset="0.5382" stop-color="#297475"/>
<stop offset="0.5511" stop-color="#508F73"/>
<stop offset="0.565" stop-color="#71A771"/>
<stop offset="0.5797" stop-color="#8CBB6F"/>
<stop offset="0.5956" stop-color="#A1CA6D"/>
<stop offset="0.6133" stop-color="#B0D46C"/>
<stop offset="0.6343" stop-color="#B9D76D"/>
<stop offset="0.6665" stop-color="#BCD86E"/>
<stop offset="0.691" stop-color="#B5D559"/>
<stop offset="0.721" stop-color="#B2D34C"/>
<stop offset="0.7595" stop-color="#B1D244"/>
<stop offset="0.8346" stop-color="#AFD243"/>
<stop offset="0.8525" stop-color="#BCD747"/>
<stop offset="0.8812" stop-color="#C8DB4B"/>
<stop offset="0.919" stop-color="#D1DE4C"/>
<stop offset="1" stop-color="#D2DF4E"/>
</linearGradient>
<linearGradient id="paint3_linear_2149_6499" x1="79.4136" y1="75.7944" x2="-33.5409" y2="-19.1029" gradientUnits="userSpaceOnUse">
<stop stop-color="#06718A"/>
<stop offset="0.0834" stop-color="#08768E"/>
<stop offset="0.1776" stop-color="#0F8398"/>
<stop offset="0.277" stop-color="#1199AA"/>
<stop offset="0.3794" stop-color="#13B7C3"/>
<stop offset="0.3816" stop-color="#16B8C4"/>
<stop offset="0.3851" stop-color="#17AEBC"/>
<stop offset="0.3953" stop-color="#0B93A7"/>
<stop offset="0.4071" stop-color="#0E7D96"/>
<stop offset="0.4208" stop-color="#0A6D89"/>
<stop offset="0.4378" stop-color="#0B6280"/>
<stop offset="0.4617" stop-color="#055B7A"/>
<stop offset="0.5279" stop-color="#065978"/>
<stop offset="0.5382" stop-color="#297475"/>
<stop offset="0.5511" stop-color="#508F73"/>
<stop offset="0.565" stop-color="#71A771"/>
<stop offset="0.5797" stop-color="#8CBB6F"/>
<stop offset="0.5956" stop-color="#A1CA6D"/>
<stop offset="0.6133" stop-color="#B0D46C"/>
<stop offset="0.6343" stop-color="#B9D76D"/>
<stop offset="0.6665" stop-color="#BCD86E"/>
<stop offset="0.691" stop-color="#B5D559"/>
<stop offset="0.721" stop-color="#B2D34C"/>
<stop offset="0.7595" stop-color="#B1D244"/>
<stop offset="0.8346" stop-color="#AFD243"/>
<stop offset="0.8525" stop-color="#BCD747"/>
<stop offset="0.8812" stop-color="#C8DB4B"/>
<stop offset="0.919" stop-color="#D1DE4C"/>
<stop offset="1" stop-color="#D2DF4E"/>
</linearGradient>
<linearGradient id="paint4_linear_2149_6499" x1="76.8229" y1="37.0917" x2="472.221" y2="73.114" gradientUnits="userSpaceOnUse">
<stop stop-color="#06718A"/>
<stop offset="0.0834" stop-color="#08768E"/>
<stop offset="0.1776" stop-color="#0F8398"/>
<stop offset="0.277" stop-color="#1199AA"/>
<stop offset="0.3794" stop-color="#13B7C3"/>
<stop offset="0.3816" stop-color="#16B8C4"/>
<stop offset="0.3851" stop-color="#17AEBC"/>
<stop offset="0.3953" stop-color="#0B93A7"/>
<stop offset="0.4071" stop-color="#0E7D96"/>
<stop offset="0.4208" stop-color="#0A6D89"/>
<stop offset="0.4378" stop-color="#0B6280"/>
<stop offset="0.4617" stop-color="#055B7A"/>
<stop offset="0.5279" stop-color="#065978"/>
<stop offset="0.5382" stop-color="#297475"/>
<stop offset="0.5511" stop-color="#508F73"/>
<stop offset="0.565" stop-color="#71A771"/>
<stop offset="0.5797" stop-color="#8CBB6F"/>
<stop offset="0.5956" stop-color="#A1CA6D"/>
<stop offset="0.6133" stop-color="#B0D46C"/>
<stop offset="0.6343" stop-color="#B9D76D"/>
<stop offset="0.6665" stop-color="#BCD86E"/>
<stop offset="0.691" stop-color="#B5D559"/>
<stop offset="0.721" stop-color="#B2D34C"/>
<stop offset="0.7595" stop-color="#B1D244"/>
<stop offset="0.8346" stop-color="#AFD243"/>
<stop offset="0.8525" stop-color="#BCD747"/>
<stop offset="0.8812" stop-color="#C8DB4B"/>
<stop offset="0.919" stop-color="#D1DE4C"/>
<stop offset="1" stop-color="#D2DF4E"/>
</linearGradient>
<linearGradient id="paint5_linear_2149_6499" x1="78.1385" y1="30.915" x2="470.512" y2="66.6617" gradientUnits="userSpaceOnUse">
<stop stop-color="#06718A"/>
<stop offset="0.0834" stop-color="#08768E"/>
<stop offset="0.1776" stop-color="#0F8398"/>
<stop offset="0.277" stop-color="#1199AA"/>
<stop offset="0.3794" stop-color="#13B7C3"/>
<stop offset="0.3816" stop-color="#16B8C4"/>
<stop offset="0.3851" stop-color="#17AEBC"/>
<stop offset="0.3953" stop-color="#0B93A7"/>
<stop offset="0.4071" stop-color="#0E7D96"/>
<stop offset="0.4208" stop-color="#0A6D89"/>
<stop offset="0.4378" stop-color="#0B6280"/>
<stop offset="0.4617" stop-color="#055B7A"/>
<stop offset="0.5279" stop-color="#065978"/>
<stop offset="0.5382" stop-color="#297475"/>
<stop offset="0.5511" stop-color="#508F73"/>
<stop offset="0.565" stop-color="#71A771"/>
<stop offset="0.5797" stop-color="#8CBB6F"/>
<stop offset="0.5956" stop-color="#A1CA6D"/>
<stop offset="0.6133" stop-color="#B0D46C"/>
<stop offset="0.6343" stop-color="#B9D76D"/>
<stop offset="0.6665" stop-color="#BCD86E"/>
<stop offset="0.691" stop-color="#B5D559"/>
<stop offset="0.721" stop-color="#B2D34C"/>
<stop offset="0.7595" stop-color="#B1D244"/>
<stop offset="0.8346" stop-color="#AFD243"/>
<stop offset="0.8525" stop-color="#BCD747"/>
<stop offset="0.8812" stop-color="#C8DB4B"/>
<stop offset="0.919" stop-color="#D1DE4C"/>
<stop offset="1" stop-color="#D2DF4E"/>
</linearGradient>
<linearGradient id="paint6_linear_2149_6499" x1="77.1518" y1="33.6287" x2="472.183" y2="69.6176" gradientUnits="userSpaceOnUse">
<stop stop-color="#06718A"/>
<stop offset="0.0834" stop-color="#08768E"/>
<stop offset="0.1776" stop-color="#0F8398"/>
<stop offset="0.277" stop-color="#1199AA"/>
<stop offset="0.3794" stop-color="#13B7C3"/>
<stop offset="0.3816" stop-color="#16B8C4"/>
<stop offset="0.3851" stop-color="#17AEBC"/>
<stop offset="0.3953" stop-color="#0B93A7"/>
<stop offset="0.4071" stop-color="#0E7D96"/>
<stop offset="0.4208" stop-color="#0A6D89"/>
<stop offset="0.4378" stop-color="#0B6280"/>
<stop offset="0.4617" stop-color="#055B7A"/>
<stop offset="0.5279" stop-color="#065978"/>
<stop offset="0.5382" stop-color="#297475"/>
<stop offset="0.5511" stop-color="#508F73"/>
<stop offset="0.565" stop-color="#71A771"/>
<stop offset="0.5797" stop-color="#8CBB6F"/>
<stop offset="0.5956" stop-color="#A1CA6D"/>
<stop offset="0.6133" stop-color="#B0D46C"/>
<stop offset="0.6343" stop-color="#B9D76D"/>
<stop offset="0.6665" stop-color="#BCD86E"/>
<stop offset="0.691" stop-color="#B5D559"/>
<stop offset="0.721" stop-color="#B2D34C"/>
<stop offset="0.7595" stop-color="#B1D244"/>
<stop offset="0.8346" stop-color="#AFD243"/>
<stop offset="0.8525" stop-color="#BCD747"/>
<stop offset="0.8812" stop-color="#C8DB4B"/>
<stop offset="0.919" stop-color="#D1DE4C"/>
<stop offset="1" stop-color="#D2DF4E"/>
</linearGradient>
<linearGradient id="paint7_linear_2149_6499" x1="77.9642" y1="27.3322" x2="473.01" y2="63.3225" gradientUnits="userSpaceOnUse">
<stop stop-color="#06718A"/>
<stop offset="0.0834" stop-color="#08768E"/>
<stop offset="0.1776" stop-color="#0F8398"/>
<stop offset="0.277" stop-color="#1199AA"/>
<stop offset="0.3794" stop-color="#13B7C3"/>
<stop offset="0.3816" stop-color="#16B8C4"/>
<stop offset="0.3851" stop-color="#17AEBC"/>
<stop offset="0.3953" stop-color="#0B93A7"/>
<stop offset="0.4071" stop-color="#0E7D96"/>
<stop offset="0.4208" stop-color="#0A6D89"/>
<stop offset="0.4378" stop-color="#0B6280"/>
<stop offset="0.4617" stop-color="#055B7A"/>
<stop offset="0.5279" stop-color="#065978"/>
<stop offset="0.5382" stop-color="#297475"/>
<stop offset="0.5511" stop-color="#508F73"/>
<stop offset="0.565" stop-color="#71A771"/>
<stop offset="0.5797" stop-color="#8CBB6F"/>
<stop offset="0.5956" stop-color="#A1CA6D"/>
<stop offset="0.6133" stop-color="#B0D46C"/>
<stop offset="0.6343" stop-color="#B9D76D"/>
<stop offset="0.6665" stop-color="#BCD86E"/>
<stop offset="0.691" stop-color="#B5D559"/>
<stop offset="0.721" stop-color="#B2D34C"/>
<stop offset="0.7595" stop-color="#B1D244"/>
<stop offset="0.8346" stop-color="#AFD243"/>
<stop offset="0.8525" stop-color="#BCD747"/>
<stop offset="0.8812" stop-color="#C8DB4B"/>
<stop offset="0.919" stop-color="#D1DE4C"/>
<stop offset="1" stop-color="#D2DF4E"/>
</linearGradient>
<linearGradient id="paint8_linear_2149_6499" x1="79.8465" y1="24.2959" x2="471.31" y2="59.9598" gradientUnits="userSpaceOnUse">
<stop stop-color="#06718A"/>
<stop offset="0.0834" stop-color="#08768E"/>
<stop offset="0.1776" stop-color="#0F8398"/>
<stop offset="0.277" stop-color="#1199AA"/>
<stop offset="0.3794" stop-color="#13B7C3"/>
<stop offset="0.3816" stop-color="#16B8C4"/>
<stop offset="0.3851" stop-color="#17AEBC"/>
<stop offset="0.3953" stop-color="#0B93A7"/>
<stop offset="0.4071" stop-color="#0E7D96"/>
<stop offset="0.4208" stop-color="#0A6D89"/>
<stop offset="0.4378" stop-color="#0B6280"/>
<stop offset="0.4617" stop-color="#055B7A"/>
<stop offset="0.5279" stop-color="#065978"/>
<stop offset="0.5382" stop-color="#297475"/>
<stop offset="0.5511" stop-color="#508F73"/>
<stop offset="0.565" stop-color="#71A771"/>
<stop offset="0.5797" stop-color="#8CBB6F"/>
<stop offset="0.5956" stop-color="#A1CA6D"/>
<stop offset="0.6133" stop-color="#B0D46C"/>
<stop offset="0.6343" stop-color="#B9D76D"/>
<stop offset="0.6665" stop-color="#BCD86E"/>
<stop offset="0.691" stop-color="#B5D559"/>
<stop offset="0.721" stop-color="#B2D34C"/>
<stop offset="0.7595" stop-color="#B1D244"/>
<stop offset="0.8346" stop-color="#AFD243"/>
<stop offset="0.8525" stop-color="#BCD747"/>
<stop offset="0.8812" stop-color="#C8DB4B"/>
<stop offset="0.919" stop-color="#D1DE4C"/>
<stop offset="1" stop-color="#D2DF4E"/>
</linearGradient>
<linearGradient id="paint9_linear_2149_6499" x1="76.8074" y1="37.729" x2="468.967" y2="73.4562" gradientUnits="userSpaceOnUse">
<stop stop-color="#06718A"/>
<stop offset="0.0834" stop-color="#08768E"/>
<stop offset="0.1776" stop-color="#0F8398"/>
<stop offset="0.277" stop-color="#1199AA"/>
<stop offset="0.3794" stop-color="#13B7C3"/>
<stop offset="0.3816" stop-color="#16B8C4"/>
<stop offset="0.3851" stop-color="#17AEBC"/>
<stop offset="0.3953" stop-color="#0B93A7"/>
<stop offset="0.4071" stop-color="#0E7D96"/>
<stop offset="0.4208" stop-color="#0A6D89"/>
<stop offset="0.4378" stop-color="#0B6280"/>
<stop offset="0.4617" stop-color="#055B7A"/>
<stop offset="0.5279" stop-color="#065978"/>
<stop offset="0.5382" stop-color="#297475"/>
<stop offset="0.5511" stop-color="#508F73"/>
<stop offset="0.565" stop-color="#71A771"/>
<stop offset="0.5797" stop-color="#8CBB6F"/>
<stop offset="0.5956" stop-color="#A1CA6D"/>
<stop offset="0.6133" stop-color="#B0D46C"/>
<stop offset="0.6343" stop-color="#B9D76D"/>
<stop offset="0.6665" stop-color="#BCD86E"/>
<stop offset="0.691" stop-color="#B5D559"/>
<stop offset="0.721" stop-color="#B2D34C"/>
<stop offset="0.7595" stop-color="#B1D244"/>
<stop offset="0.8346" stop-color="#AFD243"/>
<stop offset="0.8525" stop-color="#BCD747"/>
<stop offset="0.8812" stop-color="#C8DB4B"/>
<stop offset="0.919" stop-color="#D1DE4C"/>
<stop offset="1" stop-color="#D2DF4E"/>
</linearGradient>
<linearGradient id="paint10_linear_2149_6499" x1="74.1767" y1="50.4185" x2="473.131" y2="86.7649" gradientUnits="userSpaceOnUse">
<stop stop-color="#06718A"/>
<stop offset="0.0834" stop-color="#08768E"/>
<stop offset="0.1776" stop-color="#0F8398"/>
<stop offset="0.277" stop-color="#1199AA"/>
<stop offset="0.3794" stop-color="#13B7C3"/>
<stop offset="0.3816" stop-color="#16B8C4"/>
<stop offset="0.3851" stop-color="#17AEBC"/>
<stop offset="0.3953" stop-color="#0B93A7"/>
<stop offset="0.4071" stop-color="#0E7D96"/>
<stop offset="0.4208" stop-color="#0A6D89"/>
<stop offset="0.4378" stop-color="#0B6280"/>
<stop offset="0.4617" stop-color="#055B7A"/>
<stop offset="0.5279" stop-color="#065978"/>
<stop offset="0.5382" stop-color="#297475"/>
<stop offset="0.5511" stop-color="#508F73"/>
<stop offset="0.565" stop-color="#71A771"/>
<stop offset="0.5797" stop-color="#8CBB6F"/>
<stop offset="0.5956" stop-color="#A1CA6D"/>
<stop offset="0.6133" stop-color="#B0D46C"/>
<stop offset="0.6343" stop-color="#B9D76D"/>
<stop offset="0.6665" stop-color="#BCD86E"/>
<stop offset="0.691" stop-color="#B5D559"/>
<stop offset="0.721" stop-color="#B2D34C"/>
<stop offset="0.7595" stop-color="#B1D244"/>
<stop offset="0.8346" stop-color="#AFD243"/>
<stop offset="0.8525" stop-color="#BCD747"/>
<stop offset="0.8812" stop-color="#C8DB4B"/>
<stop offset="0.919" stop-color="#D1DE4C"/>
<stop offset="1" stop-color="#D2DF4E"/>
</linearGradient>
<linearGradient id="paint11_linear_2149_6499" x1="73.3777" y1="58.4648" x2="475.314" y2="95.0828" gradientUnits="userSpaceOnUse">
<stop stop-color="#06718A"/>
<stop offset="0.0834" stop-color="#08768E"/>
<stop offset="0.1776" stop-color="#0F8398"/>
<stop offset="0.277" stop-color="#1199AA"/>
<stop offset="0.3794" stop-color="#13B7C3"/>
<stop offset="0.3816" stop-color="#16B8C4"/>
<stop offset="0.3851" stop-color="#17AEBC"/>
<stop offset="0.3953" stop-color="#0B93A7"/>
<stop offset="0.4071" stop-color="#0E7D96"/>
<stop offset="0.4208" stop-color="#0A6D89"/>
<stop offset="0.4378" stop-color="#0B6280"/>
<stop offset="0.4617" stop-color="#055B7A"/>
<stop offset="0.5279" stop-color="#065978"/>
<stop offset="0.5382" stop-color="#297475"/>
<stop offset="0.5511" stop-color="#508F73"/>
<stop offset="0.565" stop-color="#71A771"/>
<stop offset="0.5797" stop-color="#8CBB6F"/>
<stop offset="0.5956" stop-color="#A1CA6D"/>
<stop offset="0.6133" stop-color="#B0D46C"/>
<stop offset="0.6343" stop-color="#B9D76D"/>
<stop offset="0.6665" stop-color="#BCD86E"/>
<stop offset="0.691" stop-color="#B5D559"/>
<stop offset="0.721" stop-color="#B2D34C"/>
<stop offset="0.7595" stop-color="#B1D244"/>
<stop offset="0.8346" stop-color="#AFD243"/>
<stop offset="0.8525" stop-color="#BCD747"/>
<stop offset="0.8812" stop-color="#C8DB4B"/>
<stop offset="0.919" stop-color="#D1DE4C"/>
<stop offset="1" stop-color="#D2DF4E"/>
</linearGradient>
<linearGradient id="paint12_linear_2149_6499" x1="73.841" y1="54.4009" x2="474.446" y2="90.8977" gradientUnits="userSpaceOnUse">
<stop stop-color="#06718A"/>
<stop offset="0.0834" stop-color="#08768E"/>
<stop offset="0.1776" stop-color="#0F8398"/>
<stop offset="0.277" stop-color="#1199AA"/>
<stop offset="0.3794" stop-color="#13B7C3"/>
<stop offset="0.3816" stop-color="#16B8C4"/>
<stop offset="0.3851" stop-color="#17AEBC"/>
<stop offset="0.3953" stop-color="#0B93A7"/>
<stop offset="0.4071" stop-color="#0E7D96"/>
<stop offset="0.4208" stop-color="#0A6D89"/>
<stop offset="0.4378" stop-color="#0B6280"/>
<stop offset="0.4617" stop-color="#055B7A"/>
<stop offset="0.5279" stop-color="#065978"/>
<stop offset="0.5382" stop-color="#297475"/>
<stop offset="0.5511" stop-color="#508F73"/>
<stop offset="0.565" stop-color="#71A771"/>
<stop offset="0.5797" stop-color="#8CBB6F"/>
<stop offset="0.5956" stop-color="#A1CA6D"/>
<stop offset="0.6133" stop-color="#B0D46C"/>
<stop offset="0.6343" stop-color="#B9D76D"/>
<stop offset="0.6665" stop-color="#BCD86E"/>
<stop offset="0.691" stop-color="#B5D559"/>
<stop offset="0.721" stop-color="#B2D34C"/>
<stop offset="0.7595" stop-color="#B1D244"/>
<stop offset="0.8346" stop-color="#AFD243"/>
<stop offset="0.8525" stop-color="#BCD747"/>
<stop offset="0.8812" stop-color="#C8DB4B"/>
<stop offset="0.919" stop-color="#D1DE4C"/>
<stop offset="1" stop-color="#D2DF4E"/>
</linearGradient>
<linearGradient id="paint13_linear_2149_6499" x1="73.3169" y1="50.6945" x2="474.147" y2="87.2116" gradientUnits="userSpaceOnUse">
<stop stop-color="#06718A"/>
<stop offset="0.0834" stop-color="#08768E"/>
<stop offset="0.1776" stop-color="#0F8398"/>
<stop offset="0.277" stop-color="#1199AA"/>
<stop offset="0.3794" stop-color="#13B7C3"/>
<stop offset="0.3816" stop-color="#16B8C4"/>
<stop offset="0.3851" stop-color="#17AEBC"/>
<stop offset="0.3953" stop-color="#0B93A7"/>
<stop offset="0.4071" stop-color="#0E7D96"/>
<stop offset="0.4208" stop-color="#0A6D89"/>
<stop offset="0.4378" stop-color="#0B6280"/>
<stop offset="0.4617" stop-color="#055B7A"/>
<stop offset="0.5279" stop-color="#065978"/>
<stop offset="0.5382" stop-color="#297475"/>
<stop offset="0.5511" stop-color="#508F73"/>
<stop offset="0.565" stop-color="#71A771"/>
<stop offset="0.5797" stop-color="#8CBB6F"/>
<stop offset="0.5956" stop-color="#A1CA6D"/>
<stop offset="0.6133" stop-color="#B0D46C"/>
<stop offset="0.6343" stop-color="#B9D76D"/>
<stop offset="0.6665" stop-color="#BCD86E"/>
<stop offset="0.691" stop-color="#B5D559"/>
<stop offset="0.721" stop-color="#B2D34C"/>
<stop offset="0.7595" stop-color="#B1D244"/>
<stop offset="0.8346" stop-color="#AFD243"/>
<stop offset="0.8525" stop-color="#BCD747"/>
<stop offset="0.8812" stop-color="#C8DB4B"/>
<stop offset="0.919" stop-color="#D1DE4C"/>
<stop offset="1" stop-color="#D2DF4E"/>
</linearGradient>
<linearGradient id="paint14_linear_2149_6499" x1="73.9065" y1="59.4442" x2="474.057" y2="95.8996" gradientUnits="userSpaceOnUse">
<stop stop-color="#06718A"/>
<stop offset="0.0834" stop-color="#08768E"/>
<stop offset="0.1776" stop-color="#0F8398"/>
<stop offset="0.277" stop-color="#1199AA"/>
<stop offset="0.3794" stop-color="#13B7C3"/>
<stop offset="0.3816" stop-color="#16B8C4"/>
<stop offset="0.3851" stop-color="#17AEBC"/>
<stop offset="0.3953" stop-color="#0B93A7"/>
<stop offset="0.4071" stop-color="#0E7D96"/>
<stop offset="0.4208" stop-color="#0A6D89"/>
<stop offset="0.4378" stop-color="#0B6280"/>
<stop offset="0.4617" stop-color="#055B7A"/>
<stop offset="0.5279" stop-color="#065978"/>
<stop offset="0.5382" stop-color="#297475"/>
<stop offset="0.5511" stop-color="#508F73"/>
<stop offset="0.565" stop-color="#71A771"/>
<stop offset="0.5797" stop-color="#8CBB6F"/>
<stop offset="0.5956" stop-color="#A1CA6D"/>
<stop offset="0.6133" stop-color="#B0D46C"/>
<stop offset="0.6343" stop-color="#B9D76D"/>
<stop offset="0.6665" stop-color="#BCD86E"/>
<stop offset="0.691" stop-color="#B5D559"/>
<stop offset="0.721" stop-color="#B2D34C"/>
<stop offset="0.7595" stop-color="#B1D244"/>
<stop offset="0.8346" stop-color="#AFD243"/>
<stop offset="0.8525" stop-color="#BCD747"/>
<stop offset="0.8812" stop-color="#C8DB4B"/>
<stop offset="0.919" stop-color="#D1DE4C"/>
<stop offset="1" stop-color="#D2DF4E"/>
</linearGradient>
<linearGradient id="paint15_linear_2149_6499" x1="74.2758" y1="48.7266" x2="473.131" y2="85.0639" gradientUnits="userSpaceOnUse">
<stop stop-color="#06718A"/>
<stop offset="0.0834" stop-color="#08768E"/>
<stop offset="0.1776" stop-color="#0F8398"/>
<stop offset="0.277" stop-color="#1199AA"/>
<stop offset="0.3794" stop-color="#13B7C3"/>
<stop offset="0.3816" stop-color="#16B8C4"/>
<stop offset="0.3851" stop-color="#17AEBC"/>
<stop offset="0.3953" stop-color="#0B93A7"/>
<stop offset="0.4071" stop-color="#0E7D96"/>
<stop offset="0.4208" stop-color="#0A6D89"/>
<stop offset="0.4378" stop-color="#0B6280"/>
<stop offset="0.4617" stop-color="#055B7A"/>
<stop offset="0.5279" stop-color="#065978"/>
<stop offset="0.5382" stop-color="#297475"/>
<stop offset="0.5511" stop-color="#508F73"/>
<stop offset="0.565" stop-color="#71A771"/>
<stop offset="0.5797" stop-color="#8CBB6F"/>
<stop offset="0.5956" stop-color="#A1CA6D"/>
<stop offset="0.6133" stop-color="#B0D46C"/>
<stop offset="0.6343" stop-color="#B9D76D"/>
<stop offset="0.6665" stop-color="#BCD86E"/>
<stop offset="0.691" stop-color="#B5D559"/>
<stop offset="0.721" stop-color="#B2D34C"/>
<stop offset="0.7595" stop-color="#B1D244"/>
<stop offset="0.8346" stop-color="#AFD243"/>
<stop offset="0.8525" stop-color="#BCD747"/>
<stop offset="0.8812" stop-color="#C8DB4B"/>
<stop offset="0.919" stop-color="#D1DE4C"/>
<stop offset="1" stop-color="#D2DF4E"/>
</linearGradient>
<linearGradient id="paint16_linear_2149_6499" x1="73.7972" y1="59.7283" x2="474.323" y2="96.2178" gradientUnits="userSpaceOnUse">
<stop stop-color="#06718A"/>
<stop offset="0.0834" stop-color="#08768E"/>
<stop offset="0.1776" stop-color="#0F8398"/>
<stop offset="0.277" stop-color="#1199AA"/>
<stop offset="0.3794" stop-color="#13B7C3"/>
<stop offset="0.3816" stop-color="#16B8C4"/>
<stop offset="0.3851" stop-color="#17AEBC"/>
<stop offset="0.3953" stop-color="#0B93A7"/>
<stop offset="0.4071" stop-color="#0E7D96"/>
<stop offset="0.4208" stop-color="#0A6D89"/>
<stop offset="0.4378" stop-color="#0B6280"/>
<stop offset="0.4617" stop-color="#055B7A"/>
<stop offset="0.5279" stop-color="#065978"/>
<stop offset="0.5382" stop-color="#297475"/>
<stop offset="0.5511" stop-color="#508F73"/>
<stop offset="0.565" stop-color="#71A771"/>
<stop offset="0.5797" stop-color="#8CBB6F"/>
<stop offset="0.5956" stop-color="#A1CA6D"/>
<stop offset="0.6133" stop-color="#B0D46C"/>
<stop offset="0.6343" stop-color="#B9D76D"/>
<stop offset="0.6665" stop-color="#BCD86E"/>
<stop offset="0.691" stop-color="#B5D559"/>
<stop offset="0.721" stop-color="#B2D34C"/>
<stop offset="0.7595" stop-color="#B1D244"/>
<stop offset="0.8346" stop-color="#AFD243"/>
<stop offset="0.8525" stop-color="#BCD747"/>
<stop offset="0.8812" stop-color="#C8DB4B"/>
<stop offset="0.919" stop-color="#D1DE4C"/>
<stop offset="1" stop-color="#D2DF4E"/>
</linearGradient>
<linearGradient id="paint17_linear_2149_6499" x1="73.7818" y1="52.8893" x2="473.884" y2="89.3402" gradientUnits="userSpaceOnUse">
<stop stop-color="#06718A"/>
<stop offset="0.0834" stop-color="#08768E"/>
<stop offset="0.1776" stop-color="#0F8398"/>
<stop offset="0.277" stop-color="#1199AA"/>
<stop offset="0.3794" stop-color="#13B7C3"/>
<stop offset="0.3816" stop-color="#16B8C4"/>
<stop offset="0.3851" stop-color="#17AEBC"/>
<stop offset="0.3953" stop-color="#0B93A7"/>
<stop offset="0.4071" stop-color="#0E7D96"/>
<stop offset="0.4208" stop-color="#0A6D89"/>
<stop offset="0.4378" stop-color="#0B6280"/>
<stop offset="0.4617" stop-color="#055B7A"/>
<stop offset="0.5279" stop-color="#065978"/>
<stop offset="0.5382" stop-color="#297475"/>
<stop offset="0.5511" stop-color="#508F73"/>
<stop offset="0.565" stop-color="#71A771"/>
<stop offset="0.5797" stop-color="#8CBB6F"/>
<stop offset="0.5956" stop-color="#A1CA6D"/>
<stop offset="0.6133" stop-color="#B0D46C"/>
<stop offset="0.6343" stop-color="#B9D76D"/>
<stop offset="0.6665" stop-color="#BCD86E"/>
<stop offset="0.691" stop-color="#B5D559"/>
<stop offset="0.721" stop-color="#B2D34C"/>
<stop offset="0.7595" stop-color="#B1D244"/>
<stop offset="0.8346" stop-color="#AFD243"/>
<stop offset="0.8525" stop-color="#BCD747"/>
<stop offset="0.8812" stop-color="#C8DB4B"/>
<stop offset="0.919" stop-color="#D1DE4C"/>
<stop offset="1" stop-color="#D2DF4E"/>
</linearGradient>
<linearGradient id="paint18_linear_2149_6499" x1="73.7433" y1="48.0076" x2="473.844" y2="84.4584" gradientUnits="userSpaceOnUse">
<stop stop-color="#06718A"/>
<stop offset="0.0834" stop-color="#08768E"/>
<stop offset="0.1776" stop-color="#0F8398"/>
<stop offset="0.277" stop-color="#1199AA"/>
<stop offset="0.3794" stop-color="#13B7C3"/>
<stop offset="0.3816" stop-color="#16B8C4"/>
<stop offset="0.3851" stop-color="#17AEBC"/>
<stop offset="0.3953" stop-color="#0B93A7"/>
<stop offset="0.4071" stop-color="#0E7D96"/>
<stop offset="0.4208" stop-color="#0A6D89"/>
<stop offset="0.4378" stop-color="#0B6280"/>
<stop offset="0.4617" stop-color="#055B7A"/>
<stop offset="0.5279" stop-color="#065978"/>
<stop offset="0.5382" stop-color="#297475"/>
<stop offset="0.5511" stop-color="#508F73"/>
<stop offset="0.565" stop-color="#71A771"/>
<stop offset="0.5797" stop-color="#8CBB6F"/>
<stop offset="0.5956" stop-color="#A1CA6D"/>
<stop offset="0.6133" stop-color="#B0D46C"/>
<stop offset="0.6343" stop-color="#B9D76D"/>
<stop offset="0.6665" stop-color="#BCD86E"/>
<stop offset="0.691" stop-color="#B5D559"/>
<stop offset="0.721" stop-color="#B2D34C"/>
<stop offset="0.7595" stop-color="#B1D244"/>
<stop offset="0.8346" stop-color="#AFD243"/>
<stop offset="0.8525" stop-color="#BCD747"/>
<stop offset="0.8812" stop-color="#C8DB4B"/>
<stop offset="0.919" stop-color="#D1DE4C"/>
<stop offset="1" stop-color="#D2DF4E"/>
</linearGradient>
<linearGradient id="paint19_linear_2149_6499" x1="72.2818" y1="48.5298" x2="475.402" y2="85.2555" gradientUnits="userSpaceOnUse">
<stop stop-color="#06718A"/>
<stop offset="0.0834" stop-color="#08768E"/>
<stop offset="0.1776" stop-color="#0F8398"/>
<stop offset="0.277" stop-color="#1199AA"/>
<stop offset="0.3794" stop-color="#13B7C3"/>
<stop offset="0.3816" stop-color="#16B8C4"/>
<stop offset="0.3851" stop-color="#17AEBC"/>
<stop offset="0.3953" stop-color="#0B93A7"/>
<stop offset="0.4071" stop-color="#0E7D96"/>
<stop offset="0.4208" stop-color="#0A6D89"/>
<stop offset="0.4378" stop-color="#0B6280"/>
<stop offset="0.4617" stop-color="#055B7A"/>
<stop offset="0.5279" stop-color="#065978"/>
<stop offset="0.5382" stop-color="#297475"/>
<stop offset="0.5511" stop-color="#508F73"/>
<stop offset="0.565" stop-color="#71A771"/>
<stop offset="0.5797" stop-color="#8CBB6F"/>
<stop offset="0.5956" stop-color="#A1CA6D"/>
<stop offset="0.6133" stop-color="#B0D46C"/>
<stop offset="0.6343" stop-color="#B9D76D"/>
<stop offset="0.6665" stop-color="#BCD86E"/>
<stop offset="0.691" stop-color="#B5D559"/>
<stop offset="0.721" stop-color="#B2D34C"/>
<stop offset="0.7595" stop-color="#B1D244"/>
<stop offset="0.8346" stop-color="#AFD243"/>
<stop offset="0.8525" stop-color="#BCD747"/>
<stop offset="0.8812" stop-color="#C8DB4B"/>
<stop offset="0.919" stop-color="#D1DE4C"/>
<stop offset="1" stop-color="#D2DF4E"/>
</linearGradient>
<linearGradient id="paint20_linear_2149_6499" x1="73.1243" y1="57.8256" x2="476.271" y2="94.5538" gradientUnits="userSpaceOnUse">
<stop stop-color="#06718A"/>
<stop offset="0.0834" stop-color="#08768E"/>
<stop offset="0.1776" stop-color="#0F8398"/>
<stop offset="0.277" stop-color="#1199AA"/>
<stop offset="0.3794" stop-color="#13B7C3"/>
<stop offset="0.3816" stop-color="#16B8C4"/>
<stop offset="0.3851" stop-color="#17AEBC"/>
<stop offset="0.3953" stop-color="#0B93A7"/>
<stop offset="0.4071" stop-color="#0E7D96"/>
<stop offset="0.4208" stop-color="#0A6D89"/>
<stop offset="0.4378" stop-color="#0B6280"/>
<stop offset="0.4617" stop-color="#055B7A"/>
<stop offset="0.5279" stop-color="#065978"/>
<stop offset="0.5382" stop-color="#297475"/>
<stop offset="0.5511" stop-color="#508F73"/>
<stop offset="0.565" stop-color="#71A771"/>
<stop offset="0.5797" stop-color="#8CBB6F"/>
<stop offset="0.5956" stop-color="#A1CA6D"/>
<stop offset="0.6133" stop-color="#B0D46C"/>
<stop offset="0.6343" stop-color="#B9D76D"/>
<stop offset="0.6665" stop-color="#BCD86E"/>
<stop offset="0.691" stop-color="#B5D559"/>
<stop offset="0.721" stop-color="#B2D34C"/>
<stop offset="0.7595" stop-color="#B1D244"/>
<stop offset="0.8346" stop-color="#AFD243"/>
<stop offset="0.8525" stop-color="#BCD747"/>
<stop offset="0.8812" stop-color="#C8DB4B"/>
<stop offset="0.919" stop-color="#D1DE4C"/>
<stop offset="1" stop-color="#D2DF4E"/>
</linearGradient>
<linearGradient id="paint21_linear_2149_6499" x1="73.9351" y1="61.7721" x2="471.909" y2="98.029" gradientUnits="userSpaceOnUse">
<stop stop-color="#06718A"/>
<stop offset="0.0834" stop-color="#08768E"/>
<stop offset="0.1776" stop-color="#0F8398"/>
<stop offset="0.277" stop-color="#1199AA"/>
<stop offset="0.3794" stop-color="#13B7C3"/>
<stop offset="0.3816" stop-color="#16B8C4"/>
<stop offset="0.3851" stop-color="#17AEBC"/>
<stop offset="0.3953" stop-color="#0B93A7"/>
<stop offset="0.4071" stop-color="#0E7D96"/>
<stop offset="0.4208" stop-color="#0A6D89"/>
<stop offset="0.4378" stop-color="#0B6280"/>
<stop offset="0.4617" stop-color="#055B7A"/>
<stop offset="0.5279" stop-color="#065978"/>
<stop offset="0.5382" stop-color="#297475"/>
<stop offset="0.5511" stop-color="#508F73"/>
<stop offset="0.565" stop-color="#71A771"/>
<stop offset="0.5797" stop-color="#8CBB6F"/>
<stop offset="0.5956" stop-color="#A1CA6D"/>
<stop offset="0.6133" stop-color="#B0D46C"/>
<stop offset="0.6343" stop-color="#B9D76D"/>
<stop offset="0.6665" stop-color="#BCD86E"/>
<stop offset="0.691" stop-color="#B5D559"/>
<stop offset="0.721" stop-color="#B2D34C"/>
<stop offset="0.7595" stop-color="#B1D244"/>
<stop offset="0.8346" stop-color="#AFD243"/>
<stop offset="0.8525" stop-color="#BCD747"/>
<stop offset="0.8812" stop-color="#C8DB4B"/>
<stop offset="0.919" stop-color="#D1DE4C"/>
<stop offset="1" stop-color="#D2DF4E"/>
</linearGradient>
<linearGradient id="paint22_linear_2149_6499" x1="74.3407" y1="53.6199" x2="472.305" y2="89.876" gradientUnits="userSpaceOnUse">
<stop stop-color="#06718A"/>
<stop offset="0.0834" stop-color="#08768E"/>
<stop offset="0.1776" stop-color="#0F8398"/>
<stop offset="0.277" stop-color="#1199AA"/>
<stop offset="0.3794" stop-color="#13B7C3"/>
<stop offset="0.3816" stop-color="#16B8C4"/>
<stop offset="0.3851" stop-color="#17AEBC"/>
<stop offset="0.3953" stop-color="#0B93A7"/>
<stop offset="0.4071" stop-color="#0E7D96"/>
<stop offset="0.4208" stop-color="#0A6D89"/>
<stop offset="0.4378" stop-color="#0B6280"/>
<stop offset="0.4617" stop-color="#055B7A"/>
<stop offset="0.5279" stop-color="#065978"/>
<stop offset="0.5382" stop-color="#297475"/>
<stop offset="0.5511" stop-color="#508F73"/>
<stop offset="0.565" stop-color="#71A771"/>
<stop offset="0.5797" stop-color="#8CBB6F"/>
<stop offset="0.5956" stop-color="#A1CA6D"/>
<stop offset="0.6133" stop-color="#B0D46C"/>
<stop offset="0.6343" stop-color="#B9D76D"/>
<stop offset="0.6665" stop-color="#BCD86E"/>
<stop offset="0.691" stop-color="#B5D559"/>
<stop offset="0.721" stop-color="#B2D34C"/>
<stop offset="0.7595" stop-color="#B1D244"/>
<stop offset="0.8346" stop-color="#AFD243"/>
<stop offset="0.8525" stop-color="#BCD747"/>
<stop offset="0.8812" stop-color="#C8DB4B"/>
<stop offset="0.919" stop-color="#D1DE4C"/>
<stop offset="1" stop-color="#D2DF4E"/>
</linearGradient>
<linearGradient id="paint23_linear_2149_6499" x1="74.1651" y1="59.0769" x2="471.203" y2="95.2486" gradientUnits="userSpaceOnUse">
<stop stop-color="#06718A"/>
<stop offset="0.0834" stop-color="#08768E"/>
<stop offset="0.1776" stop-color="#0F8398"/>
<stop offset="0.277" stop-color="#1199AA"/>
<stop offset="0.3794" stop-color="#13B7C3"/>
<stop offset="0.3816" stop-color="#16B8C4"/>
<stop offset="0.3851" stop-color="#17AEBC"/>
<stop offset="0.3953" stop-color="#0B93A7"/>
<stop offset="0.4071" stop-color="#0E7D96"/>
<stop offset="0.4208" stop-color="#0A6D89"/>
<stop offset="0.4378" stop-color="#0B6280"/>
<stop offset="0.4617" stop-color="#055B7A"/>
<stop offset="0.5279" stop-color="#065978"/>
<stop offset="0.5382" stop-color="#297475"/>
<stop offset="0.5511" stop-color="#508F73"/>
<stop offset="0.565" stop-color="#71A771"/>
<stop offset="0.5797" stop-color="#8CBB6F"/>
<stop offset="0.5956" stop-color="#A1CA6D"/>
<stop offset="0.6133" stop-color="#B0D46C"/>
<stop offset="0.6343" stop-color="#B9D76D"/>
<stop offset="0.6665" stop-color="#BCD86E"/>
<stop offset="0.691" stop-color="#B5D559"/>
<stop offset="0.721" stop-color="#B2D34C"/>
<stop offset="0.7595" stop-color="#B1D244"/>
<stop offset="0.8346" stop-color="#AFD243"/>
<stop offset="0.8525" stop-color="#BCD747"/>
<stop offset="0.8812" stop-color="#C8DB4B"/>
<stop offset="0.919" stop-color="#D1DE4C"/>
<stop offset="1" stop-color="#D2DF4E"/>
</linearGradient>
<linearGradient id="paint24_linear_2149_6499" x1="74.2522" y1="58.0236" x2="471.28" y2="94.1943" gradientUnits="userSpaceOnUse">
<stop stop-color="#06718A"/>
<stop offset="0.0834" stop-color="#08768E"/>
<stop offset="0.1776" stop-color="#0F8398"/>
<stop offset="0.277" stop-color="#1199AA"/>
<stop offset="0.3794" stop-color="#13B7C3"/>
<stop offset="0.3816" stop-color="#16B8C4"/>
<stop offset="0.3851" stop-color="#17AEBC"/>
<stop offset="0.3953" stop-color="#0B93A7"/>
<stop offset="0.4071" stop-color="#0E7D96"/>
<stop offset="0.4208" stop-color="#0A6D89"/>
<stop offset="0.4378" stop-color="#0B6280"/>
<stop offset="0.4617" stop-color="#055B7A"/>
<stop offset="0.5279" stop-color="#065978"/>
<stop offset="0.5382" stop-color="#297475"/>
<stop offset="0.5511" stop-color="#508F73"/>
<stop offset="0.565" stop-color="#71A771"/>
<stop offset="0.5797" stop-color="#8CBB6F"/>
<stop offset="0.5956" stop-color="#A1CA6D"/>
<stop offset="0.6133" stop-color="#B0D46C"/>
<stop offset="0.6343" stop-color="#B9D76D"/>
<stop offset="0.6665" stop-color="#BCD86E"/>
<stop offset="0.691" stop-color="#B5D559"/>
<stop offset="0.721" stop-color="#B2D34C"/>
<stop offset="0.7595" stop-color="#B1D244"/>
<stop offset="0.8346" stop-color="#AFD243"/>
<stop offset="0.8525" stop-color="#BCD747"/>
<stop offset="0.8812" stop-color="#C8DB4B"/>
<stop offset="0.919" stop-color="#D1DE4C"/>
<stop offset="1" stop-color="#D2DF4E"/>
</linearGradient>
<linearGradient id="paint25_linear_2149_6499" x1="74.7964" y1="51.3461" x2="471.828" y2="87.5173" gradientUnits="userSpaceOnUse">
<stop stop-color="#06718A"/>
<stop offset="0.0834" stop-color="#08768E"/>
<stop offset="0.1776" stop-color="#0F8398"/>
<stop offset="0.277" stop-color="#1199AA"/>
<stop offset="0.3794" stop-color="#13B7C3"/>
<stop offset="0.3816" stop-color="#16B8C4"/>
<stop offset="0.3851" stop-color="#17AEBC"/>
<stop offset="0.3953" stop-color="#0B93A7"/>
<stop offset="0.4071" stop-color="#0E7D96"/>
<stop offset="0.4208" stop-color="#0A6D89"/>
<stop offset="0.4378" stop-color="#0B6280"/>
<stop offset="0.4617" stop-color="#055B7A"/>
<stop offset="0.5279" stop-color="#065978"/>
<stop offset="0.5382" stop-color="#297475"/>
<stop offset="0.5511" stop-color="#508F73"/>
<stop offset="0.565" stop-color="#71A771"/>
<stop offset="0.5797" stop-color="#8CBB6F"/>
<stop offset="0.5956" stop-color="#A1CA6D"/>
<stop offset="0.6133" stop-color="#B0D46C"/>
<stop offset="0.6343" stop-color="#B9D76D"/>
<stop offset="0.6665" stop-color="#BCD86E"/>
<stop offset="0.691" stop-color="#B5D559"/>
<stop offset="0.721" stop-color="#B2D34C"/>
<stop offset="0.7595" stop-color="#B1D244"/>
<stop offset="0.8346" stop-color="#AFD243"/>
<stop offset="0.8525" stop-color="#BCD747"/>
<stop offset="0.8812" stop-color="#C8DB4B"/>
<stop offset="0.919" stop-color="#D1DE4C"/>
<stop offset="1" stop-color="#D2DF4E"/>
</linearGradient>
<linearGradient id="paint26_linear_2149_6499" x1="73.9396" y1="61.0844" x2="472.443" y2="97.3897" gradientUnits="userSpaceOnUse">
<stop stop-color="#06718A"/>
<stop offset="0.0834" stop-color="#08768E"/>
<stop offset="0.1776" stop-color="#0F8398"/>
<stop offset="0.277" stop-color="#1199AA"/>
<stop offset="0.3794" stop-color="#13B7C3"/>
<stop offset="0.3816" stop-color="#16B8C4"/>
<stop offset="0.3851" stop-color="#17AEBC"/>
<stop offset="0.3953" stop-color="#0B93A7"/>
<stop offset="0.4071" stop-color="#0E7D96"/>
<stop offset="0.4208" stop-color="#0A6D89"/>
<stop offset="0.4378" stop-color="#0B6280"/>
<stop offset="0.4617" stop-color="#055B7A"/>
<stop offset="0.5279" stop-color="#065978"/>
<stop offset="0.5382" stop-color="#297475"/>
<stop offset="0.5511" stop-color="#508F73"/>
<stop offset="0.565" stop-color="#71A771"/>
<stop offset="0.5797" stop-color="#8CBB6F"/>
<stop offset="0.5956" stop-color="#A1CA6D"/>
<stop offset="0.6133" stop-color="#B0D46C"/>
<stop offset="0.6343" stop-color="#B9D76D"/>
<stop offset="0.6665" stop-color="#BCD86E"/>
<stop offset="0.691" stop-color="#B5D559"/>
<stop offset="0.721" stop-color="#B2D34C"/>
<stop offset="0.7595" stop-color="#B1D244"/>
<stop offset="0.8346" stop-color="#AFD243"/>
<stop offset="0.8525" stop-color="#BCD747"/>
<stop offset="0.8812" stop-color="#C8DB4B"/>
<stop offset="0.919" stop-color="#D1DE4C"/>
<stop offset="1" stop-color="#D2DF4E"/>
</linearGradient>
<linearGradient id="paint27_linear_2149_6499" x1="74.2873" y1="51.9362" x2="472.81" y2="88.2432" gradientUnits="userSpaceOnUse">
<stop stop-color="#06718A"/>
<stop offset="0.0834" stop-color="#08768E"/>
<stop offset="0.1776" stop-color="#0F8398"/>
<stop offset="0.277" stop-color="#1199AA"/>
<stop offset="0.3794" stop-color="#13B7C3"/>
<stop offset="0.3816" stop-color="#16B8C4"/>
<stop offset="0.3851" stop-color="#17AEBC"/>
<stop offset="0.3953" stop-color="#0B93A7"/>
<stop offset="0.4071" stop-color="#0E7D96"/>
<stop offset="0.4208" stop-color="#0A6D89"/>
<stop offset="0.4378" stop-color="#0B6280"/>
<stop offset="0.4617" stop-color="#055B7A"/>
<stop offset="0.5279" stop-color="#065978"/>
<stop offset="0.5382" stop-color="#297475"/>
<stop offset="0.5511" stop-color="#508F73"/>
<stop offset="0.565" stop-color="#71A771"/>
<stop offset="0.5797" stop-color="#8CBB6F"/>
<stop offset="0.5956" stop-color="#A1CA6D"/>
<stop offset="0.6133" stop-color="#B0D46C"/>
<stop offset="0.6343" stop-color="#B9D76D"/>
<stop offset="0.6665" stop-color="#BCD86E"/>
<stop offset="0.691" stop-color="#B5D559"/>
<stop offset="0.721" stop-color="#B2D34C"/>
<stop offset="0.7595" stop-color="#B1D244"/>
<stop offset="0.8346" stop-color="#AFD243"/>
<stop offset="0.8525" stop-color="#BCD747"/>
<stop offset="0.8812" stop-color="#C8DB4B"/>
<stop offset="0.919" stop-color="#D1DE4C"/>
<stop offset="1" stop-color="#D2DF4E"/>
</linearGradient>
<linearGradient id="paint28_linear_2149_6499" x1="74.7375" y1="54.1998" x2="471.189" y2="90.3181" gradientUnits="userSpaceOnUse">
<stop stop-color="#06718A"/>
<stop offset="0.0834" stop-color="#08768E"/>
<stop offset="0.1776" stop-color="#0F8398"/>
<stop offset="0.277" stop-color="#1199AA"/>
<stop offset="0.3794" stop-color="#13B7C3"/>
<stop offset="0.3816" stop-color="#16B8C4"/>
<stop offset="0.3851" stop-color="#17AEBC"/>
<stop offset="0.3953" stop-color="#0B93A7"/>
<stop offset="0.4071" stop-color="#0E7D96"/>
<stop offset="0.4208" stop-color="#0A6D89"/>
<stop offset="0.4378" stop-color="#0B6280"/>
<stop offset="0.4617" stop-color="#055B7A"/>
<stop offset="0.5279" stop-color="#065978"/>
<stop offset="0.5382" stop-color="#297475"/>
<stop offset="0.5511" stop-color="#508F73"/>
<stop offset="0.565" stop-color="#71A771"/>
<stop offset="0.5797" stop-color="#8CBB6F"/>
<stop offset="0.5956" stop-color="#A1CA6D"/>
<stop offset="0.6133" stop-color="#B0D46C"/>
<stop offset="0.6343" stop-color="#B9D76D"/>
<stop offset="0.6665" stop-color="#BCD86E"/>
<stop offset="0.691" stop-color="#B5D559"/>
<stop offset="0.721" stop-color="#B2D34C"/>
<stop offset="0.7595" stop-color="#B1D244"/>
<stop offset="0.8346" stop-color="#AFD243"/>
<stop offset="0.8525" stop-color="#BCD747"/>
<stop offset="0.8812" stop-color="#C8DB4B"/>
<stop offset="0.919" stop-color="#D1DE4C"/>
<stop offset="1" stop-color="#D2DF4E"/>
</linearGradient>
<linearGradient id="paint29_linear_2149_6499" x1="74.0579" y1="61.3477" x2="470.962" y2="97.5072" gradientUnits="userSpaceOnUse">
<stop stop-color="#06718A"/>
<stop offset="0.0834" stop-color="#08768E"/>
<stop offset="0.1776" stop-color="#0F8398"/>
<stop offset="0.277" stop-color="#1199AA"/>
<stop offset="0.3794" stop-color="#13B7C3"/>
<stop offset="0.3816" stop-color="#16B8C4"/>
<stop offset="0.3851" stop-color="#17AEBC"/>
<stop offset="0.3953" stop-color="#0B93A7"/>
<stop offset="0.4071" stop-color="#0E7D96"/>
<stop offset="0.4208" stop-color="#0A6D89"/>
<stop offset="0.4378" stop-color="#0B6280"/>
<stop offset="0.4617" stop-color="#055B7A"/>
<stop offset="0.5279" stop-color="#065978"/>
<stop offset="0.5382" stop-color="#297475"/>
<stop offset="0.5511" stop-color="#508F73"/>
<stop offset="0.565" stop-color="#71A771"/>
<stop offset="0.5797" stop-color="#8CBB6F"/>
<stop offset="0.5956" stop-color="#A1CA6D"/>
<stop offset="0.6133" stop-color="#B0D46C"/>
<stop offset="0.6343" stop-color="#B9D76D"/>
<stop offset="0.6665" stop-color="#BCD86E"/>
<stop offset="0.691" stop-color="#B5D559"/>
<stop offset="0.721" stop-color="#B2D34C"/>
<stop offset="0.7595" stop-color="#B1D244"/>
<stop offset="0.8346" stop-color="#AFD243"/>
<stop offset="0.8525" stop-color="#BCD747"/>
<stop offset="0.8812" stop-color="#C8DB4B"/>
<stop offset="0.919" stop-color="#D1DE4C"/>
<stop offset="1" stop-color="#D2DF4E"/>
</linearGradient>
<linearGradient id="paint30_linear_2149_6499" x1="74.515" y1="57.3972" x2="470.022" y2="93.4294" gradientUnits="userSpaceOnUse">
<stop stop-color="#06718A"/>
<stop offset="0.0834" stop-color="#08768E"/>
<stop offset="0.1776" stop-color="#0F8398"/>
<stop offset="0.277" stop-color="#1199AA"/>
<stop offset="0.3794" stop-color="#13B7C3"/>
<stop offset="0.3816" stop-color="#16B8C4"/>
<stop offset="0.3851" stop-color="#17AEBC"/>
<stop offset="0.3953" stop-color="#0B93A7"/>
<stop offset="0.4071" stop-color="#0E7D96"/>
<stop offset="0.4208" stop-color="#0A6D89"/>
<stop offset="0.4378" stop-color="#0B6280"/>
<stop offset="0.4617" stop-color="#055B7A"/>
<stop offset="0.5279" stop-color="#065978"/>
<stop offset="0.5382" stop-color="#297475"/>
<stop offset="0.5511" stop-color="#508F73"/>
<stop offset="0.565" stop-color="#71A771"/>
<stop offset="0.5797" stop-color="#8CBB6F"/>
<stop offset="0.5956" stop-color="#A1CA6D"/>
<stop offset="0.6133" stop-color="#B0D46C"/>
<stop offset="0.6343" stop-color="#B9D76D"/>
<stop offset="0.6665" stop-color="#BCD86E"/>
<stop offset="0.691" stop-color="#B5D559"/>
<stop offset="0.721" stop-color="#B2D34C"/>
<stop offset="0.7595" stop-color="#B1D244"/>
<stop offset="0.8346" stop-color="#AFD243"/>
<stop offset="0.8525" stop-color="#BCD747"/>
<stop offset="0.8812" stop-color="#C8DB4B"/>
<stop offset="0.919" stop-color="#D1DE4C"/>
<stop offset="1" stop-color="#D2DF4E"/>
</linearGradient>
<linearGradient id="paint31_linear_2149_6499" x1="73.0843" y1="54.9161" x2="476.208" y2="91.6422" gradientUnits="userSpaceOnUse">
<stop stop-color="#06718A"/>
<stop offset="0.0834" stop-color="#08768E"/>
<stop offset="0.1776" stop-color="#0F8398"/>
<stop offset="0.277" stop-color="#1199AA"/>
<stop offset="0.3794" stop-color="#13B7C3"/>
<stop offset="0.3816" stop-color="#16B8C4"/>
<stop offset="0.3851" stop-color="#17AEBC"/>
<stop offset="0.3953" stop-color="#0B93A7"/>
<stop offset="0.4071" stop-color="#0E7D96"/>
<stop offset="0.4208" stop-color="#0A6D89"/>
<stop offset="0.4378" stop-color="#0B6280"/>
<stop offset="0.4617" stop-color="#055B7A"/>
<stop offset="0.5279" stop-color="#065978"/>
<stop offset="0.5382" stop-color="#297475"/>
<stop offset="0.5511" stop-color="#508F73"/>
<stop offset="0.565" stop-color="#71A771"/>
<stop offset="0.5797" stop-color="#8CBB6F"/>
<stop offset="0.5956" stop-color="#A1CA6D"/>
<stop offset="0.6133" stop-color="#B0D46C"/>
<stop offset="0.6343" stop-color="#B9D76D"/>
<stop offset="0.6665" stop-color="#BCD86E"/>
<stop offset="0.691" stop-color="#B5D559"/>
<stop offset="0.721" stop-color="#B2D34C"/>
<stop offset="0.7595" stop-color="#B1D244"/>
<stop offset="0.8346" stop-color="#AFD243"/>
<stop offset="0.8525" stop-color="#BCD747"/>
<stop offset="0.8812" stop-color="#C8DB4B"/>
<stop offset="0.919" stop-color="#D1DE4C"/>
<stop offset="1" stop-color="#D2DF4E"/>
</linearGradient>
<linearGradient id="paint32_linear_2149_6499" x1="71.2897" y1="54.4565" x2="481.975" y2="91.8715" gradientUnits="userSpaceOnUse">
<stop stop-color="#06718A"/>
<stop offset="0.0834" stop-color="#08768E"/>
<stop offset="0.1776" stop-color="#0F8398"/>
<stop offset="0.277" stop-color="#1199AA"/>
<stop offset="0.3794" stop-color="#13B7C3"/>
<stop offset="0.3816" stop-color="#16B8C4"/>
<stop offset="0.3851" stop-color="#17AEBC"/>
<stop offset="0.3953" stop-color="#0B93A7"/>
<stop offset="0.4071" stop-color="#0E7D96"/>
<stop offset="0.4208" stop-color="#0A6D89"/>
<stop offset="0.4378" stop-color="#0B6280"/>
<stop offset="0.4617" stop-color="#055B7A"/>
<stop offset="0.5279" stop-color="#065978"/>
<stop offset="0.5382" stop-color="#297475"/>
<stop offset="0.5511" stop-color="#508F73"/>
<stop offset="0.565" stop-color="#71A771"/>
<stop offset="0.5797" stop-color="#8CBB6F"/>
<stop offset="0.5956" stop-color="#A1CA6D"/>
<stop offset="0.6133" stop-color="#B0D46C"/>
<stop offset="0.6343" stop-color="#B9D76D"/>
<stop offset="0.6665" stop-color="#BCD86E"/>
<stop offset="0.691" stop-color="#B5D559"/>
<stop offset="0.721" stop-color="#B2D34C"/>
<stop offset="0.7595" stop-color="#B1D244"/>
<stop offset="0.8346" stop-color="#AFD243"/>
<stop offset="0.8525" stop-color="#BCD747"/>
<stop offset="0.8812" stop-color="#C8DB4B"/>
<stop offset="0.919" stop-color="#D1DE4C"/>
<stop offset="1" stop-color="#D2DF4E"/>
</linearGradient>
<linearGradient id="paint33_linear_2149_6499" x1="74.4749" y1="49.9202" x2="473.788" y2="86.2993" gradientUnits="userSpaceOnUse">
<stop stop-color="#06718A"/>
<stop offset="0.0834" stop-color="#08768E"/>
<stop offset="0.1776" stop-color="#0F8398"/>
<stop offset="0.277" stop-color="#1199AA"/>
<stop offset="0.3794" stop-color="#13B7C3"/>
<stop offset="0.3816" stop-color="#16B8C4"/>
<stop offset="0.3851" stop-color="#17AEBC"/>
<stop offset="0.3953" stop-color="#0B93A7"/>
<stop offset="0.4071" stop-color="#0E7D96"/>
<stop offset="0.4208" stop-color="#0A6D89"/>
<stop offset="0.4378" stop-color="#0B6280"/>
<stop offset="0.4617" stop-color="#055B7A"/>
<stop offset="0.5279" stop-color="#065978"/>
<stop offset="0.5382" stop-color="#297475"/>
<stop offset="0.5511" stop-color="#508F73"/>
<stop offset="0.565" stop-color="#71A771"/>
<stop offset="0.5797" stop-color="#8CBB6F"/>
<stop offset="0.5956" stop-color="#A1CA6D"/>
<stop offset="0.6133" stop-color="#B0D46C"/>
<stop offset="0.6343" stop-color="#B9D76D"/>
<stop offset="0.6665" stop-color="#BCD86E"/>
<stop offset="0.691" stop-color="#B5D559"/>
<stop offset="0.721" stop-color="#B2D34C"/>
<stop offset="0.7595" stop-color="#B1D244"/>
<stop offset="0.8346" stop-color="#AFD243"/>
<stop offset="0.8525" stop-color="#BCD747"/>
<stop offset="0.8812" stop-color="#C8DB4B"/>
<stop offset="0.919" stop-color="#D1DE4C"/>
<stop offset="1" stop-color="#D2DF4E"/>
</linearGradient>
<linearGradient id="paint34_linear_2149_6499" x1="74.6706" y1="59.6808" x2="468.32" y2="95.543" gradientUnits="userSpaceOnUse">
<stop stop-color="#06718A"/>
<stop offset="0.0834" stop-color="#08768E"/>
<stop offset="0.1776" stop-color="#0F8398"/>
<stop offset="0.277" stop-color="#1199AA"/>
<stop offset="0.3794" stop-color="#13B7C3"/>
<stop offset="0.3816" stop-color="#16B8C4"/>
<stop offset="0.3851" stop-color="#17AEBC"/>
<stop offset="0.3953" stop-color="#0B93A7"/>
<stop offset="0.4071" stop-color="#0E7D96"/>
<stop offset="0.4208" stop-color="#0A6D89"/>
<stop offset="0.4378" stop-color="#0B6280"/>
<stop offset="0.4617" stop-color="#055B7A"/>
<stop offset="0.5279" stop-color="#065978"/>
<stop offset="0.5382" stop-color="#297475"/>
<stop offset="0.5511" stop-color="#508F73"/>
<stop offset="0.565" stop-color="#71A771"/>
<stop offset="0.5797" stop-color="#8CBB6F"/>
<stop offset="0.5956" stop-color="#A1CA6D"/>
<stop offset="0.6133" stop-color="#B0D46C"/>
<stop offset="0.6343" stop-color="#B9D76D"/>
<stop offset="0.6665" stop-color="#BCD86E"/>
<stop offset="0.691" stop-color="#B5D559"/>
<stop offset="0.721" stop-color="#B2D34C"/>
<stop offset="0.7595" stop-color="#B1D244"/>
<stop offset="0.8346" stop-color="#AFD243"/>
<stop offset="0.8525" stop-color="#BCD747"/>
<stop offset="0.8812" stop-color="#C8DB4B"/>
<stop offset="0.919" stop-color="#D1DE4C"/>
<stop offset="1" stop-color="#D2DF4E"/>
</linearGradient>
</defs>
</svg>
