<svg width="15" height="16" viewBox="0 0 15 16" fill="none" xmlns="http://www.w3.org/2000/svg">
<path fill-rule="evenodd" clip-rule="evenodd" d="M6.8257 0.955418C7.19866 0.748218 7.65215 0.748219 8.02511 0.955418L13.4136 3.94904C13.8057 4.16684 14.0488 4.58005 14.0488 5.02852V10.9715C14.0488 11.42 13.8057 11.8332 13.4136 12.051L8.02511 15.0446C7.65215 15.2518 7.19866 15.2518 6.8257 15.0446L1.43717 12.051C1.04514 11.8332 0.802002 11.42 0.802002 10.9715V5.02852C0.802002 4.58005 1.04514 4.16684 1.43717 3.94904L6.8257 0.955418ZM7.47992 1.93676C7.44601 1.91792 7.40479 1.91792 7.37088 1.93676L1.98235 4.93038C1.94672 4.95018 1.92461 4.98775 1.92461 5.02852V10.9715C1.92461 11.0123 1.94672 11.0499 1.98235 11.0697L7.37088 14.0633C7.40479 14.0821 7.44602 14.0821 7.47992 14.0633L12.8684 11.0697C12.9041 11.0499 12.9262 11.0123 12.9262 10.9715V5.02852C12.9262 4.98775 12.9041 4.95018 12.8684 4.93038L7.47992 1.93676Z" fill="#7367F0"/>
<path fill-rule="evenodd" clip-rule="evenodd" d="M3.87047 8.00002C3.87047 6.03668 5.46207 4.44509 7.4254 4.44509C9.38874 4.44509 10.9803 6.03668 10.9803 8.00002C10.9803 9.96335 9.38874 11.5549 7.4254 11.5549C5.46207 11.5549 3.87047 9.96335 3.87047 8.00002ZM7.4254 5.5677C6.08207 5.5677 4.99308 6.65668 4.99308 8.00002C4.99308 9.34335 6.08207 10.4323 7.4254 10.4323C8.76873 10.4323 9.85772 9.34335 9.85772 8.00002C9.85772 6.65668 8.76873 5.5677 7.4254 5.5677Z" fill="#7367F0"/>
</svg>
