<svg width="24" height="24" viewBox="0 0 24 24" fill="none" xmlns="http://www.w3.org/2000/svg">
<path d="M7.22217 11.3333C7.22217 10.7734 7.44459 10.2364 7.8405 9.8405C8.23641 9.44459 8.77338 9.22217 9.33328 9.22217H19.8888C20.4487 9.22217 20.9857 9.44459 21.3816 9.8405C21.7775 10.2364 21.9999 10.7734 21.9999 11.3333V17.6666C21.9999 18.2265 21.7775 18.7635 21.3816 19.1594C20.9857 19.5553 20.4487 19.7777 19.8888 19.7777H9.33328C8.77338 19.7777 8.23641 19.5553 7.8405 19.1594C7.44459 18.7635 7.22217 18.2265 7.22217 17.6666V11.3333Z" stroke="#696C76" stroke-width="1.5" stroke-linecap="round" stroke-linejoin="round"/>
<path d="M17.7778 9.22222V7.11111C17.7778 6.55121 17.5554 6.01424 17.1594 5.61833C16.7635 5.22242 16.2266 5 15.6667 5H5.11111C4.55121 5 4.01424 5.22242 3.61833 5.61833C3.22242 6.01424 3 6.55121 3 7.11111V13.4444C3 14.0043 3.22242 14.5413 3.61833 14.9372C4.01424 15.3331 4.55121 15.5556 5.11111 15.5556H7.22222M12.5 14.5C12.5 15.0599 12.7224 15.5969 13.1183 15.9928C13.5142 16.3887 14.0512 16.6111 14.6111 16.6111C15.171 16.6111 15.708 16.3887 16.1039 15.9928C16.4998 15.5969 16.7222 15.0599 16.7222 14.5C16.7222 13.9401 16.4998 13.4031 16.1039 13.0072C15.708 12.6113 15.171 12.3889 14.6111 12.3889C14.0512 12.3889 13.5142 12.6113 13.1183 13.0072C12.7224 13.4031 12.5 13.9401 12.5 14.5Z" stroke="#696C76" stroke-width="1.5" stroke-linecap="round" stroke-linejoin="round"/>
</svg>
