<svg width="19" height="19" viewBox="0 0 19 19" fill="none" xmlns="http://www.w3.org/2000/svg">
<path d="M7.91536 1.78125C7.58745 1.78125 7.32161 2.04708 7.32161 2.375V2.96875H3.95703C3.62911 2.96875 3.36328 3.23458 3.36328 3.5625C3.36328 3.89042 3.62911 4.15625 3.95703 4.15625H15.0404C15.3683 4.15625 15.6341 3.89042 15.6341 3.5625C15.6341 3.23458 15.3683 2.96875 15.0404 2.96875H11.6758V2.375C11.6758 2.04708 11.4099 1.78125 11.082 1.78125H7.91536Z" fill="#C9C9C9"/>
<path d="M7.91536 8.43124C8.24328 8.43124 8.50911 8.69708 8.50911 9.02499L8.50911 14.5667C8.50911 14.8946 8.24328 15.1604 7.91536 15.1604C7.58744 15.1604 7.32161 14.8946 7.32161 14.5667L7.32161 9.02499C7.32161 8.69708 7.58745 8.43124 7.91536 8.43124Z" fill="#C9C9C9"/>
<path d="M11.6758 9.02499C11.6758 8.69708 11.4099 8.43124 11.082 8.43124C10.7541 8.43124 10.4883 8.69708 10.4883 9.02499V14.5667C10.4883 14.8946 10.7541 15.1604 11.082 15.1604C11.4099 15.1604 11.6758 14.8946 11.6758 14.5667V9.02499Z" fill="#C9C9C9"/>
<path fill-rule="evenodd" clip-rule="evenodd" d="M4.74191 6.26776C4.77532 5.96707 5.02948 5.73958 5.33203 5.73958H13.6654C13.9679 5.73958 14.2221 5.96707 14.2555 6.26776L14.4139 7.69383C14.7012 10.2789 14.7012 12.8878 14.4139 15.4728L14.3983 15.6132C14.2843 16.6393 13.4891 17.4576 12.4666 17.6007C10.4976 17.8764 8.49979 17.8764 6.5308 17.6007C5.50833 17.4576 4.71307 16.6393 4.59906 15.6132L4.58346 15.4728C4.29623 12.8878 4.29623 10.2789 4.58346 7.69383L4.74191 6.26776ZM5.86346 6.92708L5.76369 7.82497C5.48615 10.3229 5.48615 12.8438 5.76369 15.3417L5.77929 15.4821C5.83337 15.9687 6.21053 16.3568 6.69545 16.4247C8.55521 16.685 10.4422 16.685 12.3019 16.4247C12.7869 16.3568 13.164 15.9687 13.2181 15.4821L13.2337 15.3417C13.5112 12.8438 13.5112 10.3229 13.2337 7.82497L13.1339 6.92708H5.86346Z" fill="#C9C9C9"/>
</svg>
