<svg width="23" height="23" viewBox="0 0 23 23" fill="none" xmlns="http://www.w3.org/2000/svg">
<path fill-rule="evenodd" clip-rule="evenodd" d="M7.46009 7.1195C7.46009 4.90763 9.3015 3.11456 11.573 3.11456C13.8445 3.11456 15.6859 4.90763 15.6859 7.1195C15.6859 9.33136 13.8445 11.1244 11.573 11.1244C9.3015 11.1244 7.46009 9.33136 7.46009 7.1195ZM11.573 4.52807C10.1032 4.52807 8.91171 5.68829 8.91171 7.1195C8.91171 8.5507 10.1032 9.71093 11.573 9.71093C13.0428 9.71093 14.2343 8.5507 14.2343 7.1195C14.2343 5.68829 13.0428 4.52807 11.573 4.52807Z" fill="#6D6976"/>
<path fill-rule="evenodd" clip-rule="evenodd" d="M7.70203 13.9514C6.49948 13.9514 5.52461 14.9007 5.52461 16.0717V17.1915C5.52461 17.2085 5.5373 17.2231 5.55458 17.2258C9.54047 17.8595 13.6055 17.8595 17.5914 17.2258C17.6087 17.2231 17.6214 17.2085 17.6214 17.1915V16.0717C17.6214 14.9007 16.6465 13.9514 15.444 13.9514H15.1141C15.0886 13.9514 15.0632 13.9554 15.039 13.9631L14.2014 14.2294C12.4935 14.7724 10.6525 14.7724 8.9446 14.2294L8.107 13.9631C8.08275 13.9554 8.05741 13.9514 8.0319 13.9514H7.70203ZM4.073 16.0717C4.073 14.1201 5.69777 12.5379 7.70203 12.5379H8.0319C8.21044 12.5379 8.38786 12.5654 8.55758 12.6194L9.39518 12.8857C10.8103 13.3357 12.3357 13.3357 13.7508 12.8857L14.5884 12.6194C14.7581 12.5654 14.9356 12.5379 15.1141 12.5379H15.444C17.4482 12.5379 19.073 14.1201 19.073 16.0717V17.1915C19.073 17.9013 18.5447 18.5065 17.8253 18.6208C13.6845 19.2791 9.46148 19.2791 5.32068 18.6208C4.60127 18.5065 4.073 17.9013 4.073 17.1915V16.0717Z" fill="#6D6976"/>
</svg>
