<svg width="18" height="19" viewBox="0 0 18 19" fill="none" xmlns="http://www.w3.org/2000/svg">
<path d="M15.2408 0.824219H1.98793C1.4607 0.824219 0.955059 1.05111 0.582251 1.45499C0.209442 1.85887 0 2.40664 0 2.97781V13.0279C0 13.5991 0.209442 14.1468 0.582251 14.5507C0.955059 14.9546 1.4607 15.1815 1.98793 15.1815H7.95171V16.6172H5.96378C5.78804 16.6172 5.61949 16.6928 5.49522 16.8275C5.37095 16.9621 5.30114 17.1447 5.30114 17.3351C5.30114 17.5255 5.37095 17.708 5.49522 17.8427C5.61949 17.9773 5.78804 18.0529 5.96378 18.0529H11.2649C11.4407 18.0529 11.6092 17.9773 11.7335 17.8427C11.8578 17.708 11.9276 17.5255 11.9276 17.3351C11.9276 17.1447 11.8578 16.9621 11.7335 16.8275C11.6092 16.6928 11.4407 16.6172 11.2649 16.6172H9.277V15.1815H15.2408C15.768 15.1815 16.2736 14.9546 16.6465 14.5507C17.0193 14.1468 17.2287 13.5991 17.2287 13.0279V2.97781C17.2287 2.40664 17.0193 1.85887 16.6465 1.45499C16.2736 1.05111 15.768 0.824219 15.2408 0.824219ZM1.98793 2.25994H15.2408C15.4165 2.25994 15.5851 2.33558 15.7093 2.4702C15.8336 2.60483 15.9034 2.78742 15.9034 2.97781V10.1564H1.32529V2.97781C1.32529 2.78742 1.3951 2.60483 1.51937 2.4702C1.64364 2.33558 1.81218 2.25994 1.98793 2.25994ZM15.2408 13.7457H1.98793C1.81218 13.7457 1.64364 13.6701 1.51937 13.5355C1.3951 13.4009 1.32529 13.2183 1.32529 13.0279V11.5922H15.9034V13.0279C15.9034 13.2183 15.8336 13.4009 15.7093 13.5355C15.5851 13.6701 15.4165 13.7457 15.2408 13.7457Z" fill="#6D6976"/>
</svg>
