<svg width="17" height="18" viewBox="0 0 17 18" fill="none" xmlns="http://www.w3.org/2000/svg">
<path d="M0 0.412109V16.1978H10.4615V14.9835H1.30769V1.6264H7.84615V5.26925H11.7692V6.48354H13.0769V4.41925L12.8808 4.23711L8.95769 0.594252L8.76154 0.412109H0ZM9.15385 2.4764L10.8538 4.05497H9.15385V2.4764ZM2.61538 6.48354V7.69782H10.4615V6.48354H2.61538ZM13.7308 7.69782V8.91211C12.6192 9.09425 11.7692 9.94425 11.7692 11.0371C11.7692 12.2514 12.75 13.1621 14.0577 13.1621H14.7115C15.2346 13.1621 15.6923 13.5871 15.6923 14.0728C15.6923 14.5585 15.2346 14.9835 14.7115 14.9835H12.4231V16.1978H13.7308V17.4121H15.0385V16.1978C16.15 16.0157 17 15.1657 17 14.0728C17 12.8585 16.0192 11.9478 14.7115 11.9478H14.0577C13.5346 11.9478 13.0769 11.5228 13.0769 11.0371C13.0769 10.5514 13.5346 10.1264 14.0577 10.1264H16.3462V8.91211H15.0385V7.69782H13.7308ZM2.61538 9.51925V10.7335H7.19231V9.51925H2.61538ZM8.5 9.51925V10.7335H10.4615V9.51925H8.5ZM2.61538 11.9478V13.1621H7.19231V11.9478H2.61538ZM8.5 11.9478V13.1621H10.4615V11.9478H8.5Z" fill="#6D6976"/>
</svg>
