<svg width="18" height="18" viewBox="0 0 18 18" fill="none" xmlns="http://www.w3.org/2000/svg">
<path d="M8.61435 17.6144C3.85665 17.6144 0 13.7578 0 9.0001C0 4.24239 3.85665 0.385742 8.61435 0.385742C13.3721 0.385742 17.2287 4.24239 17.2287 9.0001C17.2287 13.7578 13.3721 17.6144 8.61435 17.6144ZM8.61435 15.8916C10.4421 15.8916 12.195 15.1655 13.4874 13.8731C14.7798 12.5807 15.5058 10.8278 15.5058 9.0001C15.5058 7.17236 14.7798 5.41948 13.4874 4.12708C12.195 2.83468 10.4421 2.10861 8.61435 2.10861C6.78662 2.10861 5.03374 2.83468 3.74134 4.12708C2.44894 5.41948 1.72287 7.17236 1.72287 9.0001C1.72287 10.8278 2.44894 12.5807 3.74134 13.8731C5.03374 15.1655 6.78662 15.8916 8.61435 15.8916ZM9.47579 9.0001H12.9215V10.723H7.75292V4.69292H9.47579V9.0001Z" fill="#6D6976"/>
</svg>
